%TF.GenerationSoftware,KiCad,Pcbnew,(5.1.6-0-10_14)*%
%TF.CreationDate,2020-12-13T12:36:13-06:00*%
%TF.ProjectId,auxboxPanel,61757862-6f78-4506-916e-656c2e6b6963,rev?*%
%TF.SameCoordinates,Original*%
%TF.FileFunction,Soldermask,Bot*%
%TF.FilePolarity,Negative*%
%FSLAX46Y46*%
G04 Gerber Fmt 4.6, Leading zero omitted, Abs format (unit mm)*
G04 Created by KiCad (PCBNEW (5.1.6-0-10_14)) date 2020-12-13 12:36:13*
%MOMM*%
%LPD*%
G01*
G04 APERTURE LIST*
%ADD10C,0.300000*%
%ADD11C,0.250000*%
%ADD12C,6.600000*%
%ADD13C,7.600000*%
%ADD14C,3.600000*%
G04 APERTURE END LIST*
D10*
X60366100Y-86751809D02*
X60488167Y-86808730D01*
X60431246Y-86930798D01*
X60309178Y-86873876D01*
X60366100Y-86751809D01*
X60431246Y-86930798D01*
X60170660Y-86214841D02*
X59690285Y-85173480D01*
X59747206Y-85051412D01*
X59869274Y-85108334D01*
X60170660Y-86214841D01*
X59747206Y-85051412D01*
D11*
X64310638Y-64126442D02*
X64358257Y-64174061D01*
X64501114Y-64221680D01*
X64596352Y-64221680D01*
X64739209Y-64174061D01*
X64834447Y-64078823D01*
X64882066Y-63983585D01*
X64929685Y-63793109D01*
X64929685Y-63650252D01*
X64882066Y-63459776D01*
X64834447Y-63364538D01*
X64739209Y-63269300D01*
X64596352Y-63221680D01*
X64501114Y-63221680D01*
X64358257Y-63269300D01*
X64310638Y-63316919D01*
X63310638Y-64126442D02*
X63358257Y-64174061D01*
X63501114Y-64221680D01*
X63596352Y-64221680D01*
X63739209Y-64174061D01*
X63834447Y-64078823D01*
X63882066Y-63983585D01*
X63929685Y-63793109D01*
X63929685Y-63650252D01*
X63882066Y-63459776D01*
X63834447Y-63364538D01*
X63739209Y-63269300D01*
X63596352Y-63221680D01*
X63501114Y-63221680D01*
X63358257Y-63269300D01*
X63310638Y-63316919D01*
X61786828Y-63697871D02*
X61643971Y-63745490D01*
X61596352Y-63793109D01*
X61548733Y-63888347D01*
X61548733Y-64031204D01*
X61596352Y-64126442D01*
X61643971Y-64174061D01*
X61739209Y-64221680D01*
X62120161Y-64221680D01*
X62120161Y-63221680D01*
X61786828Y-63221680D01*
X61691590Y-63269300D01*
X61643971Y-63316919D01*
X61596352Y-63412157D01*
X61596352Y-63507395D01*
X61643971Y-63602633D01*
X61691590Y-63650252D01*
X61786828Y-63697871D01*
X62120161Y-63697871D01*
X60929685Y-63745490D02*
X60929685Y-64221680D01*
X61263019Y-63221680D02*
X60929685Y-63745490D01*
X60596352Y-63221680D01*
X60263019Y-63840728D02*
X59501114Y-63840728D01*
X59072542Y-64174061D02*
X58929685Y-64221680D01*
X58691590Y-64221680D01*
X58596352Y-64174061D01*
X58548733Y-64126442D01*
X58501114Y-64031204D01*
X58501114Y-63935966D01*
X58548733Y-63840728D01*
X58596352Y-63793109D01*
X58691590Y-63745490D01*
X58882066Y-63697871D01*
X58977304Y-63650252D01*
X59024923Y-63602633D01*
X59072542Y-63507395D01*
X59072542Y-63412157D01*
X59024923Y-63316919D01*
X58977304Y-63269300D01*
X58882066Y-63221680D01*
X58643971Y-63221680D01*
X58501114Y-63269300D01*
X58120161Y-63935966D02*
X57643971Y-63935966D01*
X58215400Y-64221680D02*
X57882066Y-63221680D01*
X57548733Y-64221680D01*
X56024923Y-63555014D02*
X56024923Y-64221680D01*
X56263019Y-63174061D02*
X56501114Y-63888347D01*
X55882066Y-63888347D01*
X55501114Y-64126442D02*
X55453495Y-64174061D01*
X55501114Y-64221680D01*
X55548733Y-64174061D01*
X55501114Y-64126442D01*
X55501114Y-64221680D01*
X54834447Y-63221680D02*
X54739209Y-63221680D01*
X54643971Y-63269300D01*
X54596352Y-63316919D01*
X54548733Y-63412157D01*
X54501114Y-63602633D01*
X54501114Y-63840728D01*
X54548733Y-64031204D01*
X54596352Y-64126442D01*
X54643971Y-64174061D01*
X54739209Y-64221680D01*
X54834447Y-64221680D01*
X54929685Y-64174061D01*
X54977304Y-64126442D01*
X55024923Y-64031204D01*
X55072542Y-63840728D01*
X55072542Y-63602633D01*
X55024923Y-63412157D01*
X54977304Y-63316919D01*
X54929685Y-63269300D01*
X54834447Y-63221680D01*
X63572542Y-65447871D02*
X63429685Y-65495490D01*
X63382066Y-65543109D01*
X63334447Y-65638347D01*
X63334447Y-65781204D01*
X63382066Y-65876442D01*
X63429685Y-65924061D01*
X63524923Y-65971680D01*
X63905876Y-65971680D01*
X63905876Y-64971680D01*
X63572542Y-64971680D01*
X63477304Y-65019300D01*
X63429685Y-65066919D01*
X63382066Y-65162157D01*
X63382066Y-65257395D01*
X63429685Y-65352633D01*
X63477304Y-65400252D01*
X63572542Y-65447871D01*
X63905876Y-65447871D01*
X62905876Y-65447871D02*
X62572542Y-65447871D01*
X62429685Y-65971680D02*
X62905876Y-65971680D01*
X62905876Y-64971680D01*
X62429685Y-64971680D01*
X62001114Y-65971680D02*
X62001114Y-64971680D01*
X61429685Y-65971680D01*
X61429685Y-64971680D01*
X60191590Y-65971680D02*
X60191590Y-64971680D01*
X59858257Y-65685966D01*
X59524923Y-64971680D01*
X59524923Y-65971680D01*
X58858257Y-64971680D02*
X58667780Y-64971680D01*
X58572542Y-65019300D01*
X58477304Y-65114538D01*
X58429685Y-65305014D01*
X58429685Y-65638347D01*
X58477304Y-65828823D01*
X58572542Y-65924061D01*
X58667780Y-65971680D01*
X58858257Y-65971680D01*
X58953495Y-65924061D01*
X59048733Y-65828823D01*
X59096352Y-65638347D01*
X59096352Y-65305014D01*
X59048733Y-65114538D01*
X58953495Y-65019300D01*
X58858257Y-64971680D01*
X57429685Y-65971680D02*
X57763019Y-65495490D01*
X58001114Y-65971680D02*
X58001114Y-64971680D01*
X57620161Y-64971680D01*
X57524923Y-65019300D01*
X57477304Y-65066919D01*
X57429685Y-65162157D01*
X57429685Y-65305014D01*
X57477304Y-65400252D01*
X57524923Y-65447871D01*
X57620161Y-65495490D01*
X58001114Y-65495490D01*
X57001114Y-65447871D02*
X56667780Y-65447871D01*
X56524923Y-65971680D02*
X57001114Y-65971680D01*
X57001114Y-64971680D01*
X56524923Y-64971680D01*
X56096352Y-65971680D02*
X56096352Y-64971680D01*
X55524923Y-65971680D01*
X55524923Y-64971680D01*
X63239209Y-66721680D02*
X63001114Y-67721680D01*
X62810638Y-67007395D01*
X62620161Y-67721680D01*
X62382066Y-66721680D01*
X62143971Y-66721680D02*
X61572542Y-66721680D01*
X61858257Y-67721680D02*
X61858257Y-66721680D01*
X60905876Y-67197871D02*
X61239209Y-67197871D01*
X61239209Y-67721680D02*
X61239209Y-66721680D01*
X60763019Y-66721680D01*
X59667780Y-66816919D02*
X59620161Y-66769300D01*
X59524923Y-66721680D01*
X59286828Y-66721680D01*
X59191590Y-66769300D01*
X59143971Y-66816919D01*
X59096352Y-66912157D01*
X59096352Y-67007395D01*
X59143971Y-67150252D01*
X59715400Y-67721680D01*
X59096352Y-67721680D01*
X58477304Y-66721680D02*
X58382066Y-66721680D01*
X58286828Y-66769300D01*
X58239209Y-66816919D01*
X58191590Y-66912157D01*
X58143971Y-67102633D01*
X58143971Y-67340728D01*
X58191590Y-67531204D01*
X58239209Y-67626442D01*
X58286828Y-67674061D01*
X58382066Y-67721680D01*
X58477304Y-67721680D01*
X58572542Y-67674061D01*
X58620161Y-67626442D01*
X58667780Y-67531204D01*
X58715400Y-67340728D01*
X58715400Y-67102633D01*
X58667780Y-66912157D01*
X58620161Y-66816919D01*
X58572542Y-66769300D01*
X58477304Y-66721680D01*
X57763019Y-66816919D02*
X57715400Y-66769300D01*
X57620161Y-66721680D01*
X57382066Y-66721680D01*
X57286828Y-66769300D01*
X57239209Y-66816919D01*
X57191590Y-66912157D01*
X57191590Y-67007395D01*
X57239209Y-67150252D01*
X57810638Y-67721680D01*
X57191590Y-67721680D01*
X56572542Y-66721680D02*
X56477304Y-66721680D01*
X56382066Y-66769300D01*
X56334447Y-66816919D01*
X56286828Y-66912157D01*
X56239209Y-67102633D01*
X56239209Y-67340728D01*
X56286828Y-67531204D01*
X56334447Y-67626442D01*
X56382066Y-67674061D01*
X56477304Y-67721680D01*
X56572542Y-67721680D01*
X56667780Y-67674061D01*
X56715400Y-67626442D01*
X56763019Y-67531204D01*
X56810638Y-67340728D01*
X56810638Y-67102633D01*
X56763019Y-66912157D01*
X56715400Y-66816919D01*
X56667780Y-66769300D01*
X56572542Y-66721680D01*
D12*
%TO.C,REF\u002A\u002A*%
X55000000Y-56990000D03*
%TD*%
%TO.C,REF\u002A\u002A*%
X65000000Y-56990000D03*
%TD*%
D13*
%TO.C,REF\u002A\u002A*%
X60000000Y-73683899D03*
%TD*%
D12*
%TO.C,REF\u002A\u002A*%
X60000000Y-95756799D03*
%TD*%
%TO.C,REF\u002A\u002A*%
X60000000Y-113650698D03*
%TD*%
D13*
%TO.C,REF\u002A\u002A*%
X60000000Y-130344597D03*
%TD*%
D12*
%TO.C,REF\u002A\u002A*%
X60000000Y-153088500D03*
%TD*%
D14*
%TO.C,REF\u002A\u002A*%
X57500000Y-43750000D03*
%TD*%
%TO.C,REF\u002A\u002A*%
X57500000Y-166250000D03*
%TD*%
M02*
