%TF.GenerationSoftware,KiCad,Pcbnew,(5.1.6-0-10_14)*%
%TF.CreationDate,2020-12-13T12:36:13-06:00*%
%TF.ProjectId,auxboxPanel,61757862-6f78-4506-916e-656c2e6b6963,rev?*%
%TF.SameCoordinates,Original*%
%TF.FileFunction,Other,Fab,Top*%
%FSLAX46Y46*%
G04 Gerber Fmt 4.6, Leading zero omitted, Abs format (unit mm)*
G04 Created by KiCad (PCBNEW (5.1.6-0-10_14)) date 2020-12-13 12:36:13*
%MOMM*%
%LPD*%
G01*
G04 APERTURE LIST*
%ADD10C,0.100000*%
%ADD11C,0.150000*%
G04 APERTURE END LIST*
D10*
%TO.C,REF\u002A\u002A*%
X57154066Y-57000000D02*
G75*
G03*
X57154066Y-57000000I-2154066J0D01*
G01*
X67154066Y-57000000D02*
G75*
G03*
X67154066Y-57000000I-2154066J0D01*
G01*
X62154066Y-73693899D02*
G75*
G03*
X62154066Y-73693899I-2154066J0D01*
G01*
X62154066Y-95766799D02*
G75*
G03*
X62154066Y-95766799I-2154066J0D01*
G01*
X62154066Y-113660698D02*
G75*
G03*
X62154066Y-113660698I-2154066J0D01*
G01*
X62154066Y-130354597D02*
G75*
G03*
X62154066Y-130354597I-2154066J0D01*
G01*
X62154066Y-153098500D02*
G75*
G03*
X62154066Y-153098500I-2154066J0D01*
G01*
%TD*%
%TO.C,REF\u002A\u002A*%
D11*
X54142857Y-58202380D02*
X53571428Y-58202380D01*
X53857142Y-58202380D02*
X53857142Y-57202380D01*
X53761904Y-57345238D01*
X53666666Y-57440476D01*
X53571428Y-57488095D01*
X54571428Y-57535714D02*
X54571428Y-58535714D01*
X54571428Y-57583333D02*
X54666666Y-57535714D01*
X54857142Y-57535714D01*
X54952380Y-57583333D01*
X55000000Y-57630952D01*
X55047619Y-57726190D01*
X55047619Y-58011904D01*
X55000000Y-58107142D01*
X54952380Y-58154761D01*
X54857142Y-58202380D01*
X54666666Y-58202380D01*
X54571428Y-58154761D01*
X55476190Y-58202380D02*
X55476190Y-57535714D01*
X55476190Y-57202380D02*
X55428571Y-57250000D01*
X55476190Y-57297619D01*
X55523809Y-57250000D01*
X55476190Y-57202380D01*
X55476190Y-57297619D01*
X55952380Y-57535714D02*
X55952380Y-58202380D01*
X55952380Y-57630952D02*
X56000000Y-57583333D01*
X56095238Y-57535714D01*
X56238095Y-57535714D01*
X56333333Y-57583333D01*
X56380952Y-57678571D01*
X56380952Y-58202380D01*
X64142857Y-58202380D02*
X63571428Y-58202380D01*
X63857142Y-58202380D02*
X63857142Y-57202380D01*
X63761904Y-57345238D01*
X63666666Y-57440476D01*
X63571428Y-57488095D01*
X64571428Y-57535714D02*
X64571428Y-58535714D01*
X64571428Y-57583333D02*
X64666666Y-57535714D01*
X64857142Y-57535714D01*
X64952380Y-57583333D01*
X65000000Y-57630952D01*
X65047619Y-57726190D01*
X65047619Y-58011904D01*
X65000000Y-58107142D01*
X64952380Y-58154761D01*
X64857142Y-58202380D01*
X64666666Y-58202380D01*
X64571428Y-58154761D01*
X65476190Y-58202380D02*
X65476190Y-57535714D01*
X65476190Y-57202380D02*
X65428571Y-57250000D01*
X65476190Y-57297619D01*
X65523809Y-57250000D01*
X65476190Y-57202380D01*
X65476190Y-57297619D01*
X65952380Y-57535714D02*
X65952380Y-58202380D01*
X65952380Y-57630952D02*
X66000000Y-57583333D01*
X66095238Y-57535714D01*
X66238095Y-57535714D01*
X66333333Y-57583333D01*
X66380952Y-57678571D01*
X66380952Y-58202380D01*
X59142857Y-74896279D02*
X58571428Y-74896279D01*
X58857142Y-74896279D02*
X58857142Y-73896279D01*
X58761904Y-74039137D01*
X58666666Y-74134375D01*
X58571428Y-74181994D01*
X59571428Y-74229613D02*
X59571428Y-75229613D01*
X59571428Y-74277232D02*
X59666666Y-74229613D01*
X59857142Y-74229613D01*
X59952380Y-74277232D01*
X60000000Y-74324851D01*
X60047619Y-74420089D01*
X60047619Y-74705803D01*
X60000000Y-74801041D01*
X59952380Y-74848660D01*
X59857142Y-74896279D01*
X59666666Y-74896279D01*
X59571428Y-74848660D01*
X60476190Y-74896279D02*
X60476190Y-74229613D01*
X60476190Y-73896279D02*
X60428571Y-73943899D01*
X60476190Y-73991518D01*
X60523809Y-73943899D01*
X60476190Y-73896279D01*
X60476190Y-73991518D01*
X60952380Y-74229613D02*
X60952380Y-74896279D01*
X60952380Y-74324851D02*
X61000000Y-74277232D01*
X61095238Y-74229613D01*
X61238095Y-74229613D01*
X61333333Y-74277232D01*
X61380952Y-74372470D01*
X61380952Y-74896279D01*
X59142857Y-96969179D02*
X58571428Y-96969179D01*
X58857142Y-96969179D02*
X58857142Y-95969179D01*
X58761904Y-96112037D01*
X58666666Y-96207275D01*
X58571428Y-96254894D01*
X59571428Y-96302513D02*
X59571428Y-97302513D01*
X59571428Y-96350132D02*
X59666666Y-96302513D01*
X59857142Y-96302513D01*
X59952380Y-96350132D01*
X60000000Y-96397751D01*
X60047619Y-96492989D01*
X60047619Y-96778703D01*
X60000000Y-96873941D01*
X59952380Y-96921560D01*
X59857142Y-96969179D01*
X59666666Y-96969179D01*
X59571428Y-96921560D01*
X60476190Y-96969179D02*
X60476190Y-96302513D01*
X60476190Y-95969179D02*
X60428571Y-96016799D01*
X60476190Y-96064418D01*
X60523809Y-96016799D01*
X60476190Y-95969179D01*
X60476190Y-96064418D01*
X60952380Y-96302513D02*
X60952380Y-96969179D01*
X60952380Y-96397751D02*
X61000000Y-96350132D01*
X61095238Y-96302513D01*
X61238095Y-96302513D01*
X61333333Y-96350132D01*
X61380952Y-96445370D01*
X61380952Y-96969179D01*
X59142857Y-114863078D02*
X58571428Y-114863078D01*
X58857142Y-114863078D02*
X58857142Y-113863078D01*
X58761904Y-114005936D01*
X58666666Y-114101174D01*
X58571428Y-114148793D01*
X59571428Y-114196412D02*
X59571428Y-115196412D01*
X59571428Y-114244031D02*
X59666666Y-114196412D01*
X59857142Y-114196412D01*
X59952380Y-114244031D01*
X60000000Y-114291650D01*
X60047619Y-114386888D01*
X60047619Y-114672602D01*
X60000000Y-114767840D01*
X59952380Y-114815459D01*
X59857142Y-114863078D01*
X59666666Y-114863078D01*
X59571428Y-114815459D01*
X60476190Y-114863078D02*
X60476190Y-114196412D01*
X60476190Y-113863078D02*
X60428571Y-113910698D01*
X60476190Y-113958317D01*
X60523809Y-113910698D01*
X60476190Y-113863078D01*
X60476190Y-113958317D01*
X60952380Y-114196412D02*
X60952380Y-114863078D01*
X60952380Y-114291650D02*
X61000000Y-114244031D01*
X61095238Y-114196412D01*
X61238095Y-114196412D01*
X61333333Y-114244031D01*
X61380952Y-114339269D01*
X61380952Y-114863078D01*
X59142857Y-131556977D02*
X58571428Y-131556977D01*
X58857142Y-131556977D02*
X58857142Y-130556977D01*
X58761904Y-130699835D01*
X58666666Y-130795073D01*
X58571428Y-130842692D01*
X59571428Y-130890311D02*
X59571428Y-131890311D01*
X59571428Y-130937930D02*
X59666666Y-130890311D01*
X59857142Y-130890311D01*
X59952380Y-130937930D01*
X60000000Y-130985549D01*
X60047619Y-131080787D01*
X60047619Y-131366501D01*
X60000000Y-131461739D01*
X59952380Y-131509358D01*
X59857142Y-131556977D01*
X59666666Y-131556977D01*
X59571428Y-131509358D01*
X60476190Y-131556977D02*
X60476190Y-130890311D01*
X60476190Y-130556977D02*
X60428571Y-130604597D01*
X60476190Y-130652216D01*
X60523809Y-130604597D01*
X60476190Y-130556977D01*
X60476190Y-130652216D01*
X60952380Y-130890311D02*
X60952380Y-131556977D01*
X60952380Y-130985549D02*
X61000000Y-130937930D01*
X61095238Y-130890311D01*
X61238095Y-130890311D01*
X61333333Y-130937930D01*
X61380952Y-131033168D01*
X61380952Y-131556977D01*
X59142857Y-154300880D02*
X58571428Y-154300880D01*
X58857142Y-154300880D02*
X58857142Y-153300880D01*
X58761904Y-153443738D01*
X58666666Y-153538976D01*
X58571428Y-153586595D01*
X59571428Y-153634214D02*
X59571428Y-154634214D01*
X59571428Y-153681833D02*
X59666666Y-153634214D01*
X59857142Y-153634214D01*
X59952380Y-153681833D01*
X60000000Y-153729452D01*
X60047619Y-153824690D01*
X60047619Y-154110404D01*
X60000000Y-154205642D01*
X59952380Y-154253261D01*
X59857142Y-154300880D01*
X59666666Y-154300880D01*
X59571428Y-154253261D01*
X60476190Y-154300880D02*
X60476190Y-153634214D01*
X60476190Y-153300880D02*
X60428571Y-153348500D01*
X60476190Y-153396119D01*
X60523809Y-153348500D01*
X60476190Y-153300880D01*
X60476190Y-153396119D01*
X60952380Y-153634214D02*
X60952380Y-154300880D01*
X60952380Y-153729452D02*
X61000000Y-153681833D01*
X61095238Y-153634214D01*
X61238095Y-153634214D01*
X61333333Y-153681833D01*
X61380952Y-153777071D01*
X61380952Y-154300880D01*
%TD*%
M02*
