<?xml version="1.0" standalone="no"?>
 <!DOCTYPE svg PUBLIC "-//W3C//DTD SVG 1.1//EN" 
 "http://www.w3.org/Graphics/SVG/1.1/DTD/svg11.dtd"> 
<svg
  xmlns:svg="http://www.w3.org/2000/svg"
  xmlns="http://www.w3.org/2000/svg"
  xmlns:xlink="http://www.w3.org/1999/xlink"
  version="1.1"
  width="29.700220cm" height="21.000720cm" viewBox="0 0 116930 82680">
<title>SVG Picture created as auxboxPanel-drl_map.svg date 2020/11/23 16:40:15 </title>
  <desc>Picture generated by PCBNEW </desc>
<g style="fill:#000000; fill-opacity:1;stroke:#000000; stroke-opacity:1;
stroke-linecap:round; stroke-linejoin:round;"
 transform="translate(0 0) scale(1 1)">
</g>
<g style="fill:#000000; fill-opacity:0.0; 
stroke:#000000; stroke-width:-0.000393701; stroke-opacity:1; 
stroke-linecap:round; stroke-linejoin:round;">
</g>
<g style="fill:#000000; fill-opacity:0.0; 
stroke:#000000; stroke-width:19.685; stroke-opacity:1; 
stroke-linecap:round; stroke-linejoin:round;">
<path d="M19685 66633
L27559 66633
" />
<path d="M19685 16043
L27559 16043
" />
<path d="M27559 16043
L27559 66633
" />
<path d="M19685 16043
L19685 66633
" />
</g>
<g style="fill:#000000; fill-opacity:0.0; 
stroke:#000000; stroke-width:78.7402; stroke-opacity:1; 
stroke-linecap:round; stroke-linejoin:round;">
<path d="M22007 16594
L23267 17854
" />
<path d="M23267 16594
L22007 17854
" />
<path d="M22007 64822
L23267 66082
" />
<path d="M23267 64822
L22007 66082
" />
<circle cx="23622" cy="60271.1" r="1220.47" /> 
<circle cx="23622" cy="51316.8" r="1220.47" /> 
<circle cx="23622" cy="44744.4" r="1220.47" /> 
<circle cx="23622" cy="29009.4" r="1220.47" /> 
<circle cx="23622" cy="37699.5" r="1220.47" /> 
<circle cx="25590.6" cy="22437" r="1220.47" /> 
<circle cx="21653.5" cy="22437" r="1220.47" /> 
</g>
<g style="fill:#000000; fill-opacity:0.0; 
stroke:#000000; stroke-width:118.11; stroke-opacity:1; 
stroke-linecap:round; stroke-linejoin:round;">
<text x="20462.6" y="68533.5"
textLength="8789.37" font-size="1574.8" lengthAdjust="spacingAndGlyphs"
text-anchor="start" opacity="0">Drill Map:</text>
<path d="M20802 68477
L20802 67296
L21084 67296
L21252 67352
L21365 67464
L21421 67577
L21477 67802
L21477 67971
L21421 68196
L21365 68308
L21252 68420
L21084 68477
L20802 68477
" />
<path d="M21983 68477
L21983 67689
" />
<path d="M21983 67914
L22040 67802
L22096 67746
L22208 67689
L22321 67689
" />
<path d="M22715 68477
L22715 67689
" />
<path d="M22715 67296
L22658 67352
L22715 67408
L22771 67352
L22715 67296
L22715 67408
" />
<path d="M23446 68477
L23333 68420
L23277 68308
L23277 67296
" />
<path d="M24064 68477
L23952 68420
L23896 68308
L23896 67296
" />
<path d="M25414 68477
L25414 67296
L25808 68139
L26202 67296
L26202 68477
" />
<path d="M27270 68477
L27270 67858
L27214 67746
L27102 67689
L26877 67689
L26764 67746
" />
<path d="M27270 68420
L27158 68477
L26877 68477
L26764 68420
L26708 68308
L26708 68196
L26764 68083
L26877 68027
L27158 68027
L27270 67971
" />
<path d="M27833 67689
L27833 68870
" />
<path d="M27833 67746
L27945 67689
L28170 67689
L28283 67746
L28339 67802
L28395 67914
L28395 68252
L28339 68364
L28283 68420
L28170 68477
L27945 68477
L27833 68420
" />
<path d="M28901 68364
L28958 68420
L28901 68477
L28845 68420
L28901 68364
L28901 68477
" />
<path d="M28901 67746
L28958 67802
L28901 67858
L28845 67802
L28901 67746
L28901 67858
" />
<path d="M18415 69793
L19675 71053
" />
<path d="M19675 69793
L18415 71053
" />
<text x="20462.6" y="71013.8"
textLength="25427.4" font-size="1574.8" lengthAdjust="spacingAndGlyphs"
text-anchor="start" opacity="0">3.20mm / 0.126" (2 holes)</text>
<path d="M20690 69776
L21421 69776
L21027 70226
L21196 70226
L21309 70282
L21365 70338
L21421 70451
L21421 70732
L21365 70845
L21309 70901
L21196 70957
L20859 70957
L20746 70901
L20690 70845
" />
<path d="M21927 70845
L21983 70901
L21927 70957
L21871 70901
L21927 70845
L21927 70957
" />
<path d="M22433 69888
L22490 69832
L22602 69776
L22883 69776
L22996 69832
L23052 69888
L23108 70001
L23108 70113
L23052 70282
L22377 70957
L23108 70957
" />
<path d="M23839 69776
L23952 69776
L24064 69832
L24121 69888
L24177 70001
L24233 70226
L24233 70507
L24177 70732
L24121 70845
L24064 70901
L23952 70957
L23839 70957
L23727 70901
L23671 70845
L23615 70732
L23558 70507
L23558 70226
L23615 70001
L23671 69888
L23727 69832
L23839 69776
" />
<path d="M24739 70957
L24739 70170
" />
<path d="M24739 70282
L24796 70226
L24908 70170
L25077 70170
L25189 70226
L25246 70338
L25246 70957
" />
<path d="M25246 70338
L25302 70226
L25414 70170
L25583 70170
L25696 70226
L25752 70338
L25752 70957
" />
<path d="M26314 70957
L26314 70170
" />
<path d="M26314 70282
L26370 70226
L26483 70170
L26652 70170
L26764 70226
L26820 70338
L26820 70957
" />
<path d="M26820 70338
L26877 70226
L26989 70170
L27158 70170
L27270 70226
L27327 70338
L27327 70957
" />
<path d="M29633 69720
L28620 71238
" />
<path d="M31151 69776
L31264 69776
L31376 69832
L31432 69888
L31489 70001
L31545 70226
L31545 70507
L31489 70732
L31432 70845
L31376 70901
L31264 70957
L31151 70957
L31039 70901
L30982 70845
L30926 70732
L30870 70507
L30870 70226
L30926 70001
L30982 69888
L31039 69832
L31151 69776
" />
<path d="M32051 70845
L32107 70901
L32051 70957
L31995 70901
L32051 70845
L32051 70957
" />
<path d="M33232 70957
L32557 70957
" />
<path d="M32895 70957
L32895 69776
L32782 69945
L32670 70057
L32557 70113
" />
<path d="M33682 69888
L33738 69832
L33851 69776
L34132 69776
L34244 69832
L34301 69888
L34357 70001
L34357 70113
L34301 70282
L33626 70957
L34357 70957
" />
<path d="M35369 69776
L35144 69776
L35032 69832
L34976 69888
L34863 70057
L34807 70282
L34807 70732
L34863 70845
L34919 70901
L35032 70957
L35257 70957
L35369 70901
L35426 70845
L35482 70732
L35482 70451
L35426 70338
L35369 70282
L35257 70226
L35032 70226
L34919 70282
L34863 70338
L34807 70451
" />
<path d="M35932 69776
L35932 70001
" />
<path d="M36382 69776
L36382 70001
" />
<path d="M38125 71407
L38069 71351
L37956 71182
L37900 71070
L37844 70901
L37788 70620
L37788 70395
L37844 70113
L37900 69945
L37956 69832
L38069 69663
L38125 69607
" />
<path d="M38519 69888
L38575 69832
L38688 69776
L38969 69776
L39081 69832
L39138 69888
L39194 70001
L39194 70113
L39138 70282
L38463 70957
L39194 70957
" />
<path d="M40600 70957
L40600 69776
" />
<path d="M41106 70957
L41106 70338
L41050 70226
L40937 70170
L40769 70170
L40656 70226
L40600 70282
" />
<path d="M41837 70957
L41725 70901
L41669 70845
L41612 70732
L41612 70395
L41669 70282
L41725 70226
L41837 70170
L42006 70170
L42118 70226
L42175 70282
L42231 70395
L42231 70732
L42175 70845
L42118 70901
L42006 70957
L41837 70957
" />
<path d="M42906 70957
L42793 70901
L42737 70788
L42737 69776
" />
<path d="M43806 70901
L43693 70957
L43468 70957
L43356 70901
L43300 70788
L43300 70338
L43356 70226
L43468 70170
L43693 70170
L43806 70226
L43862 70338
L43862 70451
L43300 70563
" />
<path d="M44312 70901
L44424 70957
L44649 70957
L44762 70901
L44818 70788
L44818 70732
L44762 70620
L44649 70563
L44481 70563
L44368 70507
L44312 70395
L44312 70338
L44368 70226
L44481 70170
L44649 70170
L44762 70226
" />
<path d="M45212 71407
L45268 71351
L45381 71182
L45437 71070
L45493 70901
L45549 70620
L45549 70395
L45493 70113
L45437 69945
L45381 69832
L45268 69663
L45212 69607
" />
<circle cx="18454.7" cy="72194.9" r="1220.47" /> 
<text x="20462.6" y="72785.4"
textLength="25427.4" font-size="1574.8" lengthAdjust="spacingAndGlyphs"
text-anchor="start" opacity="0">6.20mm / 0.244" (7 holes)</text>
<path d="M21309 71548
L21084 71548
L20971 71604
L20915 71660
L20802 71829
L20746 72054
L20746 72504
L20802 72616
L20859 72672
L20971 72729
L21196 72729
L21309 72672
L21365 72616
L21421 72504
L21421 72223
L21365 72110
L21309 72054
L21196 71998
L20971 71998
L20859 72054
L20802 72110
L20746 72223
" />
<path d="M21927 72616
L21983 72672
L21927 72729
L21871 72672
L21927 72616
L21927 72729
" />
<path d="M22433 71660
L22490 71604
L22602 71548
L22883 71548
L22996 71604
L23052 71660
L23108 71773
L23108 71885
L23052 72054
L22377 72729
L23108 72729
" />
<path d="M23839 71548
L23952 71548
L24064 71604
L24121 71660
L24177 71773
L24233 71998
L24233 72279
L24177 72504
L24121 72616
L24064 72672
L23952 72729
L23839 72729
L23727 72672
L23671 72616
L23615 72504
L23558 72279
L23558 71998
L23615 71773
L23671 71660
L23727 71604
L23839 71548
" />
<path d="M24739 72729
L24739 71941
" />
<path d="M24739 72054
L24796 71998
L24908 71941
L25077 71941
L25189 71998
L25246 72110
L25246 72729
" />
<path d="M25246 72110
L25302 71998
L25414 71941
L25583 71941
L25696 71998
L25752 72110
L25752 72729
" />
<path d="M26314 72729
L26314 71941
" />
<path d="M26314 72054
L26370 71998
L26483 71941
L26652 71941
L26764 71998
L26820 72110
L26820 72729
" />
<path d="M26820 72110
L26877 71998
L26989 71941
L27158 71941
L27270 71998
L27327 72110
L27327 72729
" />
<path d="M29633 71491
L28620 73010
" />
<path d="M31151 71548
L31264 71548
L31376 71604
L31432 71660
L31489 71773
L31545 71998
L31545 72279
L31489 72504
L31432 72616
L31376 72672
L31264 72729
L31151 72729
L31039 72672
L30982 72616
L30926 72504
L30870 72279
L30870 71998
L30926 71773
L30982 71660
L31039 71604
L31151 71548
" />
<path d="M32051 72616
L32107 72672
L32051 72729
L31995 72672
L32051 72616
L32051 72729
" />
<path d="M32557 71660
L32613 71604
L32726 71548
L33007 71548
L33120 71604
L33176 71660
L33232 71773
L33232 71885
L33176 72054
L32501 72729
L33232 72729
" />
<path d="M34244 71941
L34244 72729
" />
<path d="M33963 71491
L33682 72335
L34413 72335
" />
<path d="M35369 71941
L35369 72729
" />
<path d="M35088 71491
L34807 72335
L35538 72335
" />
<path d="M35932 71548
L35932 71773
" />
<path d="M36382 71548
L36382 71773
" />
<path d="M38125 73179
L38069 73122
L37956 72954
L37900 72841
L37844 72672
L37788 72391
L37788 72166
L37844 71885
L37900 71716
L37956 71604
L38069 71435
L38125 71379
" />
<path d="M38463 71548
L39250 71548
L38744 72729
" />
<path d="M40600 72729
L40600 71548
" />
<path d="M41106 72729
L41106 72110
L41050 71998
L40937 71941
L40769 71941
L40656 71998
L40600 72054
" />
<path d="M41837 72729
L41725 72672
L41669 72616
L41612 72504
L41612 72166
L41669 72054
L41725 71998
L41837 71941
L42006 71941
L42118 71998
L42175 72054
L42231 72166
L42231 72504
L42175 72616
L42118 72672
L42006 72729
L41837 72729
" />
<path d="M42906 72729
L42793 72672
L42737 72560
L42737 71548
" />
<path d="M43806 72672
L43693 72729
L43468 72729
L43356 72672
L43300 72560
L43300 72110
L43356 71998
L43468 71941
L43693 71941
L43806 71998
L43862 72110
L43862 72223
L43300 72335
" />
<path d="M44312 72672
L44424 72729
L44649 72729
L44762 72672
L44818 72560
L44818 72504
L44762 72391
L44649 72335
L44481 72335
L44368 72279
L44312 72166
L44312 72110
L44368 71998
L44481 71941
L44649 71941
L44762 71998
" />
<path d="M45212 73179
L45268 73122
L45381 72954
L45437 72841
L45493 72672
L45549 72391
L45549 72166
L45493 71885
L45437 71716
L45381 71604
L45268 71435
L45212 71379
" />
</g> 
</svg>
