%TF.GenerationSoftware,KiCad,Pcbnew,(5.1.6-0-10_14)*%
%TF.CreationDate,2020-12-13T12:36:34-06:00*%
%TF.ProjectId,nab,6e61622e-6b69-4636-9164-5f7063625858,rev?*%
%TF.SameCoordinates,Original*%
%TF.FileFunction,Legend,Top*%
%TF.FilePolarity,Positive*%
%FSLAX46Y46*%
G04 Gerber Fmt 4.6, Leading zero omitted, Abs format (unit mm)*
G04 Created by KiCad (PCBNEW (5.1.6-0-10_14)) date 2020-12-13 12:36:34*
%MOMM*%
%LPD*%
G01*
G04 APERTURE LIST*
%ADD10C,0.187500*%
%ADD11C,0.150000*%
%ADD12C,0.120000*%
G04 APERTURE END LIST*
D10*
X58408285Y-123723935D02*
X58051142Y-123723935D01*
X58051142Y-122973935D01*
X58658285Y-123723935D02*
X58658285Y-122973935D01*
X59015428Y-123723935D02*
X59015428Y-122973935D01*
X59444000Y-123723935D01*
X59444000Y-122973935D01*
X59801142Y-123331078D02*
X60051142Y-123331078D01*
X60158285Y-123723935D02*
X59801142Y-123723935D01*
X59801142Y-122973935D01*
X60158285Y-122973935D01*
X61051142Y-123723935D02*
X61051142Y-122973935D01*
X61408285Y-123723935D02*
X61408285Y-122973935D01*
X61836857Y-123723935D01*
X61836857Y-122973935D01*
X58872571Y-125036435D02*
X58515428Y-125036435D01*
X58515428Y-124286435D01*
X59122571Y-124643578D02*
X59372571Y-124643578D01*
X59479714Y-125036435D02*
X59122571Y-125036435D01*
X59122571Y-124286435D01*
X59479714Y-124286435D01*
X59694000Y-124286435D02*
X59944000Y-125036435D01*
X60194000Y-124286435D01*
X60444000Y-124643578D02*
X60694000Y-124643578D01*
X60801142Y-125036435D02*
X60444000Y-125036435D01*
X60444000Y-124286435D01*
X60801142Y-124286435D01*
X61479714Y-125036435D02*
X61122571Y-125036435D01*
X61122571Y-124286435D01*
X64245503Y-65651448D02*
X64775833Y-65121118D01*
X64573803Y-65676702D01*
X65129387Y-65474671D01*
X64599057Y-66005001D01*
X65482940Y-65828224D02*
X65583955Y-65929240D01*
X65609209Y-66005001D01*
X65609209Y-66106016D01*
X65533448Y-66232285D01*
X65356671Y-66409062D01*
X65230402Y-66484824D01*
X65129387Y-66484824D01*
X65053625Y-66459570D01*
X64952610Y-66358555D01*
X64927356Y-66282793D01*
X64927356Y-66181778D01*
X65003118Y-66055509D01*
X65179894Y-65878732D01*
X65306163Y-65802971D01*
X65407179Y-65802971D01*
X65482940Y-65828224D01*
X65407179Y-66813123D02*
X65937509Y-66282793D01*
X66063778Y-66409062D01*
X66114286Y-66510077D01*
X66114286Y-66611093D01*
X66089032Y-66686854D01*
X66013270Y-66813123D01*
X65937509Y-66888885D01*
X65811240Y-66964646D01*
X65735478Y-66989900D01*
X65634463Y-66989900D01*
X65533448Y-66939392D01*
X65407179Y-66813123D01*
X66467839Y-66813123D02*
X66038524Y-67242438D01*
X66013270Y-67318199D01*
X66013270Y-67368707D01*
X66038524Y-67444469D01*
X66139539Y-67545484D01*
X66215301Y-67570738D01*
X66265808Y-67570738D01*
X66341570Y-67545484D01*
X66770885Y-67116169D01*
X66745631Y-68151575D02*
X66493093Y-67899037D01*
X67023423Y-67368707D01*
X67048677Y-68151575D02*
X67301215Y-68404113D01*
X66846646Y-68252591D02*
X67553753Y-67899037D01*
X67200200Y-68606144D01*
X67680022Y-69085966D02*
X67755783Y-68656652D01*
X67376976Y-68782921D02*
X67907306Y-68252591D01*
X68109337Y-68454621D01*
X68134591Y-68530383D01*
X68134591Y-68580890D01*
X68109337Y-68656652D01*
X68033575Y-68732413D01*
X67957814Y-68757667D01*
X67907306Y-68757667D01*
X67831545Y-68732413D01*
X67629514Y-68530383D01*
X68311367Y-69717312D02*
X68841697Y-69186982D01*
X68563905Y-69969850D02*
X69094236Y-69439520D01*
X68866951Y-70272896D01*
X69397281Y-69742566D01*
X64870535Y-68132635D02*
X64617997Y-67880097D01*
X65148327Y-67349767D01*
X65325104Y-68031620D02*
X65501880Y-68208397D01*
X65299850Y-68561950D02*
X65047312Y-68309412D01*
X65577642Y-67779082D01*
X65830180Y-68031620D01*
X65981703Y-68183143D02*
X65628149Y-68890250D01*
X66335256Y-68536696D01*
X66259495Y-68966011D02*
X66436271Y-69142788D01*
X66234241Y-69496341D02*
X65981703Y-69243803D01*
X66512033Y-68713473D01*
X66764571Y-68966011D01*
X66714063Y-69976164D02*
X66461525Y-69723626D01*
X66991855Y-69193295D01*
X57257182Y-144793549D02*
X57787512Y-144263219D01*
X57585482Y-144818803D01*
X58141066Y-144616772D01*
X57610736Y-145147102D01*
X57863274Y-145399640D02*
X58393604Y-144869310D01*
X58595634Y-145071341D02*
X58418858Y-145955224D01*
X58949188Y-145424894D02*
X58065304Y-145601671D01*
X56404866Y-145797388D02*
X56152328Y-145544850D01*
X56682658Y-145014520D01*
X56581643Y-145974165D02*
X57111973Y-145443835D01*
X56834181Y-146226703D02*
X57364511Y-145696373D01*
X57137226Y-146529749D01*
X57667556Y-145999419D01*
X57667556Y-146504495D02*
X57844333Y-146681272D01*
X57642303Y-147034825D02*
X57389765Y-146782287D01*
X57920095Y-146251957D01*
X58172633Y-146504495D01*
X55956610Y-146144629D02*
X56057626Y-146245644D01*
X56082879Y-146321405D01*
X56082879Y-146422421D01*
X56007118Y-146548690D01*
X55830341Y-146725466D01*
X55704072Y-146801228D01*
X55603057Y-146801228D01*
X55527295Y-146775974D01*
X55426280Y-146674959D01*
X55401026Y-146599197D01*
X55401026Y-146498182D01*
X55476788Y-146371913D01*
X55653565Y-146195136D01*
X55779834Y-146119375D01*
X55880849Y-146119375D01*
X55956610Y-146144629D01*
X56411179Y-146599197D02*
X55981864Y-147028512D01*
X55956610Y-147104273D01*
X55956610Y-147154781D01*
X55981864Y-147230543D01*
X56082879Y-147331558D01*
X56158641Y-147356812D01*
X56209148Y-147356812D01*
X56284910Y-147331558D01*
X56714225Y-146902243D01*
X56891001Y-147079020D02*
X57194047Y-147382065D01*
X56512194Y-147760873D02*
X57042524Y-147230543D01*
X58484485Y-107095485D02*
X58127342Y-107095485D01*
X58127342Y-106345485D01*
X58734485Y-107095485D02*
X58734485Y-106345485D01*
X59091628Y-107095485D02*
X59091628Y-106345485D01*
X59520200Y-107095485D01*
X59520200Y-106345485D01*
X59877342Y-106702628D02*
X60127342Y-106702628D01*
X60234485Y-107095485D02*
X59877342Y-107095485D01*
X59877342Y-106345485D01*
X60234485Y-106345485D01*
X61127342Y-107095485D02*
X61127342Y-106345485D01*
X61484485Y-107095485D02*
X61484485Y-106345485D01*
X61913057Y-107095485D01*
X61913057Y-106345485D01*
X57844785Y-89175785D02*
X57487642Y-89175785D01*
X57487642Y-88425785D01*
X58094785Y-89175785D02*
X58094785Y-88425785D01*
X58451928Y-89175785D02*
X58451928Y-88425785D01*
X58880500Y-89175785D01*
X58880500Y-88425785D01*
X59237642Y-88782928D02*
X59487642Y-88782928D01*
X59594785Y-89175785D02*
X59237642Y-89175785D01*
X59237642Y-88425785D01*
X59594785Y-88425785D01*
X60630500Y-88425785D02*
X60773357Y-88425785D01*
X60844785Y-88461500D01*
X60916214Y-88532928D01*
X60951928Y-88675785D01*
X60951928Y-88925785D01*
X60916214Y-89068642D01*
X60844785Y-89140071D01*
X60773357Y-89175785D01*
X60630500Y-89175785D01*
X60559071Y-89140071D01*
X60487642Y-89068642D01*
X60451928Y-88925785D01*
X60451928Y-88675785D01*
X60487642Y-88532928D01*
X60559071Y-88461500D01*
X60630500Y-88425785D01*
X61273357Y-88425785D02*
X61273357Y-89032928D01*
X61309071Y-89104357D01*
X61344785Y-89140071D01*
X61416214Y-89175785D01*
X61559071Y-89175785D01*
X61630500Y-89140071D01*
X61666214Y-89104357D01*
X61701928Y-89032928D01*
X61701928Y-88425785D01*
X61951928Y-88425785D02*
X62380500Y-88425785D01*
X62166214Y-89175785D02*
X62166214Y-88425785D01*
X60410285Y-59185957D02*
X59660285Y-59185957D01*
X60196000Y-58935957D01*
X59660285Y-58685957D01*
X60410285Y-58685957D01*
X59660285Y-58185957D02*
X59660285Y-58043099D01*
X59696000Y-57971671D01*
X59767428Y-57900242D01*
X59910285Y-57864528D01*
X60160285Y-57864528D01*
X60303142Y-57900242D01*
X60374571Y-57971671D01*
X60410285Y-58043099D01*
X60410285Y-58185957D01*
X60374571Y-58257385D01*
X60303142Y-58328814D01*
X60160285Y-58364528D01*
X59910285Y-58364528D01*
X59767428Y-58328814D01*
X59696000Y-58257385D01*
X59660285Y-58185957D01*
X60410285Y-57543099D02*
X59660285Y-57543099D01*
X59660285Y-57364528D01*
X59696000Y-57257385D01*
X59767428Y-57185957D01*
X59838857Y-57150242D01*
X59981714Y-57114528D01*
X60088857Y-57114528D01*
X60231714Y-57150242D01*
X60303142Y-57185957D01*
X60374571Y-57257385D01*
X60410285Y-57364528D01*
X60410285Y-57543099D01*
X59660285Y-56793099D02*
X60267428Y-56793099D01*
X60338857Y-56757385D01*
X60374571Y-56721671D01*
X60410285Y-56650242D01*
X60410285Y-56507385D01*
X60374571Y-56435957D01*
X60338857Y-56400242D01*
X60267428Y-56364528D01*
X59660285Y-56364528D01*
X60410285Y-55650242D02*
X60410285Y-56007385D01*
X59660285Y-56007385D01*
X60196000Y-55435957D02*
X60196000Y-55078814D01*
X60410285Y-55507385D02*
X59660285Y-55257385D01*
X60410285Y-55007385D01*
X60410285Y-54328814D02*
X60053142Y-54578814D01*
X60410285Y-54757385D02*
X59660285Y-54757385D01*
X59660285Y-54471671D01*
X59696000Y-54400242D01*
X59731714Y-54364528D01*
X59803142Y-54328814D01*
X59910285Y-54328814D01*
X59981714Y-54364528D01*
X60017428Y-54400242D01*
X60053142Y-54471671D01*
X60053142Y-54757385D01*
X60410285Y-53435957D02*
X59660285Y-53435957D01*
X60410285Y-53078814D02*
X59660285Y-53078814D01*
X60410285Y-52650242D01*
X59660285Y-52650242D01*
D11*
X57705714Y-42051314D02*
X57705714Y-42717980D01*
X57467619Y-41670361D02*
X57229523Y-42384647D01*
X57848571Y-42384647D01*
X58229523Y-42717980D02*
X58229523Y-41717980D01*
X58658095Y-42717980D02*
X58658095Y-42194171D01*
X58610476Y-42098933D01*
X58515238Y-42051314D01*
X58372380Y-42051314D01*
X58277142Y-42098933D01*
X58229523Y-42146552D01*
X59134285Y-42051314D02*
X59134285Y-43051314D01*
X59134285Y-42098933D02*
X59229523Y-42051314D01*
X59420000Y-42051314D01*
X59515238Y-42098933D01*
X59562857Y-42146552D01*
X59610476Y-42241790D01*
X59610476Y-42527504D01*
X59562857Y-42622742D01*
X59515238Y-42670361D01*
X59420000Y-42717980D01*
X59229523Y-42717980D01*
X59134285Y-42670361D01*
D12*
%TO.C,RV1*%
X64870000Y-125384597D02*
X55130000Y-125384597D01*
X64870000Y-136974597D02*
X63380000Y-136974597D01*
X64870000Y-128444597D02*
X64870000Y-125384597D01*
X55130000Y-136974597D02*
X55130000Y-132254597D01*
X55130000Y-128444597D02*
X55130000Y-125384597D01*
X64870000Y-136974597D02*
X64870000Y-132254597D01*
X56310000Y-136974597D02*
X55130000Y-136974597D01*
X59210000Y-136974597D02*
X58680000Y-136974597D01*
X61660000Y-136974597D02*
X60830000Y-136974597D01*
D11*
%TO.C,J3*%
X61581139Y-95766799D02*
G75*
G03*
X61581139Y-95766799I-1581139J0D01*
G01*
X65000000Y-89516799D02*
X55000000Y-89516799D01*
X65000000Y-100516799D02*
X65000000Y-89516799D01*
X55000000Y-100516799D02*
X65000000Y-100516799D01*
X55000000Y-89516799D02*
X55000000Y-100516799D01*
%TO.C,J2*%
X61581139Y-113660698D02*
G75*
G03*
X61581139Y-113660698I-1581139J0D01*
G01*
X65000000Y-107410698D02*
X55000000Y-107410698D01*
X65000000Y-118410698D02*
X65000000Y-107410698D01*
X55000000Y-118410698D02*
X65000000Y-118410698D01*
X55000000Y-107410698D02*
X55000000Y-118410698D01*
%TO.C,J1*%
X61581139Y-153098500D02*
G75*
G03*
X61581139Y-153098500I-1581139J0D01*
G01*
X55000000Y-159348500D02*
X65000000Y-159348500D01*
X55000000Y-148348500D02*
X55000000Y-159348500D01*
X65000000Y-148348500D02*
X55000000Y-148348500D01*
X65000000Y-159348500D02*
X65000000Y-148348500D01*
D12*
%TO.C,RV2*%
X64870000Y-68723899D02*
X55130000Y-68723899D01*
X64870000Y-80313899D02*
X63380000Y-80313899D01*
X64870000Y-71783899D02*
X64870000Y-68723899D01*
X55130000Y-80313899D02*
X55130000Y-75593899D01*
X55130000Y-71783899D02*
X55130000Y-68723899D01*
X64870000Y-80313899D02*
X64870000Y-75593899D01*
X56310000Y-80313899D02*
X55130000Y-80313899D01*
X59210000Y-80313899D02*
X58680000Y-80313899D01*
X61660000Y-80313899D02*
X60830000Y-80313899D01*
%TO.C,R8*%
X65630000Y-99080000D02*
X65960000Y-99080000D01*
X65630000Y-92540000D02*
X65630000Y-99080000D01*
X65960000Y-92540000D02*
X65630000Y-92540000D01*
X68370000Y-99080000D02*
X68040000Y-99080000D01*
X68370000Y-92540000D02*
X68370000Y-99080000D01*
X68040000Y-92540000D02*
X68370000Y-92540000D01*
%TO.C,R7*%
X69370000Y-76920000D02*
X69040000Y-76920000D01*
X69370000Y-83460000D02*
X69370000Y-76920000D01*
X69040000Y-83460000D02*
X69370000Y-83460000D01*
X66630000Y-76920000D02*
X66960000Y-76920000D01*
X66630000Y-83460000D02*
X66630000Y-76920000D01*
X66960000Y-83460000D02*
X66630000Y-83460000D01*
%TO.C,R6*%
X66880000Y-133080000D02*
X67210000Y-133080000D01*
X66880000Y-126540000D02*
X66880000Y-133080000D01*
X67210000Y-126540000D02*
X66880000Y-126540000D01*
X69620000Y-133080000D02*
X69290000Y-133080000D01*
X69620000Y-126540000D02*
X69620000Y-133080000D01*
X69290000Y-126540000D02*
X69620000Y-126540000D01*
%TO.C,R5*%
X66880000Y-147080000D02*
X67210000Y-147080000D01*
X66880000Y-140540000D02*
X66880000Y-147080000D01*
X67210000Y-140540000D02*
X66880000Y-140540000D01*
X69620000Y-147080000D02*
X69290000Y-147080000D01*
X69620000Y-140540000D02*
X69620000Y-147080000D01*
X69290000Y-140540000D02*
X69620000Y-140540000D01*
%TO.C,R4*%
X54370000Y-92420000D02*
X54040000Y-92420000D01*
X54370000Y-98960000D02*
X54370000Y-92420000D01*
X54040000Y-98960000D02*
X54370000Y-98960000D01*
X51630000Y-92420000D02*
X51960000Y-92420000D01*
X51630000Y-98960000D02*
X51630000Y-92420000D01*
X51960000Y-98960000D02*
X51630000Y-98960000D01*
%TO.C,R3*%
X53370000Y-76920000D02*
X53040000Y-76920000D01*
X53370000Y-83460000D02*
X53370000Y-76920000D01*
X53040000Y-83460000D02*
X53370000Y-83460000D01*
X50630000Y-76920000D02*
X50960000Y-76920000D01*
X50630000Y-83460000D02*
X50630000Y-76920000D01*
X50960000Y-83460000D02*
X50630000Y-83460000D01*
%TO.C,R2*%
X50380000Y-133080000D02*
X50710000Y-133080000D01*
X50380000Y-126540000D02*
X50380000Y-133080000D01*
X50710000Y-126540000D02*
X50380000Y-126540000D01*
X53120000Y-133080000D02*
X52790000Y-133080000D01*
X53120000Y-126540000D02*
X53120000Y-133080000D01*
X52790000Y-126540000D02*
X53120000Y-126540000D01*
%TO.C,R1*%
X50380000Y-147080000D02*
X50710000Y-147080000D01*
X50380000Y-140540000D02*
X50380000Y-147080000D01*
X50710000Y-140540000D02*
X50380000Y-140540000D01*
X53120000Y-147080000D02*
X52790000Y-147080000D01*
X53120000Y-140540000D02*
X53120000Y-147080000D01*
X52790000Y-140540000D02*
X53120000Y-140540000D01*
D11*
%TO.C,J5*%
X60500000Y-50750000D02*
X60500000Y-61750000D01*
X60500000Y-61750000D02*
X69500000Y-61750000D01*
X69500000Y-61750000D02*
X69500000Y-50750000D01*
X69500000Y-50750000D02*
X60500000Y-50750000D01*
X66581139Y-57000000D02*
G75*
G03*
X66581139Y-57000000I-1581139J0D01*
G01*
%TO.C,J4*%
X50500000Y-50750000D02*
X50500000Y-61750000D01*
X50500000Y-61750000D02*
X59500000Y-61750000D01*
X59500000Y-61750000D02*
X59500000Y-50750000D01*
X59500000Y-50750000D02*
X50500000Y-50750000D01*
X56581139Y-57000000D02*
G75*
G03*
X56581139Y-57000000I-1581139J0D01*
G01*
%TO.C,RV1*%
X55913921Y-135089481D02*
X56014936Y-134517061D01*
X55509860Y-134685420D02*
X56216967Y-133978313D01*
X56486341Y-134247687D01*
X56520012Y-134348703D01*
X56520012Y-134416046D01*
X56486341Y-134517061D01*
X56385325Y-134618077D01*
X56284310Y-134651748D01*
X56216967Y-134651748D01*
X56115951Y-134618077D01*
X55846577Y-134348703D01*
X56823058Y-134584405D02*
X56351654Y-135527214D01*
X57294463Y-135055809D01*
X57193448Y-136369008D02*
X56789387Y-135964947D01*
X56991417Y-136166977D02*
X57698524Y-135459871D01*
X57530165Y-135493542D01*
X57395478Y-135493542D01*
X57294463Y-135459871D01*
%TO.C,J3*%
X62724672Y-98992576D02*
X63229748Y-99497652D01*
X63297092Y-99632339D01*
X63297092Y-99767026D01*
X63229748Y-99901713D01*
X63162405Y-99969056D01*
X62994046Y-98723202D02*
X63431779Y-98285469D01*
X63465451Y-98790545D01*
X63566466Y-98689530D01*
X63667481Y-98655858D01*
X63734825Y-98655858D01*
X63835840Y-98689530D01*
X64004199Y-98857889D01*
X64037870Y-98958904D01*
X64037870Y-99026247D01*
X64004199Y-99127263D01*
X63802168Y-99329293D01*
X63701153Y-99362965D01*
X63633809Y-99362965D01*
%TO.C,J2*%
X56539522Y-116288970D02*
X56034446Y-116794046D01*
X55899759Y-116861390D01*
X55765072Y-116861390D01*
X55630385Y-116794046D01*
X55563042Y-116726703D01*
X56775225Y-116659359D02*
X56842568Y-116659359D01*
X56943583Y-116693031D01*
X57111942Y-116861390D01*
X57145614Y-116962405D01*
X57145614Y-117029749D01*
X57111942Y-117130764D01*
X57044599Y-117198107D01*
X56909912Y-117265451D01*
X56101790Y-117265451D01*
X56539522Y-117703184D01*
%TO.C,J1*%
X56437922Y-157377772D02*
X55932846Y-157882848D01*
X55798159Y-157950192D01*
X55663472Y-157950192D01*
X55528785Y-157882848D01*
X55461442Y-157815505D01*
X56437922Y-158791986D02*
X56033861Y-158387925D01*
X56235892Y-158589955D02*
X56942999Y-157882848D01*
X56774640Y-157916520D01*
X56639953Y-157916520D01*
X56538938Y-157882848D01*
%TO.C,RV2*%
X56447321Y-78104083D02*
X56548336Y-77531663D01*
X56043260Y-77700022D02*
X56750367Y-76992915D01*
X57019741Y-77262289D01*
X57053412Y-77363305D01*
X57053412Y-77430648D01*
X57019741Y-77531663D01*
X56918725Y-77632679D01*
X56817710Y-77666350D01*
X56750367Y-77666350D01*
X56649351Y-77632679D01*
X56379977Y-77363305D01*
X57356458Y-77599007D02*
X56885054Y-78541816D01*
X57827863Y-78070411D01*
X57962550Y-78339786D02*
X58029893Y-78339786D01*
X58130909Y-78373457D01*
X58299267Y-78541816D01*
X58332939Y-78642831D01*
X58332939Y-78710175D01*
X58299267Y-78811190D01*
X58231924Y-78878534D01*
X58097237Y-78945877D01*
X57289115Y-78945877D01*
X57726848Y-79383610D01*
%TO.C,R8*%
X66524167Y-94221330D02*
X66625182Y-93648910D01*
X66120106Y-93817269D02*
X66827212Y-93110162D01*
X67096587Y-93379536D01*
X67130258Y-93480551D01*
X67130258Y-93547895D01*
X67096587Y-93648910D01*
X66995571Y-93749925D01*
X66894556Y-93783597D01*
X66827212Y-93783597D01*
X66726197Y-93749925D01*
X66456823Y-93480551D01*
X67332289Y-94221330D02*
X67298617Y-94120315D01*
X67298617Y-94052971D01*
X67332289Y-93951956D01*
X67365961Y-93918284D01*
X67466976Y-93884612D01*
X67534319Y-93884612D01*
X67635335Y-93918284D01*
X67770022Y-94052971D01*
X67803693Y-94153987D01*
X67803693Y-94221330D01*
X67770022Y-94322345D01*
X67736350Y-94356017D01*
X67635335Y-94389689D01*
X67567991Y-94389689D01*
X67466976Y-94356017D01*
X67332289Y-94221330D01*
X67231274Y-94187658D01*
X67163930Y-94187658D01*
X67062915Y-94221330D01*
X66928228Y-94356017D01*
X66894556Y-94457032D01*
X66894556Y-94524376D01*
X66928228Y-94625391D01*
X67062915Y-94760078D01*
X67163930Y-94793750D01*
X67231274Y-94793750D01*
X67332289Y-94760078D01*
X67466976Y-94625391D01*
X67500648Y-94524376D01*
X67500648Y-94457032D01*
X67466976Y-94356017D01*
X66557838Y-97226802D02*
X66153777Y-96822741D01*
X66355808Y-97024771D02*
X67062915Y-96317664D01*
X66894556Y-96351336D01*
X66759869Y-96351336D01*
X66658854Y-96317664D01*
X66860884Y-97529848D02*
X67567991Y-96822741D01*
X67197602Y-97327817D02*
X67130258Y-97799222D01*
X67601663Y-97327817D02*
X67062915Y-97327817D01*
%TO.C,R7*%
X67447967Y-82043030D02*
X67548982Y-81470610D01*
X67043906Y-81638969D02*
X67751012Y-80931862D01*
X68020387Y-81201236D01*
X68054058Y-81302251D01*
X68054058Y-81369595D01*
X68020387Y-81470610D01*
X67919371Y-81571625D01*
X67818356Y-81605297D01*
X67751012Y-81605297D01*
X67649997Y-81571625D01*
X67380623Y-81302251D01*
X68390776Y-81571625D02*
X68862180Y-82043030D01*
X67852028Y-82447091D01*
X67351964Y-77797301D02*
X67419308Y-77797301D01*
X67520323Y-77830973D01*
X67688682Y-77999332D01*
X67722354Y-78100347D01*
X67722354Y-78167690D01*
X67688682Y-78268706D01*
X67621338Y-78336049D01*
X67486651Y-78403393D01*
X66678529Y-78403393D01*
X67116262Y-78841125D01*
X67486651Y-79076828D02*
X67486651Y-79144171D01*
X67419308Y-79144171D01*
X67419308Y-79076828D01*
X67486651Y-79076828D01*
X67419308Y-79144171D01*
X68362117Y-78807454D02*
X68429461Y-78807454D01*
X68530476Y-78841125D01*
X68698835Y-79009484D01*
X68732506Y-79110500D01*
X68732506Y-79177843D01*
X68698835Y-79278858D01*
X68631491Y-79346202D01*
X68496804Y-79413545D01*
X67688682Y-79413545D01*
X68126415Y-79851278D01*
X68429461Y-80154324D02*
X69136567Y-79447217D01*
X68766178Y-79952293D02*
X68698835Y-80423698D01*
X69170239Y-79952293D02*
X68631491Y-79952293D01*
%TO.C,R6*%
X67850367Y-131739230D02*
X67951382Y-131166810D01*
X67446306Y-131335169D02*
X68153412Y-130628062D01*
X68422787Y-130897436D01*
X68456458Y-130998451D01*
X68456458Y-131065795D01*
X68422787Y-131166810D01*
X68321771Y-131267825D01*
X68220756Y-131301497D01*
X68153412Y-131301497D01*
X68052397Y-131267825D01*
X67783023Y-130998451D01*
X69163565Y-131638215D02*
X69028878Y-131503528D01*
X68927863Y-131469856D01*
X68860519Y-131469856D01*
X68692161Y-131503528D01*
X68523802Y-131604543D01*
X68254428Y-131873917D01*
X68220756Y-131974932D01*
X68220756Y-132042276D01*
X68254428Y-132143291D01*
X68389115Y-132277978D01*
X68490130Y-132311650D01*
X68557474Y-132311650D01*
X68658489Y-132277978D01*
X68826848Y-132109619D01*
X68860519Y-132008604D01*
X68860519Y-131941261D01*
X68826848Y-131840245D01*
X68692161Y-131705558D01*
X68591145Y-131671887D01*
X68523802Y-131671887D01*
X68422787Y-131705558D01*
X67416477Y-128397041D02*
X67012416Y-127992980D01*
X67214447Y-128195010D02*
X67921554Y-127487903D01*
X67753195Y-127521575D01*
X67618508Y-127521575D01*
X67517493Y-127487903D01*
X68561317Y-128127667D02*
X68628661Y-128195010D01*
X68662332Y-128296025D01*
X68662332Y-128363369D01*
X68628661Y-128464384D01*
X68527645Y-128632743D01*
X68359287Y-128801102D01*
X68190928Y-128902117D01*
X68089912Y-128935789D01*
X68022569Y-128935789D01*
X67921554Y-128902117D01*
X67854210Y-128834774D01*
X67820538Y-128733758D01*
X67820538Y-128666415D01*
X67854210Y-128565400D01*
X67955225Y-128397041D01*
X68123584Y-128228682D01*
X68291943Y-128127667D01*
X68392958Y-128093995D01*
X68460302Y-128093995D01*
X68561317Y-128127667D01*
X68392958Y-129373522D02*
X69100065Y-128666415D01*
X68797019Y-129777583D02*
X68898035Y-129070476D01*
X69504126Y-129070476D02*
X68696004Y-129070476D01*
%TO.C,R5*%
X67748767Y-142411830D02*
X67849782Y-141839410D01*
X67344706Y-142007769D02*
X68051812Y-141300662D01*
X68321187Y-141570036D01*
X68354858Y-141671051D01*
X68354858Y-141738395D01*
X68321187Y-141839410D01*
X68220171Y-141940425D01*
X68119156Y-141974097D01*
X68051812Y-141974097D01*
X67950797Y-141940425D01*
X67681423Y-141671051D01*
X69095637Y-142344487D02*
X68758919Y-142007769D01*
X68388530Y-142310815D01*
X68455874Y-142310815D01*
X68556889Y-142344487D01*
X68725248Y-142512845D01*
X68758919Y-142613861D01*
X68758919Y-142681204D01*
X68725248Y-142782219D01*
X68556889Y-142950578D01*
X68455874Y-142984250D01*
X68388530Y-142984250D01*
X68287515Y-142950578D01*
X68119156Y-142782219D01*
X68085484Y-142681204D01*
X68085484Y-142613861D01*
X67378377Y-144886241D02*
X66974316Y-144482180D01*
X67176347Y-144684210D02*
X67883454Y-143977103D01*
X67715095Y-144010775D01*
X67580408Y-144010775D01*
X67479393Y-143977103D01*
X68523217Y-144616867D02*
X68590561Y-144684210D01*
X68624232Y-144785225D01*
X68624232Y-144852569D01*
X68590561Y-144953584D01*
X68489545Y-145121943D01*
X68321187Y-145290302D01*
X68152828Y-145391317D01*
X68051812Y-145424989D01*
X67984469Y-145424989D01*
X67883454Y-145391317D01*
X67816110Y-145323974D01*
X67782438Y-145222958D01*
X67782438Y-145155615D01*
X67816110Y-145054600D01*
X67917125Y-144886241D01*
X68085484Y-144717882D01*
X68253843Y-144616867D01*
X68354858Y-144583195D01*
X68422202Y-144583195D01*
X68523217Y-144616867D01*
X68354858Y-145862722D02*
X69061965Y-145155615D01*
X68758919Y-146266783D02*
X68859935Y-145559676D01*
X69466026Y-145559676D02*
X68657904Y-145559676D01*
%TO.C,R4*%
X52511467Y-97466830D02*
X52612482Y-96894410D01*
X52107406Y-97062769D02*
X52814512Y-96355662D01*
X53083887Y-96625036D01*
X53117558Y-96726051D01*
X53117558Y-96793395D01*
X53083887Y-96894410D01*
X52982871Y-96995425D01*
X52881856Y-97029097D01*
X52814512Y-97029097D01*
X52713497Y-96995425D01*
X52444123Y-96726051D01*
X53588963Y-97601517D02*
X53117558Y-98072922D01*
X53689978Y-97163784D02*
X53016543Y-97500502D01*
X53454276Y-97938235D01*
X52583238Y-94389002D02*
X52179177Y-93984941D01*
X52381208Y-94186971D02*
X53088315Y-93479864D01*
X52919956Y-93513536D01*
X52785269Y-93513536D01*
X52684254Y-93479864D01*
X52886284Y-94692048D02*
X53593391Y-93984941D01*
X53223002Y-94490017D02*
X53155658Y-94961422D01*
X53627063Y-94490017D02*
X53088315Y-94490017D01*
%TO.C,R3*%
X51524167Y-82068430D02*
X51625182Y-81496010D01*
X51120106Y-81664369D02*
X51827212Y-80957262D01*
X52096587Y-81226636D01*
X52130258Y-81327651D01*
X52130258Y-81394995D01*
X52096587Y-81496010D01*
X51995571Y-81597025D01*
X51894556Y-81630697D01*
X51827212Y-81630697D01*
X51726197Y-81597025D01*
X51456823Y-81327651D01*
X52466976Y-81597025D02*
X52904709Y-82034758D01*
X52399632Y-82068430D01*
X52500648Y-82169445D01*
X52534319Y-82270461D01*
X52534319Y-82337804D01*
X52500648Y-82438819D01*
X52332289Y-82607178D01*
X52231274Y-82640850D01*
X52163930Y-82640850D01*
X52062915Y-82607178D01*
X51860884Y-82405148D01*
X51827212Y-82304132D01*
X51827212Y-82236789D01*
X51415464Y-77606801D02*
X51482808Y-77606801D01*
X51583823Y-77640473D01*
X51752182Y-77808832D01*
X51785854Y-77909847D01*
X51785854Y-77977190D01*
X51752182Y-78078206D01*
X51684838Y-78145549D01*
X51550151Y-78212893D01*
X50742029Y-78212893D01*
X51179762Y-78650625D01*
X51550151Y-78886328D02*
X51550151Y-78953671D01*
X51482808Y-78953671D01*
X51482808Y-78886328D01*
X51550151Y-78886328D01*
X51482808Y-78953671D01*
X52425617Y-78616954D02*
X52492961Y-78616954D01*
X52593976Y-78650625D01*
X52762335Y-78818984D01*
X52796006Y-78920000D01*
X52796006Y-78987343D01*
X52762335Y-79088358D01*
X52694991Y-79155702D01*
X52560304Y-79223045D01*
X51752182Y-79223045D01*
X52189915Y-79660778D01*
X52492961Y-79963824D02*
X53200067Y-79256717D01*
X52829678Y-79761793D02*
X52762335Y-80233198D01*
X53233739Y-79761793D02*
X52694991Y-79761793D01*
%TO.C,R2*%
X51172567Y-131409030D02*
X51273582Y-130836610D01*
X50768506Y-131004969D02*
X51475612Y-130297862D01*
X51744987Y-130567236D01*
X51778658Y-130668251D01*
X51778658Y-130735595D01*
X51744987Y-130836610D01*
X51643971Y-130937625D01*
X51542956Y-130971297D01*
X51475612Y-130971297D01*
X51374597Y-130937625D01*
X51105223Y-130668251D01*
X52081704Y-131038641D02*
X52149048Y-131038641D01*
X52250063Y-131072312D01*
X52418422Y-131240671D01*
X52452093Y-131341687D01*
X52452093Y-131409030D01*
X52418422Y-131510045D01*
X52351078Y-131577389D01*
X52216391Y-131644732D01*
X51408269Y-131644732D01*
X51846002Y-132082465D01*
X50903777Y-128231941D02*
X50499716Y-127827880D01*
X50701747Y-128029910D02*
X51408854Y-127322803D01*
X51240495Y-127356475D01*
X51105808Y-127356475D01*
X51004793Y-127322803D01*
X52048617Y-127962567D02*
X52115961Y-128029910D01*
X52149632Y-128130925D01*
X52149632Y-128198269D01*
X52115961Y-128299284D01*
X52014945Y-128467643D01*
X51846587Y-128636002D01*
X51678228Y-128737017D01*
X51577212Y-128770689D01*
X51509869Y-128770689D01*
X51408854Y-128737017D01*
X51341510Y-128669674D01*
X51307838Y-128568658D01*
X51307838Y-128501315D01*
X51341510Y-128400300D01*
X51442525Y-128231941D01*
X51610884Y-128063582D01*
X51779243Y-127962567D01*
X51880258Y-127928895D01*
X51947602Y-127928895D01*
X52048617Y-127962567D01*
X51880258Y-129208422D02*
X52587365Y-128501315D01*
X52284319Y-129612483D02*
X52385335Y-128905376D01*
X52991426Y-128905376D02*
X52183304Y-128905376D01*
%TO.C,R1*%
X51375767Y-142449930D02*
X51476782Y-141877510D01*
X50971706Y-142045869D02*
X51678812Y-141338762D01*
X51948187Y-141608136D01*
X51981858Y-141709151D01*
X51981858Y-141776495D01*
X51948187Y-141877510D01*
X51847171Y-141978525D01*
X51746156Y-142012197D01*
X51678812Y-142012197D01*
X51577797Y-141978525D01*
X51308423Y-141709151D01*
X52049202Y-143123365D02*
X51645141Y-142719304D01*
X51847171Y-142921335D02*
X52554278Y-142214228D01*
X52385919Y-142247900D01*
X52251232Y-142247900D01*
X52150217Y-142214228D01*
X50840277Y-144746541D02*
X50436216Y-144342480D01*
X50638247Y-144544510D02*
X51345354Y-143837403D01*
X51176995Y-143871075D01*
X51042308Y-143871075D01*
X50941293Y-143837403D01*
X51985117Y-144477167D02*
X52052461Y-144544510D01*
X52086132Y-144645525D01*
X52086132Y-144712869D01*
X52052461Y-144813884D01*
X51951445Y-144982243D01*
X51783087Y-145150602D01*
X51614728Y-145251617D01*
X51513712Y-145285289D01*
X51446369Y-145285289D01*
X51345354Y-145251617D01*
X51278010Y-145184274D01*
X51244338Y-145083258D01*
X51244338Y-145015915D01*
X51278010Y-144914900D01*
X51379025Y-144746541D01*
X51547384Y-144578182D01*
X51715743Y-144477167D01*
X51816758Y-144443495D01*
X51884102Y-144443495D01*
X51985117Y-144477167D01*
X51816758Y-145723022D02*
X52523865Y-145015915D01*
X52220819Y-146127083D02*
X52321835Y-145419976D01*
X52927926Y-145419976D02*
X52119804Y-145419976D01*
%TO.C,J5*%
X67576072Y-59982977D02*
X68081148Y-60488053D01*
X68148492Y-60622740D01*
X68148492Y-60757427D01*
X68081148Y-60892114D01*
X68013805Y-60959457D01*
X68249507Y-59309542D02*
X67912790Y-59646259D01*
X68215835Y-60016648D01*
X68215835Y-59949305D01*
X68249507Y-59848290D01*
X68417866Y-59679931D01*
X68518881Y-59646259D01*
X68586225Y-59646259D01*
X68687240Y-59679931D01*
X68855599Y-59848290D01*
X68889270Y-59949305D01*
X68889270Y-60016648D01*
X68855599Y-60117664D01*
X68687240Y-60286022D01*
X68586225Y-60319694D01*
X68518881Y-60319694D01*
%TO.C,J4*%
X52107222Y-59600472D02*
X51602146Y-60105548D01*
X51467459Y-60172892D01*
X51332772Y-60172892D01*
X51198085Y-60105548D01*
X51130742Y-60038205D01*
X52511283Y-60475938D02*
X52039879Y-60947342D01*
X52612299Y-60038205D02*
X51938864Y-60374922D01*
X52376596Y-60812655D01*
%TD*%
M02*
