%TF.GenerationSoftware,KiCad,Pcbnew,(5.1.6-0-10_14)*%
%TF.CreationDate,2020-12-13T12:36:34-06:00*%
%TF.ProjectId,nab,6e61622e-6b69-4636-9164-5f7063625858,rev?*%
%TF.SameCoordinates,Original*%
%TF.FileFunction,Soldermask,Bot*%
%TF.FilePolarity,Negative*%
%FSLAX46Y46*%
G04 Gerber Fmt 4.6, Leading zero omitted, Abs format (unit mm)*
G04 Created by KiCad (PCBNEW (5.1.6-0-10_14)) date 2020-12-13 12:36:34*
%MOMM*%
%LPD*%
G01*
G04 APERTURE LIST*
%ADD10C,0.300000*%
%ADD11C,0.250000*%
%ADD12O,1.800000X1.800000*%
%ADD13R,1.800000X1.800000*%
%ADD14R,1.900000X1.900000*%
%ADD15C,1.900000*%
%ADD16O,2.820000X3.340000*%
%ADD17C,3.100000*%
%ADD18C,2.250000*%
%ADD19O,1.700000X1.700000*%
%ADD20C,1.700000*%
G04 APERTURE END LIST*
D10*
X52818274Y-55089769D02*
X52818274Y-55190784D01*
X52919289Y-55190784D01*
X52919289Y-55089769D01*
X52818274Y-55089769D01*
X52919289Y-55190784D01*
X52515228Y-54786723D02*
X51959644Y-54130124D01*
X51858629Y-54130124D01*
X51858629Y-54231139D01*
X52515228Y-54786723D01*
X51858629Y-54130124D01*
X67376330Y-54913774D02*
X67275315Y-54913774D01*
X67275315Y-55014789D01*
X67376330Y-55014789D01*
X67376330Y-54913774D01*
X67275315Y-55014789D01*
X67679376Y-54610728D02*
X68335975Y-54055144D01*
X68335975Y-53954129D01*
X68234960Y-53954129D01*
X67679376Y-54610728D01*
X68335975Y-53954129D01*
X53073300Y-121477814D02*
X53001871Y-121549242D01*
X53073300Y-121620671D01*
X53144728Y-121549242D01*
X53073300Y-121477814D01*
X53073300Y-121620671D01*
X53073300Y-121049242D02*
X53144728Y-120192100D01*
X53073300Y-120120671D01*
X53001871Y-120192100D01*
X53073300Y-121049242D01*
X53073300Y-120120671D01*
D11*
X67411844Y-119104596D02*
X67479187Y-119104596D01*
X67613874Y-119037252D01*
X67681218Y-118969909D01*
X67748561Y-118835222D01*
X67748561Y-118700535D01*
X67714889Y-118599519D01*
X67613874Y-118431161D01*
X67512859Y-118330145D01*
X67344500Y-118229130D01*
X67243485Y-118195458D01*
X67108798Y-118195458D01*
X66974111Y-118262802D01*
X66906767Y-118330145D01*
X66839424Y-118464832D01*
X66839424Y-118532176D01*
X66704737Y-119811702D02*
X66772080Y-119811702D01*
X66906767Y-119744359D01*
X66974111Y-119677015D01*
X67041454Y-119542328D01*
X67041454Y-119407641D01*
X67007783Y-119306626D01*
X66906767Y-119138267D01*
X66805752Y-119037252D01*
X66637393Y-118936237D01*
X66536378Y-118902565D01*
X66401691Y-118902565D01*
X66267004Y-118969909D01*
X66199661Y-119037252D01*
X66132317Y-119171939D01*
X66132317Y-119239283D01*
X65324195Y-120586153D02*
X65256852Y-120720840D01*
X65256852Y-120788183D01*
X65290523Y-120889198D01*
X65391539Y-120990214D01*
X65492554Y-121023885D01*
X65559897Y-121023885D01*
X65660913Y-120990214D01*
X65930287Y-120720840D01*
X65223180Y-120013733D01*
X64987478Y-120249435D01*
X64953806Y-120350450D01*
X64953806Y-120417794D01*
X64987478Y-120518809D01*
X65054821Y-120586153D01*
X65155836Y-120619824D01*
X65223180Y-120619824D01*
X65324195Y-120586153D01*
X65559897Y-120350450D01*
X64751775Y-121225916D02*
X65088493Y-121562633D01*
X64617088Y-120619824D02*
X64751775Y-121225916D01*
X64145684Y-121091229D01*
X64347714Y-121764664D02*
X63808966Y-122303412D01*
X63741623Y-122842160D02*
X63674279Y-122976847D01*
X63505920Y-123145206D01*
X63404905Y-123178878D01*
X63337562Y-123178878D01*
X63236546Y-123145206D01*
X63169203Y-123077862D01*
X63135531Y-122976847D01*
X63135531Y-122909504D01*
X63169203Y-122808488D01*
X63270218Y-122640130D01*
X63303890Y-122539114D01*
X63303890Y-122471771D01*
X63270218Y-122370756D01*
X63202875Y-122303412D01*
X63101859Y-122269740D01*
X63034516Y-122269740D01*
X62933501Y-122303412D01*
X62765142Y-122471771D01*
X62697798Y-122606458D01*
X62899829Y-123347236D02*
X62563111Y-123683954D01*
X63169203Y-123481923D02*
X62226394Y-123010519D01*
X62697798Y-123953328D01*
X61148898Y-124559419D02*
X61620302Y-125030824D01*
X61047883Y-124121687D02*
X61721318Y-124458404D01*
X61283585Y-124896137D01*
X61182570Y-125333870D02*
X61182570Y-125401213D01*
X61249913Y-125401213D01*
X61249913Y-125333870D01*
X61182570Y-125333870D01*
X61249913Y-125401213D01*
X60071402Y-125165511D02*
X60004058Y-125232854D01*
X59970387Y-125333870D01*
X59970387Y-125401213D01*
X60004058Y-125502228D01*
X60105074Y-125670587D01*
X60273432Y-125838946D01*
X60441791Y-125939961D01*
X60542806Y-125973633D01*
X60610150Y-125973633D01*
X60711165Y-125939961D01*
X60778509Y-125872618D01*
X60812180Y-125771602D01*
X60812180Y-125704259D01*
X60778509Y-125603244D01*
X60677493Y-125434885D01*
X60509135Y-125266526D01*
X60340776Y-125165511D01*
X60239761Y-125131839D01*
X60172417Y-125131839D01*
X60071402Y-125165511D01*
X67824323Y-120560899D02*
X67756979Y-120695586D01*
X67756979Y-120762930D01*
X67790651Y-120863945D01*
X67891666Y-120964960D01*
X67992682Y-120998632D01*
X68060025Y-120998632D01*
X68161040Y-120964960D01*
X68430414Y-120695586D01*
X67723307Y-119988479D01*
X67487605Y-120224181D01*
X67453933Y-120325197D01*
X67453933Y-120392540D01*
X67487605Y-120493555D01*
X67554949Y-120560899D01*
X67655964Y-120594571D01*
X67723307Y-120594571D01*
X67824323Y-120560899D01*
X68060025Y-120325197D01*
X67352918Y-121032304D02*
X67117216Y-121268006D01*
X67386590Y-121739410D02*
X67723307Y-121402693D01*
X67016201Y-120695586D01*
X66679483Y-121032304D01*
X67083544Y-122042456D02*
X66376437Y-121335349D01*
X66679483Y-122446517D01*
X65972376Y-121739410D01*
X65804018Y-123321983D02*
X65096911Y-122614876D01*
X65366285Y-123355654D01*
X64625506Y-123086280D01*
X65332613Y-123793387D01*
X64154102Y-123557685D02*
X64019415Y-123692372D01*
X63985743Y-123793387D01*
X63985743Y-123928074D01*
X64086758Y-124096433D01*
X64322461Y-124332135D01*
X64490819Y-124433150D01*
X64625506Y-124433150D01*
X64726522Y-124399479D01*
X64861209Y-124264792D01*
X64894880Y-124163776D01*
X64894880Y-124029089D01*
X64793865Y-123860731D01*
X64558163Y-123625028D01*
X64389804Y-123524013D01*
X64255117Y-123524013D01*
X64154102Y-123557685D01*
X63851056Y-125274944D02*
X63750041Y-124702524D01*
X64255117Y-124870883D02*
X63548010Y-124163776D01*
X63278636Y-124433150D01*
X63244965Y-124534166D01*
X63244965Y-124601509D01*
X63278636Y-124702524D01*
X63379652Y-124803540D01*
X63480667Y-124837211D01*
X63548010Y-124837211D01*
X63649026Y-124803540D01*
X63918400Y-124534166D01*
X63177621Y-125207601D02*
X62941919Y-125443303D01*
X63211293Y-125914707D02*
X63548010Y-125577990D01*
X62840904Y-124870883D01*
X62504186Y-125207601D01*
X62908247Y-126217753D02*
X62201140Y-125510646D01*
X62504186Y-126621814D01*
X61797079Y-125914707D01*
D12*
%TO.C,J9*%
X57734200Y-66522600D03*
X60274200Y-66522600D03*
D13*
X62814200Y-66522600D03*
%TD*%
D12*
%TO.C,J8*%
X53000000Y-108920000D03*
X53000000Y-111460000D03*
D13*
X53000000Y-114000000D03*
%TD*%
D12*
%TO.C,J7*%
X67000000Y-108920000D03*
X67000000Y-111460000D03*
D13*
X67000000Y-114000000D03*
%TD*%
D12*
%TO.C,J6*%
X67614800Y-151549100D03*
X67614800Y-154089100D03*
D13*
X67614800Y-156629100D03*
%TD*%
D14*
%TO.C,RV1*%
X57500000Y-137854597D03*
D15*
X60000000Y-137854597D03*
X62500000Y-137854597D03*
D16*
X64750000Y-130354597D03*
X55250000Y-130354597D03*
D15*
X62500000Y-140354597D03*
X60000000Y-140354597D03*
X57500000Y-140354597D03*
%TD*%
D17*
%TO.C,J3*%
X60000000Y-95766799D03*
D18*
X60000000Y-90846799D03*
X60000000Y-99146799D03*
D15*
X60000000Y-101862799D03*
%TD*%
D17*
%TO.C,J2*%
X60000000Y-113660698D03*
D18*
X60000000Y-108740698D03*
X60000000Y-117040698D03*
D15*
X60000000Y-119756698D03*
%TD*%
D17*
%TO.C,J1*%
X60000000Y-153098500D03*
D18*
X60000000Y-158018500D03*
X60000000Y-149718500D03*
D15*
X60000000Y-147002500D03*
%TD*%
D14*
%TO.C,RV2*%
X57500000Y-81193899D03*
D15*
X60000000Y-81193899D03*
X62500000Y-81193899D03*
D16*
X64750000Y-73693899D03*
X55250000Y-73693899D03*
D15*
X62500000Y-83693899D03*
X60000000Y-83693899D03*
X57500000Y-83693899D03*
%TD*%
D19*
%TO.C,R8*%
X67000000Y-99620000D03*
D20*
X67000000Y-92000000D03*
%TD*%
D19*
%TO.C,R7*%
X68000000Y-76380000D03*
D20*
X68000000Y-84000000D03*
%TD*%
D19*
%TO.C,R6*%
X68250000Y-133620000D03*
D20*
X68250000Y-126000000D03*
%TD*%
D19*
%TO.C,R5*%
X68250000Y-147620000D03*
D20*
X68250000Y-140000000D03*
%TD*%
D19*
%TO.C,R4*%
X53000000Y-91880000D03*
D20*
X53000000Y-99500000D03*
%TD*%
D19*
%TO.C,R3*%
X52000000Y-76380000D03*
D20*
X52000000Y-84000000D03*
%TD*%
D19*
%TO.C,R2*%
X51750000Y-133620000D03*
D20*
X51750000Y-126000000D03*
%TD*%
D19*
%TO.C,R1*%
X51750000Y-147620000D03*
D20*
X51750000Y-140000000D03*
%TD*%
D17*
%TO.C,J5*%
X65000000Y-57000000D03*
D18*
X65000000Y-52080000D03*
X65000000Y-60380000D03*
D15*
X65000000Y-63096000D03*
%TD*%
D17*
%TO.C,J4*%
X55000000Y-57000000D03*
D18*
X55000000Y-52080000D03*
X55000000Y-60380000D03*
D15*
X55000000Y-63096000D03*
%TD*%
M02*
