%TF.GenerationSoftware,KiCad,Pcbnew,(5.1.6-0-10_14)*%
%TF.CreationDate,2020-12-13T12:36:34-06:00*%
%TF.ProjectId,nab,6e61622e-6b69-4636-9164-5f7063625858,rev?*%
%TF.SameCoordinates,Original*%
%TF.FileFunction,Soldermask,Top*%
%TF.FilePolarity,Negative*%
%FSLAX46Y46*%
G04 Gerber Fmt 4.6, Leading zero omitted, Abs format (unit mm)*
G04 Created by KiCad (PCBNEW (5.1.6-0-10_14)) date 2020-12-13 12:36:34*
%MOMM*%
%LPD*%
G01*
G04 APERTURE LIST*
%ADD10O,1.800000X1.800000*%
%ADD11R,1.800000X1.800000*%
%ADD12R,1.900000X1.900000*%
%ADD13C,1.900000*%
%ADD14O,2.820000X3.340000*%
%ADD15C,3.100000*%
%ADD16C,2.250000*%
%ADD17O,1.700000X1.700000*%
%ADD18C,1.700000*%
G04 APERTURE END LIST*
D10*
%TO.C,J9*%
X57734200Y-66522600D03*
X60274200Y-66522600D03*
D11*
X62814200Y-66522600D03*
%TD*%
D10*
%TO.C,J8*%
X53000000Y-108920000D03*
X53000000Y-111460000D03*
D11*
X53000000Y-114000000D03*
%TD*%
D10*
%TO.C,J7*%
X67000000Y-108920000D03*
X67000000Y-111460000D03*
D11*
X67000000Y-114000000D03*
%TD*%
D10*
%TO.C,J6*%
X67614800Y-151549100D03*
X67614800Y-154089100D03*
D11*
X67614800Y-156629100D03*
%TD*%
D12*
%TO.C,RV1*%
X57500000Y-137854597D03*
D13*
X60000000Y-137854597D03*
X62500000Y-137854597D03*
D14*
X64750000Y-130354597D03*
X55250000Y-130354597D03*
D13*
X62500000Y-140354597D03*
X60000000Y-140354597D03*
X57500000Y-140354597D03*
%TD*%
D15*
%TO.C,J3*%
X60000000Y-95766799D03*
D16*
X60000000Y-90846799D03*
X60000000Y-99146799D03*
D13*
X60000000Y-101862799D03*
%TD*%
D15*
%TO.C,J2*%
X60000000Y-113660698D03*
D16*
X60000000Y-108740698D03*
X60000000Y-117040698D03*
D13*
X60000000Y-119756698D03*
%TD*%
D15*
%TO.C,J1*%
X60000000Y-153098500D03*
D16*
X60000000Y-158018500D03*
X60000000Y-149718500D03*
D13*
X60000000Y-147002500D03*
%TD*%
D12*
%TO.C,RV2*%
X57500000Y-81193899D03*
D13*
X60000000Y-81193899D03*
X62500000Y-81193899D03*
D14*
X64750000Y-73693899D03*
X55250000Y-73693899D03*
D13*
X62500000Y-83693899D03*
X60000000Y-83693899D03*
X57500000Y-83693899D03*
%TD*%
D17*
%TO.C,R8*%
X67000000Y-99620000D03*
D18*
X67000000Y-92000000D03*
%TD*%
D17*
%TO.C,R7*%
X68000000Y-76380000D03*
D18*
X68000000Y-84000000D03*
%TD*%
D17*
%TO.C,R6*%
X68250000Y-133620000D03*
D18*
X68250000Y-126000000D03*
%TD*%
D17*
%TO.C,R5*%
X68250000Y-147620000D03*
D18*
X68250000Y-140000000D03*
%TD*%
D17*
%TO.C,R4*%
X53000000Y-91880000D03*
D18*
X53000000Y-99500000D03*
%TD*%
D17*
%TO.C,R3*%
X52000000Y-76380000D03*
D18*
X52000000Y-84000000D03*
%TD*%
D17*
%TO.C,R2*%
X51750000Y-133620000D03*
D18*
X51750000Y-126000000D03*
%TD*%
D17*
%TO.C,R1*%
X51750000Y-147620000D03*
D18*
X51750000Y-140000000D03*
%TD*%
D15*
%TO.C,J5*%
X65000000Y-57000000D03*
D16*
X65000000Y-52080000D03*
X65000000Y-60380000D03*
D13*
X65000000Y-63096000D03*
%TD*%
D15*
%TO.C,J4*%
X55000000Y-57000000D03*
D16*
X55000000Y-52080000D03*
X55000000Y-60380000D03*
D13*
X55000000Y-63096000D03*
%TD*%
M02*
