%TF.GenerationSoftware,KiCad,Pcbnew,(5.1.6-0-10_14)*%
%TF.CreationDate,2020-12-13T12:36:34-06:00*%
%TF.ProjectId,nab,6e61622e-6b69-4636-9164-5f7063625858,rev?*%
%TF.SameCoordinates,Original*%
%TF.FileFunction,Other,User*%
%FSLAX46Y46*%
G04 Gerber Fmt 4.6, Leading zero omitted, Abs format (unit mm)*
G04 Created by KiCad (PCBNEW (5.1.6-0-10_14)) date 2020-12-13 12:36:34*
%MOMM*%
%LPD*%
G01*
G04 APERTURE LIST*
%ADD10C,0.050000*%
G04 APERTURE END LIST*
D10*
%TO.C,RV1*%
X66360000Y-141504597D02*
X66360000Y-125254597D01*
X53640000Y-141504597D02*
X66360000Y-141504597D01*
X53640000Y-125254597D02*
X53640000Y-141504597D01*
X66360000Y-125254597D02*
X53640000Y-125254597D01*
%TO.C,RV2*%
X66360000Y-84843899D02*
X66360000Y-68593899D01*
X53640000Y-84843899D02*
X66360000Y-84843899D01*
X53640000Y-68593899D02*
X53640000Y-84843899D01*
X66360000Y-68593899D02*
X53640000Y-68593899D01*
%TO.C,R8*%
X68500000Y-100670000D02*
X68500000Y-90950000D01*
X65500000Y-100670000D02*
X68500000Y-100670000D01*
X65500000Y-90950000D02*
X65500000Y-100670000D01*
X68500000Y-90950000D02*
X65500000Y-90950000D01*
%TO.C,R7*%
X66500000Y-75330000D02*
X66500000Y-85050000D01*
X69500000Y-75330000D02*
X66500000Y-75330000D01*
X69500000Y-85050000D02*
X69500000Y-75330000D01*
X66500000Y-85050000D02*
X69500000Y-85050000D01*
%TO.C,R6*%
X69750000Y-134670000D02*
X69750000Y-124950000D01*
X66750000Y-134670000D02*
X69750000Y-134670000D01*
X66750000Y-124950000D02*
X66750000Y-134670000D01*
X69750000Y-124950000D02*
X66750000Y-124950000D01*
%TO.C,R5*%
X69750000Y-148670000D02*
X69750000Y-138950000D01*
X66750000Y-148670000D02*
X69750000Y-148670000D01*
X66750000Y-138950000D02*
X66750000Y-148670000D01*
X69750000Y-138950000D02*
X66750000Y-138950000D01*
%TO.C,R4*%
X51500000Y-90830000D02*
X51500000Y-100550000D01*
X54500000Y-90830000D02*
X51500000Y-90830000D01*
X54500000Y-100550000D02*
X54500000Y-90830000D01*
X51500000Y-100550000D02*
X54500000Y-100550000D01*
%TO.C,R3*%
X50500000Y-75330000D02*
X50500000Y-85050000D01*
X53500000Y-75330000D02*
X50500000Y-75330000D01*
X53500000Y-85050000D02*
X53500000Y-75330000D01*
X50500000Y-85050000D02*
X53500000Y-85050000D01*
%TO.C,R2*%
X53250000Y-134670000D02*
X53250000Y-124950000D01*
X50250000Y-134670000D02*
X53250000Y-134670000D01*
X50250000Y-124950000D02*
X50250000Y-134670000D01*
X53250000Y-124950000D02*
X50250000Y-124950000D01*
%TO.C,R1*%
X53250000Y-148670000D02*
X53250000Y-138950000D01*
X50250000Y-148670000D02*
X53250000Y-148670000D01*
X50250000Y-138950000D02*
X50250000Y-148670000D01*
X53250000Y-138950000D02*
X50250000Y-138950000D01*
%TD*%
M02*
