%TF.GenerationSoftware,KiCad,Pcbnew,(5.1.6-0-10_14)*%
%TF.CreationDate,2020-11-24T13:30:39-06:00*%
%TF.ProjectId,nab,6e61622e-6b69-4636-9164-5f7063625858,rev?*%
%TF.SameCoordinates,Original*%
%TF.FileFunction,Other,Fab,Bot*%
%FSLAX46Y46*%
G04 Gerber Fmt 4.6, Leading zero omitted, Abs format (unit mm)*
G04 Created by KiCad (PCBNEW (5.1.6-0-10_14)) date 2020-11-24 13:30:39*
%MOMM*%
%LPD*%
G01*
G04 APERTURE LIST*
%ADD10C,0.100000*%
%ADD11C,0.150000*%
G04 APERTURE END LIST*
D10*
%TO.C,J9*%
X64084200Y-67157600D02*
X64084200Y-65252600D01*
X64084200Y-65252600D02*
X56464200Y-65252600D01*
X56464200Y-65252600D02*
X56464200Y-67792600D01*
X56464200Y-67792600D02*
X63449200Y-67792600D01*
X63449200Y-67792600D02*
X64084200Y-67157600D01*
%TO.C,J8*%
X52365000Y-115270000D02*
X54270000Y-115270000D01*
X54270000Y-115270000D02*
X54270000Y-107650000D01*
X54270000Y-107650000D02*
X51730000Y-107650000D01*
X51730000Y-107650000D02*
X51730000Y-114635000D01*
X51730000Y-114635000D02*
X52365000Y-115270000D01*
%TO.C,J7*%
X66365000Y-115270000D02*
X68270000Y-115270000D01*
X68270000Y-115270000D02*
X68270000Y-107650000D01*
X68270000Y-107650000D02*
X65730000Y-107650000D01*
X65730000Y-107650000D02*
X65730000Y-114635000D01*
X65730000Y-114635000D02*
X66365000Y-115270000D01*
%TO.C,J6*%
X66979800Y-157899100D02*
X68884800Y-157899100D01*
X68884800Y-157899100D02*
X68884800Y-150279100D01*
X68884800Y-150279100D02*
X66344800Y-150279100D01*
X66344800Y-150279100D02*
X66344800Y-157264100D01*
X66344800Y-157264100D02*
X66979800Y-157899100D01*
%TD*%
%TO.C,J9*%
D11*
X55047057Y-72355933D02*
X54999438Y-72403552D01*
X54951819Y-72546409D01*
X54951819Y-72641647D01*
X54999438Y-72784504D01*
X55094676Y-72879742D01*
X55189914Y-72927361D01*
X55380390Y-72974980D01*
X55523247Y-72974980D01*
X55713723Y-72927361D01*
X55808961Y-72879742D01*
X55904200Y-72784504D01*
X55951819Y-72641647D01*
X55951819Y-72546409D01*
X55904200Y-72403552D01*
X55856580Y-72355933D01*
X54951819Y-71784504D02*
X54999438Y-71879742D01*
X55047057Y-71927361D01*
X55142295Y-71974980D01*
X55428009Y-71974980D01*
X55523247Y-71927361D01*
X55570866Y-71879742D01*
X55618485Y-71784504D01*
X55618485Y-71641647D01*
X55570866Y-71546409D01*
X55523247Y-71498790D01*
X55428009Y-71451171D01*
X55142295Y-71451171D01*
X55047057Y-71498790D01*
X54999438Y-71546409D01*
X54951819Y-71641647D01*
X54951819Y-71784504D01*
X55618485Y-71022600D02*
X54951819Y-71022600D01*
X55523247Y-71022600D02*
X55570866Y-70974980D01*
X55618485Y-70879742D01*
X55618485Y-70736885D01*
X55570866Y-70641647D01*
X55475628Y-70594028D01*
X54951819Y-70594028D01*
X55618485Y-70117838D02*
X54951819Y-70117838D01*
X55523247Y-70117838D02*
X55570866Y-70070219D01*
X55618485Y-69974980D01*
X55618485Y-69832123D01*
X55570866Y-69736885D01*
X55475628Y-69689266D01*
X54951819Y-69689266D01*
X54856580Y-69451171D02*
X54856580Y-68689266D01*
X55951819Y-68260695D02*
X55951819Y-68165457D01*
X55904200Y-68070219D01*
X55856580Y-68022600D01*
X55761342Y-67974980D01*
X55570866Y-67927361D01*
X55332771Y-67927361D01*
X55142295Y-67974980D01*
X55047057Y-68022600D01*
X54999438Y-68070219D01*
X54951819Y-68165457D01*
X54951819Y-68260695D01*
X54999438Y-68355933D01*
X55047057Y-68403552D01*
X55142295Y-68451171D01*
X55332771Y-68498790D01*
X55570866Y-68498790D01*
X55761342Y-68451171D01*
X55856580Y-68403552D01*
X55904200Y-68355933D01*
X55951819Y-68260695D01*
X54951819Y-66974980D02*
X54951819Y-67546409D01*
X54951819Y-67260695D02*
X55951819Y-67260695D01*
X55808961Y-67355933D01*
X55713723Y-67451171D01*
X55666104Y-67546409D01*
X54951819Y-66641647D02*
X55618485Y-66117838D01*
X55618485Y-66641647D02*
X54951819Y-66117838D01*
X55951819Y-65546409D02*
X55951819Y-65451171D01*
X55904200Y-65355933D01*
X55856580Y-65308314D01*
X55761342Y-65260695D01*
X55570866Y-65213076D01*
X55332771Y-65213076D01*
X55142295Y-65260695D01*
X55047057Y-65308314D01*
X54999438Y-65355933D01*
X54951819Y-65451171D01*
X54951819Y-65546409D01*
X54999438Y-65641647D01*
X55047057Y-65689266D01*
X55142295Y-65736885D01*
X55332771Y-65784504D01*
X55570866Y-65784504D01*
X55761342Y-65736885D01*
X55856580Y-65689266D01*
X55904200Y-65641647D01*
X55951819Y-65546409D01*
X55951819Y-64879742D02*
X55951819Y-64260695D01*
X55570866Y-64594028D01*
X55570866Y-64451171D01*
X55523247Y-64355933D01*
X55475628Y-64308314D01*
X55380390Y-64260695D01*
X55142295Y-64260695D01*
X55047057Y-64308314D01*
X54999438Y-64355933D01*
X54951819Y-64451171D01*
X54951819Y-64736885D01*
X54999438Y-64832123D01*
X55047057Y-64879742D01*
X54856580Y-64070219D02*
X54856580Y-63308314D01*
X54951819Y-63070219D02*
X55951819Y-63070219D01*
X55237533Y-62736885D01*
X55951819Y-62403552D01*
X54951819Y-62403552D01*
X54951819Y-61498790D02*
X55475628Y-61498790D01*
X55570866Y-61546409D01*
X55618485Y-61641647D01*
X55618485Y-61832123D01*
X55570866Y-61927361D01*
X54999438Y-61498790D02*
X54951819Y-61594028D01*
X54951819Y-61832123D01*
X54999438Y-61927361D01*
X55094676Y-61974980D01*
X55189914Y-61974980D01*
X55285152Y-61927361D01*
X55332771Y-61832123D01*
X55332771Y-61594028D01*
X55380390Y-61498790D01*
X54951819Y-60879742D02*
X54999438Y-60974980D01*
X55094676Y-61022600D01*
X55951819Y-61022600D01*
X54999438Y-60117838D02*
X54951819Y-60213076D01*
X54951819Y-60403552D01*
X54999438Y-60498790D01*
X55094676Y-60546409D01*
X55475628Y-60546409D01*
X55570866Y-60498790D01*
X55618485Y-60403552D01*
X55618485Y-60213076D01*
X55570866Y-60117838D01*
X55475628Y-60070219D01*
X55380390Y-60070219D01*
X55285152Y-60546409D01*
X60607533Y-65974980D02*
X60607533Y-66689266D01*
X60655152Y-66832123D01*
X60750390Y-66927361D01*
X60893247Y-66974980D01*
X60988485Y-66974980D01*
X60083723Y-66974980D02*
X59893247Y-66974980D01*
X59798009Y-66927361D01*
X59750390Y-66879742D01*
X59655152Y-66736885D01*
X59607533Y-66546409D01*
X59607533Y-66165457D01*
X59655152Y-66070219D01*
X59702771Y-66022600D01*
X59798009Y-65974980D01*
X59988485Y-65974980D01*
X60083723Y-66022600D01*
X60131342Y-66070219D01*
X60178961Y-66165457D01*
X60178961Y-66403552D01*
X60131342Y-66498790D01*
X60083723Y-66546409D01*
X59988485Y-66594028D01*
X59798009Y-66594028D01*
X59702771Y-66546409D01*
X59655152Y-66498790D01*
X59607533Y-66403552D01*
%TO.C,J8*%
X58833333Y-106947142D02*
X58880952Y-106994761D01*
X59023809Y-107042380D01*
X59119047Y-107042380D01*
X59261904Y-106994761D01*
X59357142Y-106899523D01*
X59404761Y-106804285D01*
X59452380Y-106613809D01*
X59452380Y-106470952D01*
X59404761Y-106280476D01*
X59357142Y-106185238D01*
X59261904Y-106090000D01*
X59119047Y-106042380D01*
X59023809Y-106042380D01*
X58880952Y-106090000D01*
X58833333Y-106137619D01*
X58261904Y-107042380D02*
X58357142Y-106994761D01*
X58404761Y-106947142D01*
X58452380Y-106851904D01*
X58452380Y-106566190D01*
X58404761Y-106470952D01*
X58357142Y-106423333D01*
X58261904Y-106375714D01*
X58119047Y-106375714D01*
X58023809Y-106423333D01*
X57976190Y-106470952D01*
X57928571Y-106566190D01*
X57928571Y-106851904D01*
X57976190Y-106947142D01*
X58023809Y-106994761D01*
X58119047Y-107042380D01*
X58261904Y-107042380D01*
X57500000Y-106375714D02*
X57500000Y-107042380D01*
X57500000Y-106470952D02*
X57452380Y-106423333D01*
X57357142Y-106375714D01*
X57214285Y-106375714D01*
X57119047Y-106423333D01*
X57071428Y-106518571D01*
X57071428Y-107042380D01*
X56595238Y-106375714D02*
X56595238Y-107042380D01*
X56595238Y-106470952D02*
X56547619Y-106423333D01*
X56452380Y-106375714D01*
X56309523Y-106375714D01*
X56214285Y-106423333D01*
X56166666Y-106518571D01*
X56166666Y-107042380D01*
X55928571Y-107137619D02*
X55166666Y-107137619D01*
X54738095Y-106042380D02*
X54642857Y-106042380D01*
X54547619Y-106090000D01*
X54500000Y-106137619D01*
X54452380Y-106232857D01*
X54404761Y-106423333D01*
X54404761Y-106661428D01*
X54452380Y-106851904D01*
X54500000Y-106947142D01*
X54547619Y-106994761D01*
X54642857Y-107042380D01*
X54738095Y-107042380D01*
X54833333Y-106994761D01*
X54880952Y-106947142D01*
X54928571Y-106851904D01*
X54976190Y-106661428D01*
X54976190Y-106423333D01*
X54928571Y-106232857D01*
X54880952Y-106137619D01*
X54833333Y-106090000D01*
X54738095Y-106042380D01*
X53452380Y-107042380D02*
X54023809Y-107042380D01*
X53738095Y-107042380D02*
X53738095Y-106042380D01*
X53833333Y-106185238D01*
X53928571Y-106280476D01*
X54023809Y-106328095D01*
X53119047Y-107042380D02*
X52595238Y-106375714D01*
X53119047Y-106375714D02*
X52595238Y-107042380D01*
X52023809Y-106042380D02*
X51928571Y-106042380D01*
X51833333Y-106090000D01*
X51785714Y-106137619D01*
X51738095Y-106232857D01*
X51690476Y-106423333D01*
X51690476Y-106661428D01*
X51738095Y-106851904D01*
X51785714Y-106947142D01*
X51833333Y-106994761D01*
X51928571Y-107042380D01*
X52023809Y-107042380D01*
X52119047Y-106994761D01*
X52166666Y-106947142D01*
X52214285Y-106851904D01*
X52261904Y-106661428D01*
X52261904Y-106423333D01*
X52214285Y-106232857D01*
X52166666Y-106137619D01*
X52119047Y-106090000D01*
X52023809Y-106042380D01*
X51357142Y-106042380D02*
X50738095Y-106042380D01*
X51071428Y-106423333D01*
X50928571Y-106423333D01*
X50833333Y-106470952D01*
X50785714Y-106518571D01*
X50738095Y-106613809D01*
X50738095Y-106851904D01*
X50785714Y-106947142D01*
X50833333Y-106994761D01*
X50928571Y-107042380D01*
X51214285Y-107042380D01*
X51309523Y-106994761D01*
X51357142Y-106947142D01*
X50547619Y-107137619D02*
X49785714Y-107137619D01*
X49547619Y-107042380D02*
X49547619Y-106042380D01*
X49214285Y-106756666D01*
X48880952Y-106042380D01*
X48880952Y-107042380D01*
X47976190Y-107042380D02*
X47976190Y-106518571D01*
X48023809Y-106423333D01*
X48119047Y-106375714D01*
X48309523Y-106375714D01*
X48404761Y-106423333D01*
X47976190Y-106994761D02*
X48071428Y-107042380D01*
X48309523Y-107042380D01*
X48404761Y-106994761D01*
X48452380Y-106899523D01*
X48452380Y-106804285D01*
X48404761Y-106709047D01*
X48309523Y-106661428D01*
X48071428Y-106661428D01*
X47976190Y-106613809D01*
X47357142Y-107042380D02*
X47452380Y-106994761D01*
X47500000Y-106899523D01*
X47500000Y-106042380D01*
X46595238Y-106994761D02*
X46690476Y-107042380D01*
X46880952Y-107042380D01*
X46976190Y-106994761D01*
X47023809Y-106899523D01*
X47023809Y-106518571D01*
X46976190Y-106423333D01*
X46880952Y-106375714D01*
X46690476Y-106375714D01*
X46595238Y-106423333D01*
X46547619Y-106518571D01*
X46547619Y-106613809D01*
X47023809Y-106709047D01*
X52452380Y-111126666D02*
X53166666Y-111126666D01*
X53309523Y-111079047D01*
X53404761Y-110983809D01*
X53452380Y-110840952D01*
X53452380Y-110745714D01*
X52880952Y-111745714D02*
X52833333Y-111650476D01*
X52785714Y-111602857D01*
X52690476Y-111555238D01*
X52642857Y-111555238D01*
X52547619Y-111602857D01*
X52500000Y-111650476D01*
X52452380Y-111745714D01*
X52452380Y-111936190D01*
X52500000Y-112031428D01*
X52547619Y-112079047D01*
X52642857Y-112126666D01*
X52690476Y-112126666D01*
X52785714Y-112079047D01*
X52833333Y-112031428D01*
X52880952Y-111936190D01*
X52880952Y-111745714D01*
X52928571Y-111650476D01*
X52976190Y-111602857D01*
X53071428Y-111555238D01*
X53261904Y-111555238D01*
X53357142Y-111602857D01*
X53404761Y-111650476D01*
X53452380Y-111745714D01*
X53452380Y-111936190D01*
X53404761Y-112031428D01*
X53357142Y-112079047D01*
X53261904Y-112126666D01*
X53071428Y-112126666D01*
X52976190Y-112079047D01*
X52928571Y-112031428D01*
X52880952Y-111936190D01*
%TO.C,J7*%
X71377327Y-102717748D02*
X71444671Y-102717748D01*
X71579358Y-102650405D01*
X71646701Y-102583061D01*
X71714045Y-102448374D01*
X71714045Y-102313687D01*
X71680373Y-102212672D01*
X71579358Y-102044313D01*
X71478342Y-101943298D01*
X71309984Y-101842283D01*
X71208968Y-101808611D01*
X71074281Y-101808611D01*
X70939594Y-101875954D01*
X70872251Y-101943298D01*
X70804907Y-102077985D01*
X70804907Y-102145328D01*
X71040610Y-103189153D02*
X71074281Y-103088137D01*
X71074281Y-103020794D01*
X71040610Y-102919779D01*
X70838579Y-102717748D01*
X70737564Y-102684076D01*
X70670220Y-102684076D01*
X70569205Y-102717748D01*
X70468190Y-102818763D01*
X70434518Y-102919779D01*
X70434518Y-102987122D01*
X70468190Y-103088137D01*
X70670220Y-103290168D01*
X70771236Y-103323840D01*
X70838579Y-103323840D01*
X70939594Y-103290168D01*
X71040610Y-103189153D01*
X70030457Y-103256496D02*
X70501862Y-103727901D01*
X70097801Y-103323840D02*
X70030457Y-103323840D01*
X69929442Y-103357511D01*
X69828427Y-103458527D01*
X69794755Y-103559542D01*
X69828427Y-103660557D01*
X70198816Y-104030946D01*
X69390694Y-103896259D02*
X69862098Y-104367664D01*
X69458037Y-103963603D02*
X69390694Y-103963603D01*
X69289679Y-103997275D01*
X69188663Y-104098290D01*
X69154992Y-104199305D01*
X69188663Y-104300320D01*
X69559053Y-104670710D01*
X69458037Y-104906412D02*
X68919289Y-105445160D01*
X67841793Y-104973755D02*
X67774450Y-105041099D01*
X67740778Y-105142114D01*
X67740778Y-105209458D01*
X67774450Y-105310473D01*
X67875465Y-105478832D01*
X68043824Y-105647190D01*
X68212183Y-105748206D01*
X68313198Y-105781877D01*
X68380541Y-105781877D01*
X68481557Y-105748206D01*
X68548900Y-105680862D01*
X68582572Y-105579847D01*
X68582572Y-105512503D01*
X68548900Y-105411488D01*
X68447885Y-105243129D01*
X68279526Y-105074771D01*
X68111167Y-104973755D01*
X68010152Y-104940084D01*
X67942809Y-104940084D01*
X67841793Y-104973755D01*
X67639763Y-106590000D02*
X68043824Y-106185938D01*
X67841793Y-106387969D02*
X67134687Y-105680862D01*
X67303045Y-105714534D01*
X67437732Y-105714534D01*
X67538748Y-105680862D01*
X67404061Y-106825702D02*
X66562267Y-106724687D01*
X66932656Y-106354297D02*
X67033671Y-107196091D01*
X65922503Y-106893045D02*
X65855160Y-106960389D01*
X65821488Y-107061404D01*
X65821488Y-107128748D01*
X65855160Y-107229763D01*
X65956175Y-107398122D01*
X66124534Y-107566480D01*
X66292893Y-107667496D01*
X66393908Y-107701167D01*
X66461251Y-107701167D01*
X66562267Y-107667496D01*
X66629610Y-107600152D01*
X66663282Y-107499137D01*
X66663282Y-107431793D01*
X66629610Y-107330778D01*
X66528595Y-107162419D01*
X66360236Y-106994061D01*
X66191877Y-106893045D01*
X66090862Y-106859374D01*
X66023519Y-106859374D01*
X65922503Y-106893045D01*
X65451099Y-107364450D02*
X65013366Y-107802183D01*
X65518442Y-107835854D01*
X65417427Y-107936870D01*
X65383755Y-108037885D01*
X65383755Y-108105228D01*
X65417427Y-108206244D01*
X65585786Y-108374602D01*
X65686801Y-108408274D01*
X65754145Y-108408274D01*
X65855160Y-108374602D01*
X66057190Y-108172572D01*
X66090862Y-108071557D01*
X66090862Y-108004213D01*
X65653129Y-108711320D02*
X65114381Y-109250068D01*
X64878679Y-109351083D02*
X64171572Y-108643976D01*
X64440946Y-109384755D01*
X63700168Y-109115381D01*
X64407275Y-109822488D01*
X63767511Y-110462251D02*
X63397122Y-110091862D01*
X63363450Y-109990846D01*
X63397122Y-109889831D01*
X63531809Y-109755144D01*
X63632824Y-109721472D01*
X63733840Y-110428579D02*
X63834855Y-110394907D01*
X64003214Y-110226549D01*
X64036885Y-110125533D01*
X64003214Y-110024518D01*
X63935870Y-109957175D01*
X63834855Y-109923503D01*
X63733840Y-109957175D01*
X63565481Y-110125533D01*
X63464466Y-110159205D01*
X63329779Y-110899984D02*
X63363450Y-110798968D01*
X63329779Y-110697953D01*
X62723687Y-110091862D01*
X62757359Y-111405060D02*
X62858374Y-111371388D01*
X62993061Y-111236701D01*
X63026733Y-111135686D01*
X62993061Y-111034671D01*
X62723687Y-110765297D01*
X62622672Y-110731625D01*
X62521657Y-110765297D01*
X62386970Y-110899984D01*
X62353298Y-111000999D01*
X62386970Y-111102014D01*
X62454313Y-111169358D01*
X62858374Y-110899984D01*
X66452380Y-111126666D02*
X67166666Y-111126666D01*
X67309523Y-111079047D01*
X67404761Y-110983809D01*
X67452380Y-110840952D01*
X67452380Y-110745714D01*
X66452380Y-111507619D02*
X66452380Y-112174285D01*
X67452380Y-111745714D01*
%TO.C,J6*%
X73448133Y-149576242D02*
X73495752Y-149623861D01*
X73638609Y-149671480D01*
X73733847Y-149671480D01*
X73876704Y-149623861D01*
X73971942Y-149528623D01*
X74019561Y-149433385D01*
X74067180Y-149242909D01*
X74067180Y-149100052D01*
X74019561Y-148909576D01*
X73971942Y-148814338D01*
X73876704Y-148719100D01*
X73733847Y-148671480D01*
X73638609Y-148671480D01*
X73495752Y-148719100D01*
X73448133Y-148766719D01*
X72876704Y-149671480D02*
X72971942Y-149623861D01*
X73019561Y-149576242D01*
X73067180Y-149481004D01*
X73067180Y-149195290D01*
X73019561Y-149100052D01*
X72971942Y-149052433D01*
X72876704Y-149004814D01*
X72733847Y-149004814D01*
X72638609Y-149052433D01*
X72590990Y-149100052D01*
X72543371Y-149195290D01*
X72543371Y-149481004D01*
X72590990Y-149576242D01*
X72638609Y-149623861D01*
X72733847Y-149671480D01*
X72876704Y-149671480D01*
X72114800Y-149004814D02*
X72114800Y-149671480D01*
X72114800Y-149100052D02*
X72067180Y-149052433D01*
X71971942Y-149004814D01*
X71829085Y-149004814D01*
X71733847Y-149052433D01*
X71686228Y-149147671D01*
X71686228Y-149671480D01*
X71210038Y-149004814D02*
X71210038Y-149671480D01*
X71210038Y-149100052D02*
X71162419Y-149052433D01*
X71067180Y-149004814D01*
X70924323Y-149004814D01*
X70829085Y-149052433D01*
X70781466Y-149147671D01*
X70781466Y-149671480D01*
X70543371Y-149766719D02*
X69781466Y-149766719D01*
X69352895Y-148671480D02*
X69257657Y-148671480D01*
X69162419Y-148719100D01*
X69114800Y-148766719D01*
X69067180Y-148861957D01*
X69019561Y-149052433D01*
X69019561Y-149290528D01*
X69067180Y-149481004D01*
X69114800Y-149576242D01*
X69162419Y-149623861D01*
X69257657Y-149671480D01*
X69352895Y-149671480D01*
X69448133Y-149623861D01*
X69495752Y-149576242D01*
X69543371Y-149481004D01*
X69590990Y-149290528D01*
X69590990Y-149052433D01*
X69543371Y-148861957D01*
X69495752Y-148766719D01*
X69448133Y-148719100D01*
X69352895Y-148671480D01*
X68067180Y-149671480D02*
X68638609Y-149671480D01*
X68352895Y-149671480D02*
X68352895Y-148671480D01*
X68448133Y-148814338D01*
X68543371Y-148909576D01*
X68638609Y-148957195D01*
X67733847Y-149671480D02*
X67210038Y-149004814D01*
X67733847Y-149004814D02*
X67210038Y-149671480D01*
X66638609Y-148671480D02*
X66543371Y-148671480D01*
X66448133Y-148719100D01*
X66400514Y-148766719D01*
X66352895Y-148861957D01*
X66305276Y-149052433D01*
X66305276Y-149290528D01*
X66352895Y-149481004D01*
X66400514Y-149576242D01*
X66448133Y-149623861D01*
X66543371Y-149671480D01*
X66638609Y-149671480D01*
X66733847Y-149623861D01*
X66781466Y-149576242D01*
X66829085Y-149481004D01*
X66876704Y-149290528D01*
X66876704Y-149052433D01*
X66829085Y-148861957D01*
X66781466Y-148766719D01*
X66733847Y-148719100D01*
X66638609Y-148671480D01*
X65971942Y-148671480D02*
X65352895Y-148671480D01*
X65686228Y-149052433D01*
X65543371Y-149052433D01*
X65448133Y-149100052D01*
X65400514Y-149147671D01*
X65352895Y-149242909D01*
X65352895Y-149481004D01*
X65400514Y-149576242D01*
X65448133Y-149623861D01*
X65543371Y-149671480D01*
X65829085Y-149671480D01*
X65924323Y-149623861D01*
X65971942Y-149576242D01*
X65162419Y-149766719D02*
X64400514Y-149766719D01*
X64162419Y-149671480D02*
X64162419Y-148671480D01*
X63829085Y-149385766D01*
X63495752Y-148671480D01*
X63495752Y-149671480D01*
X62590990Y-149671480D02*
X62590990Y-149147671D01*
X62638609Y-149052433D01*
X62733847Y-149004814D01*
X62924323Y-149004814D01*
X63019561Y-149052433D01*
X62590990Y-149623861D02*
X62686228Y-149671480D01*
X62924323Y-149671480D01*
X63019561Y-149623861D01*
X63067180Y-149528623D01*
X63067180Y-149433385D01*
X63019561Y-149338147D01*
X62924323Y-149290528D01*
X62686228Y-149290528D01*
X62590990Y-149242909D01*
X61971942Y-149671480D02*
X62067180Y-149623861D01*
X62114800Y-149528623D01*
X62114800Y-148671480D01*
X61210038Y-149623861D02*
X61305276Y-149671480D01*
X61495752Y-149671480D01*
X61590990Y-149623861D01*
X61638609Y-149528623D01*
X61638609Y-149147671D01*
X61590990Y-149052433D01*
X61495752Y-149004814D01*
X61305276Y-149004814D01*
X61210038Y-149052433D01*
X61162419Y-149147671D01*
X61162419Y-149242909D01*
X61638609Y-149338147D01*
X67067180Y-153755766D02*
X67781466Y-153755766D01*
X67924323Y-153708147D01*
X68019561Y-153612909D01*
X68067180Y-153470052D01*
X68067180Y-153374814D01*
X67067180Y-154660528D02*
X67067180Y-154470052D01*
X67114800Y-154374814D01*
X67162419Y-154327195D01*
X67305276Y-154231957D01*
X67495752Y-154184338D01*
X67876704Y-154184338D01*
X67971942Y-154231957D01*
X68019561Y-154279576D01*
X68067180Y-154374814D01*
X68067180Y-154565290D01*
X68019561Y-154660528D01*
X67971942Y-154708147D01*
X67876704Y-154755766D01*
X67638609Y-154755766D01*
X67543371Y-154708147D01*
X67495752Y-154660528D01*
X67448133Y-154565290D01*
X67448133Y-154374814D01*
X67495752Y-154279576D01*
X67543371Y-154231957D01*
X67638609Y-154184338D01*
%TD*%
M02*
