%TF.GenerationSoftware,KiCad,Pcbnew,(5.1.6-0-10_14)*%
%TF.CreationDate,2020-12-13T12:36:34-06:00*%
%TF.ProjectId,nab,6e61622e-6b69-4636-9164-5f7063625858,rev?*%
%TF.SameCoordinates,Original*%
%TF.FileFunction,Copper,L1,Top*%
%TF.FilePolarity,Positive*%
%FSLAX46Y46*%
G04 Gerber Fmt 4.6, Leading zero omitted, Abs format (unit mm)*
G04 Created by KiCad (PCBNEW (5.1.6-0-10_14)) date 2020-12-13 12:36:34*
%MOMM*%
%LPD*%
G01*
G04 APERTURE LIST*
%TA.AperFunction,ComponentPad*%
%ADD10O,1.700000X1.700000*%
%TD*%
%TA.AperFunction,ComponentPad*%
%ADD11R,1.700000X1.700000*%
%TD*%
%TA.AperFunction,ComponentPad*%
%ADD12R,1.800000X1.800000*%
%TD*%
%TA.AperFunction,ComponentPad*%
%ADD13C,1.800000*%
%TD*%
%TA.AperFunction,ComponentPad*%
%ADD14O,2.720000X3.240000*%
%TD*%
%TA.AperFunction,ComponentPad*%
%ADD15C,3.000000*%
%TD*%
%TA.AperFunction,ComponentPad*%
%ADD16C,2.150000*%
%TD*%
%TA.AperFunction,ComponentPad*%
%ADD17O,1.600000X1.600000*%
%TD*%
%TA.AperFunction,ComponentPad*%
%ADD18C,1.600000*%
%TD*%
%TA.AperFunction,Conductor*%
%ADD19C,0.250000*%
%TD*%
%TA.AperFunction,Conductor*%
%ADD20C,0.254000*%
%TD*%
G04 APERTURE END LIST*
D10*
%TO.P,J9,3*%
%TO.N,Net-(J4-Pad3)*%
X57734200Y-66522600D03*
%TO.P,J9,2*%
%TO.N,Net-(J5-Pad3)*%
X60274200Y-66522600D03*
D11*
%TO.P,J9,1*%
%TO.N,GND*%
X62814200Y-66522600D03*
%TD*%
D10*
%TO.P,J8,3*%
%TO.N,Net-(J3-PadT)*%
X53000000Y-108920000D03*
%TO.P,J8,2*%
%TO.N,Net-(J3-PadR)*%
X53000000Y-111460000D03*
D11*
%TO.P,J8,1*%
%TO.N,GND*%
X53000000Y-114000000D03*
%TD*%
D10*
%TO.P,J7,3*%
%TO.N,Net-(J2-PadT)*%
X67000000Y-108920000D03*
%TO.P,J7,2*%
%TO.N,Net-(J2-PadR)*%
X67000000Y-111460000D03*
D11*
%TO.P,J7,1*%
%TO.N,GND*%
X67000000Y-114000000D03*
%TD*%
D10*
%TO.P,J6,3*%
%TO.N,Net-(J1-PadT)*%
X67614800Y-151549100D03*
%TO.P,J6,2*%
%TO.N,Net-(J1-PadR)*%
X67614800Y-154089100D03*
D11*
%TO.P,J6,1*%
%TO.N,GND*%
X67614800Y-156629100D03*
%TD*%
D12*
%TO.P,RV1,1*%
%TO.N,GND*%
X57500000Y-137854597D03*
D13*
%TO.P,RV1,2*%
%TO.N,Net-(R1-Pad1)*%
X60000000Y-137854597D03*
%TO.P,RV1,3*%
%TO.N,Net-(J2-PadT)*%
X62500000Y-137854597D03*
D14*
%TO.P,RV1,*%
%TO.N,*%
X64750000Y-130354597D03*
X55250000Y-130354597D03*
D13*
%TO.P,RV1,6*%
%TO.N,Net-(J2-PadR)*%
X62500000Y-140354597D03*
%TO.P,RV1,5*%
%TO.N,Net-(R5-Pad1)*%
X60000000Y-140354597D03*
%TO.P,RV1,4*%
%TO.N,GND*%
X57500000Y-140354597D03*
%TD*%
D15*
%TO.P,J3,*%
%TO.N,*%
X60000000Y-95766799D03*
D16*
%TO.P,J3,T*%
%TO.N,Net-(J3-PadT)*%
X60000000Y-90846799D03*
%TO.P,J3,R*%
%TO.N,Net-(J3-PadR)*%
X60000000Y-99146799D03*
D13*
%TO.P,J3,S*%
%TO.N,GND*%
X60000000Y-101862799D03*
%TD*%
D15*
%TO.P,J2,*%
%TO.N,*%
X60000000Y-113660698D03*
D16*
%TO.P,J2,T*%
%TO.N,Net-(J2-PadT)*%
X60000000Y-108740698D03*
%TO.P,J2,R*%
%TO.N,Net-(J2-PadR)*%
X60000000Y-117040698D03*
D13*
%TO.P,J2,S*%
%TO.N,GND*%
X60000000Y-119756698D03*
%TD*%
D15*
%TO.P,J1,*%
%TO.N,*%
X60000000Y-153098500D03*
D16*
%TO.P,J1,T*%
%TO.N,Net-(J1-PadT)*%
X60000000Y-158018500D03*
%TO.P,J1,R*%
%TO.N,Net-(J1-PadR)*%
X60000000Y-149718500D03*
D13*
%TO.P,J1,S*%
%TO.N,GND*%
X60000000Y-147002500D03*
%TD*%
D12*
%TO.P,RV2,1*%
%TO.N,GND*%
X57500000Y-81193899D03*
D13*
%TO.P,RV2,2*%
%TO.N,Net-(R2-Pad1)*%
X60000000Y-81193899D03*
%TO.P,RV2,3*%
%TO.N,Net-(J3-PadT)*%
X62500000Y-81193899D03*
D14*
%TO.P,RV2,*%
%TO.N,*%
X64750000Y-73693899D03*
X55250000Y-73693899D03*
D13*
%TO.P,RV2,6*%
%TO.N,Net-(J3-PadR)*%
X62500000Y-83693899D03*
%TO.P,RV2,5*%
%TO.N,Net-(R6-Pad1)*%
X60000000Y-83693899D03*
%TO.P,RV2,4*%
%TO.N,GND*%
X57500000Y-83693899D03*
%TD*%
D17*
%TO.P,R8,2*%
%TO.N,Net-(J3-PadR)*%
X67000000Y-99620000D03*
D18*
%TO.P,R8,1*%
%TO.N,GND*%
X67000000Y-92000000D03*
%TD*%
D17*
%TO.P,R7,2*%
%TO.N,Net-(J5-Pad3)*%
X68000000Y-76380000D03*
D18*
%TO.P,R7,1*%
%TO.N,Net-(J3-PadR)*%
X68000000Y-84000000D03*
%TD*%
D17*
%TO.P,R6,2*%
%TO.N,Net-(J1-PadR)*%
X68250000Y-133620000D03*
D18*
%TO.P,R6,1*%
%TO.N,Net-(R6-Pad1)*%
X68250000Y-126000000D03*
%TD*%
D17*
%TO.P,R5,2*%
%TO.N,Net-(J1-PadR)*%
X68250000Y-147620000D03*
D18*
%TO.P,R5,1*%
%TO.N,Net-(R5-Pad1)*%
X68250000Y-140000000D03*
%TD*%
D17*
%TO.P,R4,2*%
%TO.N,Net-(J3-PadT)*%
X53000000Y-91880000D03*
D18*
%TO.P,R4,1*%
%TO.N,GND*%
X53000000Y-99500000D03*
%TD*%
D17*
%TO.P,R3,2*%
%TO.N,Net-(J4-Pad3)*%
X52000000Y-76380000D03*
D18*
%TO.P,R3,1*%
%TO.N,Net-(J3-PadT)*%
X52000000Y-84000000D03*
%TD*%
D17*
%TO.P,R2,2*%
%TO.N,Net-(J1-PadT)*%
X51750000Y-133620000D03*
D18*
%TO.P,R2,1*%
%TO.N,Net-(R2-Pad1)*%
X51750000Y-126000000D03*
%TD*%
D17*
%TO.P,R1,2*%
%TO.N,Net-(J1-PadT)*%
X51750000Y-147620000D03*
D18*
%TO.P,R1,1*%
%TO.N,Net-(R1-Pad1)*%
X51750000Y-140000000D03*
%TD*%
D15*
%TO.P,J5,*%
%TO.N,*%
X65000000Y-57000000D03*
D16*
%TO.P,J5,3*%
%TO.N,Net-(J5-Pad3)*%
X65000000Y-52080000D03*
%TO.P,J5,2*%
%TO.N,GND*%
X65000000Y-60380000D03*
D13*
%TO.P,J5,1*%
X65000000Y-63096000D03*
%TD*%
D15*
%TO.P,J4,*%
%TO.N,*%
X55000000Y-57000000D03*
D16*
%TO.P,J4,3*%
%TO.N,Net-(J4-Pad3)*%
X55000000Y-52080000D03*
%TO.P,J4,2*%
%TO.N,GND*%
X55000000Y-60380000D03*
D13*
%TO.P,J4,1*%
X55000000Y-63096000D03*
%TD*%
D19*
%TO.N,Net-(J1-PadT)*%
X51750000Y-133620000D02*
X51750000Y-136090700D01*
X51750000Y-136090700D02*
X55054500Y-139395200D01*
X55054500Y-139395200D02*
X55054500Y-151574500D01*
X60000000Y-156520000D02*
X60000000Y-158018500D01*
X55054500Y-151574500D02*
X60000000Y-156520000D01*
X60000000Y-158018500D02*
X66418500Y-151600000D01*
X66418500Y-151600000D02*
X67400000Y-151600000D01*
X67400000Y-151600000D02*
X67600000Y-151400000D01*
%TO.N,Net-(R2-Pad1)*%
X60000000Y-81193899D02*
X60000000Y-81033500D01*
X60000000Y-81193899D02*
X60000000Y-78897600D01*
X60000000Y-78897600D02*
X59664600Y-78562200D01*
X57746697Y-78562200D02*
X55295800Y-81013097D01*
X59664600Y-78562200D02*
X57746697Y-78562200D01*
X55295800Y-122454200D02*
X51750000Y-126000000D01*
X55295800Y-81013097D02*
X55295800Y-122454200D01*
%TO.N,Net-(J1-PadR)*%
X68250000Y-133620000D02*
X68250000Y-136499400D01*
X68250000Y-136499400D02*
X64897000Y-139852400D01*
X64897000Y-144821500D02*
X60000000Y-149718500D01*
X64897000Y-139852400D02*
X64897000Y-144821500D01*
X67614800Y-154089100D02*
X67614800Y-154014800D01*
X60000000Y-149718500D02*
X66081500Y-149718500D01*
X66081500Y-149718500D02*
X68200000Y-147600000D01*
%TO.N,Net-(R6-Pad1)*%
X60000000Y-83693899D02*
X63080900Y-86774799D01*
X63080900Y-120830900D02*
X68250000Y-126000000D01*
X63080900Y-86774799D02*
X63080900Y-120830900D01*
%TD*%
D20*
%TO.N,GND*%
G36*
X69340001Y-159340000D02*
G01*
X61096805Y-159340000D01*
X61328244Y-159108561D01*
X61515382Y-158828489D01*
X61644286Y-158517289D01*
X61710000Y-158186920D01*
X61710000Y-157850080D01*
X61644286Y-157519711D01*
X61627465Y-157479100D01*
X66126728Y-157479100D01*
X66138988Y-157603582D01*
X66175298Y-157723280D01*
X66234263Y-157833594D01*
X66313615Y-157930285D01*
X66410306Y-158009637D01*
X66520620Y-158068602D01*
X66640318Y-158104912D01*
X66764800Y-158117172D01*
X67329050Y-158114100D01*
X67487800Y-157955350D01*
X67487800Y-156756100D01*
X67741800Y-156756100D01*
X67741800Y-157955350D01*
X67900550Y-158114100D01*
X68464800Y-158117172D01*
X68589282Y-158104912D01*
X68708980Y-158068602D01*
X68819294Y-158009637D01*
X68915985Y-157930285D01*
X68995337Y-157833594D01*
X69054302Y-157723280D01*
X69090612Y-157603582D01*
X69102872Y-157479100D01*
X69099800Y-156914850D01*
X68941050Y-156756100D01*
X67741800Y-156756100D01*
X67487800Y-156756100D01*
X66288550Y-156756100D01*
X66129800Y-156914850D01*
X66126728Y-157479100D01*
X61627465Y-157479100D01*
X61623580Y-157469722D01*
X66529447Y-152563854D01*
X66668168Y-152702575D01*
X66842560Y-152819100D01*
X66668168Y-152935625D01*
X66461325Y-153142468D01*
X66298810Y-153385689D01*
X66186868Y-153655942D01*
X66129800Y-153942840D01*
X66129800Y-154235360D01*
X66186868Y-154522258D01*
X66298810Y-154792511D01*
X66461325Y-155035732D01*
X66593180Y-155167587D01*
X66520620Y-155189598D01*
X66410306Y-155248563D01*
X66313615Y-155327915D01*
X66234263Y-155424606D01*
X66175298Y-155534920D01*
X66138988Y-155654618D01*
X66126728Y-155779100D01*
X66129800Y-156343350D01*
X66288550Y-156502100D01*
X67487800Y-156502100D01*
X67487800Y-156482100D01*
X67741800Y-156482100D01*
X67741800Y-156502100D01*
X68941050Y-156502100D01*
X69099800Y-156343350D01*
X69102872Y-155779100D01*
X69090612Y-155654618D01*
X69054302Y-155534920D01*
X68995337Y-155424606D01*
X68915985Y-155327915D01*
X68819294Y-155248563D01*
X68708980Y-155189598D01*
X68636420Y-155167587D01*
X68768275Y-155035732D01*
X68930790Y-154792511D01*
X69042732Y-154522258D01*
X69099800Y-154235360D01*
X69099800Y-153942840D01*
X69042732Y-153655942D01*
X68930790Y-153385689D01*
X68768275Y-153142468D01*
X68561432Y-152935625D01*
X68387040Y-152819100D01*
X68561432Y-152702575D01*
X68768275Y-152495732D01*
X68930790Y-152252511D01*
X69042732Y-151982258D01*
X69099800Y-151695360D01*
X69099800Y-151402840D01*
X69042732Y-151115942D01*
X68930790Y-150845689D01*
X68768275Y-150602468D01*
X68561432Y-150395625D01*
X68318211Y-150233110D01*
X68047958Y-150121168D01*
X67761060Y-150064100D01*
X67468540Y-150064100D01*
X67181642Y-150121168D01*
X66911389Y-150233110D01*
X66668168Y-150395625D01*
X66461325Y-150602468D01*
X66298810Y-150845689D01*
X66297764Y-150848215D01*
X66269514Y-150850997D01*
X66126253Y-150894454D01*
X65994224Y-150965026D01*
X65878499Y-151059999D01*
X65854701Y-151088997D01*
X60707966Y-156235732D01*
X60705546Y-156227753D01*
X60634974Y-156095724D01*
X60540001Y-155979999D01*
X60511004Y-155956202D01*
X59787949Y-155233148D01*
X59789721Y-155233500D01*
X60210279Y-155233500D01*
X60622756Y-155151453D01*
X61011302Y-154990512D01*
X61360983Y-154756863D01*
X61658363Y-154459483D01*
X61892012Y-154109802D01*
X62052953Y-153721256D01*
X62135000Y-153308779D01*
X62135000Y-152888221D01*
X62052953Y-152475744D01*
X61892012Y-152087198D01*
X61658363Y-151737517D01*
X61360983Y-151440137D01*
X61011302Y-151206488D01*
X60912337Y-151165495D01*
X61090061Y-151046744D01*
X61328244Y-150808561D01*
X61515382Y-150528489D01*
X61536088Y-150478500D01*
X66044178Y-150478500D01*
X66081500Y-150482176D01*
X66118822Y-150478500D01*
X66118833Y-150478500D01*
X66230486Y-150467503D01*
X66373747Y-150424046D01*
X66505776Y-150353474D01*
X66621501Y-150258501D01*
X66645304Y-150229498D01*
X67867728Y-149007074D01*
X68108665Y-149055000D01*
X68391335Y-149055000D01*
X68668574Y-148999853D01*
X68929727Y-148891680D01*
X69164759Y-148734637D01*
X69340001Y-148559395D01*
X69340001Y-159340000D01*
G37*
X69340001Y-159340000D02*
X61096805Y-159340000D01*
X61328244Y-159108561D01*
X61515382Y-158828489D01*
X61644286Y-158517289D01*
X61710000Y-158186920D01*
X61710000Y-157850080D01*
X61644286Y-157519711D01*
X61627465Y-157479100D01*
X66126728Y-157479100D01*
X66138988Y-157603582D01*
X66175298Y-157723280D01*
X66234263Y-157833594D01*
X66313615Y-157930285D01*
X66410306Y-158009637D01*
X66520620Y-158068602D01*
X66640318Y-158104912D01*
X66764800Y-158117172D01*
X67329050Y-158114100D01*
X67487800Y-157955350D01*
X67487800Y-156756100D01*
X67741800Y-156756100D01*
X67741800Y-157955350D01*
X67900550Y-158114100D01*
X68464800Y-158117172D01*
X68589282Y-158104912D01*
X68708980Y-158068602D01*
X68819294Y-158009637D01*
X68915985Y-157930285D01*
X68995337Y-157833594D01*
X69054302Y-157723280D01*
X69090612Y-157603582D01*
X69102872Y-157479100D01*
X69099800Y-156914850D01*
X68941050Y-156756100D01*
X67741800Y-156756100D01*
X67487800Y-156756100D01*
X66288550Y-156756100D01*
X66129800Y-156914850D01*
X66126728Y-157479100D01*
X61627465Y-157479100D01*
X61623580Y-157469722D01*
X66529447Y-152563854D01*
X66668168Y-152702575D01*
X66842560Y-152819100D01*
X66668168Y-152935625D01*
X66461325Y-153142468D01*
X66298810Y-153385689D01*
X66186868Y-153655942D01*
X66129800Y-153942840D01*
X66129800Y-154235360D01*
X66186868Y-154522258D01*
X66298810Y-154792511D01*
X66461325Y-155035732D01*
X66593180Y-155167587D01*
X66520620Y-155189598D01*
X66410306Y-155248563D01*
X66313615Y-155327915D01*
X66234263Y-155424606D01*
X66175298Y-155534920D01*
X66138988Y-155654618D01*
X66126728Y-155779100D01*
X66129800Y-156343350D01*
X66288550Y-156502100D01*
X67487800Y-156502100D01*
X67487800Y-156482100D01*
X67741800Y-156482100D01*
X67741800Y-156502100D01*
X68941050Y-156502100D01*
X69099800Y-156343350D01*
X69102872Y-155779100D01*
X69090612Y-155654618D01*
X69054302Y-155534920D01*
X68995337Y-155424606D01*
X68915985Y-155327915D01*
X68819294Y-155248563D01*
X68708980Y-155189598D01*
X68636420Y-155167587D01*
X68768275Y-155035732D01*
X68930790Y-154792511D01*
X69042732Y-154522258D01*
X69099800Y-154235360D01*
X69099800Y-153942840D01*
X69042732Y-153655942D01*
X68930790Y-153385689D01*
X68768275Y-153142468D01*
X68561432Y-152935625D01*
X68387040Y-152819100D01*
X68561432Y-152702575D01*
X68768275Y-152495732D01*
X68930790Y-152252511D01*
X69042732Y-151982258D01*
X69099800Y-151695360D01*
X69099800Y-151402840D01*
X69042732Y-151115942D01*
X68930790Y-150845689D01*
X68768275Y-150602468D01*
X68561432Y-150395625D01*
X68318211Y-150233110D01*
X68047958Y-150121168D01*
X67761060Y-150064100D01*
X67468540Y-150064100D01*
X67181642Y-150121168D01*
X66911389Y-150233110D01*
X66668168Y-150395625D01*
X66461325Y-150602468D01*
X66298810Y-150845689D01*
X66297764Y-150848215D01*
X66269514Y-150850997D01*
X66126253Y-150894454D01*
X65994224Y-150965026D01*
X65878499Y-151059999D01*
X65854701Y-151088997D01*
X60707966Y-156235732D01*
X60705546Y-156227753D01*
X60634974Y-156095724D01*
X60540001Y-155979999D01*
X60511004Y-155956202D01*
X59787949Y-155233148D01*
X59789721Y-155233500D01*
X60210279Y-155233500D01*
X60622756Y-155151453D01*
X61011302Y-154990512D01*
X61360983Y-154756863D01*
X61658363Y-154459483D01*
X61892012Y-154109802D01*
X62052953Y-153721256D01*
X62135000Y-153308779D01*
X62135000Y-152888221D01*
X62052953Y-152475744D01*
X61892012Y-152087198D01*
X61658363Y-151737517D01*
X61360983Y-151440137D01*
X61011302Y-151206488D01*
X60912337Y-151165495D01*
X61090061Y-151046744D01*
X61328244Y-150808561D01*
X61515382Y-150528489D01*
X61536088Y-150478500D01*
X66044178Y-150478500D01*
X66081500Y-150482176D01*
X66118822Y-150478500D01*
X66118833Y-150478500D01*
X66230486Y-150467503D01*
X66373747Y-150424046D01*
X66505776Y-150353474D01*
X66621501Y-150258501D01*
X66645304Y-150229498D01*
X67867728Y-149007074D01*
X68108665Y-149055000D01*
X68391335Y-149055000D01*
X68668574Y-148999853D01*
X68929727Y-148891680D01*
X69164759Y-148734637D01*
X69340001Y-148559395D01*
X69340001Y-159340000D01*
G36*
X57693748Y-83679757D02*
G01*
X57679605Y-83693899D01*
X58564080Y-84578374D01*
X58712262Y-84529589D01*
X58807688Y-84672404D01*
X59021495Y-84886211D01*
X59272905Y-85054198D01*
X59552257Y-85169910D01*
X59848816Y-85228899D01*
X60151184Y-85228899D01*
X60408930Y-85177630D01*
X62320900Y-87089601D01*
X62320901Y-120793567D01*
X62317224Y-120830900D01*
X62331898Y-120979885D01*
X62375354Y-121123146D01*
X62445926Y-121255176D01*
X62480816Y-121297689D01*
X62540900Y-121370901D01*
X62569898Y-121394699D01*
X66851312Y-125676114D01*
X66815000Y-125858665D01*
X66815000Y-126141335D01*
X66870147Y-126418574D01*
X66978320Y-126679727D01*
X67135363Y-126914759D01*
X67335241Y-127114637D01*
X67570273Y-127271680D01*
X67831426Y-127379853D01*
X68108665Y-127435000D01*
X68391335Y-127435000D01*
X68668574Y-127379853D01*
X68929727Y-127271680D01*
X69164759Y-127114637D01*
X69340001Y-126939395D01*
X69340001Y-132680605D01*
X69164759Y-132505363D01*
X68929727Y-132348320D01*
X68668574Y-132240147D01*
X68391335Y-132185000D01*
X68108665Y-132185000D01*
X67831426Y-132240147D01*
X67570273Y-132348320D01*
X67335241Y-132505363D01*
X67135363Y-132705241D01*
X66978320Y-132940273D01*
X66870147Y-133201426D01*
X66815000Y-133478665D01*
X66815000Y-133761335D01*
X66870147Y-134038574D01*
X66978320Y-134299727D01*
X67135363Y-134534759D01*
X67335241Y-134734637D01*
X67490000Y-134838044D01*
X67490001Y-136184597D01*
X64386003Y-139288596D01*
X64356999Y-139312399D01*
X64330984Y-139344099D01*
X64262026Y-139428124D01*
X64199989Y-139544186D01*
X64191454Y-139560154D01*
X64147997Y-139703415D01*
X64137000Y-139815068D01*
X64137000Y-139815078D01*
X64133324Y-139852400D01*
X64137000Y-139889723D01*
X64137001Y-144506697D01*
X61531272Y-147112426D01*
X61540991Y-146935947D01*
X61498397Y-146636593D01*
X61398222Y-146351301D01*
X61318261Y-146201708D01*
X61064080Y-146118025D01*
X60179605Y-147002500D01*
X60193748Y-147016643D01*
X60014143Y-147196248D01*
X60000000Y-147182105D01*
X59115525Y-148066580D01*
X59165802Y-148219294D01*
X58909939Y-148390256D01*
X58671756Y-148628439D01*
X58484618Y-148908511D01*
X58355714Y-149219711D01*
X58290000Y-149550080D01*
X58290000Y-149886920D01*
X58355714Y-150217289D01*
X58484618Y-150528489D01*
X58671756Y-150808561D01*
X58909939Y-151046744D01*
X59087663Y-151165495D01*
X58988698Y-151206488D01*
X58639017Y-151440137D01*
X58341637Y-151737517D01*
X58107988Y-152087198D01*
X57947047Y-152475744D01*
X57865000Y-152888221D01*
X57865000Y-153308779D01*
X57865352Y-153310551D01*
X55814500Y-151259699D01*
X55814500Y-147069053D01*
X58459009Y-147069053D01*
X58501603Y-147368407D01*
X58601778Y-147653699D01*
X58681739Y-147803292D01*
X58935920Y-147886975D01*
X59820395Y-147002500D01*
X58935920Y-146118025D01*
X58681739Y-146201708D01*
X58550842Y-146474275D01*
X58475635Y-146767142D01*
X58459009Y-147069053D01*
X55814500Y-147069053D01*
X55814500Y-145938420D01*
X59115525Y-145938420D01*
X60000000Y-146822895D01*
X60884475Y-145938420D01*
X60800792Y-145684239D01*
X60528225Y-145553342D01*
X60235358Y-145478135D01*
X59933447Y-145461509D01*
X59634093Y-145504103D01*
X59348801Y-145604278D01*
X59199208Y-145684239D01*
X59115525Y-145938420D01*
X55814500Y-145938420D01*
X55814500Y-141418677D01*
X56615525Y-141418677D01*
X56699208Y-141672858D01*
X56971775Y-141803755D01*
X57264642Y-141878962D01*
X57566553Y-141895588D01*
X57865907Y-141852994D01*
X58151199Y-141752819D01*
X58300792Y-141672858D01*
X58384475Y-141418677D01*
X57500000Y-140534202D01*
X56615525Y-141418677D01*
X55814500Y-141418677D01*
X55814500Y-140421150D01*
X55959009Y-140421150D01*
X56001603Y-140720504D01*
X56101778Y-141005796D01*
X56181739Y-141155389D01*
X56435920Y-141239072D01*
X57320395Y-140354597D01*
X57306253Y-140340455D01*
X57485858Y-140160850D01*
X57500000Y-140174992D01*
X57514143Y-140160850D01*
X57693748Y-140340455D01*
X57679605Y-140354597D01*
X58564080Y-141239072D01*
X58712262Y-141190287D01*
X58807688Y-141333102D01*
X59021495Y-141546909D01*
X59272905Y-141714896D01*
X59552257Y-141830608D01*
X59848816Y-141889597D01*
X60151184Y-141889597D01*
X60447743Y-141830608D01*
X60727095Y-141714896D01*
X60978505Y-141546909D01*
X61192312Y-141333102D01*
X61250000Y-141246766D01*
X61307688Y-141333102D01*
X61521495Y-141546909D01*
X61772905Y-141714896D01*
X62052257Y-141830608D01*
X62348816Y-141889597D01*
X62651184Y-141889597D01*
X62947743Y-141830608D01*
X63227095Y-141714896D01*
X63478505Y-141546909D01*
X63692312Y-141333102D01*
X63860299Y-141081692D01*
X63976011Y-140802340D01*
X64035000Y-140505781D01*
X64035000Y-140203413D01*
X63976011Y-139906854D01*
X63860299Y-139627502D01*
X63692312Y-139376092D01*
X63478505Y-139162285D01*
X63392169Y-139104597D01*
X63478505Y-139046909D01*
X63692312Y-138833102D01*
X63860299Y-138581692D01*
X63976011Y-138302340D01*
X64035000Y-138005781D01*
X64035000Y-137703413D01*
X63976011Y-137406854D01*
X63860299Y-137127502D01*
X63692312Y-136876092D01*
X63478505Y-136662285D01*
X63227095Y-136494298D01*
X62947743Y-136378586D01*
X62651184Y-136319597D01*
X62348816Y-136319597D01*
X62052257Y-136378586D01*
X61772905Y-136494298D01*
X61521495Y-136662285D01*
X61307688Y-136876092D01*
X61250000Y-136962428D01*
X61192312Y-136876092D01*
X60978505Y-136662285D01*
X60727095Y-136494298D01*
X60447743Y-136378586D01*
X60151184Y-136319597D01*
X59848816Y-136319597D01*
X59552257Y-136378586D01*
X59272905Y-136494298D01*
X59021495Y-136662285D01*
X58983880Y-136699900D01*
X58930537Y-136600103D01*
X58851185Y-136503412D01*
X58754494Y-136424060D01*
X58644180Y-136365095D01*
X58524482Y-136328785D01*
X58400000Y-136316525D01*
X57785750Y-136319597D01*
X57627000Y-136478347D01*
X57627000Y-137727597D01*
X57647000Y-137727597D01*
X57647000Y-137981597D01*
X57627000Y-137981597D01*
X57627000Y-138001597D01*
X57373000Y-138001597D01*
X57373000Y-137981597D01*
X56123750Y-137981597D01*
X55965000Y-138140347D01*
X55961928Y-138754597D01*
X55974188Y-138879079D01*
X56010498Y-138998777D01*
X56069463Y-139109091D01*
X56148815Y-139205782D01*
X56245506Y-139285134D01*
X56339024Y-139335121D01*
X56319970Y-139354175D01*
X56435918Y-139470123D01*
X56181739Y-139553805D01*
X56050842Y-139826372D01*
X55975635Y-140119239D01*
X55959009Y-140421150D01*
X55814500Y-140421150D01*
X55814500Y-139432525D01*
X55818176Y-139395200D01*
X55814500Y-139357875D01*
X55814500Y-139357867D01*
X55803503Y-139246214D01*
X55760046Y-139102953D01*
X55689474Y-138970924D01*
X55594501Y-138855199D01*
X55565504Y-138831402D01*
X53688699Y-136954597D01*
X55961928Y-136954597D01*
X55965000Y-137568847D01*
X56123750Y-137727597D01*
X57373000Y-137727597D01*
X57373000Y-136478347D01*
X57214250Y-136319597D01*
X56600000Y-136316525D01*
X56475518Y-136328785D01*
X56355820Y-136365095D01*
X56245506Y-136424060D01*
X56148815Y-136503412D01*
X56069463Y-136600103D01*
X56010498Y-136710417D01*
X55974188Y-136830115D01*
X55961928Y-136954597D01*
X53688699Y-136954597D01*
X52510000Y-135775899D01*
X52510000Y-134838043D01*
X52664759Y-134734637D01*
X52864637Y-134534759D01*
X53021680Y-134299727D01*
X53129853Y-134038574D01*
X53185000Y-133761335D01*
X53185000Y-133478665D01*
X53129853Y-133201426D01*
X53021680Y-132940273D01*
X52864637Y-132705241D01*
X52664759Y-132505363D01*
X52429727Y-132348320D01*
X52168574Y-132240147D01*
X51891335Y-132185000D01*
X51608665Y-132185000D01*
X51331426Y-132240147D01*
X51070273Y-132348320D01*
X50835241Y-132505363D01*
X50660000Y-132680604D01*
X50660000Y-129996599D01*
X53255000Y-129996599D01*
X53255000Y-130712594D01*
X53283867Y-131005684D01*
X53397943Y-131381743D01*
X53583193Y-131728322D01*
X53832497Y-132032100D01*
X54136275Y-132281404D01*
X54482853Y-132466654D01*
X54858912Y-132580730D01*
X55250000Y-132619249D01*
X55641087Y-132580730D01*
X56017146Y-132466654D01*
X56363725Y-132281404D01*
X56667503Y-132032100D01*
X56916807Y-131728322D01*
X57102057Y-131381744D01*
X57216133Y-131005685D01*
X57245000Y-130712595D01*
X57245000Y-129996600D01*
X57245000Y-129996599D01*
X62755000Y-129996599D01*
X62755000Y-130712594D01*
X62783867Y-131005684D01*
X62897943Y-131381743D01*
X63083193Y-131728322D01*
X63332497Y-132032100D01*
X63636275Y-132281404D01*
X63982853Y-132466654D01*
X64358912Y-132580730D01*
X64750000Y-132619249D01*
X65141087Y-132580730D01*
X65517146Y-132466654D01*
X65863725Y-132281404D01*
X66167503Y-132032100D01*
X66416807Y-131728322D01*
X66602057Y-131381744D01*
X66716133Y-131005685D01*
X66745000Y-130712595D01*
X66745000Y-129996600D01*
X66716133Y-129703510D01*
X66602057Y-129327450D01*
X66416807Y-128980872D01*
X66167503Y-128677094D01*
X65863725Y-128427790D01*
X65517147Y-128242540D01*
X65141088Y-128128464D01*
X64750000Y-128089945D01*
X64358913Y-128128464D01*
X63982854Y-128242540D01*
X63636276Y-128427790D01*
X63332498Y-128677094D01*
X63083193Y-128980872D01*
X62897943Y-129327450D01*
X62783867Y-129703509D01*
X62755000Y-129996599D01*
X57245000Y-129996599D01*
X57216133Y-129703510D01*
X57102057Y-129327450D01*
X56916807Y-128980872D01*
X56667503Y-128677094D01*
X56363725Y-128427790D01*
X56017147Y-128242540D01*
X55641088Y-128128464D01*
X55250000Y-128089945D01*
X54858913Y-128128464D01*
X54482854Y-128242540D01*
X54136276Y-128427790D01*
X53832498Y-128677094D01*
X53583193Y-128980872D01*
X53397943Y-129327450D01*
X53283867Y-129703509D01*
X53255000Y-129996599D01*
X50660000Y-129996599D01*
X50660000Y-126939396D01*
X50835241Y-127114637D01*
X51070273Y-127271680D01*
X51331426Y-127379853D01*
X51608665Y-127435000D01*
X51891335Y-127435000D01*
X52168574Y-127379853D01*
X52429727Y-127271680D01*
X52664759Y-127114637D01*
X52864637Y-126914759D01*
X53021680Y-126679727D01*
X53129853Y-126418574D01*
X53185000Y-126141335D01*
X53185000Y-125858665D01*
X53148688Y-125676114D01*
X55806808Y-123017995D01*
X55835801Y-122994201D01*
X55859595Y-122965208D01*
X55859599Y-122965204D01*
X55930773Y-122878477D01*
X55930774Y-122878476D01*
X56001346Y-122746447D01*
X56044803Y-122603186D01*
X56055800Y-122491533D01*
X56055800Y-122491524D01*
X56059476Y-122454201D01*
X56055800Y-122416878D01*
X56055800Y-120820778D01*
X59115525Y-120820778D01*
X59199208Y-121074959D01*
X59471775Y-121205856D01*
X59764642Y-121281063D01*
X60066553Y-121297689D01*
X60365907Y-121255095D01*
X60651199Y-121154920D01*
X60800792Y-121074959D01*
X60884475Y-120820778D01*
X60000000Y-119936303D01*
X59115525Y-120820778D01*
X56055800Y-120820778D01*
X56055800Y-119823251D01*
X58459009Y-119823251D01*
X58501603Y-120122605D01*
X58601778Y-120407897D01*
X58681739Y-120557490D01*
X58935920Y-120641173D01*
X59820395Y-119756698D01*
X60179605Y-119756698D01*
X61064080Y-120641173D01*
X61318261Y-120557490D01*
X61449158Y-120284923D01*
X61524365Y-119992056D01*
X61540991Y-119690145D01*
X61498397Y-119390791D01*
X61398222Y-119105499D01*
X61318261Y-118955906D01*
X61064080Y-118872223D01*
X60179605Y-119756698D01*
X59820395Y-119756698D01*
X58935920Y-118872223D01*
X58681739Y-118955906D01*
X58550842Y-119228473D01*
X58475635Y-119521340D01*
X58459009Y-119823251D01*
X56055800Y-119823251D01*
X56055800Y-113450419D01*
X57865000Y-113450419D01*
X57865000Y-113870977D01*
X57947047Y-114283454D01*
X58107988Y-114672000D01*
X58341637Y-115021681D01*
X58639017Y-115319061D01*
X58988698Y-115552710D01*
X59087663Y-115593703D01*
X58909939Y-115712454D01*
X58671756Y-115950637D01*
X58484618Y-116230709D01*
X58355714Y-116541909D01*
X58290000Y-116872278D01*
X58290000Y-117209118D01*
X58355714Y-117539487D01*
X58484618Y-117850687D01*
X58671756Y-118130759D01*
X58909939Y-118368942D01*
X59165802Y-118539904D01*
X59115525Y-118692618D01*
X60000000Y-119577093D01*
X60884475Y-118692618D01*
X60834198Y-118539904D01*
X61090061Y-118368942D01*
X61328244Y-118130759D01*
X61515382Y-117850687D01*
X61644286Y-117539487D01*
X61710000Y-117209118D01*
X61710000Y-116872278D01*
X61644286Y-116541909D01*
X61515382Y-116230709D01*
X61328244Y-115950637D01*
X61090061Y-115712454D01*
X60912337Y-115593703D01*
X61011302Y-115552710D01*
X61360983Y-115319061D01*
X61658363Y-115021681D01*
X61892012Y-114672000D01*
X62052953Y-114283454D01*
X62135000Y-113870977D01*
X62135000Y-113450419D01*
X62052953Y-113037942D01*
X61892012Y-112649396D01*
X61658363Y-112299715D01*
X61360983Y-112002335D01*
X61011302Y-111768686D01*
X60622756Y-111607745D01*
X60210279Y-111525698D01*
X59789721Y-111525698D01*
X59377244Y-111607745D01*
X58988698Y-111768686D01*
X58639017Y-112002335D01*
X58341637Y-112299715D01*
X58107988Y-112649396D01*
X57947047Y-113037942D01*
X57865000Y-113450419D01*
X56055800Y-113450419D01*
X56055800Y-108572278D01*
X58290000Y-108572278D01*
X58290000Y-108909118D01*
X58355714Y-109239487D01*
X58484618Y-109550687D01*
X58671756Y-109830759D01*
X58909939Y-110068942D01*
X59190011Y-110256080D01*
X59501211Y-110384984D01*
X59831580Y-110450698D01*
X60168420Y-110450698D01*
X60498789Y-110384984D01*
X60809989Y-110256080D01*
X61090061Y-110068942D01*
X61328244Y-109830759D01*
X61515382Y-109550687D01*
X61644286Y-109239487D01*
X61710000Y-108909118D01*
X61710000Y-108572278D01*
X61644286Y-108241909D01*
X61515382Y-107930709D01*
X61328244Y-107650637D01*
X61090061Y-107412454D01*
X60809989Y-107225316D01*
X60498789Y-107096412D01*
X60168420Y-107030698D01*
X59831580Y-107030698D01*
X59501211Y-107096412D01*
X59190011Y-107225316D01*
X58909939Y-107412454D01*
X58671756Y-107650637D01*
X58484618Y-107930709D01*
X58355714Y-108241909D01*
X58290000Y-108572278D01*
X56055800Y-108572278D01*
X56055800Y-102926879D01*
X59115525Y-102926879D01*
X59199208Y-103181060D01*
X59471775Y-103311957D01*
X59764642Y-103387164D01*
X60066553Y-103403790D01*
X60365907Y-103361196D01*
X60651199Y-103261021D01*
X60800792Y-103181060D01*
X60884475Y-102926879D01*
X60000000Y-102042404D01*
X59115525Y-102926879D01*
X56055800Y-102926879D01*
X56055800Y-101929352D01*
X58459009Y-101929352D01*
X58501603Y-102228706D01*
X58601778Y-102513998D01*
X58681739Y-102663591D01*
X58935920Y-102747274D01*
X59820395Y-101862799D01*
X60179605Y-101862799D01*
X61064080Y-102747274D01*
X61318261Y-102663591D01*
X61449158Y-102391024D01*
X61524365Y-102098157D01*
X61540991Y-101796246D01*
X61498397Y-101496892D01*
X61398222Y-101211600D01*
X61318261Y-101062007D01*
X61064080Y-100978324D01*
X60179605Y-101862799D01*
X59820395Y-101862799D01*
X58935920Y-100978324D01*
X58681739Y-101062007D01*
X58550842Y-101334574D01*
X58475635Y-101627441D01*
X58459009Y-101929352D01*
X56055800Y-101929352D01*
X56055800Y-95556520D01*
X57865000Y-95556520D01*
X57865000Y-95977078D01*
X57947047Y-96389555D01*
X58107988Y-96778101D01*
X58341637Y-97127782D01*
X58639017Y-97425162D01*
X58988698Y-97658811D01*
X59087663Y-97699804D01*
X58909939Y-97818555D01*
X58671756Y-98056738D01*
X58484618Y-98336810D01*
X58355714Y-98648010D01*
X58290000Y-98978379D01*
X58290000Y-99315219D01*
X58355714Y-99645588D01*
X58484618Y-99956788D01*
X58671756Y-100236860D01*
X58909939Y-100475043D01*
X59165802Y-100646005D01*
X59115525Y-100798719D01*
X60000000Y-101683194D01*
X60884475Y-100798719D01*
X60834198Y-100646005D01*
X61090061Y-100475043D01*
X61328244Y-100236860D01*
X61515382Y-99956788D01*
X61644286Y-99645588D01*
X61710000Y-99315219D01*
X61710000Y-98978379D01*
X61644286Y-98648010D01*
X61515382Y-98336810D01*
X61328244Y-98056738D01*
X61090061Y-97818555D01*
X60912337Y-97699804D01*
X61011302Y-97658811D01*
X61360983Y-97425162D01*
X61658363Y-97127782D01*
X61892012Y-96778101D01*
X62052953Y-96389555D01*
X62135000Y-95977078D01*
X62135000Y-95556520D01*
X62052953Y-95144043D01*
X61892012Y-94755497D01*
X61658363Y-94405816D01*
X61360983Y-94108436D01*
X61011302Y-93874787D01*
X60622756Y-93713846D01*
X60210279Y-93631799D01*
X59789721Y-93631799D01*
X59377244Y-93713846D01*
X58988698Y-93874787D01*
X58639017Y-94108436D01*
X58341637Y-94405816D01*
X58107988Y-94755497D01*
X57947047Y-95144043D01*
X57865000Y-95556520D01*
X56055800Y-95556520D01*
X56055800Y-90678379D01*
X58290000Y-90678379D01*
X58290000Y-91015219D01*
X58355714Y-91345588D01*
X58484618Y-91656788D01*
X58671756Y-91936860D01*
X58909939Y-92175043D01*
X59190011Y-92362181D01*
X59501211Y-92491085D01*
X59831580Y-92556799D01*
X60168420Y-92556799D01*
X60498789Y-92491085D01*
X60809989Y-92362181D01*
X61090061Y-92175043D01*
X61328244Y-91936860D01*
X61515382Y-91656788D01*
X61644286Y-91345588D01*
X61710000Y-91015219D01*
X61710000Y-90678379D01*
X61644286Y-90348010D01*
X61515382Y-90036810D01*
X61328244Y-89756738D01*
X61090061Y-89518555D01*
X60809989Y-89331417D01*
X60498789Y-89202513D01*
X60168420Y-89136799D01*
X59831580Y-89136799D01*
X59501211Y-89202513D01*
X59190011Y-89331417D01*
X58909939Y-89518555D01*
X58671756Y-89756738D01*
X58484618Y-90036810D01*
X58355714Y-90348010D01*
X58290000Y-90678379D01*
X56055800Y-90678379D01*
X56055800Y-84757979D01*
X56615525Y-84757979D01*
X56699208Y-85012160D01*
X56971775Y-85143057D01*
X57264642Y-85218264D01*
X57566553Y-85234890D01*
X57865907Y-85192296D01*
X58151199Y-85092121D01*
X58300792Y-85012160D01*
X58384475Y-84757979D01*
X57500000Y-83873504D01*
X56615525Y-84757979D01*
X56055800Y-84757979D01*
X56055800Y-84214156D01*
X56101778Y-84345098D01*
X56181739Y-84494691D01*
X56435920Y-84578374D01*
X57320395Y-83693899D01*
X57306253Y-83679757D01*
X57485858Y-83500152D01*
X57500000Y-83514294D01*
X57514143Y-83500152D01*
X57693748Y-83679757D01*
G37*
X57693748Y-83679757D02*
X57679605Y-83693899D01*
X58564080Y-84578374D01*
X58712262Y-84529589D01*
X58807688Y-84672404D01*
X59021495Y-84886211D01*
X59272905Y-85054198D01*
X59552257Y-85169910D01*
X59848816Y-85228899D01*
X60151184Y-85228899D01*
X60408930Y-85177630D01*
X62320900Y-87089601D01*
X62320901Y-120793567D01*
X62317224Y-120830900D01*
X62331898Y-120979885D01*
X62375354Y-121123146D01*
X62445926Y-121255176D01*
X62480816Y-121297689D01*
X62540900Y-121370901D01*
X62569898Y-121394699D01*
X66851312Y-125676114D01*
X66815000Y-125858665D01*
X66815000Y-126141335D01*
X66870147Y-126418574D01*
X66978320Y-126679727D01*
X67135363Y-126914759D01*
X67335241Y-127114637D01*
X67570273Y-127271680D01*
X67831426Y-127379853D01*
X68108665Y-127435000D01*
X68391335Y-127435000D01*
X68668574Y-127379853D01*
X68929727Y-127271680D01*
X69164759Y-127114637D01*
X69340001Y-126939395D01*
X69340001Y-132680605D01*
X69164759Y-132505363D01*
X68929727Y-132348320D01*
X68668574Y-132240147D01*
X68391335Y-132185000D01*
X68108665Y-132185000D01*
X67831426Y-132240147D01*
X67570273Y-132348320D01*
X67335241Y-132505363D01*
X67135363Y-132705241D01*
X66978320Y-132940273D01*
X66870147Y-133201426D01*
X66815000Y-133478665D01*
X66815000Y-133761335D01*
X66870147Y-134038574D01*
X66978320Y-134299727D01*
X67135363Y-134534759D01*
X67335241Y-134734637D01*
X67490000Y-134838044D01*
X67490001Y-136184597D01*
X64386003Y-139288596D01*
X64356999Y-139312399D01*
X64330984Y-139344099D01*
X64262026Y-139428124D01*
X64199989Y-139544186D01*
X64191454Y-139560154D01*
X64147997Y-139703415D01*
X64137000Y-139815068D01*
X64137000Y-139815078D01*
X64133324Y-139852400D01*
X64137000Y-139889723D01*
X64137001Y-144506697D01*
X61531272Y-147112426D01*
X61540991Y-146935947D01*
X61498397Y-146636593D01*
X61398222Y-146351301D01*
X61318261Y-146201708D01*
X61064080Y-146118025D01*
X60179605Y-147002500D01*
X60193748Y-147016643D01*
X60014143Y-147196248D01*
X60000000Y-147182105D01*
X59115525Y-148066580D01*
X59165802Y-148219294D01*
X58909939Y-148390256D01*
X58671756Y-148628439D01*
X58484618Y-148908511D01*
X58355714Y-149219711D01*
X58290000Y-149550080D01*
X58290000Y-149886920D01*
X58355714Y-150217289D01*
X58484618Y-150528489D01*
X58671756Y-150808561D01*
X58909939Y-151046744D01*
X59087663Y-151165495D01*
X58988698Y-151206488D01*
X58639017Y-151440137D01*
X58341637Y-151737517D01*
X58107988Y-152087198D01*
X57947047Y-152475744D01*
X57865000Y-152888221D01*
X57865000Y-153308779D01*
X57865352Y-153310551D01*
X55814500Y-151259699D01*
X55814500Y-147069053D01*
X58459009Y-147069053D01*
X58501603Y-147368407D01*
X58601778Y-147653699D01*
X58681739Y-147803292D01*
X58935920Y-147886975D01*
X59820395Y-147002500D01*
X58935920Y-146118025D01*
X58681739Y-146201708D01*
X58550842Y-146474275D01*
X58475635Y-146767142D01*
X58459009Y-147069053D01*
X55814500Y-147069053D01*
X55814500Y-145938420D01*
X59115525Y-145938420D01*
X60000000Y-146822895D01*
X60884475Y-145938420D01*
X60800792Y-145684239D01*
X60528225Y-145553342D01*
X60235358Y-145478135D01*
X59933447Y-145461509D01*
X59634093Y-145504103D01*
X59348801Y-145604278D01*
X59199208Y-145684239D01*
X59115525Y-145938420D01*
X55814500Y-145938420D01*
X55814500Y-141418677D01*
X56615525Y-141418677D01*
X56699208Y-141672858D01*
X56971775Y-141803755D01*
X57264642Y-141878962D01*
X57566553Y-141895588D01*
X57865907Y-141852994D01*
X58151199Y-141752819D01*
X58300792Y-141672858D01*
X58384475Y-141418677D01*
X57500000Y-140534202D01*
X56615525Y-141418677D01*
X55814500Y-141418677D01*
X55814500Y-140421150D01*
X55959009Y-140421150D01*
X56001603Y-140720504D01*
X56101778Y-141005796D01*
X56181739Y-141155389D01*
X56435920Y-141239072D01*
X57320395Y-140354597D01*
X57306253Y-140340455D01*
X57485858Y-140160850D01*
X57500000Y-140174992D01*
X57514143Y-140160850D01*
X57693748Y-140340455D01*
X57679605Y-140354597D01*
X58564080Y-141239072D01*
X58712262Y-141190287D01*
X58807688Y-141333102D01*
X59021495Y-141546909D01*
X59272905Y-141714896D01*
X59552257Y-141830608D01*
X59848816Y-141889597D01*
X60151184Y-141889597D01*
X60447743Y-141830608D01*
X60727095Y-141714896D01*
X60978505Y-141546909D01*
X61192312Y-141333102D01*
X61250000Y-141246766D01*
X61307688Y-141333102D01*
X61521495Y-141546909D01*
X61772905Y-141714896D01*
X62052257Y-141830608D01*
X62348816Y-141889597D01*
X62651184Y-141889597D01*
X62947743Y-141830608D01*
X63227095Y-141714896D01*
X63478505Y-141546909D01*
X63692312Y-141333102D01*
X63860299Y-141081692D01*
X63976011Y-140802340D01*
X64035000Y-140505781D01*
X64035000Y-140203413D01*
X63976011Y-139906854D01*
X63860299Y-139627502D01*
X63692312Y-139376092D01*
X63478505Y-139162285D01*
X63392169Y-139104597D01*
X63478505Y-139046909D01*
X63692312Y-138833102D01*
X63860299Y-138581692D01*
X63976011Y-138302340D01*
X64035000Y-138005781D01*
X64035000Y-137703413D01*
X63976011Y-137406854D01*
X63860299Y-137127502D01*
X63692312Y-136876092D01*
X63478505Y-136662285D01*
X63227095Y-136494298D01*
X62947743Y-136378586D01*
X62651184Y-136319597D01*
X62348816Y-136319597D01*
X62052257Y-136378586D01*
X61772905Y-136494298D01*
X61521495Y-136662285D01*
X61307688Y-136876092D01*
X61250000Y-136962428D01*
X61192312Y-136876092D01*
X60978505Y-136662285D01*
X60727095Y-136494298D01*
X60447743Y-136378586D01*
X60151184Y-136319597D01*
X59848816Y-136319597D01*
X59552257Y-136378586D01*
X59272905Y-136494298D01*
X59021495Y-136662285D01*
X58983880Y-136699900D01*
X58930537Y-136600103D01*
X58851185Y-136503412D01*
X58754494Y-136424060D01*
X58644180Y-136365095D01*
X58524482Y-136328785D01*
X58400000Y-136316525D01*
X57785750Y-136319597D01*
X57627000Y-136478347D01*
X57627000Y-137727597D01*
X57647000Y-137727597D01*
X57647000Y-137981597D01*
X57627000Y-137981597D01*
X57627000Y-138001597D01*
X57373000Y-138001597D01*
X57373000Y-137981597D01*
X56123750Y-137981597D01*
X55965000Y-138140347D01*
X55961928Y-138754597D01*
X55974188Y-138879079D01*
X56010498Y-138998777D01*
X56069463Y-139109091D01*
X56148815Y-139205782D01*
X56245506Y-139285134D01*
X56339024Y-139335121D01*
X56319970Y-139354175D01*
X56435918Y-139470123D01*
X56181739Y-139553805D01*
X56050842Y-139826372D01*
X55975635Y-140119239D01*
X55959009Y-140421150D01*
X55814500Y-140421150D01*
X55814500Y-139432525D01*
X55818176Y-139395200D01*
X55814500Y-139357875D01*
X55814500Y-139357867D01*
X55803503Y-139246214D01*
X55760046Y-139102953D01*
X55689474Y-138970924D01*
X55594501Y-138855199D01*
X55565504Y-138831402D01*
X53688699Y-136954597D01*
X55961928Y-136954597D01*
X55965000Y-137568847D01*
X56123750Y-137727597D01*
X57373000Y-137727597D01*
X57373000Y-136478347D01*
X57214250Y-136319597D01*
X56600000Y-136316525D01*
X56475518Y-136328785D01*
X56355820Y-136365095D01*
X56245506Y-136424060D01*
X56148815Y-136503412D01*
X56069463Y-136600103D01*
X56010498Y-136710417D01*
X55974188Y-136830115D01*
X55961928Y-136954597D01*
X53688699Y-136954597D01*
X52510000Y-135775899D01*
X52510000Y-134838043D01*
X52664759Y-134734637D01*
X52864637Y-134534759D01*
X53021680Y-134299727D01*
X53129853Y-134038574D01*
X53185000Y-133761335D01*
X53185000Y-133478665D01*
X53129853Y-133201426D01*
X53021680Y-132940273D01*
X52864637Y-132705241D01*
X52664759Y-132505363D01*
X52429727Y-132348320D01*
X52168574Y-132240147D01*
X51891335Y-132185000D01*
X51608665Y-132185000D01*
X51331426Y-132240147D01*
X51070273Y-132348320D01*
X50835241Y-132505363D01*
X50660000Y-132680604D01*
X50660000Y-129996599D01*
X53255000Y-129996599D01*
X53255000Y-130712594D01*
X53283867Y-131005684D01*
X53397943Y-131381743D01*
X53583193Y-131728322D01*
X53832497Y-132032100D01*
X54136275Y-132281404D01*
X54482853Y-132466654D01*
X54858912Y-132580730D01*
X55250000Y-132619249D01*
X55641087Y-132580730D01*
X56017146Y-132466654D01*
X56363725Y-132281404D01*
X56667503Y-132032100D01*
X56916807Y-131728322D01*
X57102057Y-131381744D01*
X57216133Y-131005685D01*
X57245000Y-130712595D01*
X57245000Y-129996600D01*
X57245000Y-129996599D01*
X62755000Y-129996599D01*
X62755000Y-130712594D01*
X62783867Y-131005684D01*
X62897943Y-131381743D01*
X63083193Y-131728322D01*
X63332497Y-132032100D01*
X63636275Y-132281404D01*
X63982853Y-132466654D01*
X64358912Y-132580730D01*
X64750000Y-132619249D01*
X65141087Y-132580730D01*
X65517146Y-132466654D01*
X65863725Y-132281404D01*
X66167503Y-132032100D01*
X66416807Y-131728322D01*
X66602057Y-131381744D01*
X66716133Y-131005685D01*
X66745000Y-130712595D01*
X66745000Y-129996600D01*
X66716133Y-129703510D01*
X66602057Y-129327450D01*
X66416807Y-128980872D01*
X66167503Y-128677094D01*
X65863725Y-128427790D01*
X65517147Y-128242540D01*
X65141088Y-128128464D01*
X64750000Y-128089945D01*
X64358913Y-128128464D01*
X63982854Y-128242540D01*
X63636276Y-128427790D01*
X63332498Y-128677094D01*
X63083193Y-128980872D01*
X62897943Y-129327450D01*
X62783867Y-129703509D01*
X62755000Y-129996599D01*
X57245000Y-129996599D01*
X57216133Y-129703510D01*
X57102057Y-129327450D01*
X56916807Y-128980872D01*
X56667503Y-128677094D01*
X56363725Y-128427790D01*
X56017147Y-128242540D01*
X55641088Y-128128464D01*
X55250000Y-128089945D01*
X54858913Y-128128464D01*
X54482854Y-128242540D01*
X54136276Y-128427790D01*
X53832498Y-128677094D01*
X53583193Y-128980872D01*
X53397943Y-129327450D01*
X53283867Y-129703509D01*
X53255000Y-129996599D01*
X50660000Y-129996599D01*
X50660000Y-126939396D01*
X50835241Y-127114637D01*
X51070273Y-127271680D01*
X51331426Y-127379853D01*
X51608665Y-127435000D01*
X51891335Y-127435000D01*
X52168574Y-127379853D01*
X52429727Y-127271680D01*
X52664759Y-127114637D01*
X52864637Y-126914759D01*
X53021680Y-126679727D01*
X53129853Y-126418574D01*
X53185000Y-126141335D01*
X53185000Y-125858665D01*
X53148688Y-125676114D01*
X55806808Y-123017995D01*
X55835801Y-122994201D01*
X55859595Y-122965208D01*
X55859599Y-122965204D01*
X55930773Y-122878477D01*
X55930774Y-122878476D01*
X56001346Y-122746447D01*
X56044803Y-122603186D01*
X56055800Y-122491533D01*
X56055800Y-122491524D01*
X56059476Y-122454201D01*
X56055800Y-122416878D01*
X56055800Y-120820778D01*
X59115525Y-120820778D01*
X59199208Y-121074959D01*
X59471775Y-121205856D01*
X59764642Y-121281063D01*
X60066553Y-121297689D01*
X60365907Y-121255095D01*
X60651199Y-121154920D01*
X60800792Y-121074959D01*
X60884475Y-120820778D01*
X60000000Y-119936303D01*
X59115525Y-120820778D01*
X56055800Y-120820778D01*
X56055800Y-119823251D01*
X58459009Y-119823251D01*
X58501603Y-120122605D01*
X58601778Y-120407897D01*
X58681739Y-120557490D01*
X58935920Y-120641173D01*
X59820395Y-119756698D01*
X60179605Y-119756698D01*
X61064080Y-120641173D01*
X61318261Y-120557490D01*
X61449158Y-120284923D01*
X61524365Y-119992056D01*
X61540991Y-119690145D01*
X61498397Y-119390791D01*
X61398222Y-119105499D01*
X61318261Y-118955906D01*
X61064080Y-118872223D01*
X60179605Y-119756698D01*
X59820395Y-119756698D01*
X58935920Y-118872223D01*
X58681739Y-118955906D01*
X58550842Y-119228473D01*
X58475635Y-119521340D01*
X58459009Y-119823251D01*
X56055800Y-119823251D01*
X56055800Y-113450419D01*
X57865000Y-113450419D01*
X57865000Y-113870977D01*
X57947047Y-114283454D01*
X58107988Y-114672000D01*
X58341637Y-115021681D01*
X58639017Y-115319061D01*
X58988698Y-115552710D01*
X59087663Y-115593703D01*
X58909939Y-115712454D01*
X58671756Y-115950637D01*
X58484618Y-116230709D01*
X58355714Y-116541909D01*
X58290000Y-116872278D01*
X58290000Y-117209118D01*
X58355714Y-117539487D01*
X58484618Y-117850687D01*
X58671756Y-118130759D01*
X58909939Y-118368942D01*
X59165802Y-118539904D01*
X59115525Y-118692618D01*
X60000000Y-119577093D01*
X60884475Y-118692618D01*
X60834198Y-118539904D01*
X61090061Y-118368942D01*
X61328244Y-118130759D01*
X61515382Y-117850687D01*
X61644286Y-117539487D01*
X61710000Y-117209118D01*
X61710000Y-116872278D01*
X61644286Y-116541909D01*
X61515382Y-116230709D01*
X61328244Y-115950637D01*
X61090061Y-115712454D01*
X60912337Y-115593703D01*
X61011302Y-115552710D01*
X61360983Y-115319061D01*
X61658363Y-115021681D01*
X61892012Y-114672000D01*
X62052953Y-114283454D01*
X62135000Y-113870977D01*
X62135000Y-113450419D01*
X62052953Y-113037942D01*
X61892012Y-112649396D01*
X61658363Y-112299715D01*
X61360983Y-112002335D01*
X61011302Y-111768686D01*
X60622756Y-111607745D01*
X60210279Y-111525698D01*
X59789721Y-111525698D01*
X59377244Y-111607745D01*
X58988698Y-111768686D01*
X58639017Y-112002335D01*
X58341637Y-112299715D01*
X58107988Y-112649396D01*
X57947047Y-113037942D01*
X57865000Y-113450419D01*
X56055800Y-113450419D01*
X56055800Y-108572278D01*
X58290000Y-108572278D01*
X58290000Y-108909118D01*
X58355714Y-109239487D01*
X58484618Y-109550687D01*
X58671756Y-109830759D01*
X58909939Y-110068942D01*
X59190011Y-110256080D01*
X59501211Y-110384984D01*
X59831580Y-110450698D01*
X60168420Y-110450698D01*
X60498789Y-110384984D01*
X60809989Y-110256080D01*
X61090061Y-110068942D01*
X61328244Y-109830759D01*
X61515382Y-109550687D01*
X61644286Y-109239487D01*
X61710000Y-108909118D01*
X61710000Y-108572278D01*
X61644286Y-108241909D01*
X61515382Y-107930709D01*
X61328244Y-107650637D01*
X61090061Y-107412454D01*
X60809989Y-107225316D01*
X60498789Y-107096412D01*
X60168420Y-107030698D01*
X59831580Y-107030698D01*
X59501211Y-107096412D01*
X59190011Y-107225316D01*
X58909939Y-107412454D01*
X58671756Y-107650637D01*
X58484618Y-107930709D01*
X58355714Y-108241909D01*
X58290000Y-108572278D01*
X56055800Y-108572278D01*
X56055800Y-102926879D01*
X59115525Y-102926879D01*
X59199208Y-103181060D01*
X59471775Y-103311957D01*
X59764642Y-103387164D01*
X60066553Y-103403790D01*
X60365907Y-103361196D01*
X60651199Y-103261021D01*
X60800792Y-103181060D01*
X60884475Y-102926879D01*
X60000000Y-102042404D01*
X59115525Y-102926879D01*
X56055800Y-102926879D01*
X56055800Y-101929352D01*
X58459009Y-101929352D01*
X58501603Y-102228706D01*
X58601778Y-102513998D01*
X58681739Y-102663591D01*
X58935920Y-102747274D01*
X59820395Y-101862799D01*
X60179605Y-101862799D01*
X61064080Y-102747274D01*
X61318261Y-102663591D01*
X61449158Y-102391024D01*
X61524365Y-102098157D01*
X61540991Y-101796246D01*
X61498397Y-101496892D01*
X61398222Y-101211600D01*
X61318261Y-101062007D01*
X61064080Y-100978324D01*
X60179605Y-101862799D01*
X59820395Y-101862799D01*
X58935920Y-100978324D01*
X58681739Y-101062007D01*
X58550842Y-101334574D01*
X58475635Y-101627441D01*
X58459009Y-101929352D01*
X56055800Y-101929352D01*
X56055800Y-95556520D01*
X57865000Y-95556520D01*
X57865000Y-95977078D01*
X57947047Y-96389555D01*
X58107988Y-96778101D01*
X58341637Y-97127782D01*
X58639017Y-97425162D01*
X58988698Y-97658811D01*
X59087663Y-97699804D01*
X58909939Y-97818555D01*
X58671756Y-98056738D01*
X58484618Y-98336810D01*
X58355714Y-98648010D01*
X58290000Y-98978379D01*
X58290000Y-99315219D01*
X58355714Y-99645588D01*
X58484618Y-99956788D01*
X58671756Y-100236860D01*
X58909939Y-100475043D01*
X59165802Y-100646005D01*
X59115525Y-100798719D01*
X60000000Y-101683194D01*
X60884475Y-100798719D01*
X60834198Y-100646005D01*
X61090061Y-100475043D01*
X61328244Y-100236860D01*
X61515382Y-99956788D01*
X61644286Y-99645588D01*
X61710000Y-99315219D01*
X61710000Y-98978379D01*
X61644286Y-98648010D01*
X61515382Y-98336810D01*
X61328244Y-98056738D01*
X61090061Y-97818555D01*
X60912337Y-97699804D01*
X61011302Y-97658811D01*
X61360983Y-97425162D01*
X61658363Y-97127782D01*
X61892012Y-96778101D01*
X62052953Y-96389555D01*
X62135000Y-95977078D01*
X62135000Y-95556520D01*
X62052953Y-95144043D01*
X61892012Y-94755497D01*
X61658363Y-94405816D01*
X61360983Y-94108436D01*
X61011302Y-93874787D01*
X60622756Y-93713846D01*
X60210279Y-93631799D01*
X59789721Y-93631799D01*
X59377244Y-93713846D01*
X58988698Y-93874787D01*
X58639017Y-94108436D01*
X58341637Y-94405816D01*
X58107988Y-94755497D01*
X57947047Y-95144043D01*
X57865000Y-95556520D01*
X56055800Y-95556520D01*
X56055800Y-90678379D01*
X58290000Y-90678379D01*
X58290000Y-91015219D01*
X58355714Y-91345588D01*
X58484618Y-91656788D01*
X58671756Y-91936860D01*
X58909939Y-92175043D01*
X59190011Y-92362181D01*
X59501211Y-92491085D01*
X59831580Y-92556799D01*
X60168420Y-92556799D01*
X60498789Y-92491085D01*
X60809989Y-92362181D01*
X61090061Y-92175043D01*
X61328244Y-91936860D01*
X61515382Y-91656788D01*
X61644286Y-91345588D01*
X61710000Y-91015219D01*
X61710000Y-90678379D01*
X61644286Y-90348010D01*
X61515382Y-90036810D01*
X61328244Y-89756738D01*
X61090061Y-89518555D01*
X60809989Y-89331417D01*
X60498789Y-89202513D01*
X60168420Y-89136799D01*
X59831580Y-89136799D01*
X59501211Y-89202513D01*
X59190011Y-89331417D01*
X58909939Y-89518555D01*
X58671756Y-89756738D01*
X58484618Y-90036810D01*
X58355714Y-90348010D01*
X58290000Y-90678379D01*
X56055800Y-90678379D01*
X56055800Y-84757979D01*
X56615525Y-84757979D01*
X56699208Y-85012160D01*
X56971775Y-85143057D01*
X57264642Y-85218264D01*
X57566553Y-85234890D01*
X57865907Y-85192296D01*
X58151199Y-85092121D01*
X58300792Y-85012160D01*
X58384475Y-84757979D01*
X57500000Y-83873504D01*
X56615525Y-84757979D01*
X56055800Y-84757979D01*
X56055800Y-84214156D01*
X56101778Y-84345098D01*
X56181739Y-84494691D01*
X56435920Y-84578374D01*
X57320395Y-83693899D01*
X57306253Y-83679757D01*
X57485858Y-83500152D01*
X57500000Y-83514294D01*
X57514143Y-83500152D01*
X57693748Y-83679757D01*
G36*
X53909939Y-50751756D02*
G01*
X53671756Y-50989939D01*
X53484618Y-51270011D01*
X53355714Y-51581211D01*
X53290000Y-51911580D01*
X53290000Y-52248420D01*
X53355714Y-52578789D01*
X53484618Y-52889989D01*
X53671756Y-53170061D01*
X53909939Y-53408244D01*
X54190011Y-53595382D01*
X54501211Y-53724286D01*
X54831580Y-53790000D01*
X55168420Y-53790000D01*
X55498789Y-53724286D01*
X55809989Y-53595382D01*
X56090061Y-53408244D01*
X56328244Y-53170061D01*
X56515382Y-52889989D01*
X56644286Y-52578789D01*
X56710000Y-52248420D01*
X56710000Y-51911580D01*
X56644286Y-51581211D01*
X56515382Y-51270011D01*
X56328244Y-50989939D01*
X56090061Y-50751756D01*
X55952738Y-50660000D01*
X64047262Y-50660000D01*
X63909939Y-50751756D01*
X63671756Y-50989939D01*
X63484618Y-51270011D01*
X63355714Y-51581211D01*
X63290000Y-51911580D01*
X63290000Y-52248420D01*
X63355714Y-52578789D01*
X63484618Y-52889989D01*
X63671756Y-53170061D01*
X63909939Y-53408244D01*
X64190011Y-53595382D01*
X64501211Y-53724286D01*
X64831580Y-53790000D01*
X65168420Y-53790000D01*
X65498789Y-53724286D01*
X65809989Y-53595382D01*
X66090061Y-53408244D01*
X66328244Y-53170061D01*
X66515382Y-52889989D01*
X66644286Y-52578789D01*
X66710000Y-52248420D01*
X66710000Y-51911580D01*
X66644286Y-51581211D01*
X66515382Y-51270011D01*
X66328244Y-50989939D01*
X66090061Y-50751756D01*
X65952738Y-50660000D01*
X69340000Y-50660000D01*
X69340000Y-75865212D01*
X69271680Y-75700273D01*
X69114637Y-75465241D01*
X68914759Y-75265363D01*
X68679727Y-75108320D01*
X68418574Y-75000147D01*
X68141335Y-74945000D01*
X67858665Y-74945000D01*
X67581426Y-75000147D01*
X67320273Y-75108320D01*
X67085241Y-75265363D01*
X66885363Y-75465241D01*
X66728320Y-75700273D01*
X66620147Y-75961426D01*
X66565000Y-76238665D01*
X66565000Y-76521335D01*
X66620147Y-76798574D01*
X66728320Y-77059727D01*
X66885363Y-77294759D01*
X67085241Y-77494637D01*
X67320273Y-77651680D01*
X67581426Y-77759853D01*
X67858665Y-77815000D01*
X68141335Y-77815000D01*
X68418574Y-77759853D01*
X68679727Y-77651680D01*
X68914759Y-77494637D01*
X69114637Y-77294759D01*
X69271680Y-77059727D01*
X69340000Y-76894788D01*
X69340000Y-83485212D01*
X69271680Y-83320273D01*
X69114637Y-83085241D01*
X68914759Y-82885363D01*
X68679727Y-82728320D01*
X68418574Y-82620147D01*
X68141335Y-82565000D01*
X67858665Y-82565000D01*
X67581426Y-82620147D01*
X67320273Y-82728320D01*
X67085241Y-82885363D01*
X66885363Y-83085241D01*
X66728320Y-83320273D01*
X66620147Y-83581426D01*
X66565000Y-83858665D01*
X66565000Y-84141335D01*
X66620147Y-84418574D01*
X66728320Y-84679727D01*
X66885363Y-84914759D01*
X67085241Y-85114637D01*
X67320273Y-85271680D01*
X67581426Y-85379853D01*
X67858665Y-85435000D01*
X68141335Y-85435000D01*
X68418574Y-85379853D01*
X68679727Y-85271680D01*
X68914759Y-85114637D01*
X69114637Y-84914759D01*
X69271680Y-84679727D01*
X69340000Y-84514788D01*
X69340001Y-125060605D01*
X69164759Y-124885363D01*
X68929727Y-124728320D01*
X68668574Y-124620147D01*
X68391335Y-124565000D01*
X68108665Y-124565000D01*
X67926114Y-124601312D01*
X63840900Y-120516099D01*
X63840900Y-114850000D01*
X65511928Y-114850000D01*
X65524188Y-114974482D01*
X65560498Y-115094180D01*
X65619463Y-115204494D01*
X65698815Y-115301185D01*
X65795506Y-115380537D01*
X65905820Y-115439502D01*
X66025518Y-115475812D01*
X66150000Y-115488072D01*
X66714250Y-115485000D01*
X66873000Y-115326250D01*
X66873000Y-114127000D01*
X67127000Y-114127000D01*
X67127000Y-115326250D01*
X67285750Y-115485000D01*
X67850000Y-115488072D01*
X67974482Y-115475812D01*
X68094180Y-115439502D01*
X68204494Y-115380537D01*
X68301185Y-115301185D01*
X68380537Y-115204494D01*
X68439502Y-115094180D01*
X68475812Y-114974482D01*
X68488072Y-114850000D01*
X68485000Y-114285750D01*
X68326250Y-114127000D01*
X67127000Y-114127000D01*
X66873000Y-114127000D01*
X65673750Y-114127000D01*
X65515000Y-114285750D01*
X65511928Y-114850000D01*
X63840900Y-114850000D01*
X63840900Y-113150000D01*
X65511928Y-113150000D01*
X65515000Y-113714250D01*
X65673750Y-113873000D01*
X66873000Y-113873000D01*
X66873000Y-113853000D01*
X67127000Y-113853000D01*
X67127000Y-113873000D01*
X68326250Y-113873000D01*
X68485000Y-113714250D01*
X68488072Y-113150000D01*
X68475812Y-113025518D01*
X68439502Y-112905820D01*
X68380537Y-112795506D01*
X68301185Y-112698815D01*
X68204494Y-112619463D01*
X68094180Y-112560498D01*
X68021620Y-112538487D01*
X68153475Y-112406632D01*
X68315990Y-112163411D01*
X68427932Y-111893158D01*
X68485000Y-111606260D01*
X68485000Y-111313740D01*
X68427932Y-111026842D01*
X68315990Y-110756589D01*
X68153475Y-110513368D01*
X67946632Y-110306525D01*
X67772240Y-110190000D01*
X67946632Y-110073475D01*
X68153475Y-109866632D01*
X68315990Y-109623411D01*
X68427932Y-109353158D01*
X68485000Y-109066260D01*
X68485000Y-108773740D01*
X68427932Y-108486842D01*
X68315990Y-108216589D01*
X68153475Y-107973368D01*
X67946632Y-107766525D01*
X67703411Y-107604010D01*
X67433158Y-107492068D01*
X67146260Y-107435000D01*
X66853740Y-107435000D01*
X66566842Y-107492068D01*
X66296589Y-107604010D01*
X66053368Y-107766525D01*
X65846525Y-107973368D01*
X65684010Y-108216589D01*
X65572068Y-108486842D01*
X65515000Y-108773740D01*
X65515000Y-109066260D01*
X65572068Y-109353158D01*
X65684010Y-109623411D01*
X65846525Y-109866632D01*
X66053368Y-110073475D01*
X66227760Y-110190000D01*
X66053368Y-110306525D01*
X65846525Y-110513368D01*
X65684010Y-110756589D01*
X65572068Y-111026842D01*
X65515000Y-111313740D01*
X65515000Y-111606260D01*
X65572068Y-111893158D01*
X65684010Y-112163411D01*
X65846525Y-112406632D01*
X65978380Y-112538487D01*
X65905820Y-112560498D01*
X65795506Y-112619463D01*
X65698815Y-112698815D01*
X65619463Y-112795506D01*
X65560498Y-112905820D01*
X65524188Y-113025518D01*
X65511928Y-113150000D01*
X63840900Y-113150000D01*
X63840900Y-99478665D01*
X65565000Y-99478665D01*
X65565000Y-99761335D01*
X65620147Y-100038574D01*
X65728320Y-100299727D01*
X65885363Y-100534759D01*
X66085241Y-100734637D01*
X66320273Y-100891680D01*
X66581426Y-100999853D01*
X66858665Y-101055000D01*
X67141335Y-101055000D01*
X67418574Y-100999853D01*
X67679727Y-100891680D01*
X67914759Y-100734637D01*
X68114637Y-100534759D01*
X68271680Y-100299727D01*
X68379853Y-100038574D01*
X68435000Y-99761335D01*
X68435000Y-99478665D01*
X68379853Y-99201426D01*
X68271680Y-98940273D01*
X68114637Y-98705241D01*
X67914759Y-98505363D01*
X67679727Y-98348320D01*
X67418574Y-98240147D01*
X67141335Y-98185000D01*
X66858665Y-98185000D01*
X66581426Y-98240147D01*
X66320273Y-98348320D01*
X66085241Y-98505363D01*
X65885363Y-98705241D01*
X65728320Y-98940273D01*
X65620147Y-99201426D01*
X65565000Y-99478665D01*
X63840900Y-99478665D01*
X63840900Y-92992702D01*
X66186903Y-92992702D01*
X66258486Y-93236671D01*
X66513996Y-93357571D01*
X66788184Y-93426300D01*
X67070512Y-93440217D01*
X67350130Y-93398787D01*
X67616292Y-93303603D01*
X67741514Y-93236671D01*
X67813097Y-92992702D01*
X67000000Y-92179605D01*
X66186903Y-92992702D01*
X63840900Y-92992702D01*
X63840900Y-92070512D01*
X65559783Y-92070512D01*
X65601213Y-92350130D01*
X65696397Y-92616292D01*
X65763329Y-92741514D01*
X66007298Y-92813097D01*
X66820395Y-92000000D01*
X67179605Y-92000000D01*
X67992702Y-92813097D01*
X68236671Y-92741514D01*
X68357571Y-92486004D01*
X68426300Y-92211816D01*
X68440217Y-91929488D01*
X68398787Y-91649870D01*
X68303603Y-91383708D01*
X68236671Y-91258486D01*
X67992702Y-91186903D01*
X67179605Y-92000000D01*
X66820395Y-92000000D01*
X66007298Y-91186903D01*
X65763329Y-91258486D01*
X65642429Y-91513996D01*
X65573700Y-91788184D01*
X65559783Y-92070512D01*
X63840900Y-92070512D01*
X63840900Y-91007298D01*
X66186903Y-91007298D01*
X67000000Y-91820395D01*
X67813097Y-91007298D01*
X67741514Y-90763329D01*
X67486004Y-90642429D01*
X67211816Y-90573700D01*
X66929488Y-90559783D01*
X66649870Y-90601213D01*
X66383708Y-90696397D01*
X66258486Y-90763329D01*
X66186903Y-91007298D01*
X63840900Y-91007298D01*
X63840900Y-86812132D01*
X63844577Y-86774799D01*
X63829903Y-86625813D01*
X63786446Y-86482552D01*
X63715874Y-86350523D01*
X63644699Y-86263796D01*
X63620901Y-86234798D01*
X63591904Y-86211001D01*
X62609802Y-85228899D01*
X62651184Y-85228899D01*
X62947743Y-85169910D01*
X63227095Y-85054198D01*
X63478505Y-84886211D01*
X63692312Y-84672404D01*
X63860299Y-84420994D01*
X63976011Y-84141642D01*
X64035000Y-83845083D01*
X64035000Y-83542715D01*
X63976011Y-83246156D01*
X63860299Y-82966804D01*
X63692312Y-82715394D01*
X63478505Y-82501587D01*
X63392169Y-82443899D01*
X63478505Y-82386211D01*
X63692312Y-82172404D01*
X63860299Y-81920994D01*
X63976011Y-81641642D01*
X64035000Y-81345083D01*
X64035000Y-81042715D01*
X63976011Y-80746156D01*
X63860299Y-80466804D01*
X63692312Y-80215394D01*
X63478505Y-80001587D01*
X63227095Y-79833600D01*
X62947743Y-79717888D01*
X62651184Y-79658899D01*
X62348816Y-79658899D01*
X62052257Y-79717888D01*
X61772905Y-79833600D01*
X61521495Y-80001587D01*
X61307688Y-80215394D01*
X61250000Y-80301730D01*
X61192312Y-80215394D01*
X60978505Y-80001587D01*
X60760000Y-79855586D01*
X60760000Y-78934922D01*
X60763676Y-78897599D01*
X60760000Y-78860276D01*
X60760000Y-78860267D01*
X60749003Y-78748614D01*
X60705546Y-78605353D01*
X60634974Y-78473324D01*
X60540001Y-78357599D01*
X60510997Y-78333796D01*
X60228404Y-78051203D01*
X60204601Y-78022199D01*
X60088876Y-77927226D01*
X59956847Y-77856654D01*
X59813586Y-77813197D01*
X59701933Y-77802200D01*
X59701922Y-77802200D01*
X59664600Y-77798524D01*
X59627278Y-77802200D01*
X57784022Y-77802200D01*
X57746697Y-77798524D01*
X57709372Y-77802200D01*
X57709364Y-77802200D01*
X57597711Y-77813197D01*
X57454450Y-77856654D01*
X57322421Y-77927226D01*
X57206696Y-78022199D01*
X57182898Y-78051197D01*
X54784803Y-80449293D01*
X54755799Y-80473096D01*
X54700671Y-80540271D01*
X54660826Y-80588821D01*
X54590255Y-80720850D01*
X54590254Y-80720851D01*
X54546797Y-80864112D01*
X54535800Y-80975765D01*
X54535800Y-80975775D01*
X54532124Y-81013097D01*
X54535800Y-81050419D01*
X54535801Y-122139396D01*
X52073886Y-124601312D01*
X51891335Y-124565000D01*
X51608665Y-124565000D01*
X51331426Y-124620147D01*
X51070273Y-124728320D01*
X50835241Y-124885363D01*
X50660000Y-125060604D01*
X50660000Y-114850000D01*
X51511928Y-114850000D01*
X51524188Y-114974482D01*
X51560498Y-115094180D01*
X51619463Y-115204494D01*
X51698815Y-115301185D01*
X51795506Y-115380537D01*
X51905820Y-115439502D01*
X52025518Y-115475812D01*
X52150000Y-115488072D01*
X52714250Y-115485000D01*
X52873000Y-115326250D01*
X52873000Y-114127000D01*
X53127000Y-114127000D01*
X53127000Y-115326250D01*
X53285750Y-115485000D01*
X53850000Y-115488072D01*
X53974482Y-115475812D01*
X54094180Y-115439502D01*
X54204494Y-115380537D01*
X54301185Y-115301185D01*
X54380537Y-115204494D01*
X54439502Y-115094180D01*
X54475812Y-114974482D01*
X54488072Y-114850000D01*
X54485000Y-114285750D01*
X54326250Y-114127000D01*
X53127000Y-114127000D01*
X52873000Y-114127000D01*
X51673750Y-114127000D01*
X51515000Y-114285750D01*
X51511928Y-114850000D01*
X50660000Y-114850000D01*
X50660000Y-113150000D01*
X51511928Y-113150000D01*
X51515000Y-113714250D01*
X51673750Y-113873000D01*
X52873000Y-113873000D01*
X52873000Y-113853000D01*
X53127000Y-113853000D01*
X53127000Y-113873000D01*
X54326250Y-113873000D01*
X54485000Y-113714250D01*
X54488072Y-113150000D01*
X54475812Y-113025518D01*
X54439502Y-112905820D01*
X54380537Y-112795506D01*
X54301185Y-112698815D01*
X54204494Y-112619463D01*
X54094180Y-112560498D01*
X54021620Y-112538487D01*
X54153475Y-112406632D01*
X54315990Y-112163411D01*
X54427932Y-111893158D01*
X54485000Y-111606260D01*
X54485000Y-111313740D01*
X54427932Y-111026842D01*
X54315990Y-110756589D01*
X54153475Y-110513368D01*
X53946632Y-110306525D01*
X53772240Y-110190000D01*
X53946632Y-110073475D01*
X54153475Y-109866632D01*
X54315990Y-109623411D01*
X54427932Y-109353158D01*
X54485000Y-109066260D01*
X54485000Y-108773740D01*
X54427932Y-108486842D01*
X54315990Y-108216589D01*
X54153475Y-107973368D01*
X53946632Y-107766525D01*
X53703411Y-107604010D01*
X53433158Y-107492068D01*
X53146260Y-107435000D01*
X52853740Y-107435000D01*
X52566842Y-107492068D01*
X52296589Y-107604010D01*
X52053368Y-107766525D01*
X51846525Y-107973368D01*
X51684010Y-108216589D01*
X51572068Y-108486842D01*
X51515000Y-108773740D01*
X51515000Y-109066260D01*
X51572068Y-109353158D01*
X51684010Y-109623411D01*
X51846525Y-109866632D01*
X52053368Y-110073475D01*
X52227760Y-110190000D01*
X52053368Y-110306525D01*
X51846525Y-110513368D01*
X51684010Y-110756589D01*
X51572068Y-111026842D01*
X51515000Y-111313740D01*
X51515000Y-111606260D01*
X51572068Y-111893158D01*
X51684010Y-112163411D01*
X51846525Y-112406632D01*
X51978380Y-112538487D01*
X51905820Y-112560498D01*
X51795506Y-112619463D01*
X51698815Y-112698815D01*
X51619463Y-112795506D01*
X51560498Y-112905820D01*
X51524188Y-113025518D01*
X51511928Y-113150000D01*
X50660000Y-113150000D01*
X50660000Y-100492702D01*
X52186903Y-100492702D01*
X52258486Y-100736671D01*
X52513996Y-100857571D01*
X52788184Y-100926300D01*
X53070512Y-100940217D01*
X53350130Y-100898787D01*
X53616292Y-100803603D01*
X53741514Y-100736671D01*
X53813097Y-100492702D01*
X53000000Y-99679605D01*
X52186903Y-100492702D01*
X50660000Y-100492702D01*
X50660000Y-99570512D01*
X51559783Y-99570512D01*
X51601213Y-99850130D01*
X51696397Y-100116292D01*
X51763329Y-100241514D01*
X52007298Y-100313097D01*
X52820395Y-99500000D01*
X53179605Y-99500000D01*
X53992702Y-100313097D01*
X54236671Y-100241514D01*
X54357571Y-99986004D01*
X54426300Y-99711816D01*
X54440217Y-99429488D01*
X54398787Y-99149870D01*
X54303603Y-98883708D01*
X54236671Y-98758486D01*
X53992702Y-98686903D01*
X53179605Y-99500000D01*
X52820395Y-99500000D01*
X52007298Y-98686903D01*
X51763329Y-98758486D01*
X51642429Y-99013996D01*
X51573700Y-99288184D01*
X51559783Y-99570512D01*
X50660000Y-99570512D01*
X50660000Y-98507298D01*
X52186903Y-98507298D01*
X53000000Y-99320395D01*
X53813097Y-98507298D01*
X53741514Y-98263329D01*
X53486004Y-98142429D01*
X53211816Y-98073700D01*
X52929488Y-98059783D01*
X52649870Y-98101213D01*
X52383708Y-98196397D01*
X52258486Y-98263329D01*
X52186903Y-98507298D01*
X50660000Y-98507298D01*
X50660000Y-91738665D01*
X51565000Y-91738665D01*
X51565000Y-92021335D01*
X51620147Y-92298574D01*
X51728320Y-92559727D01*
X51885363Y-92794759D01*
X52085241Y-92994637D01*
X52320273Y-93151680D01*
X52581426Y-93259853D01*
X52858665Y-93315000D01*
X53141335Y-93315000D01*
X53418574Y-93259853D01*
X53679727Y-93151680D01*
X53914759Y-92994637D01*
X54114637Y-92794759D01*
X54271680Y-92559727D01*
X54379853Y-92298574D01*
X54435000Y-92021335D01*
X54435000Y-91738665D01*
X54379853Y-91461426D01*
X54271680Y-91200273D01*
X54114637Y-90965241D01*
X53914759Y-90765363D01*
X53679727Y-90608320D01*
X53418574Y-90500147D01*
X53141335Y-90445000D01*
X52858665Y-90445000D01*
X52581426Y-90500147D01*
X52320273Y-90608320D01*
X52085241Y-90765363D01*
X51885363Y-90965241D01*
X51728320Y-91200273D01*
X51620147Y-91461426D01*
X51565000Y-91738665D01*
X50660000Y-91738665D01*
X50660000Y-84514788D01*
X50728320Y-84679727D01*
X50885363Y-84914759D01*
X51085241Y-85114637D01*
X51320273Y-85271680D01*
X51581426Y-85379853D01*
X51858665Y-85435000D01*
X52141335Y-85435000D01*
X52418574Y-85379853D01*
X52679727Y-85271680D01*
X52914759Y-85114637D01*
X53114637Y-84914759D01*
X53271680Y-84679727D01*
X53379853Y-84418574D01*
X53435000Y-84141335D01*
X53435000Y-83858665D01*
X53379853Y-83581426D01*
X53271680Y-83320273D01*
X53114637Y-83085241D01*
X52914759Y-82885363D01*
X52679727Y-82728320D01*
X52418574Y-82620147D01*
X52141335Y-82565000D01*
X51858665Y-82565000D01*
X51581426Y-82620147D01*
X51320273Y-82728320D01*
X51085241Y-82885363D01*
X50885363Y-83085241D01*
X50728320Y-83320273D01*
X50660000Y-83485212D01*
X50660000Y-76894788D01*
X50728320Y-77059727D01*
X50885363Y-77294759D01*
X51085241Y-77494637D01*
X51320273Y-77651680D01*
X51581426Y-77759853D01*
X51858665Y-77815000D01*
X52141335Y-77815000D01*
X52418574Y-77759853D01*
X52679727Y-77651680D01*
X52914759Y-77494637D01*
X53114637Y-77294759D01*
X53271680Y-77059727D01*
X53379853Y-76798574D01*
X53435000Y-76521335D01*
X53435000Y-76238665D01*
X53379853Y-75961426D01*
X53271680Y-75700273D01*
X53114637Y-75465241D01*
X52914759Y-75265363D01*
X52679727Y-75108320D01*
X52418574Y-75000147D01*
X52141335Y-74945000D01*
X51858665Y-74945000D01*
X51581426Y-75000147D01*
X51320273Y-75108320D01*
X51085241Y-75265363D01*
X50885363Y-75465241D01*
X50728320Y-75700273D01*
X50660000Y-75865212D01*
X50660000Y-73335901D01*
X53255000Y-73335901D01*
X53255000Y-74051896D01*
X53283867Y-74344986D01*
X53397943Y-74721045D01*
X53583193Y-75067624D01*
X53832497Y-75371402D01*
X54136275Y-75620706D01*
X54482853Y-75805956D01*
X54858912Y-75920032D01*
X55250000Y-75958551D01*
X55641087Y-75920032D01*
X56017146Y-75805956D01*
X56363725Y-75620706D01*
X56667503Y-75371402D01*
X56916807Y-75067624D01*
X57102057Y-74721046D01*
X57216133Y-74344987D01*
X57245000Y-74051897D01*
X57245000Y-73335902D01*
X57245000Y-73335901D01*
X62755000Y-73335901D01*
X62755000Y-74051896D01*
X62783867Y-74344986D01*
X62897943Y-74721045D01*
X63083193Y-75067624D01*
X63332497Y-75371402D01*
X63636275Y-75620706D01*
X63982853Y-75805956D01*
X64358912Y-75920032D01*
X64750000Y-75958551D01*
X65141087Y-75920032D01*
X65517146Y-75805956D01*
X65863725Y-75620706D01*
X66167503Y-75371402D01*
X66416807Y-75067624D01*
X66602057Y-74721046D01*
X66716133Y-74344987D01*
X66745000Y-74051897D01*
X66745000Y-73335902D01*
X66716133Y-73042812D01*
X66602057Y-72666752D01*
X66416807Y-72320174D01*
X66167503Y-72016396D01*
X65863725Y-71767092D01*
X65517147Y-71581842D01*
X65141088Y-71467766D01*
X64750000Y-71429247D01*
X64358913Y-71467766D01*
X63982854Y-71581842D01*
X63636276Y-71767092D01*
X63332498Y-72016396D01*
X63083193Y-72320174D01*
X62897943Y-72666752D01*
X62783867Y-73042811D01*
X62755000Y-73335901D01*
X57245000Y-73335901D01*
X57216133Y-73042812D01*
X57102057Y-72666752D01*
X56916807Y-72320174D01*
X56667503Y-72016396D01*
X56363725Y-71767092D01*
X56017147Y-71581842D01*
X55641088Y-71467766D01*
X55250000Y-71429247D01*
X54858913Y-71467766D01*
X54482854Y-71581842D01*
X54136276Y-71767092D01*
X53832498Y-72016396D01*
X53583193Y-72320174D01*
X53397943Y-72666752D01*
X53283867Y-73042811D01*
X53255000Y-73335901D01*
X50660000Y-73335901D01*
X50660000Y-66376340D01*
X56249200Y-66376340D01*
X56249200Y-66668860D01*
X56306268Y-66955758D01*
X56418210Y-67226011D01*
X56580725Y-67469232D01*
X56787568Y-67676075D01*
X57030789Y-67838590D01*
X57301042Y-67950532D01*
X57587940Y-68007600D01*
X57880460Y-68007600D01*
X58167358Y-67950532D01*
X58437611Y-67838590D01*
X58680832Y-67676075D01*
X58887675Y-67469232D01*
X59004200Y-67294840D01*
X59120725Y-67469232D01*
X59327568Y-67676075D01*
X59570789Y-67838590D01*
X59841042Y-67950532D01*
X60127940Y-68007600D01*
X60420460Y-68007600D01*
X60707358Y-67950532D01*
X60977611Y-67838590D01*
X61220832Y-67676075D01*
X61352687Y-67544220D01*
X61374698Y-67616780D01*
X61433663Y-67727094D01*
X61513015Y-67823785D01*
X61609706Y-67903137D01*
X61720020Y-67962102D01*
X61839718Y-67998412D01*
X61964200Y-68010672D01*
X62528450Y-68007600D01*
X62687200Y-67848850D01*
X62687200Y-66649600D01*
X62941200Y-66649600D01*
X62941200Y-67848850D01*
X63099950Y-68007600D01*
X63664200Y-68010672D01*
X63788682Y-67998412D01*
X63908380Y-67962102D01*
X64018694Y-67903137D01*
X64115385Y-67823785D01*
X64194737Y-67727094D01*
X64253702Y-67616780D01*
X64290012Y-67497082D01*
X64302272Y-67372600D01*
X64299200Y-66808350D01*
X64140450Y-66649600D01*
X62941200Y-66649600D01*
X62687200Y-66649600D01*
X62667200Y-66649600D01*
X62667200Y-66395600D01*
X62687200Y-66395600D01*
X62687200Y-65196350D01*
X62941200Y-65196350D01*
X62941200Y-66395600D01*
X64140450Y-66395600D01*
X64299200Y-66236850D01*
X64302272Y-65672600D01*
X64290012Y-65548118D01*
X64253702Y-65428420D01*
X64194737Y-65318106D01*
X64115385Y-65221415D01*
X64018694Y-65142063D01*
X63908380Y-65083098D01*
X63788682Y-65046788D01*
X63664200Y-65034528D01*
X63099950Y-65037600D01*
X62941200Y-65196350D01*
X62687200Y-65196350D01*
X62528450Y-65037600D01*
X61964200Y-65034528D01*
X61839718Y-65046788D01*
X61720020Y-65083098D01*
X61609706Y-65142063D01*
X61513015Y-65221415D01*
X61433663Y-65318106D01*
X61374698Y-65428420D01*
X61352687Y-65500980D01*
X61220832Y-65369125D01*
X60977611Y-65206610D01*
X60707358Y-65094668D01*
X60420460Y-65037600D01*
X60127940Y-65037600D01*
X59841042Y-65094668D01*
X59570789Y-65206610D01*
X59327568Y-65369125D01*
X59120725Y-65575968D01*
X59004200Y-65750360D01*
X58887675Y-65575968D01*
X58680832Y-65369125D01*
X58437611Y-65206610D01*
X58167358Y-65094668D01*
X57880460Y-65037600D01*
X57587940Y-65037600D01*
X57301042Y-65094668D01*
X57030789Y-65206610D01*
X56787568Y-65369125D01*
X56580725Y-65575968D01*
X56418210Y-65819189D01*
X56306268Y-66089442D01*
X56249200Y-66376340D01*
X50660000Y-66376340D01*
X50660000Y-64160080D01*
X54115525Y-64160080D01*
X54199208Y-64414261D01*
X54471775Y-64545158D01*
X54764642Y-64620365D01*
X55066553Y-64636991D01*
X55365907Y-64594397D01*
X55651199Y-64494222D01*
X55800792Y-64414261D01*
X55884475Y-64160080D01*
X64115525Y-64160080D01*
X64199208Y-64414261D01*
X64471775Y-64545158D01*
X64764642Y-64620365D01*
X65066553Y-64636991D01*
X65365907Y-64594397D01*
X65651199Y-64494222D01*
X65800792Y-64414261D01*
X65884475Y-64160080D01*
X65000000Y-63275605D01*
X64115525Y-64160080D01*
X55884475Y-64160080D01*
X55000000Y-63275605D01*
X54115525Y-64160080D01*
X50660000Y-64160080D01*
X50660000Y-63162553D01*
X53459009Y-63162553D01*
X53501603Y-63461907D01*
X53601778Y-63747199D01*
X53681739Y-63896792D01*
X53935920Y-63980475D01*
X54820395Y-63096000D01*
X55179605Y-63096000D01*
X56064080Y-63980475D01*
X56318261Y-63896792D01*
X56449158Y-63624225D01*
X56524365Y-63331358D01*
X56533660Y-63162553D01*
X63459009Y-63162553D01*
X63501603Y-63461907D01*
X63601778Y-63747199D01*
X63681739Y-63896792D01*
X63935920Y-63980475D01*
X64820395Y-63096000D01*
X65179605Y-63096000D01*
X66064080Y-63980475D01*
X66318261Y-63896792D01*
X66449158Y-63624225D01*
X66524365Y-63331358D01*
X66540991Y-63029447D01*
X66498397Y-62730093D01*
X66398222Y-62444801D01*
X66318261Y-62295208D01*
X66064080Y-62211525D01*
X65179605Y-63096000D01*
X64820395Y-63096000D01*
X63935920Y-62211525D01*
X63681739Y-62295208D01*
X63550842Y-62567775D01*
X63475635Y-62860642D01*
X63459009Y-63162553D01*
X56533660Y-63162553D01*
X56540991Y-63029447D01*
X56498397Y-62730093D01*
X56398222Y-62444801D01*
X56318261Y-62295208D01*
X56064080Y-62211525D01*
X55179605Y-63096000D01*
X54820395Y-63096000D01*
X53935920Y-62211525D01*
X53681739Y-62295208D01*
X53550842Y-62567775D01*
X53475635Y-62860642D01*
X53459009Y-63162553D01*
X50660000Y-63162553D01*
X50660000Y-61568890D01*
X53990715Y-61568890D01*
X54095531Y-61840959D01*
X54166870Y-61875964D01*
X54115525Y-62031920D01*
X55000000Y-62916395D01*
X55884475Y-62031920D01*
X55834006Y-61878623D01*
X55904469Y-61840959D01*
X56009285Y-61568890D01*
X63990715Y-61568890D01*
X64095531Y-61840959D01*
X64166870Y-61875964D01*
X64115525Y-62031920D01*
X65000000Y-62916395D01*
X65884475Y-62031920D01*
X65834006Y-61878623D01*
X65904469Y-61840959D01*
X66009285Y-61568890D01*
X65000000Y-60559605D01*
X63990715Y-61568890D01*
X56009285Y-61568890D01*
X55000000Y-60559605D01*
X53990715Y-61568890D01*
X50660000Y-61568890D01*
X50660000Y-60439627D01*
X53282761Y-60439627D01*
X53327390Y-60773498D01*
X53436296Y-61092247D01*
X53539041Y-61284469D01*
X53811110Y-61389285D01*
X54820395Y-60380000D01*
X55179605Y-60380000D01*
X56188890Y-61389285D01*
X56460959Y-61284469D01*
X56609340Y-60982071D01*
X56695875Y-60656535D01*
X56709660Y-60439627D01*
X63282761Y-60439627D01*
X63327390Y-60773498D01*
X63436296Y-61092247D01*
X63539041Y-61284469D01*
X63811110Y-61389285D01*
X64820395Y-60380000D01*
X65179605Y-60380000D01*
X66188890Y-61389285D01*
X66460959Y-61284469D01*
X66609340Y-60982071D01*
X66695875Y-60656535D01*
X66717239Y-60320373D01*
X66672610Y-59986502D01*
X66563704Y-59667753D01*
X66460959Y-59475531D01*
X66188890Y-59370715D01*
X65179605Y-60380000D01*
X64820395Y-60380000D01*
X63811110Y-59370715D01*
X63539041Y-59475531D01*
X63390660Y-59777929D01*
X63304125Y-60103465D01*
X63282761Y-60439627D01*
X56709660Y-60439627D01*
X56717239Y-60320373D01*
X56672610Y-59986502D01*
X56563704Y-59667753D01*
X56460959Y-59475531D01*
X56188890Y-59370715D01*
X55179605Y-60380000D01*
X54820395Y-60380000D01*
X53811110Y-59370715D01*
X53539041Y-59475531D01*
X53390660Y-59777929D01*
X53304125Y-60103465D01*
X53282761Y-60439627D01*
X50660000Y-60439627D01*
X50660000Y-56789721D01*
X52865000Y-56789721D01*
X52865000Y-57210279D01*
X52947047Y-57622756D01*
X53107988Y-58011302D01*
X53341637Y-58360983D01*
X53639017Y-58658363D01*
X53988698Y-58892012D01*
X54089809Y-58933894D01*
X53990715Y-59191110D01*
X55000000Y-60200395D01*
X56009285Y-59191110D01*
X55910191Y-58933894D01*
X56011302Y-58892012D01*
X56360983Y-58658363D01*
X56658363Y-58360983D01*
X56892012Y-58011302D01*
X57052953Y-57622756D01*
X57135000Y-57210279D01*
X57135000Y-56789721D01*
X62865000Y-56789721D01*
X62865000Y-57210279D01*
X62947047Y-57622756D01*
X63107988Y-58011302D01*
X63341637Y-58360983D01*
X63639017Y-58658363D01*
X63988698Y-58892012D01*
X64089809Y-58933894D01*
X63990715Y-59191110D01*
X65000000Y-60200395D01*
X66009285Y-59191110D01*
X65910191Y-58933894D01*
X66011302Y-58892012D01*
X66360983Y-58658363D01*
X66658363Y-58360983D01*
X66892012Y-58011302D01*
X67052953Y-57622756D01*
X67135000Y-57210279D01*
X67135000Y-56789721D01*
X67052953Y-56377244D01*
X66892012Y-55988698D01*
X66658363Y-55639017D01*
X66360983Y-55341637D01*
X66011302Y-55107988D01*
X65622756Y-54947047D01*
X65210279Y-54865000D01*
X64789721Y-54865000D01*
X64377244Y-54947047D01*
X63988698Y-55107988D01*
X63639017Y-55341637D01*
X63341637Y-55639017D01*
X63107988Y-55988698D01*
X62947047Y-56377244D01*
X62865000Y-56789721D01*
X57135000Y-56789721D01*
X57052953Y-56377244D01*
X56892012Y-55988698D01*
X56658363Y-55639017D01*
X56360983Y-55341637D01*
X56011302Y-55107988D01*
X55622756Y-54947047D01*
X55210279Y-54865000D01*
X54789721Y-54865000D01*
X54377244Y-54947047D01*
X53988698Y-55107988D01*
X53639017Y-55341637D01*
X53341637Y-55639017D01*
X53107988Y-55988698D01*
X52947047Y-56377244D01*
X52865000Y-56789721D01*
X50660000Y-56789721D01*
X50660000Y-50660000D01*
X54047262Y-50660000D01*
X53909939Y-50751756D01*
G37*
X53909939Y-50751756D02*
X53671756Y-50989939D01*
X53484618Y-51270011D01*
X53355714Y-51581211D01*
X53290000Y-51911580D01*
X53290000Y-52248420D01*
X53355714Y-52578789D01*
X53484618Y-52889989D01*
X53671756Y-53170061D01*
X53909939Y-53408244D01*
X54190011Y-53595382D01*
X54501211Y-53724286D01*
X54831580Y-53790000D01*
X55168420Y-53790000D01*
X55498789Y-53724286D01*
X55809989Y-53595382D01*
X56090061Y-53408244D01*
X56328244Y-53170061D01*
X56515382Y-52889989D01*
X56644286Y-52578789D01*
X56710000Y-52248420D01*
X56710000Y-51911580D01*
X56644286Y-51581211D01*
X56515382Y-51270011D01*
X56328244Y-50989939D01*
X56090061Y-50751756D01*
X55952738Y-50660000D01*
X64047262Y-50660000D01*
X63909939Y-50751756D01*
X63671756Y-50989939D01*
X63484618Y-51270011D01*
X63355714Y-51581211D01*
X63290000Y-51911580D01*
X63290000Y-52248420D01*
X63355714Y-52578789D01*
X63484618Y-52889989D01*
X63671756Y-53170061D01*
X63909939Y-53408244D01*
X64190011Y-53595382D01*
X64501211Y-53724286D01*
X64831580Y-53790000D01*
X65168420Y-53790000D01*
X65498789Y-53724286D01*
X65809989Y-53595382D01*
X66090061Y-53408244D01*
X66328244Y-53170061D01*
X66515382Y-52889989D01*
X66644286Y-52578789D01*
X66710000Y-52248420D01*
X66710000Y-51911580D01*
X66644286Y-51581211D01*
X66515382Y-51270011D01*
X66328244Y-50989939D01*
X66090061Y-50751756D01*
X65952738Y-50660000D01*
X69340000Y-50660000D01*
X69340000Y-75865212D01*
X69271680Y-75700273D01*
X69114637Y-75465241D01*
X68914759Y-75265363D01*
X68679727Y-75108320D01*
X68418574Y-75000147D01*
X68141335Y-74945000D01*
X67858665Y-74945000D01*
X67581426Y-75000147D01*
X67320273Y-75108320D01*
X67085241Y-75265363D01*
X66885363Y-75465241D01*
X66728320Y-75700273D01*
X66620147Y-75961426D01*
X66565000Y-76238665D01*
X66565000Y-76521335D01*
X66620147Y-76798574D01*
X66728320Y-77059727D01*
X66885363Y-77294759D01*
X67085241Y-77494637D01*
X67320273Y-77651680D01*
X67581426Y-77759853D01*
X67858665Y-77815000D01*
X68141335Y-77815000D01*
X68418574Y-77759853D01*
X68679727Y-77651680D01*
X68914759Y-77494637D01*
X69114637Y-77294759D01*
X69271680Y-77059727D01*
X69340000Y-76894788D01*
X69340000Y-83485212D01*
X69271680Y-83320273D01*
X69114637Y-83085241D01*
X68914759Y-82885363D01*
X68679727Y-82728320D01*
X68418574Y-82620147D01*
X68141335Y-82565000D01*
X67858665Y-82565000D01*
X67581426Y-82620147D01*
X67320273Y-82728320D01*
X67085241Y-82885363D01*
X66885363Y-83085241D01*
X66728320Y-83320273D01*
X66620147Y-83581426D01*
X66565000Y-83858665D01*
X66565000Y-84141335D01*
X66620147Y-84418574D01*
X66728320Y-84679727D01*
X66885363Y-84914759D01*
X67085241Y-85114637D01*
X67320273Y-85271680D01*
X67581426Y-85379853D01*
X67858665Y-85435000D01*
X68141335Y-85435000D01*
X68418574Y-85379853D01*
X68679727Y-85271680D01*
X68914759Y-85114637D01*
X69114637Y-84914759D01*
X69271680Y-84679727D01*
X69340000Y-84514788D01*
X69340001Y-125060605D01*
X69164759Y-124885363D01*
X68929727Y-124728320D01*
X68668574Y-124620147D01*
X68391335Y-124565000D01*
X68108665Y-124565000D01*
X67926114Y-124601312D01*
X63840900Y-120516099D01*
X63840900Y-114850000D01*
X65511928Y-114850000D01*
X65524188Y-114974482D01*
X65560498Y-115094180D01*
X65619463Y-115204494D01*
X65698815Y-115301185D01*
X65795506Y-115380537D01*
X65905820Y-115439502D01*
X66025518Y-115475812D01*
X66150000Y-115488072D01*
X66714250Y-115485000D01*
X66873000Y-115326250D01*
X66873000Y-114127000D01*
X67127000Y-114127000D01*
X67127000Y-115326250D01*
X67285750Y-115485000D01*
X67850000Y-115488072D01*
X67974482Y-115475812D01*
X68094180Y-115439502D01*
X68204494Y-115380537D01*
X68301185Y-115301185D01*
X68380537Y-115204494D01*
X68439502Y-115094180D01*
X68475812Y-114974482D01*
X68488072Y-114850000D01*
X68485000Y-114285750D01*
X68326250Y-114127000D01*
X67127000Y-114127000D01*
X66873000Y-114127000D01*
X65673750Y-114127000D01*
X65515000Y-114285750D01*
X65511928Y-114850000D01*
X63840900Y-114850000D01*
X63840900Y-113150000D01*
X65511928Y-113150000D01*
X65515000Y-113714250D01*
X65673750Y-113873000D01*
X66873000Y-113873000D01*
X66873000Y-113853000D01*
X67127000Y-113853000D01*
X67127000Y-113873000D01*
X68326250Y-113873000D01*
X68485000Y-113714250D01*
X68488072Y-113150000D01*
X68475812Y-113025518D01*
X68439502Y-112905820D01*
X68380537Y-112795506D01*
X68301185Y-112698815D01*
X68204494Y-112619463D01*
X68094180Y-112560498D01*
X68021620Y-112538487D01*
X68153475Y-112406632D01*
X68315990Y-112163411D01*
X68427932Y-111893158D01*
X68485000Y-111606260D01*
X68485000Y-111313740D01*
X68427932Y-111026842D01*
X68315990Y-110756589D01*
X68153475Y-110513368D01*
X67946632Y-110306525D01*
X67772240Y-110190000D01*
X67946632Y-110073475D01*
X68153475Y-109866632D01*
X68315990Y-109623411D01*
X68427932Y-109353158D01*
X68485000Y-109066260D01*
X68485000Y-108773740D01*
X68427932Y-108486842D01*
X68315990Y-108216589D01*
X68153475Y-107973368D01*
X67946632Y-107766525D01*
X67703411Y-107604010D01*
X67433158Y-107492068D01*
X67146260Y-107435000D01*
X66853740Y-107435000D01*
X66566842Y-107492068D01*
X66296589Y-107604010D01*
X66053368Y-107766525D01*
X65846525Y-107973368D01*
X65684010Y-108216589D01*
X65572068Y-108486842D01*
X65515000Y-108773740D01*
X65515000Y-109066260D01*
X65572068Y-109353158D01*
X65684010Y-109623411D01*
X65846525Y-109866632D01*
X66053368Y-110073475D01*
X66227760Y-110190000D01*
X66053368Y-110306525D01*
X65846525Y-110513368D01*
X65684010Y-110756589D01*
X65572068Y-111026842D01*
X65515000Y-111313740D01*
X65515000Y-111606260D01*
X65572068Y-111893158D01*
X65684010Y-112163411D01*
X65846525Y-112406632D01*
X65978380Y-112538487D01*
X65905820Y-112560498D01*
X65795506Y-112619463D01*
X65698815Y-112698815D01*
X65619463Y-112795506D01*
X65560498Y-112905820D01*
X65524188Y-113025518D01*
X65511928Y-113150000D01*
X63840900Y-113150000D01*
X63840900Y-99478665D01*
X65565000Y-99478665D01*
X65565000Y-99761335D01*
X65620147Y-100038574D01*
X65728320Y-100299727D01*
X65885363Y-100534759D01*
X66085241Y-100734637D01*
X66320273Y-100891680D01*
X66581426Y-100999853D01*
X66858665Y-101055000D01*
X67141335Y-101055000D01*
X67418574Y-100999853D01*
X67679727Y-100891680D01*
X67914759Y-100734637D01*
X68114637Y-100534759D01*
X68271680Y-100299727D01*
X68379853Y-100038574D01*
X68435000Y-99761335D01*
X68435000Y-99478665D01*
X68379853Y-99201426D01*
X68271680Y-98940273D01*
X68114637Y-98705241D01*
X67914759Y-98505363D01*
X67679727Y-98348320D01*
X67418574Y-98240147D01*
X67141335Y-98185000D01*
X66858665Y-98185000D01*
X66581426Y-98240147D01*
X66320273Y-98348320D01*
X66085241Y-98505363D01*
X65885363Y-98705241D01*
X65728320Y-98940273D01*
X65620147Y-99201426D01*
X65565000Y-99478665D01*
X63840900Y-99478665D01*
X63840900Y-92992702D01*
X66186903Y-92992702D01*
X66258486Y-93236671D01*
X66513996Y-93357571D01*
X66788184Y-93426300D01*
X67070512Y-93440217D01*
X67350130Y-93398787D01*
X67616292Y-93303603D01*
X67741514Y-93236671D01*
X67813097Y-92992702D01*
X67000000Y-92179605D01*
X66186903Y-92992702D01*
X63840900Y-92992702D01*
X63840900Y-92070512D01*
X65559783Y-92070512D01*
X65601213Y-92350130D01*
X65696397Y-92616292D01*
X65763329Y-92741514D01*
X66007298Y-92813097D01*
X66820395Y-92000000D01*
X67179605Y-92000000D01*
X67992702Y-92813097D01*
X68236671Y-92741514D01*
X68357571Y-92486004D01*
X68426300Y-92211816D01*
X68440217Y-91929488D01*
X68398787Y-91649870D01*
X68303603Y-91383708D01*
X68236671Y-91258486D01*
X67992702Y-91186903D01*
X67179605Y-92000000D01*
X66820395Y-92000000D01*
X66007298Y-91186903D01*
X65763329Y-91258486D01*
X65642429Y-91513996D01*
X65573700Y-91788184D01*
X65559783Y-92070512D01*
X63840900Y-92070512D01*
X63840900Y-91007298D01*
X66186903Y-91007298D01*
X67000000Y-91820395D01*
X67813097Y-91007298D01*
X67741514Y-90763329D01*
X67486004Y-90642429D01*
X67211816Y-90573700D01*
X66929488Y-90559783D01*
X66649870Y-90601213D01*
X66383708Y-90696397D01*
X66258486Y-90763329D01*
X66186903Y-91007298D01*
X63840900Y-91007298D01*
X63840900Y-86812132D01*
X63844577Y-86774799D01*
X63829903Y-86625813D01*
X63786446Y-86482552D01*
X63715874Y-86350523D01*
X63644699Y-86263796D01*
X63620901Y-86234798D01*
X63591904Y-86211001D01*
X62609802Y-85228899D01*
X62651184Y-85228899D01*
X62947743Y-85169910D01*
X63227095Y-85054198D01*
X63478505Y-84886211D01*
X63692312Y-84672404D01*
X63860299Y-84420994D01*
X63976011Y-84141642D01*
X64035000Y-83845083D01*
X64035000Y-83542715D01*
X63976011Y-83246156D01*
X63860299Y-82966804D01*
X63692312Y-82715394D01*
X63478505Y-82501587D01*
X63392169Y-82443899D01*
X63478505Y-82386211D01*
X63692312Y-82172404D01*
X63860299Y-81920994D01*
X63976011Y-81641642D01*
X64035000Y-81345083D01*
X64035000Y-81042715D01*
X63976011Y-80746156D01*
X63860299Y-80466804D01*
X63692312Y-80215394D01*
X63478505Y-80001587D01*
X63227095Y-79833600D01*
X62947743Y-79717888D01*
X62651184Y-79658899D01*
X62348816Y-79658899D01*
X62052257Y-79717888D01*
X61772905Y-79833600D01*
X61521495Y-80001587D01*
X61307688Y-80215394D01*
X61250000Y-80301730D01*
X61192312Y-80215394D01*
X60978505Y-80001587D01*
X60760000Y-79855586D01*
X60760000Y-78934922D01*
X60763676Y-78897599D01*
X60760000Y-78860276D01*
X60760000Y-78860267D01*
X60749003Y-78748614D01*
X60705546Y-78605353D01*
X60634974Y-78473324D01*
X60540001Y-78357599D01*
X60510997Y-78333796D01*
X60228404Y-78051203D01*
X60204601Y-78022199D01*
X60088876Y-77927226D01*
X59956847Y-77856654D01*
X59813586Y-77813197D01*
X59701933Y-77802200D01*
X59701922Y-77802200D01*
X59664600Y-77798524D01*
X59627278Y-77802200D01*
X57784022Y-77802200D01*
X57746697Y-77798524D01*
X57709372Y-77802200D01*
X57709364Y-77802200D01*
X57597711Y-77813197D01*
X57454450Y-77856654D01*
X57322421Y-77927226D01*
X57206696Y-78022199D01*
X57182898Y-78051197D01*
X54784803Y-80449293D01*
X54755799Y-80473096D01*
X54700671Y-80540271D01*
X54660826Y-80588821D01*
X54590255Y-80720850D01*
X54590254Y-80720851D01*
X54546797Y-80864112D01*
X54535800Y-80975765D01*
X54535800Y-80975775D01*
X54532124Y-81013097D01*
X54535800Y-81050419D01*
X54535801Y-122139396D01*
X52073886Y-124601312D01*
X51891335Y-124565000D01*
X51608665Y-124565000D01*
X51331426Y-124620147D01*
X51070273Y-124728320D01*
X50835241Y-124885363D01*
X50660000Y-125060604D01*
X50660000Y-114850000D01*
X51511928Y-114850000D01*
X51524188Y-114974482D01*
X51560498Y-115094180D01*
X51619463Y-115204494D01*
X51698815Y-115301185D01*
X51795506Y-115380537D01*
X51905820Y-115439502D01*
X52025518Y-115475812D01*
X52150000Y-115488072D01*
X52714250Y-115485000D01*
X52873000Y-115326250D01*
X52873000Y-114127000D01*
X53127000Y-114127000D01*
X53127000Y-115326250D01*
X53285750Y-115485000D01*
X53850000Y-115488072D01*
X53974482Y-115475812D01*
X54094180Y-115439502D01*
X54204494Y-115380537D01*
X54301185Y-115301185D01*
X54380537Y-115204494D01*
X54439502Y-115094180D01*
X54475812Y-114974482D01*
X54488072Y-114850000D01*
X54485000Y-114285750D01*
X54326250Y-114127000D01*
X53127000Y-114127000D01*
X52873000Y-114127000D01*
X51673750Y-114127000D01*
X51515000Y-114285750D01*
X51511928Y-114850000D01*
X50660000Y-114850000D01*
X50660000Y-113150000D01*
X51511928Y-113150000D01*
X51515000Y-113714250D01*
X51673750Y-113873000D01*
X52873000Y-113873000D01*
X52873000Y-113853000D01*
X53127000Y-113853000D01*
X53127000Y-113873000D01*
X54326250Y-113873000D01*
X54485000Y-113714250D01*
X54488072Y-113150000D01*
X54475812Y-113025518D01*
X54439502Y-112905820D01*
X54380537Y-112795506D01*
X54301185Y-112698815D01*
X54204494Y-112619463D01*
X54094180Y-112560498D01*
X54021620Y-112538487D01*
X54153475Y-112406632D01*
X54315990Y-112163411D01*
X54427932Y-111893158D01*
X54485000Y-111606260D01*
X54485000Y-111313740D01*
X54427932Y-111026842D01*
X54315990Y-110756589D01*
X54153475Y-110513368D01*
X53946632Y-110306525D01*
X53772240Y-110190000D01*
X53946632Y-110073475D01*
X54153475Y-109866632D01*
X54315990Y-109623411D01*
X54427932Y-109353158D01*
X54485000Y-109066260D01*
X54485000Y-108773740D01*
X54427932Y-108486842D01*
X54315990Y-108216589D01*
X54153475Y-107973368D01*
X53946632Y-107766525D01*
X53703411Y-107604010D01*
X53433158Y-107492068D01*
X53146260Y-107435000D01*
X52853740Y-107435000D01*
X52566842Y-107492068D01*
X52296589Y-107604010D01*
X52053368Y-107766525D01*
X51846525Y-107973368D01*
X51684010Y-108216589D01*
X51572068Y-108486842D01*
X51515000Y-108773740D01*
X51515000Y-109066260D01*
X51572068Y-109353158D01*
X51684010Y-109623411D01*
X51846525Y-109866632D01*
X52053368Y-110073475D01*
X52227760Y-110190000D01*
X52053368Y-110306525D01*
X51846525Y-110513368D01*
X51684010Y-110756589D01*
X51572068Y-111026842D01*
X51515000Y-111313740D01*
X51515000Y-111606260D01*
X51572068Y-111893158D01*
X51684010Y-112163411D01*
X51846525Y-112406632D01*
X51978380Y-112538487D01*
X51905820Y-112560498D01*
X51795506Y-112619463D01*
X51698815Y-112698815D01*
X51619463Y-112795506D01*
X51560498Y-112905820D01*
X51524188Y-113025518D01*
X51511928Y-113150000D01*
X50660000Y-113150000D01*
X50660000Y-100492702D01*
X52186903Y-100492702D01*
X52258486Y-100736671D01*
X52513996Y-100857571D01*
X52788184Y-100926300D01*
X53070512Y-100940217D01*
X53350130Y-100898787D01*
X53616292Y-100803603D01*
X53741514Y-100736671D01*
X53813097Y-100492702D01*
X53000000Y-99679605D01*
X52186903Y-100492702D01*
X50660000Y-100492702D01*
X50660000Y-99570512D01*
X51559783Y-99570512D01*
X51601213Y-99850130D01*
X51696397Y-100116292D01*
X51763329Y-100241514D01*
X52007298Y-100313097D01*
X52820395Y-99500000D01*
X53179605Y-99500000D01*
X53992702Y-100313097D01*
X54236671Y-100241514D01*
X54357571Y-99986004D01*
X54426300Y-99711816D01*
X54440217Y-99429488D01*
X54398787Y-99149870D01*
X54303603Y-98883708D01*
X54236671Y-98758486D01*
X53992702Y-98686903D01*
X53179605Y-99500000D01*
X52820395Y-99500000D01*
X52007298Y-98686903D01*
X51763329Y-98758486D01*
X51642429Y-99013996D01*
X51573700Y-99288184D01*
X51559783Y-99570512D01*
X50660000Y-99570512D01*
X50660000Y-98507298D01*
X52186903Y-98507298D01*
X53000000Y-99320395D01*
X53813097Y-98507298D01*
X53741514Y-98263329D01*
X53486004Y-98142429D01*
X53211816Y-98073700D01*
X52929488Y-98059783D01*
X52649870Y-98101213D01*
X52383708Y-98196397D01*
X52258486Y-98263329D01*
X52186903Y-98507298D01*
X50660000Y-98507298D01*
X50660000Y-91738665D01*
X51565000Y-91738665D01*
X51565000Y-92021335D01*
X51620147Y-92298574D01*
X51728320Y-92559727D01*
X51885363Y-92794759D01*
X52085241Y-92994637D01*
X52320273Y-93151680D01*
X52581426Y-93259853D01*
X52858665Y-93315000D01*
X53141335Y-93315000D01*
X53418574Y-93259853D01*
X53679727Y-93151680D01*
X53914759Y-92994637D01*
X54114637Y-92794759D01*
X54271680Y-92559727D01*
X54379853Y-92298574D01*
X54435000Y-92021335D01*
X54435000Y-91738665D01*
X54379853Y-91461426D01*
X54271680Y-91200273D01*
X54114637Y-90965241D01*
X53914759Y-90765363D01*
X53679727Y-90608320D01*
X53418574Y-90500147D01*
X53141335Y-90445000D01*
X52858665Y-90445000D01*
X52581426Y-90500147D01*
X52320273Y-90608320D01*
X52085241Y-90765363D01*
X51885363Y-90965241D01*
X51728320Y-91200273D01*
X51620147Y-91461426D01*
X51565000Y-91738665D01*
X50660000Y-91738665D01*
X50660000Y-84514788D01*
X50728320Y-84679727D01*
X50885363Y-84914759D01*
X51085241Y-85114637D01*
X51320273Y-85271680D01*
X51581426Y-85379853D01*
X51858665Y-85435000D01*
X52141335Y-85435000D01*
X52418574Y-85379853D01*
X52679727Y-85271680D01*
X52914759Y-85114637D01*
X53114637Y-84914759D01*
X53271680Y-84679727D01*
X53379853Y-84418574D01*
X53435000Y-84141335D01*
X53435000Y-83858665D01*
X53379853Y-83581426D01*
X53271680Y-83320273D01*
X53114637Y-83085241D01*
X52914759Y-82885363D01*
X52679727Y-82728320D01*
X52418574Y-82620147D01*
X52141335Y-82565000D01*
X51858665Y-82565000D01*
X51581426Y-82620147D01*
X51320273Y-82728320D01*
X51085241Y-82885363D01*
X50885363Y-83085241D01*
X50728320Y-83320273D01*
X50660000Y-83485212D01*
X50660000Y-76894788D01*
X50728320Y-77059727D01*
X50885363Y-77294759D01*
X51085241Y-77494637D01*
X51320273Y-77651680D01*
X51581426Y-77759853D01*
X51858665Y-77815000D01*
X52141335Y-77815000D01*
X52418574Y-77759853D01*
X52679727Y-77651680D01*
X52914759Y-77494637D01*
X53114637Y-77294759D01*
X53271680Y-77059727D01*
X53379853Y-76798574D01*
X53435000Y-76521335D01*
X53435000Y-76238665D01*
X53379853Y-75961426D01*
X53271680Y-75700273D01*
X53114637Y-75465241D01*
X52914759Y-75265363D01*
X52679727Y-75108320D01*
X52418574Y-75000147D01*
X52141335Y-74945000D01*
X51858665Y-74945000D01*
X51581426Y-75000147D01*
X51320273Y-75108320D01*
X51085241Y-75265363D01*
X50885363Y-75465241D01*
X50728320Y-75700273D01*
X50660000Y-75865212D01*
X50660000Y-73335901D01*
X53255000Y-73335901D01*
X53255000Y-74051896D01*
X53283867Y-74344986D01*
X53397943Y-74721045D01*
X53583193Y-75067624D01*
X53832497Y-75371402D01*
X54136275Y-75620706D01*
X54482853Y-75805956D01*
X54858912Y-75920032D01*
X55250000Y-75958551D01*
X55641087Y-75920032D01*
X56017146Y-75805956D01*
X56363725Y-75620706D01*
X56667503Y-75371402D01*
X56916807Y-75067624D01*
X57102057Y-74721046D01*
X57216133Y-74344987D01*
X57245000Y-74051897D01*
X57245000Y-73335902D01*
X57245000Y-73335901D01*
X62755000Y-73335901D01*
X62755000Y-74051896D01*
X62783867Y-74344986D01*
X62897943Y-74721045D01*
X63083193Y-75067624D01*
X63332497Y-75371402D01*
X63636275Y-75620706D01*
X63982853Y-75805956D01*
X64358912Y-75920032D01*
X64750000Y-75958551D01*
X65141087Y-75920032D01*
X65517146Y-75805956D01*
X65863725Y-75620706D01*
X66167503Y-75371402D01*
X66416807Y-75067624D01*
X66602057Y-74721046D01*
X66716133Y-74344987D01*
X66745000Y-74051897D01*
X66745000Y-73335902D01*
X66716133Y-73042812D01*
X66602057Y-72666752D01*
X66416807Y-72320174D01*
X66167503Y-72016396D01*
X65863725Y-71767092D01*
X65517147Y-71581842D01*
X65141088Y-71467766D01*
X64750000Y-71429247D01*
X64358913Y-71467766D01*
X63982854Y-71581842D01*
X63636276Y-71767092D01*
X63332498Y-72016396D01*
X63083193Y-72320174D01*
X62897943Y-72666752D01*
X62783867Y-73042811D01*
X62755000Y-73335901D01*
X57245000Y-73335901D01*
X57216133Y-73042812D01*
X57102057Y-72666752D01*
X56916807Y-72320174D01*
X56667503Y-72016396D01*
X56363725Y-71767092D01*
X56017147Y-71581842D01*
X55641088Y-71467766D01*
X55250000Y-71429247D01*
X54858913Y-71467766D01*
X54482854Y-71581842D01*
X54136276Y-71767092D01*
X53832498Y-72016396D01*
X53583193Y-72320174D01*
X53397943Y-72666752D01*
X53283867Y-73042811D01*
X53255000Y-73335901D01*
X50660000Y-73335901D01*
X50660000Y-66376340D01*
X56249200Y-66376340D01*
X56249200Y-66668860D01*
X56306268Y-66955758D01*
X56418210Y-67226011D01*
X56580725Y-67469232D01*
X56787568Y-67676075D01*
X57030789Y-67838590D01*
X57301042Y-67950532D01*
X57587940Y-68007600D01*
X57880460Y-68007600D01*
X58167358Y-67950532D01*
X58437611Y-67838590D01*
X58680832Y-67676075D01*
X58887675Y-67469232D01*
X59004200Y-67294840D01*
X59120725Y-67469232D01*
X59327568Y-67676075D01*
X59570789Y-67838590D01*
X59841042Y-67950532D01*
X60127940Y-68007600D01*
X60420460Y-68007600D01*
X60707358Y-67950532D01*
X60977611Y-67838590D01*
X61220832Y-67676075D01*
X61352687Y-67544220D01*
X61374698Y-67616780D01*
X61433663Y-67727094D01*
X61513015Y-67823785D01*
X61609706Y-67903137D01*
X61720020Y-67962102D01*
X61839718Y-67998412D01*
X61964200Y-68010672D01*
X62528450Y-68007600D01*
X62687200Y-67848850D01*
X62687200Y-66649600D01*
X62941200Y-66649600D01*
X62941200Y-67848850D01*
X63099950Y-68007600D01*
X63664200Y-68010672D01*
X63788682Y-67998412D01*
X63908380Y-67962102D01*
X64018694Y-67903137D01*
X64115385Y-67823785D01*
X64194737Y-67727094D01*
X64253702Y-67616780D01*
X64290012Y-67497082D01*
X64302272Y-67372600D01*
X64299200Y-66808350D01*
X64140450Y-66649600D01*
X62941200Y-66649600D01*
X62687200Y-66649600D01*
X62667200Y-66649600D01*
X62667200Y-66395600D01*
X62687200Y-66395600D01*
X62687200Y-65196350D01*
X62941200Y-65196350D01*
X62941200Y-66395600D01*
X64140450Y-66395600D01*
X64299200Y-66236850D01*
X64302272Y-65672600D01*
X64290012Y-65548118D01*
X64253702Y-65428420D01*
X64194737Y-65318106D01*
X64115385Y-65221415D01*
X64018694Y-65142063D01*
X63908380Y-65083098D01*
X63788682Y-65046788D01*
X63664200Y-65034528D01*
X63099950Y-65037600D01*
X62941200Y-65196350D01*
X62687200Y-65196350D01*
X62528450Y-65037600D01*
X61964200Y-65034528D01*
X61839718Y-65046788D01*
X61720020Y-65083098D01*
X61609706Y-65142063D01*
X61513015Y-65221415D01*
X61433663Y-65318106D01*
X61374698Y-65428420D01*
X61352687Y-65500980D01*
X61220832Y-65369125D01*
X60977611Y-65206610D01*
X60707358Y-65094668D01*
X60420460Y-65037600D01*
X60127940Y-65037600D01*
X59841042Y-65094668D01*
X59570789Y-65206610D01*
X59327568Y-65369125D01*
X59120725Y-65575968D01*
X59004200Y-65750360D01*
X58887675Y-65575968D01*
X58680832Y-65369125D01*
X58437611Y-65206610D01*
X58167358Y-65094668D01*
X57880460Y-65037600D01*
X57587940Y-65037600D01*
X57301042Y-65094668D01*
X57030789Y-65206610D01*
X56787568Y-65369125D01*
X56580725Y-65575968D01*
X56418210Y-65819189D01*
X56306268Y-66089442D01*
X56249200Y-66376340D01*
X50660000Y-66376340D01*
X50660000Y-64160080D01*
X54115525Y-64160080D01*
X54199208Y-64414261D01*
X54471775Y-64545158D01*
X54764642Y-64620365D01*
X55066553Y-64636991D01*
X55365907Y-64594397D01*
X55651199Y-64494222D01*
X55800792Y-64414261D01*
X55884475Y-64160080D01*
X64115525Y-64160080D01*
X64199208Y-64414261D01*
X64471775Y-64545158D01*
X64764642Y-64620365D01*
X65066553Y-64636991D01*
X65365907Y-64594397D01*
X65651199Y-64494222D01*
X65800792Y-64414261D01*
X65884475Y-64160080D01*
X65000000Y-63275605D01*
X64115525Y-64160080D01*
X55884475Y-64160080D01*
X55000000Y-63275605D01*
X54115525Y-64160080D01*
X50660000Y-64160080D01*
X50660000Y-63162553D01*
X53459009Y-63162553D01*
X53501603Y-63461907D01*
X53601778Y-63747199D01*
X53681739Y-63896792D01*
X53935920Y-63980475D01*
X54820395Y-63096000D01*
X55179605Y-63096000D01*
X56064080Y-63980475D01*
X56318261Y-63896792D01*
X56449158Y-63624225D01*
X56524365Y-63331358D01*
X56533660Y-63162553D01*
X63459009Y-63162553D01*
X63501603Y-63461907D01*
X63601778Y-63747199D01*
X63681739Y-63896792D01*
X63935920Y-63980475D01*
X64820395Y-63096000D01*
X65179605Y-63096000D01*
X66064080Y-63980475D01*
X66318261Y-63896792D01*
X66449158Y-63624225D01*
X66524365Y-63331358D01*
X66540991Y-63029447D01*
X66498397Y-62730093D01*
X66398222Y-62444801D01*
X66318261Y-62295208D01*
X66064080Y-62211525D01*
X65179605Y-63096000D01*
X64820395Y-63096000D01*
X63935920Y-62211525D01*
X63681739Y-62295208D01*
X63550842Y-62567775D01*
X63475635Y-62860642D01*
X63459009Y-63162553D01*
X56533660Y-63162553D01*
X56540991Y-63029447D01*
X56498397Y-62730093D01*
X56398222Y-62444801D01*
X56318261Y-62295208D01*
X56064080Y-62211525D01*
X55179605Y-63096000D01*
X54820395Y-63096000D01*
X53935920Y-62211525D01*
X53681739Y-62295208D01*
X53550842Y-62567775D01*
X53475635Y-62860642D01*
X53459009Y-63162553D01*
X50660000Y-63162553D01*
X50660000Y-61568890D01*
X53990715Y-61568890D01*
X54095531Y-61840959D01*
X54166870Y-61875964D01*
X54115525Y-62031920D01*
X55000000Y-62916395D01*
X55884475Y-62031920D01*
X55834006Y-61878623D01*
X55904469Y-61840959D01*
X56009285Y-61568890D01*
X63990715Y-61568890D01*
X64095531Y-61840959D01*
X64166870Y-61875964D01*
X64115525Y-62031920D01*
X65000000Y-62916395D01*
X65884475Y-62031920D01*
X65834006Y-61878623D01*
X65904469Y-61840959D01*
X66009285Y-61568890D01*
X65000000Y-60559605D01*
X63990715Y-61568890D01*
X56009285Y-61568890D01*
X55000000Y-60559605D01*
X53990715Y-61568890D01*
X50660000Y-61568890D01*
X50660000Y-60439627D01*
X53282761Y-60439627D01*
X53327390Y-60773498D01*
X53436296Y-61092247D01*
X53539041Y-61284469D01*
X53811110Y-61389285D01*
X54820395Y-60380000D01*
X55179605Y-60380000D01*
X56188890Y-61389285D01*
X56460959Y-61284469D01*
X56609340Y-60982071D01*
X56695875Y-60656535D01*
X56709660Y-60439627D01*
X63282761Y-60439627D01*
X63327390Y-60773498D01*
X63436296Y-61092247D01*
X63539041Y-61284469D01*
X63811110Y-61389285D01*
X64820395Y-60380000D01*
X65179605Y-60380000D01*
X66188890Y-61389285D01*
X66460959Y-61284469D01*
X66609340Y-60982071D01*
X66695875Y-60656535D01*
X66717239Y-60320373D01*
X66672610Y-59986502D01*
X66563704Y-59667753D01*
X66460959Y-59475531D01*
X66188890Y-59370715D01*
X65179605Y-60380000D01*
X64820395Y-60380000D01*
X63811110Y-59370715D01*
X63539041Y-59475531D01*
X63390660Y-59777929D01*
X63304125Y-60103465D01*
X63282761Y-60439627D01*
X56709660Y-60439627D01*
X56717239Y-60320373D01*
X56672610Y-59986502D01*
X56563704Y-59667753D01*
X56460959Y-59475531D01*
X56188890Y-59370715D01*
X55179605Y-60380000D01*
X54820395Y-60380000D01*
X53811110Y-59370715D01*
X53539041Y-59475531D01*
X53390660Y-59777929D01*
X53304125Y-60103465D01*
X53282761Y-60439627D01*
X50660000Y-60439627D01*
X50660000Y-56789721D01*
X52865000Y-56789721D01*
X52865000Y-57210279D01*
X52947047Y-57622756D01*
X53107988Y-58011302D01*
X53341637Y-58360983D01*
X53639017Y-58658363D01*
X53988698Y-58892012D01*
X54089809Y-58933894D01*
X53990715Y-59191110D01*
X55000000Y-60200395D01*
X56009285Y-59191110D01*
X55910191Y-58933894D01*
X56011302Y-58892012D01*
X56360983Y-58658363D01*
X56658363Y-58360983D01*
X56892012Y-58011302D01*
X57052953Y-57622756D01*
X57135000Y-57210279D01*
X57135000Y-56789721D01*
X62865000Y-56789721D01*
X62865000Y-57210279D01*
X62947047Y-57622756D01*
X63107988Y-58011302D01*
X63341637Y-58360983D01*
X63639017Y-58658363D01*
X63988698Y-58892012D01*
X64089809Y-58933894D01*
X63990715Y-59191110D01*
X65000000Y-60200395D01*
X66009285Y-59191110D01*
X65910191Y-58933894D01*
X66011302Y-58892012D01*
X66360983Y-58658363D01*
X66658363Y-58360983D01*
X66892012Y-58011302D01*
X67052953Y-57622756D01*
X67135000Y-57210279D01*
X67135000Y-56789721D01*
X67052953Y-56377244D01*
X66892012Y-55988698D01*
X66658363Y-55639017D01*
X66360983Y-55341637D01*
X66011302Y-55107988D01*
X65622756Y-54947047D01*
X65210279Y-54865000D01*
X64789721Y-54865000D01*
X64377244Y-54947047D01*
X63988698Y-55107988D01*
X63639017Y-55341637D01*
X63341637Y-55639017D01*
X63107988Y-55988698D01*
X62947047Y-56377244D01*
X62865000Y-56789721D01*
X57135000Y-56789721D01*
X57052953Y-56377244D01*
X56892012Y-55988698D01*
X56658363Y-55639017D01*
X56360983Y-55341637D01*
X56011302Y-55107988D01*
X55622756Y-54947047D01*
X55210279Y-54865000D01*
X54789721Y-54865000D01*
X54377244Y-54947047D01*
X53988698Y-55107988D01*
X53639017Y-55341637D01*
X53341637Y-55639017D01*
X53107988Y-55988698D01*
X52947047Y-56377244D01*
X52865000Y-56789721D01*
X50660000Y-56789721D01*
X50660000Y-50660000D01*
X54047262Y-50660000D01*
X53909939Y-50751756D01*
G36*
X57627000Y-81066899D02*
G01*
X57647000Y-81066899D01*
X57647000Y-81320899D01*
X57627000Y-81320899D01*
X57627000Y-81340899D01*
X57373000Y-81340899D01*
X57373000Y-81320899D01*
X57353000Y-81320899D01*
X57353000Y-81066899D01*
X57373000Y-81066899D01*
X57373000Y-81046899D01*
X57627000Y-81046899D01*
X57627000Y-81066899D01*
G37*
X57627000Y-81066899D02*
X57647000Y-81066899D01*
X57647000Y-81320899D01*
X57627000Y-81320899D01*
X57627000Y-81340899D01*
X57373000Y-81340899D01*
X57373000Y-81320899D01*
X57353000Y-81320899D01*
X57353000Y-81066899D01*
X57373000Y-81066899D01*
X57373000Y-81046899D01*
X57627000Y-81046899D01*
X57627000Y-81066899D01*
%TD*%
M02*
