%TF.GenerationSoftware,KiCad,Pcbnew,(5.1.6-0-10_14)*%
%TF.CreationDate,2020-11-24T13:30:39-06:00*%
%TF.ProjectId,nab,6e61622e-6b69-4636-9164-5f7063625858,rev?*%
%TF.SameCoordinates,Original*%
%TF.FileFunction,Copper,L2,Bot*%
%TF.FilePolarity,Positive*%
%FSLAX46Y46*%
G04 Gerber Fmt 4.6, Leading zero omitted, Abs format (unit mm)*
G04 Created by KiCad (PCBNEW (5.1.6-0-10_14)) date 2020-11-24 13:30:39*
%MOMM*%
%LPD*%
G01*
G04 APERTURE LIST*
%TA.AperFunction,EtchedComponent*%
%ADD10C,0.010000*%
%TD*%
%TA.AperFunction,ComponentPad*%
%ADD11O,1.700000X1.700000*%
%TD*%
%TA.AperFunction,ComponentPad*%
%ADD12R,1.700000X1.700000*%
%TD*%
%TA.AperFunction,ComponentPad*%
%ADD13R,1.800000X1.800000*%
%TD*%
%TA.AperFunction,ComponentPad*%
%ADD14C,1.800000*%
%TD*%
%TA.AperFunction,ComponentPad*%
%ADD15O,2.720000X3.240000*%
%TD*%
%TA.AperFunction,ComponentPad*%
%ADD16C,3.000000*%
%TD*%
%TA.AperFunction,ComponentPad*%
%ADD17C,2.150000*%
%TD*%
%TA.AperFunction,ComponentPad*%
%ADD18O,1.600000X1.600000*%
%TD*%
%TA.AperFunction,ComponentPad*%
%ADD19C,1.600000*%
%TD*%
%TA.AperFunction,Conductor*%
%ADD20C,0.250000*%
%TD*%
%TA.AperFunction,Conductor*%
%ADD21C,0.254000*%
%TD*%
G04 APERTURE END LIST*
D10*
%TO.C,REF\u002A\u002A*%
G36*
X66738456Y-106136118D02*
G01*
X66682999Y-106163768D01*
X66634052Y-106214680D01*
X66620571Y-106233538D01*
X66605886Y-106258215D01*
X66596358Y-106285016D01*
X66590907Y-106320787D01*
X66588453Y-106372369D01*
X66587914Y-106440467D01*
X66590348Y-106533788D01*
X66598806Y-106603857D01*
X66615026Y-106656131D01*
X66640746Y-106696069D01*
X66677703Y-106729129D01*
X66680418Y-106731086D01*
X66716840Y-106751108D01*
X66760698Y-106761015D01*
X66816476Y-106763457D01*
X66907152Y-106763457D01*
X66907190Y-106851483D01*
X66908034Y-106900508D01*
X66913176Y-106929265D01*
X66926613Y-106946511D01*
X66952342Y-106961008D01*
X66958521Y-106963969D01*
X66987436Y-106977848D01*
X67009824Y-106986614D01*
X67026471Y-106987371D01*
X67038164Y-106977223D01*
X67045690Y-106953273D01*
X67049834Y-106912626D01*
X67051385Y-106852386D01*
X67051129Y-106769655D01*
X67049851Y-106661539D01*
X67049452Y-106629200D01*
X67048015Y-106517724D01*
X67046728Y-106444803D01*
X66907229Y-106444803D01*
X66906445Y-106506699D01*
X66902960Y-106547197D01*
X66895076Y-106573908D01*
X66881095Y-106594444D01*
X66871603Y-106604460D01*
X66832796Y-106633767D01*
X66798437Y-106636152D01*
X66762984Y-106611950D01*
X66762086Y-106611057D01*
X66747661Y-106592353D01*
X66738887Y-106566932D01*
X66734461Y-106527784D01*
X66733082Y-106467897D01*
X66733057Y-106454630D01*
X66736388Y-106372101D01*
X66747231Y-106314891D01*
X66766860Y-106279966D01*
X66796550Y-106264294D01*
X66813709Y-106262714D01*
X66854434Y-106270126D01*
X66882368Y-106294530D01*
X66899183Y-106339180D01*
X66906550Y-106407330D01*
X66907229Y-106444803D01*
X67046728Y-106444803D01*
X67046492Y-106431445D01*
X67044523Y-106366533D01*
X67041750Y-106319158D01*
X67037812Y-106285490D01*
X67032351Y-106261698D01*
X67025008Y-106243953D01*
X67015423Y-106228424D01*
X67011313Y-106222581D01*
X66956795Y-106167385D01*
X66887864Y-106136090D01*
X66808128Y-106127365D01*
X66738456Y-106136118D01*
G37*
X66738456Y-106136118D02*
X66682999Y-106163768D01*
X66634052Y-106214680D01*
X66620571Y-106233538D01*
X66605886Y-106258215D01*
X66596358Y-106285016D01*
X66590907Y-106320787D01*
X66588453Y-106372369D01*
X66587914Y-106440467D01*
X66590348Y-106533788D01*
X66598806Y-106603857D01*
X66615026Y-106656131D01*
X66640746Y-106696069D01*
X66677703Y-106729129D01*
X66680418Y-106731086D01*
X66716840Y-106751108D01*
X66760698Y-106761015D01*
X66816476Y-106763457D01*
X66907152Y-106763457D01*
X66907190Y-106851483D01*
X66908034Y-106900508D01*
X66913176Y-106929265D01*
X66926613Y-106946511D01*
X66952342Y-106961008D01*
X66958521Y-106963969D01*
X66987436Y-106977848D01*
X67009824Y-106986614D01*
X67026471Y-106987371D01*
X67038164Y-106977223D01*
X67045690Y-106953273D01*
X67049834Y-106912626D01*
X67051385Y-106852386D01*
X67051129Y-106769655D01*
X67049851Y-106661539D01*
X67049452Y-106629200D01*
X67048015Y-106517724D01*
X67046728Y-106444803D01*
X66907229Y-106444803D01*
X66906445Y-106506699D01*
X66902960Y-106547197D01*
X66895076Y-106573908D01*
X66881095Y-106594444D01*
X66871603Y-106604460D01*
X66832796Y-106633767D01*
X66798437Y-106636152D01*
X66762984Y-106611950D01*
X66762086Y-106611057D01*
X66747661Y-106592353D01*
X66738887Y-106566932D01*
X66734461Y-106527784D01*
X66733082Y-106467897D01*
X66733057Y-106454630D01*
X66736388Y-106372101D01*
X66747231Y-106314891D01*
X66766860Y-106279966D01*
X66796550Y-106264294D01*
X66813709Y-106262714D01*
X66854434Y-106270126D01*
X66882368Y-106294530D01*
X66899183Y-106339180D01*
X66906550Y-106407330D01*
X66907229Y-106444803D01*
X67046728Y-106444803D01*
X67046492Y-106431445D01*
X67044523Y-106366533D01*
X67041750Y-106319158D01*
X67037812Y-106285490D01*
X67032351Y-106261698D01*
X67025008Y-106243953D01*
X67015423Y-106228424D01*
X67011313Y-106222581D01*
X66956795Y-106167385D01*
X66887864Y-106136090D01*
X66808128Y-106127365D01*
X66738456Y-106136118D01*
G36*
X65622107Y-106143980D02*
G01*
X65575528Y-106170923D01*
X65543143Y-106197666D01*
X65519458Y-106225684D01*
X65503141Y-106259948D01*
X65492861Y-106305427D01*
X65487286Y-106367092D01*
X65485084Y-106449911D01*
X65484829Y-106509446D01*
X65484829Y-106728591D01*
X65546514Y-106756244D01*
X65608200Y-106783897D01*
X65615457Y-106543870D01*
X65618456Y-106454228D01*
X65621602Y-106389162D01*
X65625499Y-106344226D01*
X65630753Y-106314970D01*
X65637969Y-106296948D01*
X65647750Y-106285711D01*
X65650888Y-106283279D01*
X65698439Y-106264283D01*
X65746503Y-106271800D01*
X65775114Y-106291743D01*
X65786753Y-106305875D01*
X65794809Y-106324420D01*
X65799929Y-106352534D01*
X65802759Y-106395373D01*
X65803944Y-106458095D01*
X65804143Y-106523461D01*
X65804182Y-106605468D01*
X65805586Y-106663516D01*
X65810286Y-106702665D01*
X65820213Y-106727980D01*
X65837297Y-106744523D01*
X65863468Y-106757356D01*
X65898425Y-106770691D01*
X65936604Y-106785207D01*
X65932059Y-106527589D01*
X65930229Y-106434719D01*
X65928088Y-106366089D01*
X65925019Y-106316911D01*
X65920406Y-106282398D01*
X65913632Y-106257762D01*
X65904081Y-106238216D01*
X65892566Y-106220970D01*
X65837010Y-106165880D01*
X65769220Y-106134022D01*
X65695487Y-106126391D01*
X65622107Y-106143980D01*
G37*
X65622107Y-106143980D02*
X65575528Y-106170923D01*
X65543143Y-106197666D01*
X65519458Y-106225684D01*
X65503141Y-106259948D01*
X65492861Y-106305427D01*
X65487286Y-106367092D01*
X65485084Y-106449911D01*
X65484829Y-106509446D01*
X65484829Y-106728591D01*
X65546514Y-106756244D01*
X65608200Y-106783897D01*
X65615457Y-106543870D01*
X65618456Y-106454228D01*
X65621602Y-106389162D01*
X65625499Y-106344226D01*
X65630753Y-106314970D01*
X65637969Y-106296948D01*
X65647750Y-106285711D01*
X65650888Y-106283279D01*
X65698439Y-106264283D01*
X65746503Y-106271800D01*
X65775114Y-106291743D01*
X65786753Y-106305875D01*
X65794809Y-106324420D01*
X65799929Y-106352534D01*
X65802759Y-106395373D01*
X65803944Y-106458095D01*
X65804143Y-106523461D01*
X65804182Y-106605468D01*
X65805586Y-106663516D01*
X65810286Y-106702665D01*
X65820213Y-106727980D01*
X65837297Y-106744523D01*
X65863468Y-106757356D01*
X65898425Y-106770691D01*
X65936604Y-106785207D01*
X65932059Y-106527589D01*
X65930229Y-106434719D01*
X65928088Y-106366089D01*
X65925019Y-106316911D01*
X65920406Y-106282398D01*
X65913632Y-106257762D01*
X65904081Y-106238216D01*
X65892566Y-106220970D01*
X65837010Y-106165880D01*
X65769220Y-106134022D01*
X65695487Y-106126391D01*
X65622107Y-106143980D01*
G36*
X67297085Y-106138162D02*
G01*
X67229055Y-106173933D01*
X67178849Y-106231501D01*
X67161015Y-106268512D01*
X67147137Y-106324082D01*
X67140033Y-106394296D01*
X67139360Y-106470927D01*
X67144773Y-106545752D01*
X67155930Y-106610542D01*
X67172486Y-106657073D01*
X67177574Y-106665087D01*
X67237845Y-106724907D01*
X67309431Y-106760735D01*
X67387108Y-106771220D01*
X67465652Y-106755010D01*
X67487511Y-106745292D01*
X67530078Y-106715343D01*
X67567437Y-106675633D01*
X67570968Y-106670597D01*
X67585319Y-106646324D01*
X67594806Y-106620378D01*
X67600410Y-106586222D01*
X67603114Y-106537319D01*
X67603901Y-106467135D01*
X67603914Y-106451400D01*
X67603878Y-106446392D01*
X67458771Y-106446392D01*
X67457927Y-106512630D01*
X67454604Y-106556586D01*
X67447617Y-106584979D01*
X67435784Y-106604525D01*
X67429743Y-106611057D01*
X67395014Y-106635880D01*
X67361297Y-106634748D01*
X67327205Y-106613216D01*
X67306871Y-106590229D01*
X67294829Y-106556678D01*
X67288066Y-106503769D01*
X67287602Y-106497599D01*
X67286448Y-106401713D01*
X67298512Y-106330499D01*
X67323630Y-106284394D01*
X67361640Y-106263835D01*
X67375208Y-106262714D01*
X67410836Y-106268352D01*
X67435206Y-106287886D01*
X67450107Y-106325242D01*
X67457325Y-106384350D01*
X67458771Y-106446392D01*
X67603878Y-106446392D01*
X67603374Y-106376613D01*
X67601104Y-106324359D01*
X67596132Y-106288149D01*
X67587487Y-106261499D01*
X67574195Y-106237922D01*
X67571257Y-106233538D01*
X67521887Y-106174449D01*
X67468091Y-106140147D01*
X67402598Y-106126531D01*
X67380358Y-106125865D01*
X67297085Y-106138162D01*
G37*
X67297085Y-106138162D02*
X67229055Y-106173933D01*
X67178849Y-106231501D01*
X67161015Y-106268512D01*
X67147137Y-106324082D01*
X67140033Y-106394296D01*
X67139360Y-106470927D01*
X67144773Y-106545752D01*
X67155930Y-106610542D01*
X67172486Y-106657073D01*
X67177574Y-106665087D01*
X67237845Y-106724907D01*
X67309431Y-106760735D01*
X67387108Y-106771220D01*
X67465652Y-106755010D01*
X67487511Y-106745292D01*
X67530078Y-106715343D01*
X67567437Y-106675633D01*
X67570968Y-106670597D01*
X67585319Y-106646324D01*
X67594806Y-106620378D01*
X67600410Y-106586222D01*
X67603114Y-106537319D01*
X67603901Y-106467135D01*
X67603914Y-106451400D01*
X67603878Y-106446392D01*
X67458771Y-106446392D01*
X67457927Y-106512630D01*
X67454604Y-106556586D01*
X67447617Y-106584979D01*
X67435784Y-106604525D01*
X67429743Y-106611057D01*
X67395014Y-106635880D01*
X67361297Y-106634748D01*
X67327205Y-106613216D01*
X67306871Y-106590229D01*
X67294829Y-106556678D01*
X67288066Y-106503769D01*
X67287602Y-106497599D01*
X67286448Y-106401713D01*
X67298512Y-106330499D01*
X67323630Y-106284394D01*
X67361640Y-106263835D01*
X67375208Y-106262714D01*
X67410836Y-106268352D01*
X67435206Y-106287886D01*
X67450107Y-106325242D01*
X67457325Y-106384350D01*
X67458771Y-106446392D01*
X67603878Y-106446392D01*
X67603374Y-106376613D01*
X67601104Y-106324359D01*
X67596132Y-106288149D01*
X67587487Y-106261499D01*
X67574195Y-106237922D01*
X67571257Y-106233538D01*
X67521887Y-106174449D01*
X67468091Y-106140147D01*
X67402598Y-106126531D01*
X67380358Y-106125865D01*
X67297085Y-106138162D01*
G36*
X66169897Y-106147439D02*
G01*
X66112673Y-106185935D01*
X66068451Y-106241535D01*
X66042033Y-106312286D01*
X66036690Y-106364362D01*
X66037297Y-106386093D01*
X66042378Y-106402731D01*
X66056345Y-106417637D01*
X66083611Y-106434173D01*
X66128588Y-106455698D01*
X66195689Y-106485574D01*
X66196029Y-106485724D01*
X66257793Y-106514013D01*
X66308441Y-106539133D01*
X66342796Y-106558379D01*
X66355682Y-106569048D01*
X66355686Y-106569134D01*
X66344328Y-106592366D01*
X66317769Y-106617974D01*
X66287277Y-106636421D01*
X66271830Y-106640086D01*
X66229685Y-106627412D01*
X66193392Y-106595671D01*
X66175683Y-106560772D01*
X66158648Y-106535045D01*
X66125278Y-106505746D01*
X66086051Y-106480435D01*
X66051444Y-106466671D01*
X66044207Y-106465914D01*
X66036061Y-106478360D01*
X66035570Y-106510172D01*
X66041557Y-106553066D01*
X66052843Y-106598758D01*
X66068250Y-106638961D01*
X66069029Y-106640522D01*
X66115396Y-106705262D01*
X66175489Y-106749297D01*
X66243735Y-106770911D01*
X66314562Y-106768385D01*
X66382396Y-106740004D01*
X66385412Y-106738008D01*
X66438773Y-106689648D01*
X66473860Y-106626552D01*
X66493278Y-106543587D01*
X66495884Y-106520278D01*
X66500499Y-106410255D01*
X66494967Y-106358948D01*
X66355686Y-106358948D01*
X66353876Y-106390953D01*
X66343978Y-106400293D01*
X66319302Y-106393305D01*
X66280405Y-106376787D01*
X66236925Y-106356081D01*
X66235844Y-106355533D01*
X66198991Y-106336149D01*
X66184200Y-106323213D01*
X66187847Y-106309651D01*
X66203205Y-106291832D01*
X66242277Y-106266045D01*
X66284354Y-106264150D01*
X66322097Y-106282917D01*
X66348166Y-106319115D01*
X66355686Y-106358948D01*
X66494967Y-106358948D01*
X66491006Y-106322227D01*
X66466650Y-106252412D01*
X66432744Y-106203502D01*
X66371547Y-106154078D01*
X66304137Y-106129559D01*
X66235320Y-106127997D01*
X66169897Y-106147439D01*
G37*
X66169897Y-106147439D02*
X66112673Y-106185935D01*
X66068451Y-106241535D01*
X66042033Y-106312286D01*
X66036690Y-106364362D01*
X66037297Y-106386093D01*
X66042378Y-106402731D01*
X66056345Y-106417637D01*
X66083611Y-106434173D01*
X66128588Y-106455698D01*
X66195689Y-106485574D01*
X66196029Y-106485724D01*
X66257793Y-106514013D01*
X66308441Y-106539133D01*
X66342796Y-106558379D01*
X66355682Y-106569048D01*
X66355686Y-106569134D01*
X66344328Y-106592366D01*
X66317769Y-106617974D01*
X66287277Y-106636421D01*
X66271830Y-106640086D01*
X66229685Y-106627412D01*
X66193392Y-106595671D01*
X66175683Y-106560772D01*
X66158648Y-106535045D01*
X66125278Y-106505746D01*
X66086051Y-106480435D01*
X66051444Y-106466671D01*
X66044207Y-106465914D01*
X66036061Y-106478360D01*
X66035570Y-106510172D01*
X66041557Y-106553066D01*
X66052843Y-106598758D01*
X66068250Y-106638961D01*
X66069029Y-106640522D01*
X66115396Y-106705262D01*
X66175489Y-106749297D01*
X66243735Y-106770911D01*
X66314562Y-106768385D01*
X66382396Y-106740004D01*
X66385412Y-106738008D01*
X66438773Y-106689648D01*
X66473860Y-106626552D01*
X66493278Y-106543587D01*
X66495884Y-106520278D01*
X66500499Y-106410255D01*
X66494967Y-106358948D01*
X66355686Y-106358948D01*
X66353876Y-106390953D01*
X66343978Y-106400293D01*
X66319302Y-106393305D01*
X66280405Y-106376787D01*
X66236925Y-106356081D01*
X66235844Y-106355533D01*
X66198991Y-106336149D01*
X66184200Y-106323213D01*
X66187847Y-106309651D01*
X66203205Y-106291832D01*
X66242277Y-106266045D01*
X66284354Y-106264150D01*
X66322097Y-106282917D01*
X66348166Y-106319115D01*
X66355686Y-106358948D01*
X66494967Y-106358948D01*
X66491006Y-106322227D01*
X66466650Y-106252412D01*
X66432744Y-106203502D01*
X66371547Y-106154078D01*
X66304137Y-106129559D01*
X66235320Y-106127997D01*
X66169897Y-106147439D01*
G36*
X64962314Y-106067489D02*
G01*
X64958061Y-106126813D01*
X64953175Y-106161772D01*
X64946405Y-106177020D01*
X64936498Y-106177215D01*
X64933286Y-106175395D01*
X64890556Y-106162215D01*
X64834973Y-106162985D01*
X64778463Y-106176533D01*
X64743118Y-106194061D01*
X64706879Y-106222061D01*
X64680387Y-106253749D01*
X64662201Y-106294013D01*
X64650878Y-106347743D01*
X64644978Y-106419826D01*
X64643057Y-106515151D01*
X64643023Y-106533437D01*
X64643000Y-106738846D01*
X64688709Y-106754780D01*
X64721173Y-106765620D01*
X64738985Y-106770668D01*
X64739509Y-106770714D01*
X64741263Y-106757028D01*
X64742756Y-106719276D01*
X64743874Y-106662424D01*
X64744503Y-106591434D01*
X64744600Y-106548273D01*
X64744802Y-106463173D01*
X64745842Y-106402181D01*
X64748369Y-106360377D01*
X64753036Y-106332842D01*
X64760493Y-106314656D01*
X64771389Y-106300898D01*
X64778193Y-106294273D01*
X64824928Y-106267575D01*
X64875928Y-106265575D01*
X64922199Y-106288155D01*
X64930756Y-106296307D01*
X64943307Y-106311636D01*
X64952012Y-106329818D01*
X64957569Y-106356109D01*
X64960674Y-106395762D01*
X64962024Y-106454032D01*
X64962314Y-106534373D01*
X64962314Y-106738846D01*
X65008023Y-106754780D01*
X65040487Y-106765620D01*
X65058299Y-106770668D01*
X65058823Y-106770714D01*
X65060163Y-106756823D01*
X65061372Y-106717639D01*
X65062399Y-106656900D01*
X65063198Y-106578341D01*
X65063719Y-106485698D01*
X65063914Y-106382709D01*
X65063914Y-105985542D01*
X65016743Y-105965644D01*
X64969571Y-105945747D01*
X64962314Y-106067489D01*
G37*
X64962314Y-106067489D02*
X64958061Y-106126813D01*
X64953175Y-106161772D01*
X64946405Y-106177020D01*
X64936498Y-106177215D01*
X64933286Y-106175395D01*
X64890556Y-106162215D01*
X64834973Y-106162985D01*
X64778463Y-106176533D01*
X64743118Y-106194061D01*
X64706879Y-106222061D01*
X64680387Y-106253749D01*
X64662201Y-106294013D01*
X64650878Y-106347743D01*
X64644978Y-106419826D01*
X64643057Y-106515151D01*
X64643023Y-106533437D01*
X64643000Y-106738846D01*
X64688709Y-106754780D01*
X64721173Y-106765620D01*
X64738985Y-106770668D01*
X64739509Y-106770714D01*
X64741263Y-106757028D01*
X64742756Y-106719276D01*
X64743874Y-106662424D01*
X64744503Y-106591434D01*
X64744600Y-106548273D01*
X64744802Y-106463173D01*
X64745842Y-106402181D01*
X64748369Y-106360377D01*
X64753036Y-106332842D01*
X64760493Y-106314656D01*
X64771389Y-106300898D01*
X64778193Y-106294273D01*
X64824928Y-106267575D01*
X64875928Y-106265575D01*
X64922199Y-106288155D01*
X64930756Y-106296307D01*
X64943307Y-106311636D01*
X64952012Y-106329818D01*
X64957569Y-106356109D01*
X64960674Y-106395762D01*
X64962024Y-106454032D01*
X64962314Y-106534373D01*
X64962314Y-106738846D01*
X65008023Y-106754780D01*
X65040487Y-106765620D01*
X65058299Y-106770668D01*
X65058823Y-106770714D01*
X65060163Y-106756823D01*
X65061372Y-106717639D01*
X65062399Y-106656900D01*
X65063198Y-106578341D01*
X65063719Y-106485698D01*
X65063914Y-106382709D01*
X65063914Y-105985542D01*
X65016743Y-105965644D01*
X64969571Y-105945747D01*
X64962314Y-106067489D01*
G36*
X64298456Y-106167168D02*
G01*
X64241584Y-106188287D01*
X64240933Y-106188693D01*
X64205760Y-106214580D01*
X64179793Y-106244833D01*
X64161530Y-106284258D01*
X64149468Y-106337662D01*
X64142104Y-106409851D01*
X64137936Y-106505632D01*
X64137571Y-106519278D01*
X64132324Y-106725042D01*
X64176484Y-106747878D01*
X64208437Y-106763310D01*
X64227730Y-106770623D01*
X64228622Y-106770714D01*
X64231961Y-106757222D01*
X64234613Y-106720826D01*
X64236244Y-106667652D01*
X64236600Y-106624593D01*
X64236608Y-106554841D01*
X64239797Y-106511037D01*
X64250912Y-106490144D01*
X64274699Y-106489125D01*
X64315904Y-106504941D01*
X64378114Y-106534015D01*
X64423859Y-106558163D01*
X64447387Y-106579113D01*
X64454304Y-106601947D01*
X64454314Y-106603077D01*
X64442901Y-106642412D01*
X64409108Y-106663662D01*
X64357391Y-106666739D01*
X64320139Y-106666206D01*
X64300497Y-106676935D01*
X64288248Y-106702705D01*
X64281198Y-106735537D01*
X64291358Y-106754166D01*
X64295183Y-106756832D01*
X64331199Y-106767540D01*
X64381634Y-106769056D01*
X64433574Y-106761959D01*
X64470378Y-106748988D01*
X64521262Y-106705785D01*
X64550186Y-106645646D01*
X64555914Y-106598662D01*
X64551543Y-106556282D01*
X64535725Y-106521688D01*
X64504403Y-106490963D01*
X64453522Y-106460190D01*
X64379024Y-106425452D01*
X64374486Y-106423488D01*
X64307379Y-106392487D01*
X64265968Y-106367062D01*
X64248219Y-106344214D01*
X64252093Y-106320945D01*
X64275557Y-106294256D01*
X64282573Y-106288114D01*
X64329570Y-106264300D01*
X64378267Y-106265303D01*
X64420678Y-106288651D01*
X64448816Y-106331875D01*
X64451431Y-106340360D01*
X64476892Y-106381508D01*
X64509199Y-106401328D01*
X64555914Y-106420970D01*
X64555914Y-106370150D01*
X64541704Y-106296282D01*
X64499525Y-106228527D01*
X64477576Y-106205861D01*
X64427683Y-106176769D01*
X64364233Y-106163600D01*
X64298456Y-106167168D01*
G37*
X64298456Y-106167168D02*
X64241584Y-106188287D01*
X64240933Y-106188693D01*
X64205760Y-106214580D01*
X64179793Y-106244833D01*
X64161530Y-106284258D01*
X64149468Y-106337662D01*
X64142104Y-106409851D01*
X64137936Y-106505632D01*
X64137571Y-106519278D01*
X64132324Y-106725042D01*
X64176484Y-106747878D01*
X64208437Y-106763310D01*
X64227730Y-106770623D01*
X64228622Y-106770714D01*
X64231961Y-106757222D01*
X64234613Y-106720826D01*
X64236244Y-106667652D01*
X64236600Y-106624593D01*
X64236608Y-106554841D01*
X64239797Y-106511037D01*
X64250912Y-106490144D01*
X64274699Y-106489125D01*
X64315904Y-106504941D01*
X64378114Y-106534015D01*
X64423859Y-106558163D01*
X64447387Y-106579113D01*
X64454304Y-106601947D01*
X64454314Y-106603077D01*
X64442901Y-106642412D01*
X64409108Y-106663662D01*
X64357391Y-106666739D01*
X64320139Y-106666206D01*
X64300497Y-106676935D01*
X64288248Y-106702705D01*
X64281198Y-106735537D01*
X64291358Y-106754166D01*
X64295183Y-106756832D01*
X64331199Y-106767540D01*
X64381634Y-106769056D01*
X64433574Y-106761959D01*
X64470378Y-106748988D01*
X64521262Y-106705785D01*
X64550186Y-106645646D01*
X64555914Y-106598662D01*
X64551543Y-106556282D01*
X64535725Y-106521688D01*
X64504403Y-106490963D01*
X64453522Y-106460190D01*
X64379024Y-106425452D01*
X64374486Y-106423488D01*
X64307379Y-106392487D01*
X64265968Y-106367062D01*
X64248219Y-106344214D01*
X64252093Y-106320945D01*
X64275557Y-106294256D01*
X64282573Y-106288114D01*
X64329570Y-106264300D01*
X64378267Y-106265303D01*
X64420678Y-106288651D01*
X64448816Y-106331875D01*
X64451431Y-106340360D01*
X64476892Y-106381508D01*
X64509199Y-106401328D01*
X64555914Y-106420970D01*
X64555914Y-106370150D01*
X64541704Y-106296282D01*
X64499525Y-106228527D01*
X64477576Y-106205861D01*
X64427683Y-106176769D01*
X64364233Y-106163600D01*
X64298456Y-106167168D01*
G36*
X63808274Y-106165955D02*
G01*
X63742342Y-106190284D01*
X63688927Y-106233317D01*
X63668036Y-106263609D01*
X63645261Y-106319194D01*
X63645734Y-106359386D01*
X63669638Y-106386417D01*
X63678483Y-106391013D01*
X63716670Y-106405344D01*
X63736172Y-106401672D01*
X63742778Y-106377607D01*
X63743114Y-106364314D01*
X63755208Y-106315410D01*
X63786729Y-106281199D01*
X63830541Y-106264676D01*
X63879505Y-106268834D01*
X63919306Y-106290427D01*
X63932750Y-106302744D01*
X63942279Y-106317687D01*
X63948715Y-106340275D01*
X63952883Y-106375528D01*
X63955603Y-106428466D01*
X63957698Y-106504107D01*
X63958240Y-106528057D01*
X63960219Y-106609990D01*
X63962469Y-106667655D01*
X63965843Y-106705808D01*
X63971194Y-106729204D01*
X63979376Y-106742598D01*
X63991241Y-106750745D01*
X63998838Y-106754344D01*
X64031098Y-106766652D01*
X64050089Y-106770714D01*
X64056364Y-106757148D01*
X64060194Y-106716134D01*
X64061600Y-106647199D01*
X64060602Y-106549869D01*
X64060292Y-106534857D01*
X64058099Y-106446059D01*
X64055507Y-106381219D01*
X64051818Y-106335267D01*
X64046336Y-106303135D01*
X64038365Y-106279753D01*
X64027207Y-106260052D01*
X64021370Y-106251610D01*
X63987904Y-106214257D01*
X63950473Y-106185203D01*
X63945891Y-106182667D01*
X63878774Y-106162643D01*
X63808274Y-106165955D01*
G37*
X63808274Y-106165955D02*
X63742342Y-106190284D01*
X63688927Y-106233317D01*
X63668036Y-106263609D01*
X63645261Y-106319194D01*
X63645734Y-106359386D01*
X63669638Y-106386417D01*
X63678483Y-106391013D01*
X63716670Y-106405344D01*
X63736172Y-106401672D01*
X63742778Y-106377607D01*
X63743114Y-106364314D01*
X63755208Y-106315410D01*
X63786729Y-106281199D01*
X63830541Y-106264676D01*
X63879505Y-106268834D01*
X63919306Y-106290427D01*
X63932750Y-106302744D01*
X63942279Y-106317687D01*
X63948715Y-106340275D01*
X63952883Y-106375528D01*
X63955603Y-106428466D01*
X63957698Y-106504107D01*
X63958240Y-106528057D01*
X63960219Y-106609990D01*
X63962469Y-106667655D01*
X63965843Y-106705808D01*
X63971194Y-106729204D01*
X63979376Y-106742598D01*
X63991241Y-106750745D01*
X63998838Y-106754344D01*
X64031098Y-106766652D01*
X64050089Y-106770714D01*
X64056364Y-106757148D01*
X64060194Y-106716134D01*
X64061600Y-106647199D01*
X64060602Y-106549869D01*
X64060292Y-106534857D01*
X64058099Y-106446059D01*
X64055507Y-106381219D01*
X64051818Y-106335267D01*
X64046336Y-106303135D01*
X64038365Y-106279753D01*
X64027207Y-106260052D01*
X64021370Y-106251610D01*
X63987904Y-106214257D01*
X63950473Y-106185203D01*
X63945891Y-106182667D01*
X63878774Y-106162643D01*
X63808274Y-106165955D01*
G36*
X63148083Y-106281558D02*
G01*
X63148267Y-106390037D01*
X63148981Y-106473487D01*
X63150525Y-106535904D01*
X63153199Y-106581285D01*
X63157306Y-106613629D01*
X63163145Y-106636933D01*
X63171018Y-106655195D01*
X63176979Y-106665618D01*
X63226345Y-106722145D01*
X63288936Y-106757577D01*
X63358187Y-106770290D01*
X63427532Y-106758663D01*
X63468825Y-106737768D01*
X63512175Y-106701622D01*
X63541719Y-106657476D01*
X63559545Y-106599662D01*
X63567737Y-106522513D01*
X63568898Y-106465914D01*
X63568742Y-106461847D01*
X63467343Y-106461847D01*
X63466724Y-106526750D01*
X63463886Y-106569714D01*
X63457360Y-106597822D01*
X63445677Y-106618153D01*
X63431717Y-106633488D01*
X63384835Y-106663090D01*
X63334499Y-106665619D01*
X63286924Y-106640905D01*
X63283221Y-106637556D01*
X63267417Y-106620135D01*
X63257507Y-106599409D01*
X63252142Y-106568562D01*
X63249972Y-106520777D01*
X63249629Y-106467948D01*
X63250373Y-106401581D01*
X63253452Y-106357306D01*
X63260139Y-106328209D01*
X63271704Y-106307373D01*
X63281187Y-106296307D01*
X63325240Y-106268398D01*
X63375976Y-106265043D01*
X63424404Y-106286359D01*
X63433750Y-106294273D01*
X63449660Y-106311847D01*
X63459590Y-106332787D01*
X63464922Y-106363982D01*
X63467037Y-106412322D01*
X63467343Y-106461847D01*
X63568742Y-106461847D01*
X63565390Y-106374768D01*
X63553474Y-106306286D01*
X63531065Y-106254800D01*
X63496076Y-106214643D01*
X63468825Y-106194061D01*
X63419293Y-106171825D01*
X63361884Y-106161504D01*
X63308518Y-106164267D01*
X63278657Y-106175412D01*
X63266939Y-106178583D01*
X63259163Y-106166757D01*
X63253735Y-106135066D01*
X63249629Y-106086793D01*
X63245133Y-106033029D01*
X63238887Y-106000682D01*
X63227524Y-105982185D01*
X63207672Y-105969970D01*
X63195200Y-105964562D01*
X63148029Y-105944801D01*
X63148083Y-106281558D01*
G37*
X63148083Y-106281558D02*
X63148267Y-106390037D01*
X63148981Y-106473487D01*
X63150525Y-106535904D01*
X63153199Y-106581285D01*
X63157306Y-106613629D01*
X63163145Y-106636933D01*
X63171018Y-106655195D01*
X63176979Y-106665618D01*
X63226345Y-106722145D01*
X63288936Y-106757577D01*
X63358187Y-106770290D01*
X63427532Y-106758663D01*
X63468825Y-106737768D01*
X63512175Y-106701622D01*
X63541719Y-106657476D01*
X63559545Y-106599662D01*
X63567737Y-106522513D01*
X63568898Y-106465914D01*
X63568742Y-106461847D01*
X63467343Y-106461847D01*
X63466724Y-106526750D01*
X63463886Y-106569714D01*
X63457360Y-106597822D01*
X63445677Y-106618153D01*
X63431717Y-106633488D01*
X63384835Y-106663090D01*
X63334499Y-106665619D01*
X63286924Y-106640905D01*
X63283221Y-106637556D01*
X63267417Y-106620135D01*
X63257507Y-106599409D01*
X63252142Y-106568562D01*
X63249972Y-106520777D01*
X63249629Y-106467948D01*
X63250373Y-106401581D01*
X63253452Y-106357306D01*
X63260139Y-106328209D01*
X63271704Y-106307373D01*
X63281187Y-106296307D01*
X63325240Y-106268398D01*
X63375976Y-106265043D01*
X63424404Y-106286359D01*
X63433750Y-106294273D01*
X63449660Y-106311847D01*
X63459590Y-106332787D01*
X63464922Y-106363982D01*
X63467037Y-106412322D01*
X63467343Y-106461847D01*
X63568742Y-106461847D01*
X63565390Y-106374768D01*
X63553474Y-106306286D01*
X63531065Y-106254800D01*
X63496076Y-106214643D01*
X63468825Y-106194061D01*
X63419293Y-106171825D01*
X63361884Y-106161504D01*
X63308518Y-106164267D01*
X63278657Y-106175412D01*
X63266939Y-106178583D01*
X63259163Y-106166757D01*
X63253735Y-106135066D01*
X63249629Y-106086793D01*
X63245133Y-106033029D01*
X63238887Y-106000682D01*
X63227524Y-105982185D01*
X63207672Y-105969970D01*
X63195200Y-105964562D01*
X63148029Y-105944801D01*
X63148083Y-106281558D01*
G36*
X62558367Y-106174863D02*
G01*
X62556152Y-106213050D01*
X62554416Y-106271086D01*
X62553301Y-106344380D01*
X62552943Y-106421255D01*
X62552943Y-106681396D01*
X62598874Y-106727327D01*
X62630525Y-106755629D01*
X62658310Y-106767093D01*
X62696285Y-106766368D01*
X62711360Y-106764521D01*
X62758474Y-106759148D01*
X62797444Y-106756069D01*
X62806943Y-106755785D01*
X62838967Y-106757645D01*
X62884768Y-106762314D01*
X62902526Y-106764521D01*
X62946143Y-106767935D01*
X62975455Y-106760520D01*
X63004520Y-106737627D01*
X63015012Y-106727327D01*
X63060943Y-106681396D01*
X63060943Y-106194802D01*
X63023974Y-106177958D01*
X62992141Y-106165482D01*
X62973517Y-106161114D01*
X62968742Y-106174918D01*
X62964279Y-106213486D01*
X62960425Y-106272556D01*
X62957478Y-106347863D01*
X62956057Y-106411486D01*
X62952086Y-106661857D01*
X62917441Y-106666756D01*
X62885932Y-106663331D01*
X62870492Y-106652241D01*
X62866177Y-106631508D01*
X62862492Y-106587345D01*
X62859731Y-106525346D01*
X62858188Y-106451109D01*
X62857965Y-106412906D01*
X62857743Y-106192983D01*
X62812034Y-106177049D01*
X62779682Y-106166215D01*
X62762085Y-106161162D01*
X62761577Y-106161114D01*
X62759812Y-106174848D01*
X62757871Y-106212930D01*
X62755918Y-106270682D01*
X62754116Y-106343427D01*
X62752857Y-106411486D01*
X62748886Y-106661857D01*
X62661800Y-106661857D01*
X62657804Y-106433440D01*
X62653808Y-106205022D01*
X62611353Y-106183068D01*
X62580008Y-106167993D01*
X62561456Y-106161151D01*
X62560921Y-106161114D01*
X62558367Y-106174863D01*
G37*
X62558367Y-106174863D02*
X62556152Y-106213050D01*
X62554416Y-106271086D01*
X62553301Y-106344380D01*
X62552943Y-106421255D01*
X62552943Y-106681396D01*
X62598874Y-106727327D01*
X62630525Y-106755629D01*
X62658310Y-106767093D01*
X62696285Y-106766368D01*
X62711360Y-106764521D01*
X62758474Y-106759148D01*
X62797444Y-106756069D01*
X62806943Y-106755785D01*
X62838967Y-106757645D01*
X62884768Y-106762314D01*
X62902526Y-106764521D01*
X62946143Y-106767935D01*
X62975455Y-106760520D01*
X63004520Y-106737627D01*
X63015012Y-106727327D01*
X63060943Y-106681396D01*
X63060943Y-106194802D01*
X63023974Y-106177958D01*
X62992141Y-106165482D01*
X62973517Y-106161114D01*
X62968742Y-106174918D01*
X62964279Y-106213486D01*
X62960425Y-106272556D01*
X62957478Y-106347863D01*
X62956057Y-106411486D01*
X62952086Y-106661857D01*
X62917441Y-106666756D01*
X62885932Y-106663331D01*
X62870492Y-106652241D01*
X62866177Y-106631508D01*
X62862492Y-106587345D01*
X62859731Y-106525346D01*
X62858188Y-106451109D01*
X62857965Y-106412906D01*
X62857743Y-106192983D01*
X62812034Y-106177049D01*
X62779682Y-106166215D01*
X62762085Y-106161162D01*
X62761577Y-106161114D01*
X62759812Y-106174848D01*
X62757871Y-106212930D01*
X62755918Y-106270682D01*
X62754116Y-106343427D01*
X62752857Y-106411486D01*
X62748886Y-106661857D01*
X62661800Y-106661857D01*
X62657804Y-106433440D01*
X62653808Y-106205022D01*
X62611353Y-106183068D01*
X62580008Y-106167993D01*
X62561456Y-106161151D01*
X62560921Y-106161114D01*
X62558367Y-106174863D01*
G36*
X62193324Y-106172535D02*
G01*
X62151533Y-106191544D01*
X62118731Y-106214578D01*
X62094697Y-106240333D01*
X62078103Y-106273558D01*
X62067623Y-106319000D01*
X62061929Y-106381407D01*
X62059693Y-106465527D01*
X62059457Y-106520921D01*
X62059457Y-106737026D01*
X62096426Y-106753870D01*
X62125544Y-106766181D01*
X62139969Y-106770714D01*
X62142728Y-106757225D01*
X62144918Y-106720853D01*
X62146258Y-106667742D01*
X62146543Y-106625572D01*
X62147766Y-106564647D01*
X62151064Y-106516315D01*
X62155879Y-106486718D01*
X62159704Y-106480429D01*
X62185417Y-106486852D01*
X62225782Y-106503325D01*
X62272521Y-106525658D01*
X62317355Y-106549657D01*
X62352007Y-106571130D01*
X62368198Y-106585885D01*
X62368262Y-106586045D01*
X62366870Y-106613352D01*
X62354382Y-106639419D01*
X62332457Y-106660592D01*
X62300457Y-106667674D01*
X62273108Y-106666849D01*
X62234374Y-106666242D01*
X62214042Y-106675316D01*
X62201831Y-106699292D01*
X62200291Y-106703813D01*
X62194997Y-106738006D01*
X62209153Y-106758768D01*
X62246052Y-106768662D01*
X62285911Y-106770492D01*
X62357638Y-106756927D01*
X62394768Y-106737555D01*
X62440624Y-106692045D01*
X62464944Y-106636183D01*
X62467127Y-106577157D01*
X62446571Y-106522153D01*
X62415651Y-106487686D01*
X62384780Y-106468389D01*
X62336258Y-106443959D01*
X62279715Y-106419185D01*
X62270290Y-106415399D01*
X62208181Y-106387991D01*
X62172378Y-106363834D01*
X62160863Y-106339819D01*
X62171620Y-106312835D01*
X62190086Y-106291743D01*
X62233731Y-106265772D01*
X62281754Y-106263824D01*
X62325794Y-106283837D01*
X62357491Y-106323751D01*
X62361651Y-106334048D01*
X62385873Y-106371924D01*
X62421235Y-106400042D01*
X62465857Y-106423117D01*
X62465857Y-106357685D01*
X62463231Y-106317706D01*
X62451970Y-106286197D01*
X62427001Y-106252578D01*
X62403031Y-106226684D01*
X62365759Y-106190017D01*
X62336799Y-106170321D01*
X62305695Y-106162420D01*
X62270487Y-106161114D01*
X62193324Y-106172535D01*
G37*
X62193324Y-106172535D02*
X62151533Y-106191544D01*
X62118731Y-106214578D01*
X62094697Y-106240333D01*
X62078103Y-106273558D01*
X62067623Y-106319000D01*
X62061929Y-106381407D01*
X62059693Y-106465527D01*
X62059457Y-106520921D01*
X62059457Y-106737026D01*
X62096426Y-106753870D01*
X62125544Y-106766181D01*
X62139969Y-106770714D01*
X62142728Y-106757225D01*
X62144918Y-106720853D01*
X62146258Y-106667742D01*
X62146543Y-106625572D01*
X62147766Y-106564647D01*
X62151064Y-106516315D01*
X62155879Y-106486718D01*
X62159704Y-106480429D01*
X62185417Y-106486852D01*
X62225782Y-106503325D01*
X62272521Y-106525658D01*
X62317355Y-106549657D01*
X62352007Y-106571130D01*
X62368198Y-106585885D01*
X62368262Y-106586045D01*
X62366870Y-106613352D01*
X62354382Y-106639419D01*
X62332457Y-106660592D01*
X62300457Y-106667674D01*
X62273108Y-106666849D01*
X62234374Y-106666242D01*
X62214042Y-106675316D01*
X62201831Y-106699292D01*
X62200291Y-106703813D01*
X62194997Y-106738006D01*
X62209153Y-106758768D01*
X62246052Y-106768662D01*
X62285911Y-106770492D01*
X62357638Y-106756927D01*
X62394768Y-106737555D01*
X62440624Y-106692045D01*
X62464944Y-106636183D01*
X62467127Y-106577157D01*
X62446571Y-106522153D01*
X62415651Y-106487686D01*
X62384780Y-106468389D01*
X62336258Y-106443959D01*
X62279715Y-106419185D01*
X62270290Y-106415399D01*
X62208181Y-106387991D01*
X62172378Y-106363834D01*
X62160863Y-106339819D01*
X62171620Y-106312835D01*
X62190086Y-106291743D01*
X62233731Y-106265772D01*
X62281754Y-106263824D01*
X62325794Y-106283837D01*
X62357491Y-106323751D01*
X62361651Y-106334048D01*
X62385873Y-106371924D01*
X62421235Y-106400042D01*
X62465857Y-106423117D01*
X62465857Y-106357685D01*
X62463231Y-106317706D01*
X62451970Y-106286197D01*
X62427001Y-106252578D01*
X62403031Y-106226684D01*
X62365759Y-106190017D01*
X62336799Y-106170321D01*
X62305695Y-106162420D01*
X62270487Y-106161114D01*
X62193324Y-106172535D01*
G36*
X61685600Y-106174952D02*
G01*
X61668252Y-106182534D01*
X61626844Y-106215328D01*
X61591435Y-106262747D01*
X61569536Y-106313351D01*
X61565971Y-106338298D01*
X61577921Y-106373127D01*
X61604133Y-106391557D01*
X61632236Y-106402716D01*
X61645105Y-106404772D01*
X61651371Y-106389849D01*
X61663744Y-106357375D01*
X61669172Y-106342702D01*
X61699610Y-106291944D01*
X61743680Y-106266627D01*
X61800190Y-106267406D01*
X61804375Y-106268403D01*
X61834545Y-106282707D01*
X61856724Y-106310593D01*
X61871873Y-106355487D01*
X61880950Y-106420815D01*
X61884914Y-106510004D01*
X61885286Y-106557461D01*
X61885470Y-106632271D01*
X61886678Y-106683269D01*
X61889891Y-106715671D01*
X61896091Y-106734695D01*
X61906260Y-106745556D01*
X61921381Y-106753472D01*
X61922254Y-106753870D01*
X61951372Y-106766181D01*
X61965797Y-106770714D01*
X61968014Y-106757009D01*
X61969911Y-106719125D01*
X61971353Y-106661915D01*
X61972202Y-106590227D01*
X61972371Y-106537765D01*
X61971508Y-106436247D01*
X61968130Y-106359232D01*
X61961058Y-106302223D01*
X61949112Y-106260726D01*
X61931110Y-106230243D01*
X61905873Y-106206280D01*
X61880953Y-106189555D01*
X61821029Y-106167297D01*
X61751289Y-106162276D01*
X61685600Y-106174952D01*
G37*
X61685600Y-106174952D02*
X61668252Y-106182534D01*
X61626844Y-106215328D01*
X61591435Y-106262747D01*
X61569536Y-106313351D01*
X61565971Y-106338298D01*
X61577921Y-106373127D01*
X61604133Y-106391557D01*
X61632236Y-106402716D01*
X61645105Y-106404772D01*
X61651371Y-106389849D01*
X61663744Y-106357375D01*
X61669172Y-106342702D01*
X61699610Y-106291944D01*
X61743680Y-106266627D01*
X61800190Y-106267406D01*
X61804375Y-106268403D01*
X61834545Y-106282707D01*
X61856724Y-106310593D01*
X61871873Y-106355487D01*
X61880950Y-106420815D01*
X61884914Y-106510004D01*
X61885286Y-106557461D01*
X61885470Y-106632271D01*
X61886678Y-106683269D01*
X61889891Y-106715671D01*
X61896091Y-106734695D01*
X61906260Y-106745556D01*
X61921381Y-106753472D01*
X61922254Y-106753870D01*
X61951372Y-106766181D01*
X61965797Y-106770714D01*
X61968014Y-106757009D01*
X61969911Y-106719125D01*
X61971353Y-106661915D01*
X61972202Y-106590227D01*
X61972371Y-106537765D01*
X61971508Y-106436247D01*
X61968130Y-106359232D01*
X61961058Y-106302223D01*
X61949112Y-106260726D01*
X61931110Y-106230243D01*
X61905873Y-106206280D01*
X61880953Y-106189555D01*
X61821029Y-106167297D01*
X61751289Y-106162276D01*
X61685600Y-106174952D01*
G36*
X61184605Y-106183166D02*
G01*
X61127179Y-106220697D01*
X61099481Y-106254296D01*
X61077538Y-106315264D01*
X61075795Y-106363508D01*
X61079743Y-106428016D01*
X61228514Y-106493134D01*
X61300851Y-106526402D01*
X61348116Y-106553164D01*
X61372693Y-106576344D01*
X61376963Y-106598867D01*
X61363311Y-106623655D01*
X61348257Y-106640086D01*
X61304454Y-106666435D01*
X61256811Y-106668281D01*
X61213055Y-106647746D01*
X61180911Y-106606952D01*
X61175162Y-106592547D01*
X61147624Y-106547556D01*
X61115942Y-106528382D01*
X61072486Y-106511979D01*
X61072486Y-106574166D01*
X61076328Y-106616483D01*
X61091377Y-106652169D01*
X61122920Y-106693143D01*
X61127608Y-106698467D01*
X61162694Y-106734920D01*
X61192853Y-106754483D01*
X61230585Y-106763483D01*
X61261865Y-106766430D01*
X61317815Y-106767165D01*
X61357645Y-106757860D01*
X61382492Y-106744046D01*
X61421544Y-106713667D01*
X61448575Y-106680813D01*
X61465683Y-106639494D01*
X61474962Y-106583721D01*
X61478507Y-106507505D01*
X61478790Y-106468822D01*
X61477828Y-106422447D01*
X61390193Y-106422447D01*
X61389177Y-106447326D01*
X61386644Y-106451400D01*
X61369926Y-106445865D01*
X61333951Y-106431217D01*
X61285869Y-106410390D01*
X61275814Y-106405914D01*
X61215048Y-106375014D01*
X61181568Y-106347857D01*
X61174210Y-106322420D01*
X61191809Y-106296681D01*
X61206344Y-106285309D01*
X61258790Y-106262564D01*
X61307878Y-106266322D01*
X61348973Y-106294084D01*
X61377442Y-106343352D01*
X61386569Y-106382457D01*
X61390193Y-106422447D01*
X61477828Y-106422447D01*
X61476915Y-106378449D01*
X61470004Y-106311584D01*
X61456316Y-106262895D01*
X61434104Y-106227049D01*
X61401626Y-106198713D01*
X61387467Y-106189555D01*
X61323147Y-106165707D01*
X61252727Y-106164206D01*
X61184605Y-106183166D01*
G37*
X61184605Y-106183166D02*
X61127179Y-106220697D01*
X61099481Y-106254296D01*
X61077538Y-106315264D01*
X61075795Y-106363508D01*
X61079743Y-106428016D01*
X61228514Y-106493134D01*
X61300851Y-106526402D01*
X61348116Y-106553164D01*
X61372693Y-106576344D01*
X61376963Y-106598867D01*
X61363311Y-106623655D01*
X61348257Y-106640086D01*
X61304454Y-106666435D01*
X61256811Y-106668281D01*
X61213055Y-106647746D01*
X61180911Y-106606952D01*
X61175162Y-106592547D01*
X61147624Y-106547556D01*
X61115942Y-106528382D01*
X61072486Y-106511979D01*
X61072486Y-106574166D01*
X61076328Y-106616483D01*
X61091377Y-106652169D01*
X61122920Y-106693143D01*
X61127608Y-106698467D01*
X61162694Y-106734920D01*
X61192853Y-106754483D01*
X61230585Y-106763483D01*
X61261865Y-106766430D01*
X61317815Y-106767165D01*
X61357645Y-106757860D01*
X61382492Y-106744046D01*
X61421544Y-106713667D01*
X61448575Y-106680813D01*
X61465683Y-106639494D01*
X61474962Y-106583721D01*
X61478507Y-106507505D01*
X61478790Y-106468822D01*
X61477828Y-106422447D01*
X61390193Y-106422447D01*
X61389177Y-106447326D01*
X61386644Y-106451400D01*
X61369926Y-106445865D01*
X61333951Y-106431217D01*
X61285869Y-106410390D01*
X61275814Y-106405914D01*
X61215048Y-106375014D01*
X61181568Y-106347857D01*
X61174210Y-106322420D01*
X61191809Y-106296681D01*
X61206344Y-106285309D01*
X61258790Y-106262564D01*
X61307878Y-106266322D01*
X61348973Y-106294084D01*
X61377442Y-106343352D01*
X61386569Y-106382457D01*
X61390193Y-106422447D01*
X61477828Y-106422447D01*
X61476915Y-106378449D01*
X61470004Y-106311584D01*
X61456316Y-106262895D01*
X61434104Y-106227049D01*
X61401626Y-106198713D01*
X61387467Y-106189555D01*
X61323147Y-106165707D01*
X61252727Y-106164206D01*
X61184605Y-106183166D01*
G36*
X64234290Y-101458548D02*
G01*
X64155746Y-101458978D01*
X64098902Y-101460142D01*
X64060095Y-101462407D01*
X64035662Y-101466140D01*
X64021938Y-101471706D01*
X64015260Y-101479473D01*
X64011964Y-101489805D01*
X64011644Y-101491143D01*
X64006638Y-101515279D01*
X63997371Y-101562901D01*
X63984808Y-101628941D01*
X63969913Y-101708328D01*
X63953649Y-101795996D01*
X63953081Y-101799075D01*
X63936790Y-101884989D01*
X63921548Y-101960896D01*
X63908339Y-102022245D01*
X63898146Y-102064482D01*
X63891952Y-102083055D01*
X63891657Y-102083384D01*
X63873412Y-102092453D01*
X63835795Y-102107567D01*
X63786929Y-102125462D01*
X63786657Y-102125558D01*
X63725107Y-102148693D01*
X63652543Y-102178165D01*
X63584143Y-102207797D01*
X63580906Y-102209262D01*
X63469498Y-102259826D01*
X63222801Y-102091360D01*
X63147123Y-102040003D01*
X63078569Y-101994089D01*
X63021112Y-101956230D01*
X62978724Y-101929037D01*
X62955375Y-101915121D01*
X62953158Y-101914089D01*
X62936190Y-101918684D01*
X62904499Y-101940855D01*
X62856848Y-101981647D01*
X62792002Y-102042105D01*
X62725803Y-102106427D01*
X62661986Y-102169812D01*
X62604871Y-102227651D01*
X62557895Y-102276375D01*
X62524497Y-102312410D01*
X62508115Y-102332184D01*
X62507506Y-102333202D01*
X62505695Y-102346772D01*
X62512517Y-102368933D01*
X62529660Y-102402678D01*
X62558807Y-102451000D01*
X62601645Y-102516892D01*
X62658752Y-102601717D01*
X62709434Y-102676377D01*
X62754739Y-102743340D01*
X62792050Y-102798716D01*
X62818748Y-102838620D01*
X62832215Y-102859162D01*
X62833063Y-102860556D01*
X62831419Y-102880238D01*
X62818955Y-102918493D01*
X62798152Y-102968089D01*
X62790738Y-102983928D01*
X62758386Y-103054490D01*
X62723872Y-103134553D01*
X62695835Y-103203829D01*
X62675632Y-103255245D01*
X62659585Y-103294319D01*
X62650312Y-103314741D01*
X62649159Y-103316314D01*
X62632104Y-103318921D01*
X62591902Y-103326063D01*
X62533898Y-103336723D01*
X62463437Y-103349885D01*
X62385865Y-103364533D01*
X62306528Y-103379649D01*
X62230769Y-103394218D01*
X62163936Y-103407222D01*
X62111372Y-103417645D01*
X62078424Y-103424470D01*
X62070343Y-103426399D01*
X62061995Y-103431162D01*
X62055694Y-103441918D01*
X62051155Y-103462298D01*
X62048096Y-103495934D01*
X62046233Y-103546455D01*
X62045282Y-103617492D01*
X62044960Y-103712676D01*
X62044943Y-103751692D01*
X62044943Y-104068999D01*
X62121143Y-104084039D01*
X62163537Y-104092195D01*
X62226800Y-104104099D01*
X62303238Y-104118316D01*
X62385157Y-104133410D01*
X62407800Y-104137555D01*
X62483394Y-104152253D01*
X62549247Y-104166705D01*
X62599834Y-104179575D01*
X62629626Y-104189522D01*
X62634588Y-104192487D01*
X62646774Y-104213483D01*
X62664247Y-104254167D01*
X62683623Y-104306522D01*
X62687466Y-104317800D01*
X62712861Y-104387723D01*
X62744383Y-104466618D01*
X62775231Y-104537466D01*
X62775383Y-104537795D01*
X62826753Y-104648933D01*
X62657801Y-104897453D01*
X62488848Y-105145972D01*
X62705771Y-105363258D01*
X62771381Y-105427926D01*
X62831221Y-105484933D01*
X62881933Y-105531233D01*
X62920154Y-105563784D01*
X62942525Y-105579543D01*
X62945734Y-105580543D01*
X62964574Y-105572669D01*
X63003020Y-105550778D01*
X63056870Y-105517467D01*
X63121924Y-105475331D01*
X63192260Y-105428143D01*
X63263645Y-105380010D01*
X63327292Y-105338128D01*
X63379159Y-105305071D01*
X63415205Y-105283418D01*
X63431333Y-105275743D01*
X63451011Y-105282237D01*
X63488325Y-105299350D01*
X63535579Y-105323526D01*
X63540588Y-105326213D01*
X63604223Y-105358127D01*
X63647859Y-105373779D01*
X63674998Y-105373945D01*
X63689143Y-105359404D01*
X63689225Y-105359200D01*
X63696295Y-105341979D01*
X63713158Y-105301099D01*
X63738505Y-105239725D01*
X63771029Y-105161019D01*
X63809422Y-105068147D01*
X63852378Y-104964272D01*
X63893978Y-104863702D01*
X63939696Y-104752716D01*
X63981674Y-104649903D01*
X64018652Y-104558415D01*
X64049373Y-104481401D01*
X64072578Y-104422015D01*
X64087010Y-104383409D01*
X64091457Y-104369000D01*
X64080304Y-104352472D01*
X64051131Y-104326130D01*
X64012229Y-104297087D01*
X63901443Y-104205239D01*
X63814849Y-104099959D01*
X63753484Y-103983466D01*
X63718385Y-103857976D01*
X63710592Y-103725707D01*
X63716257Y-103664657D01*
X63747122Y-103537995D01*
X63800280Y-103426141D01*
X63872433Y-103330201D01*
X63960283Y-103251276D01*
X64060535Y-103190470D01*
X64169890Y-103148887D01*
X64285053Y-103127628D01*
X64402725Y-103127799D01*
X64519610Y-103150501D01*
X64632411Y-103196838D01*
X64737831Y-103267913D01*
X64781832Y-103308111D01*
X64866221Y-103411329D01*
X64924978Y-103524125D01*
X64958496Y-103643210D01*
X64967165Y-103765295D01*
X64951377Y-103887093D01*
X64911522Y-104005316D01*
X64847993Y-104116675D01*
X64761179Y-104217884D01*
X64664171Y-104297087D01*
X64623763Y-104327362D01*
X64595218Y-104353419D01*
X64584943Y-104369025D01*
X64590323Y-104386043D01*
X64605625Y-104426700D01*
X64629588Y-104487842D01*
X64660956Y-104566319D01*
X64698468Y-104658980D01*
X64740867Y-104762672D01*
X64782537Y-104863726D01*
X64828510Y-104974807D01*
X64871093Y-105077741D01*
X64908979Y-105169365D01*
X64940860Y-105246516D01*
X64965429Y-105306031D01*
X64981380Y-105344744D01*
X64987290Y-105359200D01*
X65001252Y-105373885D01*
X65028260Y-105373842D01*
X65071787Y-105358299D01*
X65135310Y-105326484D01*
X65135812Y-105326213D01*
X65183640Y-105301523D01*
X65222303Y-105283538D01*
X65244105Y-105275814D01*
X65245067Y-105275743D01*
X65261479Y-105283578D01*
X65297713Y-105305365D01*
X65349726Y-105338528D01*
X65413475Y-105380491D01*
X65484140Y-105428143D01*
X65556084Y-105476391D01*
X65620926Y-105518351D01*
X65674465Y-105551427D01*
X65712503Y-105573021D01*
X65730667Y-105580543D01*
X65747392Y-105570657D01*
X65781020Y-105543026D01*
X65828190Y-105500695D01*
X65885542Y-105446705D01*
X65949716Y-105384099D01*
X65970703Y-105363183D01*
X66187701Y-105145823D01*
X66022532Y-104903420D01*
X65972336Y-104828981D01*
X65928281Y-104762172D01*
X65892838Y-104706865D01*
X65868481Y-104666929D01*
X65857678Y-104646236D01*
X65857362Y-104644763D01*
X65863057Y-104625258D01*
X65878374Y-104586022D01*
X65900663Y-104533630D01*
X65916307Y-104498555D01*
X65945559Y-104431401D01*
X65973106Y-104363558D01*
X65994463Y-104306234D01*
X66000265Y-104288772D01*
X66016748Y-104242138D01*
X66032860Y-104206105D01*
X66041710Y-104192487D01*
X66061240Y-104184152D01*
X66103866Y-104172337D01*
X66164055Y-104158381D01*
X66236278Y-104143622D01*
X66268600Y-104137555D01*
X66350678Y-104122473D01*
X66429405Y-104107869D01*
X66497091Y-104095180D01*
X66546040Y-104085842D01*
X66555257Y-104084039D01*
X66631457Y-104068999D01*
X66631457Y-103751692D01*
X66631286Y-103647354D01*
X66630584Y-103568413D01*
X66629066Y-103511238D01*
X66626451Y-103472199D01*
X66622454Y-103447665D01*
X66616791Y-103434005D01*
X66609180Y-103427589D01*
X66606057Y-103426399D01*
X66587222Y-103422180D01*
X66545612Y-103413762D01*
X66486570Y-103402161D01*
X66415443Y-103388395D01*
X66337575Y-103373480D01*
X66258313Y-103358432D01*
X66183002Y-103344269D01*
X66116987Y-103332006D01*
X66065613Y-103322661D01*
X66034225Y-103317250D01*
X66027241Y-103316314D01*
X66020915Y-103303796D01*
X66006910Y-103270446D01*
X65987845Y-103222577D01*
X65980566Y-103203829D01*
X65951204Y-103131395D01*
X65916629Y-103051370D01*
X65885663Y-102983928D01*
X65862877Y-102932359D01*
X65847718Y-102889985D01*
X65842658Y-102864034D01*
X65843464Y-102860556D01*
X65854159Y-102844136D01*
X65878580Y-102807617D01*
X65914105Y-102754887D01*
X65958113Y-102689835D01*
X66007983Y-102616351D01*
X66017844Y-102601845D01*
X66075708Y-102515904D01*
X66118244Y-102450461D01*
X66147146Y-102402504D01*
X66164110Y-102369020D01*
X66170833Y-102346995D01*
X66169010Y-102333417D01*
X66168964Y-102333331D01*
X66154614Y-102315497D01*
X66122877Y-102281017D01*
X66077190Y-102233468D01*
X66020996Y-102176422D01*
X65957732Y-102113455D01*
X65950598Y-102106427D01*
X65870870Y-102029220D01*
X65809343Y-101972530D01*
X65764779Y-101935310D01*
X65735943Y-101916515D01*
X65723242Y-101914089D01*
X65704706Y-101924671D01*
X65666239Y-101949116D01*
X65611814Y-101984812D01*
X65545402Y-102029147D01*
X65470975Y-102079511D01*
X65453599Y-102091360D01*
X65206903Y-102259826D01*
X65095494Y-102209262D01*
X65027743Y-102179795D01*
X64955017Y-102150159D01*
X64892497Y-102126530D01*
X64889743Y-102125558D01*
X64840840Y-102107657D01*
X64803143Y-102092520D01*
X64784775Y-102083410D01*
X64784744Y-102083384D01*
X64778915Y-102066917D01*
X64769008Y-102026419D01*
X64756005Y-101966442D01*
X64740891Y-101891540D01*
X64724648Y-101806264D01*
X64723319Y-101799075D01*
X64707025Y-101711214D01*
X64692067Y-101631460D01*
X64679409Y-101564881D01*
X64670014Y-101516547D01*
X64664846Y-101491525D01*
X64664756Y-101491143D01*
X64661611Y-101480499D01*
X64655496Y-101472462D01*
X64642747Y-101466667D01*
X64619700Y-101462747D01*
X64582691Y-101460335D01*
X64528056Y-101459065D01*
X64452133Y-101458571D01*
X64351256Y-101458486D01*
X64338200Y-101458486D01*
X64234290Y-101458548D01*
G37*
X64234290Y-101458548D02*
X64155746Y-101458978D01*
X64098902Y-101460142D01*
X64060095Y-101462407D01*
X64035662Y-101466140D01*
X64021938Y-101471706D01*
X64015260Y-101479473D01*
X64011964Y-101489805D01*
X64011644Y-101491143D01*
X64006638Y-101515279D01*
X63997371Y-101562901D01*
X63984808Y-101628941D01*
X63969913Y-101708328D01*
X63953649Y-101795996D01*
X63953081Y-101799075D01*
X63936790Y-101884989D01*
X63921548Y-101960896D01*
X63908339Y-102022245D01*
X63898146Y-102064482D01*
X63891952Y-102083055D01*
X63891657Y-102083384D01*
X63873412Y-102092453D01*
X63835795Y-102107567D01*
X63786929Y-102125462D01*
X63786657Y-102125558D01*
X63725107Y-102148693D01*
X63652543Y-102178165D01*
X63584143Y-102207797D01*
X63580906Y-102209262D01*
X63469498Y-102259826D01*
X63222801Y-102091360D01*
X63147123Y-102040003D01*
X63078569Y-101994089D01*
X63021112Y-101956230D01*
X62978724Y-101929037D01*
X62955375Y-101915121D01*
X62953158Y-101914089D01*
X62936190Y-101918684D01*
X62904499Y-101940855D01*
X62856848Y-101981647D01*
X62792002Y-102042105D01*
X62725803Y-102106427D01*
X62661986Y-102169812D01*
X62604871Y-102227651D01*
X62557895Y-102276375D01*
X62524497Y-102312410D01*
X62508115Y-102332184D01*
X62507506Y-102333202D01*
X62505695Y-102346772D01*
X62512517Y-102368933D01*
X62529660Y-102402678D01*
X62558807Y-102451000D01*
X62601645Y-102516892D01*
X62658752Y-102601717D01*
X62709434Y-102676377D01*
X62754739Y-102743340D01*
X62792050Y-102798716D01*
X62818748Y-102838620D01*
X62832215Y-102859162D01*
X62833063Y-102860556D01*
X62831419Y-102880238D01*
X62818955Y-102918493D01*
X62798152Y-102968089D01*
X62790738Y-102983928D01*
X62758386Y-103054490D01*
X62723872Y-103134553D01*
X62695835Y-103203829D01*
X62675632Y-103255245D01*
X62659585Y-103294319D01*
X62650312Y-103314741D01*
X62649159Y-103316314D01*
X62632104Y-103318921D01*
X62591902Y-103326063D01*
X62533898Y-103336723D01*
X62463437Y-103349885D01*
X62385865Y-103364533D01*
X62306528Y-103379649D01*
X62230769Y-103394218D01*
X62163936Y-103407222D01*
X62111372Y-103417645D01*
X62078424Y-103424470D01*
X62070343Y-103426399D01*
X62061995Y-103431162D01*
X62055694Y-103441918D01*
X62051155Y-103462298D01*
X62048096Y-103495934D01*
X62046233Y-103546455D01*
X62045282Y-103617492D01*
X62044960Y-103712676D01*
X62044943Y-103751692D01*
X62044943Y-104068999D01*
X62121143Y-104084039D01*
X62163537Y-104092195D01*
X62226800Y-104104099D01*
X62303238Y-104118316D01*
X62385157Y-104133410D01*
X62407800Y-104137555D01*
X62483394Y-104152253D01*
X62549247Y-104166705D01*
X62599834Y-104179575D01*
X62629626Y-104189522D01*
X62634588Y-104192487D01*
X62646774Y-104213483D01*
X62664247Y-104254167D01*
X62683623Y-104306522D01*
X62687466Y-104317800D01*
X62712861Y-104387723D01*
X62744383Y-104466618D01*
X62775231Y-104537466D01*
X62775383Y-104537795D01*
X62826753Y-104648933D01*
X62657801Y-104897453D01*
X62488848Y-105145972D01*
X62705771Y-105363258D01*
X62771381Y-105427926D01*
X62831221Y-105484933D01*
X62881933Y-105531233D01*
X62920154Y-105563784D01*
X62942525Y-105579543D01*
X62945734Y-105580543D01*
X62964574Y-105572669D01*
X63003020Y-105550778D01*
X63056870Y-105517467D01*
X63121924Y-105475331D01*
X63192260Y-105428143D01*
X63263645Y-105380010D01*
X63327292Y-105338128D01*
X63379159Y-105305071D01*
X63415205Y-105283418D01*
X63431333Y-105275743D01*
X63451011Y-105282237D01*
X63488325Y-105299350D01*
X63535579Y-105323526D01*
X63540588Y-105326213D01*
X63604223Y-105358127D01*
X63647859Y-105373779D01*
X63674998Y-105373945D01*
X63689143Y-105359404D01*
X63689225Y-105359200D01*
X63696295Y-105341979D01*
X63713158Y-105301099D01*
X63738505Y-105239725D01*
X63771029Y-105161019D01*
X63809422Y-105068147D01*
X63852378Y-104964272D01*
X63893978Y-104863702D01*
X63939696Y-104752716D01*
X63981674Y-104649903D01*
X64018652Y-104558415D01*
X64049373Y-104481401D01*
X64072578Y-104422015D01*
X64087010Y-104383409D01*
X64091457Y-104369000D01*
X64080304Y-104352472D01*
X64051131Y-104326130D01*
X64012229Y-104297087D01*
X63901443Y-104205239D01*
X63814849Y-104099959D01*
X63753484Y-103983466D01*
X63718385Y-103857976D01*
X63710592Y-103725707D01*
X63716257Y-103664657D01*
X63747122Y-103537995D01*
X63800280Y-103426141D01*
X63872433Y-103330201D01*
X63960283Y-103251276D01*
X64060535Y-103190470D01*
X64169890Y-103148887D01*
X64285053Y-103127628D01*
X64402725Y-103127799D01*
X64519610Y-103150501D01*
X64632411Y-103196838D01*
X64737831Y-103267913D01*
X64781832Y-103308111D01*
X64866221Y-103411329D01*
X64924978Y-103524125D01*
X64958496Y-103643210D01*
X64967165Y-103765295D01*
X64951377Y-103887093D01*
X64911522Y-104005316D01*
X64847993Y-104116675D01*
X64761179Y-104217884D01*
X64664171Y-104297087D01*
X64623763Y-104327362D01*
X64595218Y-104353419D01*
X64584943Y-104369025D01*
X64590323Y-104386043D01*
X64605625Y-104426700D01*
X64629588Y-104487842D01*
X64660956Y-104566319D01*
X64698468Y-104658980D01*
X64740867Y-104762672D01*
X64782537Y-104863726D01*
X64828510Y-104974807D01*
X64871093Y-105077741D01*
X64908979Y-105169365D01*
X64940860Y-105246516D01*
X64965429Y-105306031D01*
X64981380Y-105344744D01*
X64987290Y-105359200D01*
X65001252Y-105373885D01*
X65028260Y-105373842D01*
X65071787Y-105358299D01*
X65135310Y-105326484D01*
X65135812Y-105326213D01*
X65183640Y-105301523D01*
X65222303Y-105283538D01*
X65244105Y-105275814D01*
X65245067Y-105275743D01*
X65261479Y-105283578D01*
X65297713Y-105305365D01*
X65349726Y-105338528D01*
X65413475Y-105380491D01*
X65484140Y-105428143D01*
X65556084Y-105476391D01*
X65620926Y-105518351D01*
X65674465Y-105551427D01*
X65712503Y-105573021D01*
X65730667Y-105580543D01*
X65747392Y-105570657D01*
X65781020Y-105543026D01*
X65828190Y-105500695D01*
X65885542Y-105446705D01*
X65949716Y-105384099D01*
X65970703Y-105363183D01*
X66187701Y-105145823D01*
X66022532Y-104903420D01*
X65972336Y-104828981D01*
X65928281Y-104762172D01*
X65892838Y-104706865D01*
X65868481Y-104666929D01*
X65857678Y-104646236D01*
X65857362Y-104644763D01*
X65863057Y-104625258D01*
X65878374Y-104586022D01*
X65900663Y-104533630D01*
X65916307Y-104498555D01*
X65945559Y-104431401D01*
X65973106Y-104363558D01*
X65994463Y-104306234D01*
X66000265Y-104288772D01*
X66016748Y-104242138D01*
X66032860Y-104206105D01*
X66041710Y-104192487D01*
X66061240Y-104184152D01*
X66103866Y-104172337D01*
X66164055Y-104158381D01*
X66236278Y-104143622D01*
X66268600Y-104137555D01*
X66350678Y-104122473D01*
X66429405Y-104107869D01*
X66497091Y-104095180D01*
X66546040Y-104085842D01*
X66555257Y-104084039D01*
X66631457Y-104068999D01*
X66631457Y-103751692D01*
X66631286Y-103647354D01*
X66630584Y-103568413D01*
X66629066Y-103511238D01*
X66626451Y-103472199D01*
X66622454Y-103447665D01*
X66616791Y-103434005D01*
X66609180Y-103427589D01*
X66606057Y-103426399D01*
X66587222Y-103422180D01*
X66545612Y-103413762D01*
X66486570Y-103402161D01*
X66415443Y-103388395D01*
X66337575Y-103373480D01*
X66258313Y-103358432D01*
X66183002Y-103344269D01*
X66116987Y-103332006D01*
X66065613Y-103322661D01*
X66034225Y-103317250D01*
X66027241Y-103316314D01*
X66020915Y-103303796D01*
X66006910Y-103270446D01*
X65987845Y-103222577D01*
X65980566Y-103203829D01*
X65951204Y-103131395D01*
X65916629Y-103051370D01*
X65885663Y-102983928D01*
X65862877Y-102932359D01*
X65847718Y-102889985D01*
X65842658Y-102864034D01*
X65843464Y-102860556D01*
X65854159Y-102844136D01*
X65878580Y-102807617D01*
X65914105Y-102754887D01*
X65958113Y-102689835D01*
X66007983Y-102616351D01*
X66017844Y-102601845D01*
X66075708Y-102515904D01*
X66118244Y-102450461D01*
X66147146Y-102402504D01*
X66164110Y-102369020D01*
X66170833Y-102346995D01*
X66169010Y-102333417D01*
X66168964Y-102333331D01*
X66154614Y-102315497D01*
X66122877Y-102281017D01*
X66077190Y-102233468D01*
X66020996Y-102176422D01*
X65957732Y-102113455D01*
X65950598Y-102106427D01*
X65870870Y-102029220D01*
X65809343Y-101972530D01*
X65764779Y-101935310D01*
X65735943Y-101916515D01*
X65723242Y-101914089D01*
X65704706Y-101924671D01*
X65666239Y-101949116D01*
X65611814Y-101984812D01*
X65545402Y-102029147D01*
X65470975Y-102079511D01*
X65453599Y-102091360D01*
X65206903Y-102259826D01*
X65095494Y-102209262D01*
X65027743Y-102179795D01*
X64955017Y-102150159D01*
X64892497Y-102126530D01*
X64889743Y-102125558D01*
X64840840Y-102107657D01*
X64803143Y-102092520D01*
X64784775Y-102083410D01*
X64784744Y-102083384D01*
X64778915Y-102066917D01*
X64769008Y-102026419D01*
X64756005Y-101966442D01*
X64740891Y-101891540D01*
X64724648Y-101806264D01*
X64723319Y-101799075D01*
X64707025Y-101711214D01*
X64692067Y-101631460D01*
X64679409Y-101564881D01*
X64670014Y-101516547D01*
X64664846Y-101491525D01*
X64664756Y-101491143D01*
X64661611Y-101480499D01*
X64655496Y-101472462D01*
X64642747Y-101466667D01*
X64619700Y-101462747D01*
X64582691Y-101460335D01*
X64528056Y-101459065D01*
X64452133Y-101458571D01*
X64351256Y-101458486D01*
X64338200Y-101458486D01*
X64234290Y-101458548D01*
%TD*%
D11*
%TO.P,J9,3*%
%TO.N,Net-(J4-Pad3)*%
X57734200Y-66522600D03*
%TO.P,J9,2*%
%TO.N,Net-(J5-Pad3)*%
X60274200Y-66522600D03*
D12*
%TO.P,J9,1*%
%TO.N,GND*%
X62814200Y-66522600D03*
%TD*%
D11*
%TO.P,J8,3*%
%TO.N,Net-(J3-PadT)*%
X53000000Y-108920000D03*
%TO.P,J8,2*%
%TO.N,Net-(J3-PadR)*%
X53000000Y-111460000D03*
D12*
%TO.P,J8,1*%
%TO.N,GND*%
X53000000Y-114000000D03*
%TD*%
D11*
%TO.P,J7,3*%
%TO.N,Net-(J2-PadT)*%
X67000000Y-108920000D03*
%TO.P,J7,2*%
%TO.N,Net-(J2-PadR)*%
X67000000Y-111460000D03*
D12*
%TO.P,J7,1*%
%TO.N,GND*%
X67000000Y-114000000D03*
%TD*%
D11*
%TO.P,J6,3*%
%TO.N,Net-(J1-PadT)*%
X67614800Y-151549100D03*
%TO.P,J6,2*%
%TO.N,Net-(J1-PadR)*%
X67614800Y-154089100D03*
D12*
%TO.P,J6,1*%
%TO.N,GND*%
X67614800Y-156629100D03*
%TD*%
D13*
%TO.P,RV1,1*%
%TO.N,GND*%
X57500000Y-137854597D03*
D14*
%TO.P,RV1,2*%
%TO.N,Net-(R1-Pad1)*%
X60000000Y-137854597D03*
%TO.P,RV1,3*%
%TO.N,Net-(J2-PadT)*%
X62500000Y-137854597D03*
D15*
%TO.P,RV1,*%
%TO.N,*%
X64750000Y-130354597D03*
X55250000Y-130354597D03*
D14*
%TO.P,RV1,6*%
%TO.N,Net-(J2-PadR)*%
X62500000Y-140354597D03*
%TO.P,RV1,5*%
%TO.N,Net-(R5-Pad1)*%
X60000000Y-140354597D03*
%TO.P,RV1,4*%
%TO.N,GND*%
X57500000Y-140354597D03*
%TD*%
D16*
%TO.P,J3,*%
%TO.N,*%
X60000000Y-95766799D03*
D17*
%TO.P,J3,T*%
%TO.N,Net-(J3-PadT)*%
X60000000Y-90846799D03*
%TO.P,J3,R*%
%TO.N,Net-(J3-PadR)*%
X60000000Y-99146799D03*
D14*
%TO.P,J3,S*%
%TO.N,Net-(J3-PadS)*%
X60000000Y-101862799D03*
%TD*%
D16*
%TO.P,J2,*%
%TO.N,*%
X60000000Y-113660698D03*
D17*
%TO.P,J2,T*%
%TO.N,Net-(J2-PadT)*%
X60000000Y-108740698D03*
%TO.P,J2,R*%
%TO.N,Net-(J2-PadR)*%
X60000000Y-117040698D03*
D14*
%TO.P,J2,S*%
%TO.N,GND*%
X60000000Y-119756698D03*
%TD*%
D16*
%TO.P,J1,*%
%TO.N,*%
X60000000Y-153098500D03*
D17*
%TO.P,J1,T*%
%TO.N,Net-(J1-PadT)*%
X60000000Y-158018500D03*
%TO.P,J1,R*%
%TO.N,Net-(J1-PadR)*%
X60000000Y-149718500D03*
D14*
%TO.P,J1,S*%
%TO.N,GND*%
X60000000Y-147002500D03*
%TD*%
D13*
%TO.P,RV2,1*%
%TO.N,GND*%
X57500000Y-81193899D03*
D14*
%TO.P,RV2,2*%
%TO.N,Net-(R2-Pad1)*%
X60000000Y-81193899D03*
%TO.P,RV2,3*%
%TO.N,Net-(J3-PadT)*%
X62500000Y-81193899D03*
D15*
%TO.P,RV2,*%
%TO.N,*%
X64750000Y-73693899D03*
X55250000Y-73693899D03*
D14*
%TO.P,RV2,6*%
%TO.N,Net-(J3-PadR)*%
X62500000Y-83693899D03*
%TO.P,RV2,5*%
%TO.N,Net-(R6-Pad1)*%
X60000000Y-83693899D03*
%TO.P,RV2,4*%
%TO.N,GND*%
X57500000Y-83693899D03*
%TD*%
D18*
%TO.P,R8,2*%
%TO.N,Net-(J3-PadR)*%
X67000000Y-99620000D03*
D19*
%TO.P,R8,1*%
%TO.N,GND*%
X67000000Y-92000000D03*
%TD*%
D18*
%TO.P,R7,2*%
%TO.N,Net-(J5-Pad3)*%
X68000000Y-76380000D03*
D19*
%TO.P,R7,1*%
%TO.N,Net-(J3-PadR)*%
X68000000Y-84000000D03*
%TD*%
D18*
%TO.P,R6,2*%
%TO.N,Net-(J1-PadR)*%
X68250000Y-133620000D03*
D19*
%TO.P,R6,1*%
%TO.N,Net-(R6-Pad1)*%
X68250000Y-126000000D03*
%TD*%
D18*
%TO.P,R5,2*%
%TO.N,Net-(J1-PadR)*%
X68250000Y-147620000D03*
D19*
%TO.P,R5,1*%
%TO.N,Net-(R5-Pad1)*%
X68250000Y-140000000D03*
%TD*%
D18*
%TO.P,R4,2*%
%TO.N,Net-(J3-PadT)*%
X53000000Y-91880000D03*
D19*
%TO.P,R4,1*%
%TO.N,GND*%
X53000000Y-99500000D03*
%TD*%
D18*
%TO.P,R3,2*%
%TO.N,Net-(J4-Pad3)*%
X52000000Y-76380000D03*
D19*
%TO.P,R3,1*%
%TO.N,Net-(J3-PadT)*%
X52000000Y-84000000D03*
%TD*%
D18*
%TO.P,R2,2*%
%TO.N,Net-(J1-PadT)*%
X51750000Y-133620000D03*
D19*
%TO.P,R2,1*%
%TO.N,Net-(R2-Pad1)*%
X51750000Y-126000000D03*
%TD*%
D18*
%TO.P,R1,2*%
%TO.N,Net-(J1-PadT)*%
X51750000Y-147620000D03*
D19*
%TO.P,R1,1*%
%TO.N,Net-(R1-Pad1)*%
X51750000Y-140000000D03*
%TD*%
D16*
%TO.P,J5,*%
%TO.N,*%
X65000000Y-57000000D03*
D17*
%TO.P,J5,3*%
%TO.N,Net-(J5-Pad3)*%
X65000000Y-52080000D03*
%TO.P,J5,2*%
%TO.N,GND*%
X65000000Y-60380000D03*
D14*
%TO.P,J5,1*%
X65000000Y-63096000D03*
%TD*%
D16*
%TO.P,J4,*%
%TO.N,*%
X55000000Y-57000000D03*
D17*
%TO.P,J4,3*%
%TO.N,Net-(J4-Pad3)*%
X55000000Y-52080000D03*
%TO.P,J4,2*%
%TO.N,GND*%
X55000000Y-60380000D03*
D14*
%TO.P,J4,1*%
X55000000Y-63096000D03*
%TD*%
D20*
%TO.N,Net-(J4-Pad3)*%
X57734200Y-54814200D02*
X57734200Y-66522600D01*
X55000000Y-52080000D02*
X57734200Y-54814200D01*
X52000000Y-72256800D02*
X52000000Y-76380000D01*
X57734200Y-66522600D02*
X52000000Y-72256800D01*
%TO.N,GND*%
X53000000Y-99500000D02*
X53000000Y-99418500D01*
%TO.N,Net-(J5-Pad3)*%
X60274200Y-66522600D02*
X63639700Y-69888100D01*
X63639700Y-69888100D02*
X65760600Y-69888100D01*
X68000000Y-72127500D02*
X68000000Y-76380000D01*
X65760600Y-69888100D02*
X68000000Y-72127500D01*
X65000000Y-52080000D02*
X61760100Y-55319900D01*
X61760100Y-55319900D02*
X61760100Y-62001400D01*
X60274200Y-63487300D02*
X60274200Y-66522600D01*
X61760100Y-62001400D02*
X60274200Y-63487300D01*
%TO.N,Net-(J1-PadT)*%
X51750000Y-133620000D02*
X51641500Y-133620000D01*
X61145400Y-158018500D02*
X60000000Y-158018500D01*
X67614800Y-151549100D02*
X61145400Y-158018500D01*
X60000000Y-158018500D02*
X58381900Y-156400400D01*
X58381900Y-156400400D02*
X58381900Y-155638500D01*
X51750000Y-149006600D02*
X51750000Y-147620000D01*
X58381900Y-155638500D02*
X51750000Y-149006600D01*
%TO.N,Net-(R1-Pad1)*%
X60000000Y-137854597D02*
X60000000Y-136466700D01*
X60000000Y-136466700D02*
X58839100Y-135305800D01*
X56444200Y-135305800D02*
X51750000Y-140000000D01*
X58839100Y-135305800D02*
X56444200Y-135305800D01*
%TO.N,Net-(J3-PadT)*%
X52000000Y-90880000D02*
X53000000Y-91880000D01*
X52000000Y-84000000D02*
X52000000Y-90880000D01*
X58966799Y-91880000D02*
X60000000Y-90846799D01*
X53000000Y-91880000D02*
X58966799Y-91880000D01*
X53000000Y-91880000D02*
X53000000Y-93779700D01*
X53000000Y-93779700D02*
X55930800Y-96710500D01*
X55930800Y-105989200D02*
X53000000Y-108920000D01*
X55930800Y-96710500D02*
X55930800Y-105989200D01*
X62500000Y-81193899D02*
X62500000Y-78806800D01*
X62500000Y-78806800D02*
X60921900Y-77228700D01*
X60921900Y-77228700D02*
X56045100Y-77228700D01*
X52000000Y-81273800D02*
X52000000Y-84000000D01*
X56045100Y-77228700D02*
X52000000Y-81273800D01*
%TO.N,Net-(J1-PadR)*%
X67614800Y-154089100D02*
X68656200Y-154089100D01*
X68656200Y-154089100D02*
X69240400Y-153504900D01*
X69240400Y-148610400D02*
X68250000Y-147620000D01*
X69240400Y-153504900D02*
X69240400Y-148610400D01*
X66151500Y-149718500D02*
X68250000Y-147620000D01*
X60000000Y-149718500D02*
X66151500Y-149718500D01*
%TO.N,Net-(R5-Pad1)*%
X60000000Y-140354597D02*
X60000000Y-142156300D01*
X60000000Y-142156300D02*
X60972700Y-143129000D01*
X65121000Y-143129000D02*
X68250000Y-140000000D01*
X60972700Y-143129000D02*
X65121000Y-143129000D01*
%TO.N,Net-(J3-PadR)*%
X68000000Y-84000000D02*
X63881000Y-88119000D01*
X63881000Y-95265799D02*
X60000000Y-99146799D01*
X63881000Y-88119000D02*
X63881000Y-95265799D01*
X66526799Y-99146799D02*
X67000000Y-99620000D01*
X60000000Y-99146799D02*
X66526799Y-99146799D01*
X60000000Y-99146799D02*
X56997600Y-102149199D01*
X56997600Y-102149199D02*
X56997600Y-108927900D01*
X54465500Y-111460000D02*
X53000000Y-111460000D01*
X56997600Y-108927900D02*
X54465500Y-111460000D01*
X62806101Y-84000000D02*
X62500000Y-83693899D01*
X68000000Y-84000000D02*
X62806101Y-84000000D01*
%TO.N,Net-(J2-PadT)*%
X60179302Y-108920000D02*
X60000000Y-108740698D01*
X67000000Y-108920000D02*
X60179302Y-108920000D01*
X60000000Y-108740698D02*
X56553100Y-112187598D01*
X56553100Y-112187598D02*
X56553100Y-126987300D01*
X56553100Y-126987300D02*
X60413900Y-130848100D01*
X60413900Y-135768497D02*
X62500000Y-137854597D01*
X60413900Y-130848100D02*
X60413900Y-135768497D01*
%TO.N,Net-(J2-PadR)*%
X65580698Y-111460000D02*
X67000000Y-111460000D01*
X60000000Y-117040698D02*
X65580698Y-111460000D01*
X60000000Y-117040698D02*
X57924700Y-119115998D01*
X57924700Y-119115998D02*
X57924700Y-125920500D01*
X57924700Y-125920500D02*
X62445900Y-130441700D01*
X62445900Y-130441700D02*
X62445900Y-134912100D01*
X62445900Y-134912100D02*
X64731900Y-137198100D01*
X64731900Y-138122697D02*
X62500000Y-140354597D01*
X64731900Y-137198100D02*
X64731900Y-138122697D01*
%TD*%
D21*
%TO.N,GND*%
G36*
X66129800Y-154235360D02*
G01*
X66186868Y-154522258D01*
X66298810Y-154792511D01*
X66461325Y-155035732D01*
X66593180Y-155167587D01*
X66520620Y-155189598D01*
X66410306Y-155248563D01*
X66313615Y-155327915D01*
X66234263Y-155424606D01*
X66175298Y-155534920D01*
X66138988Y-155654618D01*
X66126728Y-155779100D01*
X66129800Y-156343350D01*
X66288550Y-156502100D01*
X67487800Y-156502100D01*
X67487800Y-156482100D01*
X67741800Y-156482100D01*
X67741800Y-156502100D01*
X68941050Y-156502100D01*
X69099800Y-156343350D01*
X69102872Y-155779100D01*
X69090612Y-155654618D01*
X69054302Y-155534920D01*
X68995337Y-155424606D01*
X68915985Y-155327915D01*
X68819294Y-155248563D01*
X68708980Y-155189598D01*
X68636420Y-155167587D01*
X68768275Y-155035732D01*
X68924512Y-154801906D01*
X68948447Y-154794646D01*
X69080476Y-154724074D01*
X69196201Y-154629101D01*
X69220003Y-154600098D01*
X69340001Y-154480100D01*
X69340001Y-159340000D01*
X61096805Y-159340000D01*
X61328244Y-159108561D01*
X61515382Y-158828489D01*
X61597249Y-158630845D01*
X61685401Y-158558501D01*
X61709204Y-158529497D01*
X62759601Y-157479100D01*
X66126728Y-157479100D01*
X66138988Y-157603582D01*
X66175298Y-157723280D01*
X66234263Y-157833594D01*
X66313615Y-157930285D01*
X66410306Y-158009637D01*
X66520620Y-158068602D01*
X66640318Y-158104912D01*
X66764800Y-158117172D01*
X67329050Y-158114100D01*
X67487800Y-157955350D01*
X67487800Y-156756100D01*
X67741800Y-156756100D01*
X67741800Y-157955350D01*
X67900550Y-158114100D01*
X68464800Y-158117172D01*
X68589282Y-158104912D01*
X68708980Y-158068602D01*
X68819294Y-158009637D01*
X68915985Y-157930285D01*
X68995337Y-157833594D01*
X69054302Y-157723280D01*
X69090612Y-157603582D01*
X69102872Y-157479100D01*
X69099800Y-156914850D01*
X68941050Y-156756100D01*
X67741800Y-156756100D01*
X67487800Y-156756100D01*
X66288550Y-156756100D01*
X66129800Y-156914850D01*
X66126728Y-157479100D01*
X62759601Y-157479100D01*
X66129800Y-154108902D01*
X66129800Y-154235360D01*
G37*
X66129800Y-154235360D02*
X66186868Y-154522258D01*
X66298810Y-154792511D01*
X66461325Y-155035732D01*
X66593180Y-155167587D01*
X66520620Y-155189598D01*
X66410306Y-155248563D01*
X66313615Y-155327915D01*
X66234263Y-155424606D01*
X66175298Y-155534920D01*
X66138988Y-155654618D01*
X66126728Y-155779100D01*
X66129800Y-156343350D01*
X66288550Y-156502100D01*
X67487800Y-156502100D01*
X67487800Y-156482100D01*
X67741800Y-156482100D01*
X67741800Y-156502100D01*
X68941050Y-156502100D01*
X69099800Y-156343350D01*
X69102872Y-155779100D01*
X69090612Y-155654618D01*
X69054302Y-155534920D01*
X68995337Y-155424606D01*
X68915985Y-155327915D01*
X68819294Y-155248563D01*
X68708980Y-155189598D01*
X68636420Y-155167587D01*
X68768275Y-155035732D01*
X68924512Y-154801906D01*
X68948447Y-154794646D01*
X69080476Y-154724074D01*
X69196201Y-154629101D01*
X69220003Y-154600098D01*
X69340001Y-154480100D01*
X69340001Y-159340000D01*
X61096805Y-159340000D01*
X61328244Y-159108561D01*
X61515382Y-158828489D01*
X61597249Y-158630845D01*
X61685401Y-158558501D01*
X61709204Y-158529497D01*
X62759601Y-157479100D01*
X66126728Y-157479100D01*
X66138988Y-157603582D01*
X66175298Y-157723280D01*
X66234263Y-157833594D01*
X66313615Y-157930285D01*
X66410306Y-158009637D01*
X66520620Y-158068602D01*
X66640318Y-158104912D01*
X66764800Y-158117172D01*
X67329050Y-158114100D01*
X67487800Y-157955350D01*
X67487800Y-156756100D01*
X67741800Y-156756100D01*
X67741800Y-157955350D01*
X67900550Y-158114100D01*
X68464800Y-158117172D01*
X68589282Y-158104912D01*
X68708980Y-158068602D01*
X68819294Y-158009637D01*
X68915985Y-157930285D01*
X68995337Y-157833594D01*
X69054302Y-157723280D01*
X69090612Y-157603582D01*
X69102872Y-157479100D01*
X69099800Y-156914850D01*
X68941050Y-156756100D01*
X67741800Y-156756100D01*
X67487800Y-156756100D01*
X66288550Y-156756100D01*
X66129800Y-156914850D01*
X66126728Y-157479100D01*
X62759601Y-157479100D01*
X66129800Y-154108902D01*
X66129800Y-154235360D01*
G36*
X59081014Y-136622516D02*
G01*
X59021495Y-136662285D01*
X58983880Y-136699900D01*
X58930537Y-136600103D01*
X58851185Y-136503412D01*
X58754494Y-136424060D01*
X58644180Y-136365095D01*
X58524482Y-136328785D01*
X58400000Y-136316525D01*
X57785750Y-136319597D01*
X57627000Y-136478347D01*
X57627000Y-137727597D01*
X57647000Y-137727597D01*
X57647000Y-137981597D01*
X57627000Y-137981597D01*
X57627000Y-138001597D01*
X57373000Y-138001597D01*
X57373000Y-137981597D01*
X56123750Y-137981597D01*
X55965000Y-138140347D01*
X55961928Y-138754597D01*
X55974188Y-138879079D01*
X56010498Y-138998777D01*
X56069463Y-139109091D01*
X56148815Y-139205782D01*
X56245506Y-139285134D01*
X56339024Y-139335121D01*
X56319970Y-139354175D01*
X56435918Y-139470123D01*
X56181739Y-139553805D01*
X56050842Y-139826372D01*
X55975635Y-140119239D01*
X55959009Y-140421150D01*
X56001603Y-140720504D01*
X56101778Y-141005796D01*
X56181739Y-141155389D01*
X56435920Y-141239072D01*
X57320395Y-140354597D01*
X57306253Y-140340455D01*
X57485858Y-140160850D01*
X57500000Y-140174992D01*
X57514143Y-140160850D01*
X57693748Y-140340455D01*
X57679605Y-140354597D01*
X58564080Y-141239072D01*
X58712262Y-141190287D01*
X58807688Y-141333102D01*
X59021495Y-141546909D01*
X59240001Y-141692910D01*
X59240001Y-142118968D01*
X59236324Y-142156300D01*
X59250998Y-142305285D01*
X59294454Y-142448546D01*
X59365026Y-142580576D01*
X59395738Y-142617998D01*
X59460000Y-142696301D01*
X59488998Y-142720099D01*
X60408901Y-143640003D01*
X60432699Y-143669001D01*
X60461697Y-143692799D01*
X60548424Y-143763974D01*
X60680453Y-143834546D01*
X60823714Y-143878003D01*
X60972700Y-143892677D01*
X61010033Y-143889000D01*
X65083678Y-143889000D01*
X65121000Y-143892676D01*
X65158322Y-143889000D01*
X65158333Y-143889000D01*
X65269986Y-143878003D01*
X65413247Y-143834546D01*
X65545276Y-143763974D01*
X65661001Y-143669001D01*
X65684804Y-143639997D01*
X67926114Y-141398688D01*
X68108665Y-141435000D01*
X68391335Y-141435000D01*
X68668574Y-141379853D01*
X68929727Y-141271680D01*
X69164759Y-141114637D01*
X69340001Y-140939395D01*
X69340001Y-146680605D01*
X69164759Y-146505363D01*
X68929727Y-146348320D01*
X68668574Y-146240147D01*
X68391335Y-146185000D01*
X68108665Y-146185000D01*
X67831426Y-146240147D01*
X67570273Y-146348320D01*
X67335241Y-146505363D01*
X67135363Y-146705241D01*
X66978320Y-146940273D01*
X66870147Y-147201426D01*
X66815000Y-147478665D01*
X66815000Y-147761335D01*
X66851312Y-147943886D01*
X65836699Y-148958500D01*
X61536088Y-148958500D01*
X61515382Y-148908511D01*
X61328244Y-148628439D01*
X61090061Y-148390256D01*
X60834198Y-148219294D01*
X60884475Y-148066580D01*
X60000000Y-147182105D01*
X59115525Y-148066580D01*
X59165802Y-148219294D01*
X58909939Y-148390256D01*
X58671756Y-148628439D01*
X58484618Y-148908511D01*
X58355714Y-149219711D01*
X58290000Y-149550080D01*
X58290000Y-149886920D01*
X58355714Y-150217289D01*
X58484618Y-150528489D01*
X58671756Y-150808561D01*
X58909939Y-151046744D01*
X59087663Y-151165495D01*
X58988698Y-151206488D01*
X58639017Y-151440137D01*
X58341637Y-151737517D01*
X58107988Y-152087198D01*
X57947047Y-152475744D01*
X57865000Y-152888221D01*
X57865000Y-153308779D01*
X57947047Y-153721256D01*
X58107988Y-154109802D01*
X58341637Y-154459483D01*
X58639017Y-154756863D01*
X58988698Y-154990512D01*
X59377244Y-155151453D01*
X59789721Y-155233500D01*
X60210279Y-155233500D01*
X60622756Y-155151453D01*
X61011302Y-154990512D01*
X61360983Y-154756863D01*
X61658363Y-154459483D01*
X61892012Y-154109802D01*
X62052953Y-153721256D01*
X62135000Y-153308779D01*
X62135000Y-152888221D01*
X62052953Y-152475744D01*
X61892012Y-152087198D01*
X61658363Y-151737517D01*
X61360983Y-151440137D01*
X61011302Y-151206488D01*
X60912337Y-151165495D01*
X61090061Y-151046744D01*
X61328244Y-150808561D01*
X61515382Y-150528489D01*
X61536088Y-150478500D01*
X66114178Y-150478500D01*
X66151500Y-150482176D01*
X66188822Y-150478500D01*
X66188833Y-150478500D01*
X66300486Y-150467503D01*
X66443747Y-150424046D01*
X66575776Y-150353474D01*
X66691501Y-150258501D01*
X66715304Y-150229497D01*
X67926114Y-149018688D01*
X68108665Y-149055000D01*
X68391335Y-149055000D01*
X68480401Y-149037283D01*
X68480401Y-150341482D01*
X68318211Y-150233110D01*
X68047958Y-150121168D01*
X67761060Y-150064100D01*
X67468540Y-150064100D01*
X67181642Y-150121168D01*
X66911389Y-150233110D01*
X66668168Y-150395625D01*
X66461325Y-150602468D01*
X66298810Y-150845689D01*
X66186868Y-151115942D01*
X66129800Y-151402840D01*
X66129800Y-151695360D01*
X66173590Y-151915508D01*
X61244452Y-156844647D01*
X61090061Y-156690256D01*
X60809989Y-156503118D01*
X60498789Y-156374214D01*
X60168420Y-156308500D01*
X59831580Y-156308500D01*
X59501211Y-156374214D01*
X59451222Y-156394920D01*
X59141900Y-156085599D01*
X59141900Y-155675823D01*
X59145576Y-155638500D01*
X59141900Y-155601177D01*
X59141900Y-155601167D01*
X59130903Y-155489514D01*
X59087446Y-155346253D01*
X59035229Y-155248563D01*
X59016874Y-155214223D01*
X58945699Y-155127497D01*
X58921901Y-155098499D01*
X58892903Y-155074701D01*
X52597667Y-148779466D01*
X52664759Y-148734637D01*
X52864637Y-148534759D01*
X53021680Y-148299727D01*
X53129853Y-148038574D01*
X53185000Y-147761335D01*
X53185000Y-147478665D01*
X53129853Y-147201426D01*
X53075023Y-147069053D01*
X58459009Y-147069053D01*
X58501603Y-147368407D01*
X58601778Y-147653699D01*
X58681739Y-147803292D01*
X58935920Y-147886975D01*
X59820395Y-147002500D01*
X60179605Y-147002500D01*
X61064080Y-147886975D01*
X61318261Y-147803292D01*
X61449158Y-147530725D01*
X61524365Y-147237858D01*
X61540991Y-146935947D01*
X61498397Y-146636593D01*
X61398222Y-146351301D01*
X61318261Y-146201708D01*
X61064080Y-146118025D01*
X60179605Y-147002500D01*
X59820395Y-147002500D01*
X58935920Y-146118025D01*
X58681739Y-146201708D01*
X58550842Y-146474275D01*
X58475635Y-146767142D01*
X58459009Y-147069053D01*
X53075023Y-147069053D01*
X53021680Y-146940273D01*
X52864637Y-146705241D01*
X52664759Y-146505363D01*
X52429727Y-146348320D01*
X52168574Y-146240147D01*
X51891335Y-146185000D01*
X51608665Y-146185000D01*
X51331426Y-146240147D01*
X51070273Y-146348320D01*
X50835241Y-146505363D01*
X50660000Y-146680604D01*
X50660000Y-145938420D01*
X59115525Y-145938420D01*
X60000000Y-146822895D01*
X60884475Y-145938420D01*
X60800792Y-145684239D01*
X60528225Y-145553342D01*
X60235358Y-145478135D01*
X59933447Y-145461509D01*
X59634093Y-145504103D01*
X59348801Y-145604278D01*
X59199208Y-145684239D01*
X59115525Y-145938420D01*
X50660000Y-145938420D01*
X50660000Y-140939396D01*
X50835241Y-141114637D01*
X51070273Y-141271680D01*
X51331426Y-141379853D01*
X51608665Y-141435000D01*
X51891335Y-141435000D01*
X51973395Y-141418677D01*
X56615525Y-141418677D01*
X56699208Y-141672858D01*
X56971775Y-141803755D01*
X57264642Y-141878962D01*
X57566553Y-141895588D01*
X57865907Y-141852994D01*
X58151199Y-141752819D01*
X58300792Y-141672858D01*
X58384475Y-141418677D01*
X57500000Y-140534202D01*
X56615525Y-141418677D01*
X51973395Y-141418677D01*
X52168574Y-141379853D01*
X52429727Y-141271680D01*
X52664759Y-141114637D01*
X52864637Y-140914759D01*
X53021680Y-140679727D01*
X53129853Y-140418574D01*
X53185000Y-140141335D01*
X53185000Y-139858665D01*
X53148688Y-139676113D01*
X55971949Y-136852853D01*
X55961928Y-136954597D01*
X55965000Y-137568847D01*
X56123750Y-137727597D01*
X57373000Y-137727597D01*
X57373000Y-136478347D01*
X57214250Y-136319597D01*
X56600000Y-136316525D01*
X56498256Y-136326546D01*
X56759002Y-136065800D01*
X58524299Y-136065800D01*
X59081014Y-136622516D01*
G37*
X59081014Y-136622516D02*
X59021495Y-136662285D01*
X58983880Y-136699900D01*
X58930537Y-136600103D01*
X58851185Y-136503412D01*
X58754494Y-136424060D01*
X58644180Y-136365095D01*
X58524482Y-136328785D01*
X58400000Y-136316525D01*
X57785750Y-136319597D01*
X57627000Y-136478347D01*
X57627000Y-137727597D01*
X57647000Y-137727597D01*
X57647000Y-137981597D01*
X57627000Y-137981597D01*
X57627000Y-138001597D01*
X57373000Y-138001597D01*
X57373000Y-137981597D01*
X56123750Y-137981597D01*
X55965000Y-138140347D01*
X55961928Y-138754597D01*
X55974188Y-138879079D01*
X56010498Y-138998777D01*
X56069463Y-139109091D01*
X56148815Y-139205782D01*
X56245506Y-139285134D01*
X56339024Y-139335121D01*
X56319970Y-139354175D01*
X56435918Y-139470123D01*
X56181739Y-139553805D01*
X56050842Y-139826372D01*
X55975635Y-140119239D01*
X55959009Y-140421150D01*
X56001603Y-140720504D01*
X56101778Y-141005796D01*
X56181739Y-141155389D01*
X56435920Y-141239072D01*
X57320395Y-140354597D01*
X57306253Y-140340455D01*
X57485858Y-140160850D01*
X57500000Y-140174992D01*
X57514143Y-140160850D01*
X57693748Y-140340455D01*
X57679605Y-140354597D01*
X58564080Y-141239072D01*
X58712262Y-141190287D01*
X58807688Y-141333102D01*
X59021495Y-141546909D01*
X59240001Y-141692910D01*
X59240001Y-142118968D01*
X59236324Y-142156300D01*
X59250998Y-142305285D01*
X59294454Y-142448546D01*
X59365026Y-142580576D01*
X59395738Y-142617998D01*
X59460000Y-142696301D01*
X59488998Y-142720099D01*
X60408901Y-143640003D01*
X60432699Y-143669001D01*
X60461697Y-143692799D01*
X60548424Y-143763974D01*
X60680453Y-143834546D01*
X60823714Y-143878003D01*
X60972700Y-143892677D01*
X61010033Y-143889000D01*
X65083678Y-143889000D01*
X65121000Y-143892676D01*
X65158322Y-143889000D01*
X65158333Y-143889000D01*
X65269986Y-143878003D01*
X65413247Y-143834546D01*
X65545276Y-143763974D01*
X65661001Y-143669001D01*
X65684804Y-143639997D01*
X67926114Y-141398688D01*
X68108665Y-141435000D01*
X68391335Y-141435000D01*
X68668574Y-141379853D01*
X68929727Y-141271680D01*
X69164759Y-141114637D01*
X69340001Y-140939395D01*
X69340001Y-146680605D01*
X69164759Y-146505363D01*
X68929727Y-146348320D01*
X68668574Y-146240147D01*
X68391335Y-146185000D01*
X68108665Y-146185000D01*
X67831426Y-146240147D01*
X67570273Y-146348320D01*
X67335241Y-146505363D01*
X67135363Y-146705241D01*
X66978320Y-146940273D01*
X66870147Y-147201426D01*
X66815000Y-147478665D01*
X66815000Y-147761335D01*
X66851312Y-147943886D01*
X65836699Y-148958500D01*
X61536088Y-148958500D01*
X61515382Y-148908511D01*
X61328244Y-148628439D01*
X61090061Y-148390256D01*
X60834198Y-148219294D01*
X60884475Y-148066580D01*
X60000000Y-147182105D01*
X59115525Y-148066580D01*
X59165802Y-148219294D01*
X58909939Y-148390256D01*
X58671756Y-148628439D01*
X58484618Y-148908511D01*
X58355714Y-149219711D01*
X58290000Y-149550080D01*
X58290000Y-149886920D01*
X58355714Y-150217289D01*
X58484618Y-150528489D01*
X58671756Y-150808561D01*
X58909939Y-151046744D01*
X59087663Y-151165495D01*
X58988698Y-151206488D01*
X58639017Y-151440137D01*
X58341637Y-151737517D01*
X58107988Y-152087198D01*
X57947047Y-152475744D01*
X57865000Y-152888221D01*
X57865000Y-153308779D01*
X57947047Y-153721256D01*
X58107988Y-154109802D01*
X58341637Y-154459483D01*
X58639017Y-154756863D01*
X58988698Y-154990512D01*
X59377244Y-155151453D01*
X59789721Y-155233500D01*
X60210279Y-155233500D01*
X60622756Y-155151453D01*
X61011302Y-154990512D01*
X61360983Y-154756863D01*
X61658363Y-154459483D01*
X61892012Y-154109802D01*
X62052953Y-153721256D01*
X62135000Y-153308779D01*
X62135000Y-152888221D01*
X62052953Y-152475744D01*
X61892012Y-152087198D01*
X61658363Y-151737517D01*
X61360983Y-151440137D01*
X61011302Y-151206488D01*
X60912337Y-151165495D01*
X61090061Y-151046744D01*
X61328244Y-150808561D01*
X61515382Y-150528489D01*
X61536088Y-150478500D01*
X66114178Y-150478500D01*
X66151500Y-150482176D01*
X66188822Y-150478500D01*
X66188833Y-150478500D01*
X66300486Y-150467503D01*
X66443747Y-150424046D01*
X66575776Y-150353474D01*
X66691501Y-150258501D01*
X66715304Y-150229497D01*
X67926114Y-149018688D01*
X68108665Y-149055000D01*
X68391335Y-149055000D01*
X68480401Y-149037283D01*
X68480401Y-150341482D01*
X68318211Y-150233110D01*
X68047958Y-150121168D01*
X67761060Y-150064100D01*
X67468540Y-150064100D01*
X67181642Y-150121168D01*
X66911389Y-150233110D01*
X66668168Y-150395625D01*
X66461325Y-150602468D01*
X66298810Y-150845689D01*
X66186868Y-151115942D01*
X66129800Y-151402840D01*
X66129800Y-151695360D01*
X66173590Y-151915508D01*
X61244452Y-156844647D01*
X61090061Y-156690256D01*
X60809989Y-156503118D01*
X60498789Y-156374214D01*
X60168420Y-156308500D01*
X59831580Y-156308500D01*
X59501211Y-156374214D01*
X59451222Y-156394920D01*
X59141900Y-156085599D01*
X59141900Y-155675823D01*
X59145576Y-155638500D01*
X59141900Y-155601177D01*
X59141900Y-155601167D01*
X59130903Y-155489514D01*
X59087446Y-155346253D01*
X59035229Y-155248563D01*
X59016874Y-155214223D01*
X58945699Y-155127497D01*
X58921901Y-155098499D01*
X58892903Y-155074701D01*
X52597667Y-148779466D01*
X52664759Y-148734637D01*
X52864637Y-148534759D01*
X53021680Y-148299727D01*
X53129853Y-148038574D01*
X53185000Y-147761335D01*
X53185000Y-147478665D01*
X53129853Y-147201426D01*
X53075023Y-147069053D01*
X58459009Y-147069053D01*
X58501603Y-147368407D01*
X58601778Y-147653699D01*
X58681739Y-147803292D01*
X58935920Y-147886975D01*
X59820395Y-147002500D01*
X60179605Y-147002500D01*
X61064080Y-147886975D01*
X61318261Y-147803292D01*
X61449158Y-147530725D01*
X61524365Y-147237858D01*
X61540991Y-146935947D01*
X61498397Y-146636593D01*
X61398222Y-146351301D01*
X61318261Y-146201708D01*
X61064080Y-146118025D01*
X60179605Y-147002500D01*
X59820395Y-147002500D01*
X58935920Y-146118025D01*
X58681739Y-146201708D01*
X58550842Y-146474275D01*
X58475635Y-146767142D01*
X58459009Y-147069053D01*
X53075023Y-147069053D01*
X53021680Y-146940273D01*
X52864637Y-146705241D01*
X52664759Y-146505363D01*
X52429727Y-146348320D01*
X52168574Y-146240147D01*
X51891335Y-146185000D01*
X51608665Y-146185000D01*
X51331426Y-146240147D01*
X51070273Y-146348320D01*
X50835241Y-146505363D01*
X50660000Y-146680604D01*
X50660000Y-145938420D01*
X59115525Y-145938420D01*
X60000000Y-146822895D01*
X60884475Y-145938420D01*
X60800792Y-145684239D01*
X60528225Y-145553342D01*
X60235358Y-145478135D01*
X59933447Y-145461509D01*
X59634093Y-145504103D01*
X59348801Y-145604278D01*
X59199208Y-145684239D01*
X59115525Y-145938420D01*
X50660000Y-145938420D01*
X50660000Y-140939396D01*
X50835241Y-141114637D01*
X51070273Y-141271680D01*
X51331426Y-141379853D01*
X51608665Y-141435000D01*
X51891335Y-141435000D01*
X51973395Y-141418677D01*
X56615525Y-141418677D01*
X56699208Y-141672858D01*
X56971775Y-141803755D01*
X57264642Y-141878962D01*
X57566553Y-141895588D01*
X57865907Y-141852994D01*
X58151199Y-141752819D01*
X58300792Y-141672858D01*
X58384475Y-141418677D01*
X57500000Y-140534202D01*
X56615525Y-141418677D01*
X51973395Y-141418677D01*
X52168574Y-141379853D01*
X52429727Y-141271680D01*
X52664759Y-141114637D01*
X52864637Y-140914759D01*
X53021680Y-140679727D01*
X53129853Y-140418574D01*
X53185000Y-140141335D01*
X53185000Y-139858665D01*
X53148688Y-139676113D01*
X55971949Y-136852853D01*
X55961928Y-136954597D01*
X55965000Y-137568847D01*
X56123750Y-137727597D01*
X57373000Y-137727597D01*
X57373000Y-136478347D01*
X57214250Y-136319597D01*
X56600000Y-136316525D01*
X56498256Y-136326546D01*
X56759002Y-136065800D01*
X58524299Y-136065800D01*
X59081014Y-136622516D01*
G36*
X69340001Y-125060605D02*
G01*
X69164759Y-124885363D01*
X68929727Y-124728320D01*
X68668574Y-124620147D01*
X68391335Y-124565000D01*
X68108665Y-124565000D01*
X67831426Y-124620147D01*
X67570273Y-124728320D01*
X67335241Y-124885363D01*
X67135363Y-125085241D01*
X66978320Y-125320273D01*
X66870147Y-125581426D01*
X66815000Y-125858665D01*
X66815000Y-126141335D01*
X66870147Y-126418574D01*
X66978320Y-126679727D01*
X67135363Y-126914759D01*
X67335241Y-127114637D01*
X67570273Y-127271680D01*
X67831426Y-127379853D01*
X68108665Y-127435000D01*
X68391335Y-127435000D01*
X68668574Y-127379853D01*
X68929727Y-127271680D01*
X69164759Y-127114637D01*
X69340001Y-126939395D01*
X69340001Y-132680605D01*
X69164759Y-132505363D01*
X68929727Y-132348320D01*
X68668574Y-132240147D01*
X68391335Y-132185000D01*
X68108665Y-132185000D01*
X67831426Y-132240147D01*
X67570273Y-132348320D01*
X67335241Y-132505363D01*
X67135363Y-132705241D01*
X66978320Y-132940273D01*
X66870147Y-133201426D01*
X66815000Y-133478665D01*
X66815000Y-133761335D01*
X66870147Y-134038574D01*
X66978320Y-134299727D01*
X67135363Y-134534759D01*
X67335241Y-134734637D01*
X67570273Y-134891680D01*
X67831426Y-134999853D01*
X68108665Y-135055000D01*
X68391335Y-135055000D01*
X68668574Y-134999853D01*
X68929727Y-134891680D01*
X69164759Y-134734637D01*
X69340001Y-134559395D01*
X69340001Y-139060605D01*
X69164759Y-138885363D01*
X68929727Y-138728320D01*
X68668574Y-138620147D01*
X68391335Y-138565000D01*
X68108665Y-138565000D01*
X67831426Y-138620147D01*
X67570273Y-138728320D01*
X67335241Y-138885363D01*
X67135363Y-139085241D01*
X66978320Y-139320273D01*
X66870147Y-139581426D01*
X66815000Y-139858665D01*
X66815000Y-140141335D01*
X66851312Y-140323886D01*
X64806199Y-142369000D01*
X61287502Y-142369000D01*
X60760000Y-141841499D01*
X60760000Y-141692910D01*
X60978505Y-141546909D01*
X61192312Y-141333102D01*
X61250000Y-141246766D01*
X61307688Y-141333102D01*
X61521495Y-141546909D01*
X61772905Y-141714896D01*
X62052257Y-141830608D01*
X62348816Y-141889597D01*
X62651184Y-141889597D01*
X62947743Y-141830608D01*
X63227095Y-141714896D01*
X63478505Y-141546909D01*
X63692312Y-141333102D01*
X63860299Y-141081692D01*
X63976011Y-140802340D01*
X64035000Y-140505781D01*
X64035000Y-140203413D01*
X63983731Y-139945667D01*
X65242903Y-138686496D01*
X65271901Y-138662698D01*
X65366874Y-138546973D01*
X65437446Y-138414944D01*
X65480903Y-138271683D01*
X65491900Y-138160030D01*
X65491900Y-138160021D01*
X65495576Y-138122698D01*
X65491900Y-138085375D01*
X65491900Y-137235422D01*
X65495576Y-137198099D01*
X65491900Y-137160776D01*
X65491900Y-137160767D01*
X65480903Y-137049114D01*
X65437446Y-136905853D01*
X65366874Y-136773824D01*
X65271901Y-136658099D01*
X65242904Y-136634302D01*
X63205900Y-134597299D01*
X63205900Y-131877841D01*
X63332497Y-132032100D01*
X63636275Y-132281404D01*
X63982853Y-132466654D01*
X64358912Y-132580730D01*
X64750000Y-132619249D01*
X65141087Y-132580730D01*
X65517146Y-132466654D01*
X65863725Y-132281404D01*
X66167503Y-132032100D01*
X66416807Y-131728322D01*
X66602057Y-131381744D01*
X66716133Y-131005685D01*
X66745000Y-130712595D01*
X66745000Y-129996600D01*
X66716133Y-129703510D01*
X66602057Y-129327450D01*
X66416807Y-128980872D01*
X66167503Y-128677094D01*
X65863725Y-128427790D01*
X65517147Y-128242540D01*
X65141088Y-128128464D01*
X64750000Y-128089945D01*
X64358913Y-128128464D01*
X63982854Y-128242540D01*
X63636276Y-128427790D01*
X63332498Y-128677094D01*
X63083193Y-128980872D01*
X62897943Y-129327450D01*
X62783867Y-129703509D01*
X62783745Y-129704743D01*
X58684700Y-125605699D01*
X58684700Y-120820778D01*
X59115525Y-120820778D01*
X59199208Y-121074959D01*
X59471775Y-121205856D01*
X59764642Y-121281063D01*
X60066553Y-121297689D01*
X60365907Y-121255095D01*
X60651199Y-121154920D01*
X60800792Y-121074959D01*
X60884475Y-120820778D01*
X60000000Y-119936303D01*
X59115525Y-120820778D01*
X58684700Y-120820778D01*
X58684700Y-120558465D01*
X58935920Y-120641173D01*
X59820395Y-119756698D01*
X60179605Y-119756698D01*
X61064080Y-120641173D01*
X61318261Y-120557490D01*
X61449158Y-120284923D01*
X61524365Y-119992056D01*
X61540991Y-119690145D01*
X61498397Y-119390791D01*
X61398222Y-119105499D01*
X61318261Y-118955906D01*
X61064080Y-118872223D01*
X60179605Y-119756698D01*
X59820395Y-119756698D01*
X59806253Y-119742556D01*
X59985858Y-119562951D01*
X60000000Y-119577093D01*
X60884475Y-118692618D01*
X60834198Y-118539904D01*
X61090061Y-118368942D01*
X61328244Y-118130759D01*
X61515382Y-117850687D01*
X61644286Y-117539487D01*
X61710000Y-117209118D01*
X61710000Y-116872278D01*
X61644286Y-116541909D01*
X61623580Y-116491920D01*
X63265500Y-114850000D01*
X65511928Y-114850000D01*
X65524188Y-114974482D01*
X65560498Y-115094180D01*
X65619463Y-115204494D01*
X65698815Y-115301185D01*
X65795506Y-115380537D01*
X65905820Y-115439502D01*
X66025518Y-115475812D01*
X66150000Y-115488072D01*
X66714250Y-115485000D01*
X66873000Y-115326250D01*
X66873000Y-114127000D01*
X67127000Y-114127000D01*
X67127000Y-115326250D01*
X67285750Y-115485000D01*
X67850000Y-115488072D01*
X67974482Y-115475812D01*
X68094180Y-115439502D01*
X68204494Y-115380537D01*
X68301185Y-115301185D01*
X68380537Y-115204494D01*
X68439502Y-115094180D01*
X68475812Y-114974482D01*
X68488072Y-114850000D01*
X68485000Y-114285750D01*
X68326250Y-114127000D01*
X67127000Y-114127000D01*
X66873000Y-114127000D01*
X65673750Y-114127000D01*
X65515000Y-114285750D01*
X65511928Y-114850000D01*
X63265500Y-114850000D01*
X65791387Y-112324113D01*
X65846525Y-112406632D01*
X65978380Y-112538487D01*
X65905820Y-112560498D01*
X65795506Y-112619463D01*
X65698815Y-112698815D01*
X65619463Y-112795506D01*
X65560498Y-112905820D01*
X65524188Y-113025518D01*
X65511928Y-113150000D01*
X65515000Y-113714250D01*
X65673750Y-113873000D01*
X66873000Y-113873000D01*
X66873000Y-113853000D01*
X67127000Y-113853000D01*
X67127000Y-113873000D01*
X68326250Y-113873000D01*
X68485000Y-113714250D01*
X68488072Y-113150000D01*
X68475812Y-113025518D01*
X68439502Y-112905820D01*
X68380537Y-112795506D01*
X68301185Y-112698815D01*
X68204494Y-112619463D01*
X68094180Y-112560498D01*
X68021620Y-112538487D01*
X68153475Y-112406632D01*
X68315990Y-112163411D01*
X68427932Y-111893158D01*
X68485000Y-111606260D01*
X68485000Y-111313740D01*
X68427932Y-111026842D01*
X68315990Y-110756589D01*
X68153475Y-110513368D01*
X67946632Y-110306525D01*
X67772240Y-110190000D01*
X67946632Y-110073475D01*
X68153475Y-109866632D01*
X68315990Y-109623411D01*
X68427932Y-109353158D01*
X68485000Y-109066260D01*
X68485000Y-108773740D01*
X68427932Y-108486842D01*
X68315990Y-108216589D01*
X68153475Y-107973368D01*
X67946632Y-107766525D01*
X67703411Y-107604010D01*
X67433158Y-107492068D01*
X67420320Y-107489514D01*
X67431989Y-107481478D01*
X67433553Y-107480480D01*
X67433845Y-107480200D01*
X67439169Y-107476534D01*
X67445959Y-107470724D01*
X67457652Y-107460576D01*
X67489892Y-107426537D01*
X67520571Y-107397164D01*
X67595010Y-107381801D01*
X67596664Y-107381287D01*
X67598375Y-107381096D01*
X67656218Y-107362782D01*
X67714290Y-107344738D01*
X67715807Y-107343916D01*
X67717455Y-107343394D01*
X67725645Y-107339821D01*
X67747504Y-107330103D01*
X67797747Y-107301597D01*
X67848437Y-107273812D01*
X67855781Y-107268720D01*
X67898348Y-107238771D01*
X67944058Y-107199414D01*
X67990046Y-107160348D01*
X67992883Y-107157375D01*
X67993002Y-107157272D01*
X67993100Y-107157147D01*
X67996215Y-107153882D01*
X68033573Y-107114173D01*
X68040512Y-107105180D01*
X68042123Y-107103739D01*
X68059505Y-107080667D01*
X68086281Y-107050335D01*
X68091462Y-107043054D01*
X68094993Y-107038017D01*
X68102236Y-107025181D01*
X68109875Y-107015281D01*
X68112032Y-107010945D01*
X68117282Y-107003977D01*
X68121883Y-106996316D01*
X68136234Y-106972043D01*
X68155284Y-106931176D01*
X68156379Y-106929236D01*
X68156838Y-106927842D01*
X68159119Y-106922950D01*
X68183271Y-106874476D01*
X68186398Y-106866105D01*
X68195885Y-106840159D01*
X68209796Y-106786312D01*
X68224854Y-106732806D01*
X68226362Y-106723998D01*
X68231966Y-106689842D01*
X68233906Y-106659988D01*
X68238879Y-106630475D01*
X68239434Y-106621556D01*
X68242138Y-106572652D01*
X68241728Y-106563013D01*
X68242912Y-106553430D01*
X68243074Y-106544495D01*
X68243861Y-106474312D01*
X68243850Y-106474184D01*
X68243901Y-106467664D01*
X68243914Y-106451929D01*
X68243899Y-106451771D01*
X68243897Y-106446799D01*
X68243861Y-106441791D01*
X68243861Y-106441770D01*
X68243357Y-106371991D01*
X68242609Y-106364895D01*
X68243097Y-106357767D01*
X68242771Y-106348836D01*
X68240501Y-106296583D01*
X68236936Y-106271497D01*
X68236309Y-106246159D01*
X68235155Y-106237298D01*
X68230183Y-106201087D01*
X68218068Y-106150305D01*
X68207601Y-106099189D01*
X68204903Y-106090670D01*
X68196258Y-106064020D01*
X68172535Y-106009649D01*
X68149327Y-105955009D01*
X68146356Y-105949652D01*
X68146306Y-105949537D01*
X68146238Y-105949439D01*
X68144993Y-105947194D01*
X68131701Y-105923617D01*
X68120089Y-105907041D01*
X68110770Y-105889085D01*
X68105847Y-105881627D01*
X68102909Y-105877244D01*
X68084269Y-105854574D01*
X68068072Y-105830084D01*
X68062390Y-105823186D01*
X68013020Y-105764098D01*
X67990713Y-105742162D01*
X67970651Y-105718148D01*
X67946286Y-105698471D01*
X67923962Y-105676518D01*
X67897826Y-105659336D01*
X67873476Y-105639672D01*
X67865974Y-105634816D01*
X67812178Y-105600514D01*
X67768505Y-105578336D01*
X67725792Y-105554323D01*
X67712900Y-105550098D01*
X67700809Y-105543958D01*
X67653663Y-105530685D01*
X67607097Y-105515425D01*
X67598361Y-105513545D01*
X67532869Y-105499929D01*
X67481671Y-105494417D01*
X67430685Y-105487147D01*
X67421755Y-105486818D01*
X67399515Y-105486152D01*
X67347664Y-105489673D01*
X67295712Y-105491487D01*
X67286862Y-105492731D01*
X67203590Y-105505028D01*
X67163835Y-105514940D01*
X67123514Y-105522149D01*
X67103378Y-105530014D01*
X67096226Y-105531797D01*
X67088232Y-105528264D01*
X67060810Y-105522112D01*
X67034207Y-105513046D01*
X67000018Y-105508473D01*
X66966356Y-105500921D01*
X66957480Y-105499887D01*
X66877744Y-105491162D01*
X66869862Y-105491073D01*
X66862120Y-105489647D01*
X66807493Y-105490372D01*
X66752845Y-105489757D01*
X66745104Y-105491199D01*
X66737225Y-105491304D01*
X66728351Y-105492357D01*
X66724432Y-105492849D01*
X66749884Y-105445242D01*
X66778760Y-105391279D01*
X66778796Y-105391160D01*
X66778854Y-105391052D01*
X66796802Y-105332093D01*
X66815181Y-105271801D01*
X66815194Y-105271676D01*
X66815229Y-105271560D01*
X66821486Y-105209201D01*
X66827699Y-105147523D01*
X66827687Y-105147402D01*
X66827700Y-105147277D01*
X66821486Y-105082382D01*
X66815840Y-105023181D01*
X66815806Y-105023068D01*
X66815794Y-105022940D01*
X66797145Y-104960661D01*
X66780056Y-104903511D01*
X66779999Y-104903403D01*
X66779963Y-104903283D01*
X66750266Y-104847123D01*
X66721710Y-104793070D01*
X66721634Y-104792976D01*
X66721575Y-104792865D01*
X66716594Y-104785445D01*
X66667988Y-104714110D01*
X66668906Y-104713937D01*
X66678123Y-104712134D01*
X66678177Y-104712118D01*
X66679186Y-104711926D01*
X66755386Y-104696886D01*
X66813216Y-104679464D01*
X66871205Y-104662397D01*
X66873023Y-104661446D01*
X66874983Y-104660856D01*
X66928317Y-104632539D01*
X66981897Y-104604528D01*
X66983494Y-104603244D01*
X66985304Y-104602283D01*
X67032148Y-104564126D01*
X67079242Y-104526262D01*
X67080559Y-104524692D01*
X67082148Y-104523398D01*
X67120673Y-104476886D01*
X67159530Y-104430578D01*
X67160518Y-104428781D01*
X67161824Y-104427204D01*
X67190555Y-104374143D01*
X67219704Y-104321122D01*
X67220325Y-104319165D01*
X67221299Y-104317366D01*
X67239207Y-104259640D01*
X67257471Y-104202062D01*
X67257699Y-104200029D01*
X67258307Y-104198069D01*
X67264655Y-104138019D01*
X67271395Y-104077935D01*
X67271422Y-104074004D01*
X67271438Y-104073855D01*
X67271424Y-104073704D01*
X67271457Y-104068999D01*
X67271457Y-103751692D01*
X67271451Y-103751629D01*
X67271456Y-103750643D01*
X67271285Y-103646305D01*
X67271270Y-103646150D01*
X67271261Y-103641663D01*
X67270559Y-103562722D01*
X67270433Y-103561544D01*
X67270534Y-103560361D01*
X67270359Y-103551427D01*
X67268841Y-103494252D01*
X67267791Y-103485844D01*
X67268170Y-103477384D01*
X67267635Y-103468463D01*
X67265020Y-103429425D01*
X67260785Y-103403935D01*
X67259499Y-103378118D01*
X67258123Y-103369289D01*
X67254126Y-103344755D01*
X67252308Y-103337901D01*
X67251701Y-103330843D01*
X67236312Y-103277585D01*
X67235668Y-103275156D01*
X67233606Y-103263302D01*
X67230134Y-103254289D01*
X67222107Y-103224023D01*
X67218997Y-103217662D01*
X67217028Y-103210847D01*
X67213663Y-103202568D01*
X67208000Y-103188909D01*
X67197056Y-103168427D01*
X67188703Y-103146746D01*
X67169321Y-103116051D01*
X67167247Y-103111809D01*
X67165751Y-103109842D01*
X67149134Y-103078744D01*
X67134417Y-103060775D01*
X67122014Y-103041132D01*
X67094930Y-103012561D01*
X67069991Y-102982110D01*
X67058366Y-102972533D01*
X67054236Y-102967670D01*
X67046709Y-102961692D01*
X67036084Y-102950483D01*
X67029292Y-102944676D01*
X67021680Y-102938259D01*
X66993788Y-102919068D01*
X66980663Y-102907486D01*
X66976383Y-102904992D01*
X66973587Y-102902689D01*
X66969978Y-102900747D01*
X66956427Y-102889984D01*
X66936886Y-102879916D01*
X66918779Y-102867457D01*
X66892509Y-102856127D01*
X66872738Y-102844608D01*
X66859498Y-102840042D01*
X66845393Y-102832775D01*
X66837065Y-102829535D01*
X66833942Y-102828345D01*
X66818031Y-102824005D01*
X66804086Y-102817990D01*
X66781418Y-102813118D01*
X66754656Y-102803889D01*
X66745949Y-102801875D01*
X66727114Y-102797656D01*
X66724951Y-102797389D01*
X66722874Y-102796721D01*
X66714128Y-102794888D01*
X66672518Y-102786470D01*
X66672367Y-102786455D01*
X66669005Y-102785770D01*
X66663965Y-102784780D01*
X66666394Y-102780812D01*
X66695296Y-102732855D01*
X66703501Y-102715634D01*
X66713963Y-102699688D01*
X66718057Y-102691745D01*
X66735021Y-102658261D01*
X66753430Y-102610968D01*
X66773560Y-102564394D01*
X66776228Y-102555865D01*
X66782951Y-102533841D01*
X66784522Y-102526034D01*
X66787398Y-102518600D01*
X66796828Y-102464861D01*
X66807585Y-102411388D01*
X66807609Y-102403419D01*
X66808986Y-102395573D01*
X66807799Y-102341021D01*
X66807965Y-102286482D01*
X66806617Y-102279565D01*
X66806632Y-102278288D01*
X66806408Y-102277084D01*
X66806269Y-102270697D01*
X66805142Y-102261832D01*
X66803318Y-102248254D01*
X66792995Y-102204402D01*
X66785323Y-102160989D01*
X66784324Y-102158415D01*
X66783779Y-102155489D01*
X66778167Y-102141417D01*
X66774696Y-102126671D01*
X66756185Y-102085953D01*
X66740109Y-102044553D01*
X66738578Y-102042143D01*
X66737512Y-102039469D01*
X66733352Y-102031560D01*
X66733306Y-102031474D01*
X66727398Y-102022629D01*
X66723004Y-102012964D01*
X66697132Y-101976887D01*
X66673142Y-101939117D01*
X66667588Y-101932116D01*
X66653239Y-101914282D01*
X66641457Y-101902260D01*
X66631511Y-101888684D01*
X66625505Y-101882067D01*
X66593768Y-101847587D01*
X66591981Y-101845991D01*
X66590518Y-101844081D01*
X66584371Y-101837595D01*
X66538684Y-101790046D01*
X66538637Y-101790006D01*
X66533130Y-101784337D01*
X66476936Y-101727291D01*
X66476833Y-101727205D01*
X66472478Y-101722810D01*
X66409214Y-101659843D01*
X66409103Y-101659753D01*
X66406880Y-101657532D01*
X66399747Y-101650504D01*
X66399625Y-101650405D01*
X66395819Y-101646668D01*
X66316091Y-101569461D01*
X66313358Y-101567289D01*
X66311069Y-101564650D01*
X66304539Y-101558549D01*
X66243012Y-101501859D01*
X66234126Y-101495149D01*
X66226422Y-101487096D01*
X66219603Y-101481321D01*
X66175039Y-101444100D01*
X66147454Y-101425305D01*
X66121698Y-101404076D01*
X66114245Y-101399145D01*
X66085410Y-101380350D01*
X66034566Y-101353887D01*
X65984094Y-101326582D01*
X65979175Y-101325058D01*
X65974612Y-101322683D01*
X65919632Y-101306610D01*
X65916354Y-101305595D01*
X65898344Y-101298508D01*
X65886617Y-101296382D01*
X65864784Y-101289617D01*
X65856018Y-101287880D01*
X65843317Y-101285454D01*
X65809181Y-101282339D01*
X65775442Y-101276221D01*
X65747121Y-101276677D01*
X65718927Y-101274104D01*
X65684838Y-101277678D01*
X65650553Y-101278230D01*
X65622866Y-101284177D01*
X65594702Y-101287130D01*
X65561941Y-101297262D01*
X65528431Y-101304460D01*
X65502434Y-101315667D01*
X65475373Y-101324037D01*
X65445210Y-101340337D01*
X65413730Y-101353908D01*
X65405939Y-101358284D01*
X65387403Y-101368866D01*
X65378655Y-101375065D01*
X65369021Y-101379771D01*
X65361446Y-101384512D01*
X65322979Y-101408957D01*
X65322874Y-101409039D01*
X65322746Y-101409104D01*
X65315239Y-101413953D01*
X65303542Y-101421625D01*
X65298256Y-101394431D01*
X65298230Y-101394345D01*
X65296785Y-101387095D01*
X65291617Y-101362073D01*
X65290307Y-101357858D01*
X65289779Y-101353470D01*
X65287790Y-101344758D01*
X65287700Y-101344376D01*
X65283469Y-101331987D01*
X65282422Y-101324955D01*
X65281909Y-101323520D01*
X65280997Y-101318379D01*
X65278525Y-101309792D01*
X65275379Y-101299148D01*
X65261103Y-101263923D01*
X65254536Y-101242798D01*
X65250405Y-101235180D01*
X65247329Y-101226174D01*
X65246780Y-101225226D01*
X65240386Y-101207334D01*
X65233502Y-101195817D01*
X65228465Y-101183387D01*
X65209355Y-101154252D01*
X65203183Y-101141344D01*
X65191983Y-101126348D01*
X65176306Y-101100119D01*
X65170945Y-101092970D01*
X65164830Y-101084932D01*
X65161619Y-101081473D01*
X65159960Y-101078943D01*
X65147250Y-101065991D01*
X65145466Y-101064070D01*
X65128438Y-101041271D01*
X65103087Y-101018410D01*
X65079858Y-100993383D01*
X65056808Y-100976677D01*
X65035678Y-100957622D01*
X65006372Y-100940121D01*
X64978722Y-100920081D01*
X64952871Y-100908172D01*
X64928439Y-100893582D01*
X64920330Y-100889827D01*
X64907581Y-100884032D01*
X64892785Y-100878982D01*
X64878895Y-100871828D01*
X64865794Y-100868058D01*
X64865275Y-100867819D01*
X64863366Y-100867359D01*
X64833792Y-100858850D01*
X64789369Y-100843689D01*
X64773884Y-100841611D01*
X64758861Y-100837288D01*
X64750062Y-100835728D01*
X64727015Y-100831808D01*
X64698439Y-100829783D01*
X64670236Y-100824745D01*
X64661323Y-100824102D01*
X64624314Y-100821690D01*
X64615372Y-100821982D01*
X64606496Y-100820777D01*
X64597564Y-100820508D01*
X64542929Y-100819238D01*
X64542042Y-100819304D01*
X64541156Y-100819199D01*
X64532221Y-100819079D01*
X64456297Y-100818585D01*
X64456152Y-100818598D01*
X64452672Y-100818571D01*
X64351795Y-100818486D01*
X64351759Y-100818489D01*
X64351256Y-100818486D01*
X64338200Y-100818486D01*
X64338177Y-100818488D01*
X64337818Y-100818486D01*
X64233908Y-100818548D01*
X64233763Y-100818562D01*
X64230786Y-100818558D01*
X64152242Y-100818988D01*
X64151916Y-100819022D01*
X64151579Y-100818991D01*
X64142643Y-100819112D01*
X64085799Y-100820276D01*
X64078188Y-100821180D01*
X64070536Y-100820771D01*
X64061611Y-100821229D01*
X64022804Y-100823494D01*
X63997687Y-100827445D01*
X63972277Y-100828460D01*
X63963435Y-100829749D01*
X63939001Y-100833482D01*
X63931456Y-100835403D01*
X63923693Y-100836011D01*
X63870973Y-100850805D01*
X63868741Y-100851374D01*
X63857250Y-100853258D01*
X63848526Y-100856522D01*
X63817958Y-100864306D01*
X63810935Y-100867654D01*
X63803433Y-100869759D01*
X63795129Y-100873060D01*
X63781404Y-100878626D01*
X63761408Y-100889113D01*
X63740263Y-100897024D01*
X63709684Y-100915919D01*
X63705207Y-100918053D01*
X63702774Y-100919866D01*
X63670789Y-100936641D01*
X63653206Y-100950817D01*
X63634005Y-100962681D01*
X63604703Y-100989920D01*
X63573549Y-101015037D01*
X63559061Y-101032349D01*
X63542522Y-101047724D01*
X63536649Y-101054459D01*
X63529971Y-101062226D01*
X63508598Y-101092650D01*
X63493387Y-101110826D01*
X63484984Y-101126159D01*
X63459298Y-101162447D01*
X63458831Y-101163491D01*
X63458170Y-101164432D01*
X63440881Y-101203467D01*
X63434071Y-101214779D01*
X63429996Y-101226066D01*
X63425699Y-101233718D01*
X63420989Y-101248112D01*
X63408308Y-101276470D01*
X63407633Y-101278537D01*
X63407588Y-101278638D01*
X63407562Y-101278754D01*
X63405533Y-101284965D01*
X63402237Y-101295297D01*
X63398201Y-101314137D01*
X63391657Y-101332262D01*
X63389518Y-101340939D01*
X63389198Y-101342277D01*
X63388483Y-101347460D01*
X63386857Y-101352431D01*
X63384981Y-101361168D01*
X63379975Y-101385304D01*
X63379967Y-101385375D01*
X63378422Y-101393032D01*
X63372868Y-101421574D01*
X63366690Y-101417550D01*
X63324301Y-101390357D01*
X63318881Y-101387586D01*
X63314027Y-101383902D01*
X63306382Y-101379273D01*
X63283034Y-101365358D01*
X63279014Y-101363467D01*
X63277477Y-101362348D01*
X63255878Y-101352346D01*
X63233538Y-101338730D01*
X63225462Y-101334903D01*
X63223246Y-101333871D01*
X63195026Y-101323955D01*
X63170011Y-101312186D01*
X63168148Y-101311722D01*
X63164134Y-101309863D01*
X63134336Y-101302628D01*
X63105404Y-101292461D01*
X63073793Y-101287927D01*
X63042754Y-101280391D01*
X63012112Y-101279082D01*
X62981763Y-101274729D01*
X62949871Y-101276422D01*
X62917962Y-101275058D01*
X62887657Y-101279724D01*
X62857032Y-101281349D01*
X62826076Y-101289204D01*
X62810082Y-101291667D01*
X62805569Y-101292155D01*
X62804271Y-101292561D01*
X62794510Y-101294064D01*
X62785869Y-101296340D01*
X62768901Y-101300935D01*
X62746707Y-101309345D01*
X62735963Y-101312071D01*
X62724493Y-101317527D01*
X62686363Y-101329459D01*
X62669768Y-101338498D01*
X62652099Y-101345193D01*
X62615040Y-101368307D01*
X62576673Y-101389205D01*
X62569316Y-101394277D01*
X62537624Y-101416448D01*
X62517288Y-101433864D01*
X62495125Y-101448906D01*
X62488296Y-101454670D01*
X62440646Y-101495462D01*
X62434327Y-101502044D01*
X62426993Y-101507489D01*
X62420415Y-101513538D01*
X62355569Y-101573996D01*
X62354155Y-101575599D01*
X62352460Y-101576913D01*
X62346008Y-101583096D01*
X62279809Y-101647418D01*
X62279740Y-101647499D01*
X62274794Y-101652344D01*
X62210977Y-101715729D01*
X62210889Y-101715836D01*
X62206596Y-101720123D01*
X62149481Y-101777962D01*
X62149431Y-101778024D01*
X62144133Y-101783443D01*
X62097158Y-101832167D01*
X62096016Y-101833611D01*
X62094618Y-101834816D01*
X62088498Y-101841328D01*
X62055100Y-101877363D01*
X62047023Y-101887994D01*
X62037405Y-101897269D01*
X62031656Y-101904111D01*
X62015275Y-101923885D01*
X61990427Y-101960667D01*
X61963532Y-101995985D01*
X61958891Y-102003621D01*
X61958283Y-102004639D01*
X61958074Y-102005081D01*
X61957780Y-102005480D01*
X61952329Y-102017064D01*
X61945355Y-102027387D01*
X61927450Y-102069899D01*
X61904924Y-102117575D01*
X61904804Y-102118053D01*
X61904595Y-102118497D01*
X61901133Y-102132381D01*
X61896871Y-102142500D01*
X61888637Y-102182466D01*
X61874518Y-102238723D01*
X61874493Y-102239214D01*
X61874374Y-102239692D01*
X61873130Y-102248541D01*
X61871319Y-102262111D01*
X61871023Y-102270579D01*
X61869306Y-102278878D01*
X61868845Y-102332917D01*
X61866957Y-102386941D01*
X61868312Y-102395310D01*
X61868240Y-102403780D01*
X61878283Y-102456882D01*
X61886924Y-102510240D01*
X61889877Y-102518180D01*
X61891452Y-102526510D01*
X61894022Y-102535068D01*
X61900843Y-102557229D01*
X61920278Y-102603666D01*
X61937933Y-102650808D01*
X61941925Y-102658803D01*
X61959068Y-102692548D01*
X61969199Y-102708431D01*
X61977073Y-102725553D01*
X61981636Y-102733237D01*
X62010783Y-102781559D01*
X62013102Y-102784670D01*
X61986889Y-102789868D01*
X61986747Y-102789911D01*
X61981555Y-102790949D01*
X61948607Y-102797774D01*
X61943666Y-102799313D01*
X61938532Y-102799946D01*
X61929826Y-102801960D01*
X61921745Y-102803889D01*
X61899098Y-102811698D01*
X61875685Y-102816721D01*
X61844073Y-102830339D01*
X61829354Y-102834925D01*
X61825199Y-102837181D01*
X61803662Y-102844608D01*
X61792797Y-102850938D01*
X61789115Y-102852252D01*
X61778502Y-102858588D01*
X61760972Y-102866140D01*
X61753180Y-102870515D01*
X61744832Y-102875278D01*
X61716128Y-102895607D01*
X61695737Y-102907487D01*
X61693943Y-102909070D01*
X61681868Y-102916279D01*
X61663299Y-102933021D01*
X61642900Y-102947468D01*
X61617020Y-102974747D01*
X61589100Y-102999920D01*
X61574139Y-103019946D01*
X61556932Y-103038083D01*
X61542474Y-103060960D01*
X61536325Y-103067945D01*
X61529488Y-103079713D01*
X61514344Y-103099984D01*
X61509773Y-103107663D01*
X61503472Y-103118420D01*
X61496214Y-103134154D01*
X61490201Y-103143669D01*
X61485994Y-103154577D01*
X61473578Y-103175947D01*
X61463784Y-103204462D01*
X61451155Y-103231841D01*
X61443546Y-103263384D01*
X61442225Y-103267231D01*
X61439765Y-103273083D01*
X61439098Y-103276334D01*
X61433003Y-103294079D01*
X61431000Y-103302788D01*
X61426461Y-103323167D01*
X61423736Y-103345505D01*
X61421864Y-103353264D01*
X61421500Y-103362089D01*
X61414656Y-103395439D01*
X61413785Y-103404333D01*
X61410726Y-103437969D01*
X61410816Y-103450767D01*
X61408922Y-103463422D01*
X61408531Y-103472350D01*
X61406668Y-103522871D01*
X61406854Y-103525918D01*
X61406472Y-103528954D01*
X61406290Y-103537888D01*
X61405339Y-103608925D01*
X61405351Y-103609061D01*
X61405286Y-103615326D01*
X61404964Y-103710511D01*
X61404973Y-103710608D01*
X61404960Y-103712397D01*
X61404943Y-103751413D01*
X61404945Y-103751432D01*
X61404943Y-103751692D01*
X61404943Y-104068999D01*
X61410837Y-104129113D01*
X61416352Y-104189304D01*
X61416932Y-104191271D01*
X61417132Y-104193309D01*
X61434585Y-104251116D01*
X61451691Y-104309107D01*
X61452642Y-104310924D01*
X61453234Y-104312884D01*
X61481597Y-104366228D01*
X61509626Y-104419764D01*
X61510910Y-104421359D01*
X61511873Y-104423170D01*
X61550060Y-104469991D01*
X61587952Y-104517061D01*
X61589524Y-104518379D01*
X61590818Y-104519965D01*
X61637296Y-104558415D01*
X61683684Y-104597291D01*
X61685484Y-104598279D01*
X61687060Y-104599583D01*
X61740171Y-104628300D01*
X61793177Y-104657398D01*
X61795130Y-104658016D01*
X61796933Y-104658991D01*
X61854643Y-104676855D01*
X61912259Y-104695094D01*
X61916105Y-104695881D01*
X61916253Y-104695927D01*
X61916409Y-104695943D01*
X61921014Y-104696886D01*
X61997214Y-104711926D01*
X61997357Y-104711940D01*
X62000233Y-104712514D01*
X62008550Y-104714114D01*
X61959823Y-104785789D01*
X61959817Y-104785796D01*
X61959813Y-104785804D01*
X61959576Y-104786152D01*
X61930657Y-104839173D01*
X61899934Y-104895411D01*
X61899868Y-104895621D01*
X61899766Y-104895808D01*
X61881438Y-104954261D01*
X61862483Y-105014571D01*
X61862459Y-105014787D01*
X61862395Y-105014992D01*
X61855813Y-105075485D01*
X61848888Y-105138735D01*
X61848907Y-105138954D01*
X61848884Y-105139165D01*
X61854246Y-105200574D01*
X61859671Y-105263175D01*
X61859731Y-105263383D01*
X61859750Y-105263598D01*
X61876793Y-105322295D01*
X61894418Y-105383151D01*
X61894519Y-105383346D01*
X61894578Y-105383550D01*
X61922893Y-105438196D01*
X61951808Y-105494092D01*
X61951944Y-105494262D01*
X61952042Y-105494452D01*
X61989984Y-105541997D01*
X61998250Y-105552370D01*
X61960579Y-105545376D01*
X61923098Y-105535489D01*
X61899324Y-105534003D01*
X61875896Y-105529653D01*
X61866988Y-105528949D01*
X61797247Y-105523928D01*
X61780227Y-105524368D01*
X61763328Y-105522390D01*
X61717925Y-105525981D01*
X61672383Y-105527159D01*
X61655781Y-105530895D01*
X61638811Y-105532237D01*
X61630026Y-105533869D01*
X61564336Y-105546545D01*
X61560645Y-105547640D01*
X61556824Y-105548042D01*
X61520990Y-105559139D01*
X61507164Y-105555501D01*
X61469520Y-105542671D01*
X61446913Y-105539646D01*
X61424846Y-105533839D01*
X61385146Y-105531381D01*
X61345718Y-105526105D01*
X61336785Y-105525852D01*
X61266365Y-105524351D01*
X61239739Y-105526390D01*
X61213063Y-105525437D01*
X61177618Y-105531148D01*
X61141824Y-105533889D01*
X61116116Y-105541057D01*
X61089747Y-105545305D01*
X61081122Y-105547642D01*
X61013000Y-105566601D01*
X60983734Y-105577925D01*
X60953511Y-105586345D01*
X60925630Y-105600408D01*
X60896510Y-105611676D01*
X60870010Y-105628463D01*
X60841989Y-105642597D01*
X60834475Y-105647434D01*
X60777049Y-105684965D01*
X60753808Y-105703629D01*
X60728780Y-105719820D01*
X60705228Y-105742643D01*
X60679660Y-105763175D01*
X60660491Y-105785992D01*
X60639079Y-105806741D01*
X60633347Y-105813597D01*
X60605649Y-105847196D01*
X60581648Y-105882913D01*
X60555517Y-105917098D01*
X60546886Y-105934643D01*
X60535982Y-105950869D01*
X60519382Y-105990550D01*
X60500380Y-106029176D01*
X60497296Y-106037563D01*
X60475353Y-106098531D01*
X60467507Y-106129552D01*
X60456736Y-106159686D01*
X60452229Y-106189954D01*
X60444725Y-106219624D01*
X60443054Y-106251573D01*
X60438340Y-106283229D01*
X60437955Y-106292157D01*
X60436212Y-106340401D01*
X60437855Y-106367031D01*
X60436506Y-106393681D01*
X60436990Y-106402604D01*
X60439219Y-106439024D01*
X60438196Y-106452692D01*
X60432548Y-106503043D01*
X60432486Y-106511979D01*
X60432486Y-106574166D01*
X60434881Y-106598588D01*
X60434361Y-106623129D01*
X60435108Y-106632034D01*
X60438950Y-106674351D01*
X60444889Y-106705520D01*
X60447802Y-106737125D01*
X60456552Y-106766731D01*
X60462329Y-106797050D01*
X60474207Y-106826467D01*
X60483204Y-106856909D01*
X60486619Y-106865167D01*
X60501668Y-106900852D01*
X60508941Y-106914266D01*
X60514157Y-106928605D01*
X60538655Y-106969072D01*
X60561202Y-107010658D01*
X60570941Y-107022403D01*
X60578843Y-107035456D01*
X60584244Y-107042575D01*
X60615787Y-107083549D01*
X60627187Y-107095692D01*
X60636733Y-107109344D01*
X60642592Y-107116091D01*
X60647280Y-107121415D01*
X60654404Y-107128067D01*
X60660344Y-107135806D01*
X60666496Y-107142287D01*
X60701582Y-107178740D01*
X60705385Y-107181987D01*
X60498789Y-107096412D01*
X60168420Y-107030698D01*
X59831580Y-107030698D01*
X59501211Y-107096412D01*
X59190011Y-107225316D01*
X58909939Y-107412454D01*
X58671756Y-107650637D01*
X58484618Y-107930709D01*
X58355714Y-108241909D01*
X58290000Y-108572278D01*
X58290000Y-108909118D01*
X58355714Y-109239487D01*
X58376420Y-109289476D01*
X56042103Y-111623794D01*
X56013099Y-111647597D01*
X55957971Y-111714772D01*
X55918126Y-111763322D01*
X55915259Y-111768686D01*
X55847554Y-111895352D01*
X55804097Y-112038613D01*
X55793100Y-112150266D01*
X55793100Y-112150276D01*
X55789424Y-112187598D01*
X55793100Y-112224920D01*
X55793101Y-126949968D01*
X55789424Y-126987300D01*
X55804098Y-127136285D01*
X55847554Y-127279546D01*
X55918126Y-127411576D01*
X55989301Y-127498302D01*
X56013100Y-127527301D01*
X56042098Y-127551099D01*
X59653900Y-131162902D01*
X59653901Y-135045800D01*
X59402904Y-134794803D01*
X59379101Y-134765799D01*
X59263376Y-134670826D01*
X59131347Y-134600254D01*
X58988086Y-134556797D01*
X58876433Y-134545800D01*
X58876422Y-134545800D01*
X58839100Y-134542124D01*
X58801778Y-134545800D01*
X56481522Y-134545800D01*
X56444199Y-134542124D01*
X56406876Y-134545800D01*
X56406867Y-134545800D01*
X56295214Y-134556797D01*
X56151953Y-134600254D01*
X56019924Y-134670826D01*
X55904199Y-134765799D01*
X55880401Y-134794797D01*
X52073887Y-138601312D01*
X51891335Y-138565000D01*
X51608665Y-138565000D01*
X51331426Y-138620147D01*
X51070273Y-138728320D01*
X50835241Y-138885363D01*
X50660000Y-139060604D01*
X50660000Y-134559396D01*
X50835241Y-134734637D01*
X51070273Y-134891680D01*
X51331426Y-134999853D01*
X51608665Y-135055000D01*
X51891335Y-135055000D01*
X52168574Y-134999853D01*
X52429727Y-134891680D01*
X52664759Y-134734637D01*
X52864637Y-134534759D01*
X53021680Y-134299727D01*
X53129853Y-134038574D01*
X53185000Y-133761335D01*
X53185000Y-133478665D01*
X53129853Y-133201426D01*
X53021680Y-132940273D01*
X52864637Y-132705241D01*
X52664759Y-132505363D01*
X52429727Y-132348320D01*
X52168574Y-132240147D01*
X51891335Y-132185000D01*
X51608665Y-132185000D01*
X51331426Y-132240147D01*
X51070273Y-132348320D01*
X50835241Y-132505363D01*
X50660000Y-132680604D01*
X50660000Y-129996599D01*
X53255000Y-129996599D01*
X53255000Y-130712594D01*
X53283867Y-131005684D01*
X53397943Y-131381743D01*
X53583193Y-131728322D01*
X53832497Y-132032100D01*
X54136275Y-132281404D01*
X54482853Y-132466654D01*
X54858912Y-132580730D01*
X55250000Y-132619249D01*
X55641087Y-132580730D01*
X56017146Y-132466654D01*
X56363725Y-132281404D01*
X56667503Y-132032100D01*
X56916807Y-131728322D01*
X57102057Y-131381744D01*
X57216133Y-131005685D01*
X57245000Y-130712595D01*
X57245000Y-129996600D01*
X57216133Y-129703510D01*
X57102057Y-129327450D01*
X56916807Y-128980872D01*
X56667503Y-128677094D01*
X56363725Y-128427790D01*
X56017147Y-128242540D01*
X55641088Y-128128464D01*
X55250000Y-128089945D01*
X54858913Y-128128464D01*
X54482854Y-128242540D01*
X54136276Y-128427790D01*
X53832498Y-128677094D01*
X53583193Y-128980872D01*
X53397943Y-129327450D01*
X53283867Y-129703509D01*
X53255000Y-129996599D01*
X50660000Y-129996599D01*
X50660000Y-126939396D01*
X50835241Y-127114637D01*
X51070273Y-127271680D01*
X51331426Y-127379853D01*
X51608665Y-127435000D01*
X51891335Y-127435000D01*
X52168574Y-127379853D01*
X52429727Y-127271680D01*
X52664759Y-127114637D01*
X52864637Y-126914759D01*
X53021680Y-126679727D01*
X53129853Y-126418574D01*
X53185000Y-126141335D01*
X53185000Y-125858665D01*
X53129853Y-125581426D01*
X53021680Y-125320273D01*
X52864637Y-125085241D01*
X52664759Y-124885363D01*
X52429727Y-124728320D01*
X52168574Y-124620147D01*
X51891335Y-124565000D01*
X51608665Y-124565000D01*
X51331426Y-124620147D01*
X51070273Y-124728320D01*
X50835241Y-124885363D01*
X50660000Y-125060604D01*
X50660000Y-114850000D01*
X51511928Y-114850000D01*
X51524188Y-114974482D01*
X51560498Y-115094180D01*
X51619463Y-115204494D01*
X51698815Y-115301185D01*
X51795506Y-115380537D01*
X51905820Y-115439502D01*
X52025518Y-115475812D01*
X52150000Y-115488072D01*
X52714250Y-115485000D01*
X52873000Y-115326250D01*
X52873000Y-114127000D01*
X53127000Y-114127000D01*
X53127000Y-115326250D01*
X53285750Y-115485000D01*
X53850000Y-115488072D01*
X53974482Y-115475812D01*
X54094180Y-115439502D01*
X54204494Y-115380537D01*
X54301185Y-115301185D01*
X54380537Y-115204494D01*
X54439502Y-115094180D01*
X54475812Y-114974482D01*
X54488072Y-114850000D01*
X54485000Y-114285750D01*
X54326250Y-114127000D01*
X53127000Y-114127000D01*
X52873000Y-114127000D01*
X51673750Y-114127000D01*
X51515000Y-114285750D01*
X51511928Y-114850000D01*
X50660000Y-114850000D01*
X50660000Y-100492702D01*
X52186903Y-100492702D01*
X52258486Y-100736671D01*
X52513996Y-100857571D01*
X52788184Y-100926300D01*
X53070512Y-100940217D01*
X53350130Y-100898787D01*
X53616292Y-100803603D01*
X53741514Y-100736671D01*
X53813097Y-100492702D01*
X53000000Y-99679605D01*
X52186903Y-100492702D01*
X50660000Y-100492702D01*
X50660000Y-99570512D01*
X51559783Y-99570512D01*
X51601213Y-99850130D01*
X51696397Y-100116292D01*
X51763329Y-100241514D01*
X52007298Y-100313097D01*
X52820395Y-99500000D01*
X53179605Y-99500000D01*
X53992702Y-100313097D01*
X54236671Y-100241514D01*
X54357571Y-99986004D01*
X54426300Y-99711816D01*
X54440217Y-99429488D01*
X54398787Y-99149870D01*
X54303603Y-98883708D01*
X54236671Y-98758486D01*
X53992702Y-98686903D01*
X53179605Y-99500000D01*
X52820395Y-99500000D01*
X52007298Y-98686903D01*
X51763329Y-98758486D01*
X51642429Y-99013996D01*
X51573700Y-99288184D01*
X51559783Y-99570512D01*
X50660000Y-99570512D01*
X50660000Y-98507298D01*
X52186903Y-98507298D01*
X53000000Y-99320395D01*
X53813097Y-98507298D01*
X53741514Y-98263329D01*
X53486004Y-98142429D01*
X53211816Y-98073700D01*
X52929488Y-98059783D01*
X52649870Y-98101213D01*
X52383708Y-98196397D01*
X52258486Y-98263329D01*
X52186903Y-98507298D01*
X50660000Y-98507298D01*
X50660000Y-84514788D01*
X50728320Y-84679727D01*
X50885363Y-84914759D01*
X51085241Y-85114637D01*
X51240000Y-85218044D01*
X51240001Y-90842668D01*
X51236324Y-90880000D01*
X51250998Y-91028985D01*
X51294454Y-91172246D01*
X51365026Y-91304276D01*
X51418142Y-91368997D01*
X51460000Y-91420001D01*
X51488998Y-91443799D01*
X51601312Y-91556113D01*
X51565000Y-91738665D01*
X51565000Y-92021335D01*
X51620147Y-92298574D01*
X51728320Y-92559727D01*
X51885363Y-92794759D01*
X52085241Y-92994637D01*
X52240001Y-93098044D01*
X52240001Y-93742368D01*
X52236324Y-93779700D01*
X52250998Y-93928685D01*
X52294454Y-94071946D01*
X52365026Y-94203976D01*
X52436201Y-94290702D01*
X52460000Y-94319701D01*
X52488998Y-94343499D01*
X55170800Y-97025302D01*
X55170801Y-105674397D01*
X53366408Y-107478791D01*
X53146260Y-107435000D01*
X52853740Y-107435000D01*
X52566842Y-107492068D01*
X52296589Y-107604010D01*
X52053368Y-107766525D01*
X51846525Y-107973368D01*
X51684010Y-108216589D01*
X51572068Y-108486842D01*
X51515000Y-108773740D01*
X51515000Y-109066260D01*
X51572068Y-109353158D01*
X51684010Y-109623411D01*
X51846525Y-109866632D01*
X52053368Y-110073475D01*
X52227760Y-110190000D01*
X52053368Y-110306525D01*
X51846525Y-110513368D01*
X51684010Y-110756589D01*
X51572068Y-111026842D01*
X51515000Y-111313740D01*
X51515000Y-111606260D01*
X51572068Y-111893158D01*
X51684010Y-112163411D01*
X51846525Y-112406632D01*
X51978380Y-112538487D01*
X51905820Y-112560498D01*
X51795506Y-112619463D01*
X51698815Y-112698815D01*
X51619463Y-112795506D01*
X51560498Y-112905820D01*
X51524188Y-113025518D01*
X51511928Y-113150000D01*
X51515000Y-113714250D01*
X51673750Y-113873000D01*
X52873000Y-113873000D01*
X52873000Y-113853000D01*
X53127000Y-113853000D01*
X53127000Y-113873000D01*
X54326250Y-113873000D01*
X54485000Y-113714250D01*
X54488072Y-113150000D01*
X54475812Y-113025518D01*
X54439502Y-112905820D01*
X54380537Y-112795506D01*
X54301185Y-112698815D01*
X54204494Y-112619463D01*
X54094180Y-112560498D01*
X54021620Y-112538487D01*
X54153475Y-112406632D01*
X54278178Y-112220000D01*
X54428178Y-112220000D01*
X54465500Y-112223676D01*
X54502822Y-112220000D01*
X54502833Y-112220000D01*
X54614486Y-112209003D01*
X54757747Y-112165546D01*
X54889776Y-112094974D01*
X55005501Y-112000001D01*
X55029304Y-111970997D01*
X57508603Y-109491699D01*
X57537601Y-109467901D01*
X57632574Y-109352176D01*
X57703146Y-109220147D01*
X57746603Y-109076886D01*
X57757600Y-108965233D01*
X57757600Y-108965224D01*
X57761276Y-108927901D01*
X57757600Y-108890578D01*
X57757600Y-102464000D01*
X58465000Y-101756600D01*
X58465000Y-102013983D01*
X58523989Y-102310542D01*
X58639701Y-102589894D01*
X58807688Y-102841304D01*
X59021495Y-103055111D01*
X59272905Y-103223098D01*
X59552257Y-103338810D01*
X59848816Y-103397799D01*
X60151184Y-103397799D01*
X60447743Y-103338810D01*
X60727095Y-103223098D01*
X60978505Y-103055111D01*
X61192312Y-102841304D01*
X61360299Y-102589894D01*
X61476011Y-102310542D01*
X61535000Y-102013983D01*
X61535000Y-101711615D01*
X61476011Y-101415056D01*
X61360299Y-101135704D01*
X61192312Y-100884294D01*
X60978505Y-100670487D01*
X60888032Y-100610035D01*
X61090061Y-100475043D01*
X61328244Y-100236860D01*
X61515382Y-99956788D01*
X61536088Y-99906799D01*
X65593935Y-99906799D01*
X65620147Y-100038574D01*
X65728320Y-100299727D01*
X65885363Y-100534759D01*
X66085241Y-100734637D01*
X66320273Y-100891680D01*
X66581426Y-100999853D01*
X66858665Y-101055000D01*
X67141335Y-101055000D01*
X67418574Y-100999853D01*
X67679727Y-100891680D01*
X67914759Y-100734637D01*
X68114637Y-100534759D01*
X68271680Y-100299727D01*
X68379853Y-100038574D01*
X68435000Y-99761335D01*
X68435000Y-99478665D01*
X68379853Y-99201426D01*
X68271680Y-98940273D01*
X68114637Y-98705241D01*
X67914759Y-98505363D01*
X67679727Y-98348320D01*
X67418574Y-98240147D01*
X67141335Y-98185000D01*
X66858665Y-98185000D01*
X66581426Y-98240147D01*
X66320273Y-98348320D01*
X66262685Y-98386799D01*
X61834801Y-98386799D01*
X64392003Y-95829598D01*
X64421001Y-95805800D01*
X64515974Y-95690075D01*
X64586546Y-95558046D01*
X64630003Y-95414785D01*
X64641000Y-95303132D01*
X64641000Y-95303122D01*
X64644676Y-95265799D01*
X64641000Y-95228476D01*
X64641000Y-92992702D01*
X66186903Y-92992702D01*
X66258486Y-93236671D01*
X66513996Y-93357571D01*
X66788184Y-93426300D01*
X67070512Y-93440217D01*
X67350130Y-93398787D01*
X67616292Y-93303603D01*
X67741514Y-93236671D01*
X67813097Y-92992702D01*
X67000000Y-92179605D01*
X66186903Y-92992702D01*
X64641000Y-92992702D01*
X64641000Y-92070512D01*
X65559783Y-92070512D01*
X65601213Y-92350130D01*
X65696397Y-92616292D01*
X65763329Y-92741514D01*
X66007298Y-92813097D01*
X66820395Y-92000000D01*
X67179605Y-92000000D01*
X67992702Y-92813097D01*
X68236671Y-92741514D01*
X68357571Y-92486004D01*
X68426300Y-92211816D01*
X68440217Y-91929488D01*
X68398787Y-91649870D01*
X68303603Y-91383708D01*
X68236671Y-91258486D01*
X67992702Y-91186903D01*
X67179605Y-92000000D01*
X66820395Y-92000000D01*
X66007298Y-91186903D01*
X65763329Y-91258486D01*
X65642429Y-91513996D01*
X65573700Y-91788184D01*
X65559783Y-92070512D01*
X64641000Y-92070512D01*
X64641000Y-91007298D01*
X66186903Y-91007298D01*
X67000000Y-91820395D01*
X67813097Y-91007298D01*
X67741514Y-90763329D01*
X67486004Y-90642429D01*
X67211816Y-90573700D01*
X66929488Y-90559783D01*
X66649870Y-90601213D01*
X66383708Y-90696397D01*
X66258486Y-90763329D01*
X66186903Y-91007298D01*
X64641000Y-91007298D01*
X64641000Y-88433801D01*
X67676114Y-85398688D01*
X67858665Y-85435000D01*
X68141335Y-85435000D01*
X68418574Y-85379853D01*
X68679727Y-85271680D01*
X68914759Y-85114637D01*
X69114637Y-84914759D01*
X69271680Y-84679727D01*
X69340000Y-84514788D01*
X69340001Y-125060605D01*
G37*
X69340001Y-125060605D02*
X69164759Y-124885363D01*
X68929727Y-124728320D01*
X68668574Y-124620147D01*
X68391335Y-124565000D01*
X68108665Y-124565000D01*
X67831426Y-124620147D01*
X67570273Y-124728320D01*
X67335241Y-124885363D01*
X67135363Y-125085241D01*
X66978320Y-125320273D01*
X66870147Y-125581426D01*
X66815000Y-125858665D01*
X66815000Y-126141335D01*
X66870147Y-126418574D01*
X66978320Y-126679727D01*
X67135363Y-126914759D01*
X67335241Y-127114637D01*
X67570273Y-127271680D01*
X67831426Y-127379853D01*
X68108665Y-127435000D01*
X68391335Y-127435000D01*
X68668574Y-127379853D01*
X68929727Y-127271680D01*
X69164759Y-127114637D01*
X69340001Y-126939395D01*
X69340001Y-132680605D01*
X69164759Y-132505363D01*
X68929727Y-132348320D01*
X68668574Y-132240147D01*
X68391335Y-132185000D01*
X68108665Y-132185000D01*
X67831426Y-132240147D01*
X67570273Y-132348320D01*
X67335241Y-132505363D01*
X67135363Y-132705241D01*
X66978320Y-132940273D01*
X66870147Y-133201426D01*
X66815000Y-133478665D01*
X66815000Y-133761335D01*
X66870147Y-134038574D01*
X66978320Y-134299727D01*
X67135363Y-134534759D01*
X67335241Y-134734637D01*
X67570273Y-134891680D01*
X67831426Y-134999853D01*
X68108665Y-135055000D01*
X68391335Y-135055000D01*
X68668574Y-134999853D01*
X68929727Y-134891680D01*
X69164759Y-134734637D01*
X69340001Y-134559395D01*
X69340001Y-139060605D01*
X69164759Y-138885363D01*
X68929727Y-138728320D01*
X68668574Y-138620147D01*
X68391335Y-138565000D01*
X68108665Y-138565000D01*
X67831426Y-138620147D01*
X67570273Y-138728320D01*
X67335241Y-138885363D01*
X67135363Y-139085241D01*
X66978320Y-139320273D01*
X66870147Y-139581426D01*
X66815000Y-139858665D01*
X66815000Y-140141335D01*
X66851312Y-140323886D01*
X64806199Y-142369000D01*
X61287502Y-142369000D01*
X60760000Y-141841499D01*
X60760000Y-141692910D01*
X60978505Y-141546909D01*
X61192312Y-141333102D01*
X61250000Y-141246766D01*
X61307688Y-141333102D01*
X61521495Y-141546909D01*
X61772905Y-141714896D01*
X62052257Y-141830608D01*
X62348816Y-141889597D01*
X62651184Y-141889597D01*
X62947743Y-141830608D01*
X63227095Y-141714896D01*
X63478505Y-141546909D01*
X63692312Y-141333102D01*
X63860299Y-141081692D01*
X63976011Y-140802340D01*
X64035000Y-140505781D01*
X64035000Y-140203413D01*
X63983731Y-139945667D01*
X65242903Y-138686496D01*
X65271901Y-138662698D01*
X65366874Y-138546973D01*
X65437446Y-138414944D01*
X65480903Y-138271683D01*
X65491900Y-138160030D01*
X65491900Y-138160021D01*
X65495576Y-138122698D01*
X65491900Y-138085375D01*
X65491900Y-137235422D01*
X65495576Y-137198099D01*
X65491900Y-137160776D01*
X65491900Y-137160767D01*
X65480903Y-137049114D01*
X65437446Y-136905853D01*
X65366874Y-136773824D01*
X65271901Y-136658099D01*
X65242904Y-136634302D01*
X63205900Y-134597299D01*
X63205900Y-131877841D01*
X63332497Y-132032100D01*
X63636275Y-132281404D01*
X63982853Y-132466654D01*
X64358912Y-132580730D01*
X64750000Y-132619249D01*
X65141087Y-132580730D01*
X65517146Y-132466654D01*
X65863725Y-132281404D01*
X66167503Y-132032100D01*
X66416807Y-131728322D01*
X66602057Y-131381744D01*
X66716133Y-131005685D01*
X66745000Y-130712595D01*
X66745000Y-129996600D01*
X66716133Y-129703510D01*
X66602057Y-129327450D01*
X66416807Y-128980872D01*
X66167503Y-128677094D01*
X65863725Y-128427790D01*
X65517147Y-128242540D01*
X65141088Y-128128464D01*
X64750000Y-128089945D01*
X64358913Y-128128464D01*
X63982854Y-128242540D01*
X63636276Y-128427790D01*
X63332498Y-128677094D01*
X63083193Y-128980872D01*
X62897943Y-129327450D01*
X62783867Y-129703509D01*
X62783745Y-129704743D01*
X58684700Y-125605699D01*
X58684700Y-120820778D01*
X59115525Y-120820778D01*
X59199208Y-121074959D01*
X59471775Y-121205856D01*
X59764642Y-121281063D01*
X60066553Y-121297689D01*
X60365907Y-121255095D01*
X60651199Y-121154920D01*
X60800792Y-121074959D01*
X60884475Y-120820778D01*
X60000000Y-119936303D01*
X59115525Y-120820778D01*
X58684700Y-120820778D01*
X58684700Y-120558465D01*
X58935920Y-120641173D01*
X59820395Y-119756698D01*
X60179605Y-119756698D01*
X61064080Y-120641173D01*
X61318261Y-120557490D01*
X61449158Y-120284923D01*
X61524365Y-119992056D01*
X61540991Y-119690145D01*
X61498397Y-119390791D01*
X61398222Y-119105499D01*
X61318261Y-118955906D01*
X61064080Y-118872223D01*
X60179605Y-119756698D01*
X59820395Y-119756698D01*
X59806253Y-119742556D01*
X59985858Y-119562951D01*
X60000000Y-119577093D01*
X60884475Y-118692618D01*
X60834198Y-118539904D01*
X61090061Y-118368942D01*
X61328244Y-118130759D01*
X61515382Y-117850687D01*
X61644286Y-117539487D01*
X61710000Y-117209118D01*
X61710000Y-116872278D01*
X61644286Y-116541909D01*
X61623580Y-116491920D01*
X63265500Y-114850000D01*
X65511928Y-114850000D01*
X65524188Y-114974482D01*
X65560498Y-115094180D01*
X65619463Y-115204494D01*
X65698815Y-115301185D01*
X65795506Y-115380537D01*
X65905820Y-115439502D01*
X66025518Y-115475812D01*
X66150000Y-115488072D01*
X66714250Y-115485000D01*
X66873000Y-115326250D01*
X66873000Y-114127000D01*
X67127000Y-114127000D01*
X67127000Y-115326250D01*
X67285750Y-115485000D01*
X67850000Y-115488072D01*
X67974482Y-115475812D01*
X68094180Y-115439502D01*
X68204494Y-115380537D01*
X68301185Y-115301185D01*
X68380537Y-115204494D01*
X68439502Y-115094180D01*
X68475812Y-114974482D01*
X68488072Y-114850000D01*
X68485000Y-114285750D01*
X68326250Y-114127000D01*
X67127000Y-114127000D01*
X66873000Y-114127000D01*
X65673750Y-114127000D01*
X65515000Y-114285750D01*
X65511928Y-114850000D01*
X63265500Y-114850000D01*
X65791387Y-112324113D01*
X65846525Y-112406632D01*
X65978380Y-112538487D01*
X65905820Y-112560498D01*
X65795506Y-112619463D01*
X65698815Y-112698815D01*
X65619463Y-112795506D01*
X65560498Y-112905820D01*
X65524188Y-113025518D01*
X65511928Y-113150000D01*
X65515000Y-113714250D01*
X65673750Y-113873000D01*
X66873000Y-113873000D01*
X66873000Y-113853000D01*
X67127000Y-113853000D01*
X67127000Y-113873000D01*
X68326250Y-113873000D01*
X68485000Y-113714250D01*
X68488072Y-113150000D01*
X68475812Y-113025518D01*
X68439502Y-112905820D01*
X68380537Y-112795506D01*
X68301185Y-112698815D01*
X68204494Y-112619463D01*
X68094180Y-112560498D01*
X68021620Y-112538487D01*
X68153475Y-112406632D01*
X68315990Y-112163411D01*
X68427932Y-111893158D01*
X68485000Y-111606260D01*
X68485000Y-111313740D01*
X68427932Y-111026842D01*
X68315990Y-110756589D01*
X68153475Y-110513368D01*
X67946632Y-110306525D01*
X67772240Y-110190000D01*
X67946632Y-110073475D01*
X68153475Y-109866632D01*
X68315990Y-109623411D01*
X68427932Y-109353158D01*
X68485000Y-109066260D01*
X68485000Y-108773740D01*
X68427932Y-108486842D01*
X68315990Y-108216589D01*
X68153475Y-107973368D01*
X67946632Y-107766525D01*
X67703411Y-107604010D01*
X67433158Y-107492068D01*
X67420320Y-107489514D01*
X67431989Y-107481478D01*
X67433553Y-107480480D01*
X67433845Y-107480200D01*
X67439169Y-107476534D01*
X67445959Y-107470724D01*
X67457652Y-107460576D01*
X67489892Y-107426537D01*
X67520571Y-107397164D01*
X67595010Y-107381801D01*
X67596664Y-107381287D01*
X67598375Y-107381096D01*
X67656218Y-107362782D01*
X67714290Y-107344738D01*
X67715807Y-107343916D01*
X67717455Y-107343394D01*
X67725645Y-107339821D01*
X67747504Y-107330103D01*
X67797747Y-107301597D01*
X67848437Y-107273812D01*
X67855781Y-107268720D01*
X67898348Y-107238771D01*
X67944058Y-107199414D01*
X67990046Y-107160348D01*
X67992883Y-107157375D01*
X67993002Y-107157272D01*
X67993100Y-107157147D01*
X67996215Y-107153882D01*
X68033573Y-107114173D01*
X68040512Y-107105180D01*
X68042123Y-107103739D01*
X68059505Y-107080667D01*
X68086281Y-107050335D01*
X68091462Y-107043054D01*
X68094993Y-107038017D01*
X68102236Y-107025181D01*
X68109875Y-107015281D01*
X68112032Y-107010945D01*
X68117282Y-107003977D01*
X68121883Y-106996316D01*
X68136234Y-106972043D01*
X68155284Y-106931176D01*
X68156379Y-106929236D01*
X68156838Y-106927842D01*
X68159119Y-106922950D01*
X68183271Y-106874476D01*
X68186398Y-106866105D01*
X68195885Y-106840159D01*
X68209796Y-106786312D01*
X68224854Y-106732806D01*
X68226362Y-106723998D01*
X68231966Y-106689842D01*
X68233906Y-106659988D01*
X68238879Y-106630475D01*
X68239434Y-106621556D01*
X68242138Y-106572652D01*
X68241728Y-106563013D01*
X68242912Y-106553430D01*
X68243074Y-106544495D01*
X68243861Y-106474312D01*
X68243850Y-106474184D01*
X68243901Y-106467664D01*
X68243914Y-106451929D01*
X68243899Y-106451771D01*
X68243897Y-106446799D01*
X68243861Y-106441791D01*
X68243861Y-106441770D01*
X68243357Y-106371991D01*
X68242609Y-106364895D01*
X68243097Y-106357767D01*
X68242771Y-106348836D01*
X68240501Y-106296583D01*
X68236936Y-106271497D01*
X68236309Y-106246159D01*
X68235155Y-106237298D01*
X68230183Y-106201087D01*
X68218068Y-106150305D01*
X68207601Y-106099189D01*
X68204903Y-106090670D01*
X68196258Y-106064020D01*
X68172535Y-106009649D01*
X68149327Y-105955009D01*
X68146356Y-105949652D01*
X68146306Y-105949537D01*
X68146238Y-105949439D01*
X68144993Y-105947194D01*
X68131701Y-105923617D01*
X68120089Y-105907041D01*
X68110770Y-105889085D01*
X68105847Y-105881627D01*
X68102909Y-105877244D01*
X68084269Y-105854574D01*
X68068072Y-105830084D01*
X68062390Y-105823186D01*
X68013020Y-105764098D01*
X67990713Y-105742162D01*
X67970651Y-105718148D01*
X67946286Y-105698471D01*
X67923962Y-105676518D01*
X67897826Y-105659336D01*
X67873476Y-105639672D01*
X67865974Y-105634816D01*
X67812178Y-105600514D01*
X67768505Y-105578336D01*
X67725792Y-105554323D01*
X67712900Y-105550098D01*
X67700809Y-105543958D01*
X67653663Y-105530685D01*
X67607097Y-105515425D01*
X67598361Y-105513545D01*
X67532869Y-105499929D01*
X67481671Y-105494417D01*
X67430685Y-105487147D01*
X67421755Y-105486818D01*
X67399515Y-105486152D01*
X67347664Y-105489673D01*
X67295712Y-105491487D01*
X67286862Y-105492731D01*
X67203590Y-105505028D01*
X67163835Y-105514940D01*
X67123514Y-105522149D01*
X67103378Y-105530014D01*
X67096226Y-105531797D01*
X67088232Y-105528264D01*
X67060810Y-105522112D01*
X67034207Y-105513046D01*
X67000018Y-105508473D01*
X66966356Y-105500921D01*
X66957480Y-105499887D01*
X66877744Y-105491162D01*
X66869862Y-105491073D01*
X66862120Y-105489647D01*
X66807493Y-105490372D01*
X66752845Y-105489757D01*
X66745104Y-105491199D01*
X66737225Y-105491304D01*
X66728351Y-105492357D01*
X66724432Y-105492849D01*
X66749884Y-105445242D01*
X66778760Y-105391279D01*
X66778796Y-105391160D01*
X66778854Y-105391052D01*
X66796802Y-105332093D01*
X66815181Y-105271801D01*
X66815194Y-105271676D01*
X66815229Y-105271560D01*
X66821486Y-105209201D01*
X66827699Y-105147523D01*
X66827687Y-105147402D01*
X66827700Y-105147277D01*
X66821486Y-105082382D01*
X66815840Y-105023181D01*
X66815806Y-105023068D01*
X66815794Y-105022940D01*
X66797145Y-104960661D01*
X66780056Y-104903511D01*
X66779999Y-104903403D01*
X66779963Y-104903283D01*
X66750266Y-104847123D01*
X66721710Y-104793070D01*
X66721634Y-104792976D01*
X66721575Y-104792865D01*
X66716594Y-104785445D01*
X66667988Y-104714110D01*
X66668906Y-104713937D01*
X66678123Y-104712134D01*
X66678177Y-104712118D01*
X66679186Y-104711926D01*
X66755386Y-104696886D01*
X66813216Y-104679464D01*
X66871205Y-104662397D01*
X66873023Y-104661446D01*
X66874983Y-104660856D01*
X66928317Y-104632539D01*
X66981897Y-104604528D01*
X66983494Y-104603244D01*
X66985304Y-104602283D01*
X67032148Y-104564126D01*
X67079242Y-104526262D01*
X67080559Y-104524692D01*
X67082148Y-104523398D01*
X67120673Y-104476886D01*
X67159530Y-104430578D01*
X67160518Y-104428781D01*
X67161824Y-104427204D01*
X67190555Y-104374143D01*
X67219704Y-104321122D01*
X67220325Y-104319165D01*
X67221299Y-104317366D01*
X67239207Y-104259640D01*
X67257471Y-104202062D01*
X67257699Y-104200029D01*
X67258307Y-104198069D01*
X67264655Y-104138019D01*
X67271395Y-104077935D01*
X67271422Y-104074004D01*
X67271438Y-104073855D01*
X67271424Y-104073704D01*
X67271457Y-104068999D01*
X67271457Y-103751692D01*
X67271451Y-103751629D01*
X67271456Y-103750643D01*
X67271285Y-103646305D01*
X67271270Y-103646150D01*
X67271261Y-103641663D01*
X67270559Y-103562722D01*
X67270433Y-103561544D01*
X67270534Y-103560361D01*
X67270359Y-103551427D01*
X67268841Y-103494252D01*
X67267791Y-103485844D01*
X67268170Y-103477384D01*
X67267635Y-103468463D01*
X67265020Y-103429425D01*
X67260785Y-103403935D01*
X67259499Y-103378118D01*
X67258123Y-103369289D01*
X67254126Y-103344755D01*
X67252308Y-103337901D01*
X67251701Y-103330843D01*
X67236312Y-103277585D01*
X67235668Y-103275156D01*
X67233606Y-103263302D01*
X67230134Y-103254289D01*
X67222107Y-103224023D01*
X67218997Y-103217662D01*
X67217028Y-103210847D01*
X67213663Y-103202568D01*
X67208000Y-103188909D01*
X67197056Y-103168427D01*
X67188703Y-103146746D01*
X67169321Y-103116051D01*
X67167247Y-103111809D01*
X67165751Y-103109842D01*
X67149134Y-103078744D01*
X67134417Y-103060775D01*
X67122014Y-103041132D01*
X67094930Y-103012561D01*
X67069991Y-102982110D01*
X67058366Y-102972533D01*
X67054236Y-102967670D01*
X67046709Y-102961692D01*
X67036084Y-102950483D01*
X67029292Y-102944676D01*
X67021680Y-102938259D01*
X66993788Y-102919068D01*
X66980663Y-102907486D01*
X66976383Y-102904992D01*
X66973587Y-102902689D01*
X66969978Y-102900747D01*
X66956427Y-102889984D01*
X66936886Y-102879916D01*
X66918779Y-102867457D01*
X66892509Y-102856127D01*
X66872738Y-102844608D01*
X66859498Y-102840042D01*
X66845393Y-102832775D01*
X66837065Y-102829535D01*
X66833942Y-102828345D01*
X66818031Y-102824005D01*
X66804086Y-102817990D01*
X66781418Y-102813118D01*
X66754656Y-102803889D01*
X66745949Y-102801875D01*
X66727114Y-102797656D01*
X66724951Y-102797389D01*
X66722874Y-102796721D01*
X66714128Y-102794888D01*
X66672518Y-102786470D01*
X66672367Y-102786455D01*
X66669005Y-102785770D01*
X66663965Y-102784780D01*
X66666394Y-102780812D01*
X66695296Y-102732855D01*
X66703501Y-102715634D01*
X66713963Y-102699688D01*
X66718057Y-102691745D01*
X66735021Y-102658261D01*
X66753430Y-102610968D01*
X66773560Y-102564394D01*
X66776228Y-102555865D01*
X66782951Y-102533841D01*
X66784522Y-102526034D01*
X66787398Y-102518600D01*
X66796828Y-102464861D01*
X66807585Y-102411388D01*
X66807609Y-102403419D01*
X66808986Y-102395573D01*
X66807799Y-102341021D01*
X66807965Y-102286482D01*
X66806617Y-102279565D01*
X66806632Y-102278288D01*
X66806408Y-102277084D01*
X66806269Y-102270697D01*
X66805142Y-102261832D01*
X66803318Y-102248254D01*
X66792995Y-102204402D01*
X66785323Y-102160989D01*
X66784324Y-102158415D01*
X66783779Y-102155489D01*
X66778167Y-102141417D01*
X66774696Y-102126671D01*
X66756185Y-102085953D01*
X66740109Y-102044553D01*
X66738578Y-102042143D01*
X66737512Y-102039469D01*
X66733352Y-102031560D01*
X66733306Y-102031474D01*
X66727398Y-102022629D01*
X66723004Y-102012964D01*
X66697132Y-101976887D01*
X66673142Y-101939117D01*
X66667588Y-101932116D01*
X66653239Y-101914282D01*
X66641457Y-101902260D01*
X66631511Y-101888684D01*
X66625505Y-101882067D01*
X66593768Y-101847587D01*
X66591981Y-101845991D01*
X66590518Y-101844081D01*
X66584371Y-101837595D01*
X66538684Y-101790046D01*
X66538637Y-101790006D01*
X66533130Y-101784337D01*
X66476936Y-101727291D01*
X66476833Y-101727205D01*
X66472478Y-101722810D01*
X66409214Y-101659843D01*
X66409103Y-101659753D01*
X66406880Y-101657532D01*
X66399747Y-101650504D01*
X66399625Y-101650405D01*
X66395819Y-101646668D01*
X66316091Y-101569461D01*
X66313358Y-101567289D01*
X66311069Y-101564650D01*
X66304539Y-101558549D01*
X66243012Y-101501859D01*
X66234126Y-101495149D01*
X66226422Y-101487096D01*
X66219603Y-101481321D01*
X66175039Y-101444100D01*
X66147454Y-101425305D01*
X66121698Y-101404076D01*
X66114245Y-101399145D01*
X66085410Y-101380350D01*
X66034566Y-101353887D01*
X65984094Y-101326582D01*
X65979175Y-101325058D01*
X65974612Y-101322683D01*
X65919632Y-101306610D01*
X65916354Y-101305595D01*
X65898344Y-101298508D01*
X65886617Y-101296382D01*
X65864784Y-101289617D01*
X65856018Y-101287880D01*
X65843317Y-101285454D01*
X65809181Y-101282339D01*
X65775442Y-101276221D01*
X65747121Y-101276677D01*
X65718927Y-101274104D01*
X65684838Y-101277678D01*
X65650553Y-101278230D01*
X65622866Y-101284177D01*
X65594702Y-101287130D01*
X65561941Y-101297262D01*
X65528431Y-101304460D01*
X65502434Y-101315667D01*
X65475373Y-101324037D01*
X65445210Y-101340337D01*
X65413730Y-101353908D01*
X65405939Y-101358284D01*
X65387403Y-101368866D01*
X65378655Y-101375065D01*
X65369021Y-101379771D01*
X65361446Y-101384512D01*
X65322979Y-101408957D01*
X65322874Y-101409039D01*
X65322746Y-101409104D01*
X65315239Y-101413953D01*
X65303542Y-101421625D01*
X65298256Y-101394431D01*
X65298230Y-101394345D01*
X65296785Y-101387095D01*
X65291617Y-101362073D01*
X65290307Y-101357858D01*
X65289779Y-101353470D01*
X65287790Y-101344758D01*
X65287700Y-101344376D01*
X65283469Y-101331987D01*
X65282422Y-101324955D01*
X65281909Y-101323520D01*
X65280997Y-101318379D01*
X65278525Y-101309792D01*
X65275379Y-101299148D01*
X65261103Y-101263923D01*
X65254536Y-101242798D01*
X65250405Y-101235180D01*
X65247329Y-101226174D01*
X65246780Y-101225226D01*
X65240386Y-101207334D01*
X65233502Y-101195817D01*
X65228465Y-101183387D01*
X65209355Y-101154252D01*
X65203183Y-101141344D01*
X65191983Y-101126348D01*
X65176306Y-101100119D01*
X65170945Y-101092970D01*
X65164830Y-101084932D01*
X65161619Y-101081473D01*
X65159960Y-101078943D01*
X65147250Y-101065991D01*
X65145466Y-101064070D01*
X65128438Y-101041271D01*
X65103087Y-101018410D01*
X65079858Y-100993383D01*
X65056808Y-100976677D01*
X65035678Y-100957622D01*
X65006372Y-100940121D01*
X64978722Y-100920081D01*
X64952871Y-100908172D01*
X64928439Y-100893582D01*
X64920330Y-100889827D01*
X64907581Y-100884032D01*
X64892785Y-100878982D01*
X64878895Y-100871828D01*
X64865794Y-100868058D01*
X64865275Y-100867819D01*
X64863366Y-100867359D01*
X64833792Y-100858850D01*
X64789369Y-100843689D01*
X64773884Y-100841611D01*
X64758861Y-100837288D01*
X64750062Y-100835728D01*
X64727015Y-100831808D01*
X64698439Y-100829783D01*
X64670236Y-100824745D01*
X64661323Y-100824102D01*
X64624314Y-100821690D01*
X64615372Y-100821982D01*
X64606496Y-100820777D01*
X64597564Y-100820508D01*
X64542929Y-100819238D01*
X64542042Y-100819304D01*
X64541156Y-100819199D01*
X64532221Y-100819079D01*
X64456297Y-100818585D01*
X64456152Y-100818598D01*
X64452672Y-100818571D01*
X64351795Y-100818486D01*
X64351759Y-100818489D01*
X64351256Y-100818486D01*
X64338200Y-100818486D01*
X64338177Y-100818488D01*
X64337818Y-100818486D01*
X64233908Y-100818548D01*
X64233763Y-100818562D01*
X64230786Y-100818558D01*
X64152242Y-100818988D01*
X64151916Y-100819022D01*
X64151579Y-100818991D01*
X64142643Y-100819112D01*
X64085799Y-100820276D01*
X64078188Y-100821180D01*
X64070536Y-100820771D01*
X64061611Y-100821229D01*
X64022804Y-100823494D01*
X63997687Y-100827445D01*
X63972277Y-100828460D01*
X63963435Y-100829749D01*
X63939001Y-100833482D01*
X63931456Y-100835403D01*
X63923693Y-100836011D01*
X63870973Y-100850805D01*
X63868741Y-100851374D01*
X63857250Y-100853258D01*
X63848526Y-100856522D01*
X63817958Y-100864306D01*
X63810935Y-100867654D01*
X63803433Y-100869759D01*
X63795129Y-100873060D01*
X63781404Y-100878626D01*
X63761408Y-100889113D01*
X63740263Y-100897024D01*
X63709684Y-100915919D01*
X63705207Y-100918053D01*
X63702774Y-100919866D01*
X63670789Y-100936641D01*
X63653206Y-100950817D01*
X63634005Y-100962681D01*
X63604703Y-100989920D01*
X63573549Y-101015037D01*
X63559061Y-101032349D01*
X63542522Y-101047724D01*
X63536649Y-101054459D01*
X63529971Y-101062226D01*
X63508598Y-101092650D01*
X63493387Y-101110826D01*
X63484984Y-101126159D01*
X63459298Y-101162447D01*
X63458831Y-101163491D01*
X63458170Y-101164432D01*
X63440881Y-101203467D01*
X63434071Y-101214779D01*
X63429996Y-101226066D01*
X63425699Y-101233718D01*
X63420989Y-101248112D01*
X63408308Y-101276470D01*
X63407633Y-101278537D01*
X63407588Y-101278638D01*
X63407562Y-101278754D01*
X63405533Y-101284965D01*
X63402237Y-101295297D01*
X63398201Y-101314137D01*
X63391657Y-101332262D01*
X63389518Y-101340939D01*
X63389198Y-101342277D01*
X63388483Y-101347460D01*
X63386857Y-101352431D01*
X63384981Y-101361168D01*
X63379975Y-101385304D01*
X63379967Y-101385375D01*
X63378422Y-101393032D01*
X63372868Y-101421574D01*
X63366690Y-101417550D01*
X63324301Y-101390357D01*
X63318881Y-101387586D01*
X63314027Y-101383902D01*
X63306382Y-101379273D01*
X63283034Y-101365358D01*
X63279014Y-101363467D01*
X63277477Y-101362348D01*
X63255878Y-101352346D01*
X63233538Y-101338730D01*
X63225462Y-101334903D01*
X63223246Y-101333871D01*
X63195026Y-101323955D01*
X63170011Y-101312186D01*
X63168148Y-101311722D01*
X63164134Y-101309863D01*
X63134336Y-101302628D01*
X63105404Y-101292461D01*
X63073793Y-101287927D01*
X63042754Y-101280391D01*
X63012112Y-101279082D01*
X62981763Y-101274729D01*
X62949871Y-101276422D01*
X62917962Y-101275058D01*
X62887657Y-101279724D01*
X62857032Y-101281349D01*
X62826076Y-101289204D01*
X62810082Y-101291667D01*
X62805569Y-101292155D01*
X62804271Y-101292561D01*
X62794510Y-101294064D01*
X62785869Y-101296340D01*
X62768901Y-101300935D01*
X62746707Y-101309345D01*
X62735963Y-101312071D01*
X62724493Y-101317527D01*
X62686363Y-101329459D01*
X62669768Y-101338498D01*
X62652099Y-101345193D01*
X62615040Y-101368307D01*
X62576673Y-101389205D01*
X62569316Y-101394277D01*
X62537624Y-101416448D01*
X62517288Y-101433864D01*
X62495125Y-101448906D01*
X62488296Y-101454670D01*
X62440646Y-101495462D01*
X62434327Y-101502044D01*
X62426993Y-101507489D01*
X62420415Y-101513538D01*
X62355569Y-101573996D01*
X62354155Y-101575599D01*
X62352460Y-101576913D01*
X62346008Y-101583096D01*
X62279809Y-101647418D01*
X62279740Y-101647499D01*
X62274794Y-101652344D01*
X62210977Y-101715729D01*
X62210889Y-101715836D01*
X62206596Y-101720123D01*
X62149481Y-101777962D01*
X62149431Y-101778024D01*
X62144133Y-101783443D01*
X62097158Y-101832167D01*
X62096016Y-101833611D01*
X62094618Y-101834816D01*
X62088498Y-101841328D01*
X62055100Y-101877363D01*
X62047023Y-101887994D01*
X62037405Y-101897269D01*
X62031656Y-101904111D01*
X62015275Y-101923885D01*
X61990427Y-101960667D01*
X61963532Y-101995985D01*
X61958891Y-102003621D01*
X61958283Y-102004639D01*
X61958074Y-102005081D01*
X61957780Y-102005480D01*
X61952329Y-102017064D01*
X61945355Y-102027387D01*
X61927450Y-102069899D01*
X61904924Y-102117575D01*
X61904804Y-102118053D01*
X61904595Y-102118497D01*
X61901133Y-102132381D01*
X61896871Y-102142500D01*
X61888637Y-102182466D01*
X61874518Y-102238723D01*
X61874493Y-102239214D01*
X61874374Y-102239692D01*
X61873130Y-102248541D01*
X61871319Y-102262111D01*
X61871023Y-102270579D01*
X61869306Y-102278878D01*
X61868845Y-102332917D01*
X61866957Y-102386941D01*
X61868312Y-102395310D01*
X61868240Y-102403780D01*
X61878283Y-102456882D01*
X61886924Y-102510240D01*
X61889877Y-102518180D01*
X61891452Y-102526510D01*
X61894022Y-102535068D01*
X61900843Y-102557229D01*
X61920278Y-102603666D01*
X61937933Y-102650808D01*
X61941925Y-102658803D01*
X61959068Y-102692548D01*
X61969199Y-102708431D01*
X61977073Y-102725553D01*
X61981636Y-102733237D01*
X62010783Y-102781559D01*
X62013102Y-102784670D01*
X61986889Y-102789868D01*
X61986747Y-102789911D01*
X61981555Y-102790949D01*
X61948607Y-102797774D01*
X61943666Y-102799313D01*
X61938532Y-102799946D01*
X61929826Y-102801960D01*
X61921745Y-102803889D01*
X61899098Y-102811698D01*
X61875685Y-102816721D01*
X61844073Y-102830339D01*
X61829354Y-102834925D01*
X61825199Y-102837181D01*
X61803662Y-102844608D01*
X61792797Y-102850938D01*
X61789115Y-102852252D01*
X61778502Y-102858588D01*
X61760972Y-102866140D01*
X61753180Y-102870515D01*
X61744832Y-102875278D01*
X61716128Y-102895607D01*
X61695737Y-102907487D01*
X61693943Y-102909070D01*
X61681868Y-102916279D01*
X61663299Y-102933021D01*
X61642900Y-102947468D01*
X61617020Y-102974747D01*
X61589100Y-102999920D01*
X61574139Y-103019946D01*
X61556932Y-103038083D01*
X61542474Y-103060960D01*
X61536325Y-103067945D01*
X61529488Y-103079713D01*
X61514344Y-103099984D01*
X61509773Y-103107663D01*
X61503472Y-103118420D01*
X61496214Y-103134154D01*
X61490201Y-103143669D01*
X61485994Y-103154577D01*
X61473578Y-103175947D01*
X61463784Y-103204462D01*
X61451155Y-103231841D01*
X61443546Y-103263384D01*
X61442225Y-103267231D01*
X61439765Y-103273083D01*
X61439098Y-103276334D01*
X61433003Y-103294079D01*
X61431000Y-103302788D01*
X61426461Y-103323167D01*
X61423736Y-103345505D01*
X61421864Y-103353264D01*
X61421500Y-103362089D01*
X61414656Y-103395439D01*
X61413785Y-103404333D01*
X61410726Y-103437969D01*
X61410816Y-103450767D01*
X61408922Y-103463422D01*
X61408531Y-103472350D01*
X61406668Y-103522871D01*
X61406854Y-103525918D01*
X61406472Y-103528954D01*
X61406290Y-103537888D01*
X61405339Y-103608925D01*
X61405351Y-103609061D01*
X61405286Y-103615326D01*
X61404964Y-103710511D01*
X61404973Y-103710608D01*
X61404960Y-103712397D01*
X61404943Y-103751413D01*
X61404945Y-103751432D01*
X61404943Y-103751692D01*
X61404943Y-104068999D01*
X61410837Y-104129113D01*
X61416352Y-104189304D01*
X61416932Y-104191271D01*
X61417132Y-104193309D01*
X61434585Y-104251116D01*
X61451691Y-104309107D01*
X61452642Y-104310924D01*
X61453234Y-104312884D01*
X61481597Y-104366228D01*
X61509626Y-104419764D01*
X61510910Y-104421359D01*
X61511873Y-104423170D01*
X61550060Y-104469991D01*
X61587952Y-104517061D01*
X61589524Y-104518379D01*
X61590818Y-104519965D01*
X61637296Y-104558415D01*
X61683684Y-104597291D01*
X61685484Y-104598279D01*
X61687060Y-104599583D01*
X61740171Y-104628300D01*
X61793177Y-104657398D01*
X61795130Y-104658016D01*
X61796933Y-104658991D01*
X61854643Y-104676855D01*
X61912259Y-104695094D01*
X61916105Y-104695881D01*
X61916253Y-104695927D01*
X61916409Y-104695943D01*
X61921014Y-104696886D01*
X61997214Y-104711926D01*
X61997357Y-104711940D01*
X62000233Y-104712514D01*
X62008550Y-104714114D01*
X61959823Y-104785789D01*
X61959817Y-104785796D01*
X61959813Y-104785804D01*
X61959576Y-104786152D01*
X61930657Y-104839173D01*
X61899934Y-104895411D01*
X61899868Y-104895621D01*
X61899766Y-104895808D01*
X61881438Y-104954261D01*
X61862483Y-105014571D01*
X61862459Y-105014787D01*
X61862395Y-105014992D01*
X61855813Y-105075485D01*
X61848888Y-105138735D01*
X61848907Y-105138954D01*
X61848884Y-105139165D01*
X61854246Y-105200574D01*
X61859671Y-105263175D01*
X61859731Y-105263383D01*
X61859750Y-105263598D01*
X61876793Y-105322295D01*
X61894418Y-105383151D01*
X61894519Y-105383346D01*
X61894578Y-105383550D01*
X61922893Y-105438196D01*
X61951808Y-105494092D01*
X61951944Y-105494262D01*
X61952042Y-105494452D01*
X61989984Y-105541997D01*
X61998250Y-105552370D01*
X61960579Y-105545376D01*
X61923098Y-105535489D01*
X61899324Y-105534003D01*
X61875896Y-105529653D01*
X61866988Y-105528949D01*
X61797247Y-105523928D01*
X61780227Y-105524368D01*
X61763328Y-105522390D01*
X61717925Y-105525981D01*
X61672383Y-105527159D01*
X61655781Y-105530895D01*
X61638811Y-105532237D01*
X61630026Y-105533869D01*
X61564336Y-105546545D01*
X61560645Y-105547640D01*
X61556824Y-105548042D01*
X61520990Y-105559139D01*
X61507164Y-105555501D01*
X61469520Y-105542671D01*
X61446913Y-105539646D01*
X61424846Y-105533839D01*
X61385146Y-105531381D01*
X61345718Y-105526105D01*
X61336785Y-105525852D01*
X61266365Y-105524351D01*
X61239739Y-105526390D01*
X61213063Y-105525437D01*
X61177618Y-105531148D01*
X61141824Y-105533889D01*
X61116116Y-105541057D01*
X61089747Y-105545305D01*
X61081122Y-105547642D01*
X61013000Y-105566601D01*
X60983734Y-105577925D01*
X60953511Y-105586345D01*
X60925630Y-105600408D01*
X60896510Y-105611676D01*
X60870010Y-105628463D01*
X60841989Y-105642597D01*
X60834475Y-105647434D01*
X60777049Y-105684965D01*
X60753808Y-105703629D01*
X60728780Y-105719820D01*
X60705228Y-105742643D01*
X60679660Y-105763175D01*
X60660491Y-105785992D01*
X60639079Y-105806741D01*
X60633347Y-105813597D01*
X60605649Y-105847196D01*
X60581648Y-105882913D01*
X60555517Y-105917098D01*
X60546886Y-105934643D01*
X60535982Y-105950869D01*
X60519382Y-105990550D01*
X60500380Y-106029176D01*
X60497296Y-106037563D01*
X60475353Y-106098531D01*
X60467507Y-106129552D01*
X60456736Y-106159686D01*
X60452229Y-106189954D01*
X60444725Y-106219624D01*
X60443054Y-106251573D01*
X60438340Y-106283229D01*
X60437955Y-106292157D01*
X60436212Y-106340401D01*
X60437855Y-106367031D01*
X60436506Y-106393681D01*
X60436990Y-106402604D01*
X60439219Y-106439024D01*
X60438196Y-106452692D01*
X60432548Y-106503043D01*
X60432486Y-106511979D01*
X60432486Y-106574166D01*
X60434881Y-106598588D01*
X60434361Y-106623129D01*
X60435108Y-106632034D01*
X60438950Y-106674351D01*
X60444889Y-106705520D01*
X60447802Y-106737125D01*
X60456552Y-106766731D01*
X60462329Y-106797050D01*
X60474207Y-106826467D01*
X60483204Y-106856909D01*
X60486619Y-106865167D01*
X60501668Y-106900852D01*
X60508941Y-106914266D01*
X60514157Y-106928605D01*
X60538655Y-106969072D01*
X60561202Y-107010658D01*
X60570941Y-107022403D01*
X60578843Y-107035456D01*
X60584244Y-107042575D01*
X60615787Y-107083549D01*
X60627187Y-107095692D01*
X60636733Y-107109344D01*
X60642592Y-107116091D01*
X60647280Y-107121415D01*
X60654404Y-107128067D01*
X60660344Y-107135806D01*
X60666496Y-107142287D01*
X60701582Y-107178740D01*
X60705385Y-107181987D01*
X60498789Y-107096412D01*
X60168420Y-107030698D01*
X59831580Y-107030698D01*
X59501211Y-107096412D01*
X59190011Y-107225316D01*
X58909939Y-107412454D01*
X58671756Y-107650637D01*
X58484618Y-107930709D01*
X58355714Y-108241909D01*
X58290000Y-108572278D01*
X58290000Y-108909118D01*
X58355714Y-109239487D01*
X58376420Y-109289476D01*
X56042103Y-111623794D01*
X56013099Y-111647597D01*
X55957971Y-111714772D01*
X55918126Y-111763322D01*
X55915259Y-111768686D01*
X55847554Y-111895352D01*
X55804097Y-112038613D01*
X55793100Y-112150266D01*
X55793100Y-112150276D01*
X55789424Y-112187598D01*
X55793100Y-112224920D01*
X55793101Y-126949968D01*
X55789424Y-126987300D01*
X55804098Y-127136285D01*
X55847554Y-127279546D01*
X55918126Y-127411576D01*
X55989301Y-127498302D01*
X56013100Y-127527301D01*
X56042098Y-127551099D01*
X59653900Y-131162902D01*
X59653901Y-135045800D01*
X59402904Y-134794803D01*
X59379101Y-134765799D01*
X59263376Y-134670826D01*
X59131347Y-134600254D01*
X58988086Y-134556797D01*
X58876433Y-134545800D01*
X58876422Y-134545800D01*
X58839100Y-134542124D01*
X58801778Y-134545800D01*
X56481522Y-134545800D01*
X56444199Y-134542124D01*
X56406876Y-134545800D01*
X56406867Y-134545800D01*
X56295214Y-134556797D01*
X56151953Y-134600254D01*
X56019924Y-134670826D01*
X55904199Y-134765799D01*
X55880401Y-134794797D01*
X52073887Y-138601312D01*
X51891335Y-138565000D01*
X51608665Y-138565000D01*
X51331426Y-138620147D01*
X51070273Y-138728320D01*
X50835241Y-138885363D01*
X50660000Y-139060604D01*
X50660000Y-134559396D01*
X50835241Y-134734637D01*
X51070273Y-134891680D01*
X51331426Y-134999853D01*
X51608665Y-135055000D01*
X51891335Y-135055000D01*
X52168574Y-134999853D01*
X52429727Y-134891680D01*
X52664759Y-134734637D01*
X52864637Y-134534759D01*
X53021680Y-134299727D01*
X53129853Y-134038574D01*
X53185000Y-133761335D01*
X53185000Y-133478665D01*
X53129853Y-133201426D01*
X53021680Y-132940273D01*
X52864637Y-132705241D01*
X52664759Y-132505363D01*
X52429727Y-132348320D01*
X52168574Y-132240147D01*
X51891335Y-132185000D01*
X51608665Y-132185000D01*
X51331426Y-132240147D01*
X51070273Y-132348320D01*
X50835241Y-132505363D01*
X50660000Y-132680604D01*
X50660000Y-129996599D01*
X53255000Y-129996599D01*
X53255000Y-130712594D01*
X53283867Y-131005684D01*
X53397943Y-131381743D01*
X53583193Y-131728322D01*
X53832497Y-132032100D01*
X54136275Y-132281404D01*
X54482853Y-132466654D01*
X54858912Y-132580730D01*
X55250000Y-132619249D01*
X55641087Y-132580730D01*
X56017146Y-132466654D01*
X56363725Y-132281404D01*
X56667503Y-132032100D01*
X56916807Y-131728322D01*
X57102057Y-131381744D01*
X57216133Y-131005685D01*
X57245000Y-130712595D01*
X57245000Y-129996600D01*
X57216133Y-129703510D01*
X57102057Y-129327450D01*
X56916807Y-128980872D01*
X56667503Y-128677094D01*
X56363725Y-128427790D01*
X56017147Y-128242540D01*
X55641088Y-128128464D01*
X55250000Y-128089945D01*
X54858913Y-128128464D01*
X54482854Y-128242540D01*
X54136276Y-128427790D01*
X53832498Y-128677094D01*
X53583193Y-128980872D01*
X53397943Y-129327450D01*
X53283867Y-129703509D01*
X53255000Y-129996599D01*
X50660000Y-129996599D01*
X50660000Y-126939396D01*
X50835241Y-127114637D01*
X51070273Y-127271680D01*
X51331426Y-127379853D01*
X51608665Y-127435000D01*
X51891335Y-127435000D01*
X52168574Y-127379853D01*
X52429727Y-127271680D01*
X52664759Y-127114637D01*
X52864637Y-126914759D01*
X53021680Y-126679727D01*
X53129853Y-126418574D01*
X53185000Y-126141335D01*
X53185000Y-125858665D01*
X53129853Y-125581426D01*
X53021680Y-125320273D01*
X52864637Y-125085241D01*
X52664759Y-124885363D01*
X52429727Y-124728320D01*
X52168574Y-124620147D01*
X51891335Y-124565000D01*
X51608665Y-124565000D01*
X51331426Y-124620147D01*
X51070273Y-124728320D01*
X50835241Y-124885363D01*
X50660000Y-125060604D01*
X50660000Y-114850000D01*
X51511928Y-114850000D01*
X51524188Y-114974482D01*
X51560498Y-115094180D01*
X51619463Y-115204494D01*
X51698815Y-115301185D01*
X51795506Y-115380537D01*
X51905820Y-115439502D01*
X52025518Y-115475812D01*
X52150000Y-115488072D01*
X52714250Y-115485000D01*
X52873000Y-115326250D01*
X52873000Y-114127000D01*
X53127000Y-114127000D01*
X53127000Y-115326250D01*
X53285750Y-115485000D01*
X53850000Y-115488072D01*
X53974482Y-115475812D01*
X54094180Y-115439502D01*
X54204494Y-115380537D01*
X54301185Y-115301185D01*
X54380537Y-115204494D01*
X54439502Y-115094180D01*
X54475812Y-114974482D01*
X54488072Y-114850000D01*
X54485000Y-114285750D01*
X54326250Y-114127000D01*
X53127000Y-114127000D01*
X52873000Y-114127000D01*
X51673750Y-114127000D01*
X51515000Y-114285750D01*
X51511928Y-114850000D01*
X50660000Y-114850000D01*
X50660000Y-100492702D01*
X52186903Y-100492702D01*
X52258486Y-100736671D01*
X52513996Y-100857571D01*
X52788184Y-100926300D01*
X53070512Y-100940217D01*
X53350130Y-100898787D01*
X53616292Y-100803603D01*
X53741514Y-100736671D01*
X53813097Y-100492702D01*
X53000000Y-99679605D01*
X52186903Y-100492702D01*
X50660000Y-100492702D01*
X50660000Y-99570512D01*
X51559783Y-99570512D01*
X51601213Y-99850130D01*
X51696397Y-100116292D01*
X51763329Y-100241514D01*
X52007298Y-100313097D01*
X52820395Y-99500000D01*
X53179605Y-99500000D01*
X53992702Y-100313097D01*
X54236671Y-100241514D01*
X54357571Y-99986004D01*
X54426300Y-99711816D01*
X54440217Y-99429488D01*
X54398787Y-99149870D01*
X54303603Y-98883708D01*
X54236671Y-98758486D01*
X53992702Y-98686903D01*
X53179605Y-99500000D01*
X52820395Y-99500000D01*
X52007298Y-98686903D01*
X51763329Y-98758486D01*
X51642429Y-99013996D01*
X51573700Y-99288184D01*
X51559783Y-99570512D01*
X50660000Y-99570512D01*
X50660000Y-98507298D01*
X52186903Y-98507298D01*
X53000000Y-99320395D01*
X53813097Y-98507298D01*
X53741514Y-98263329D01*
X53486004Y-98142429D01*
X53211816Y-98073700D01*
X52929488Y-98059783D01*
X52649870Y-98101213D01*
X52383708Y-98196397D01*
X52258486Y-98263329D01*
X52186903Y-98507298D01*
X50660000Y-98507298D01*
X50660000Y-84514788D01*
X50728320Y-84679727D01*
X50885363Y-84914759D01*
X51085241Y-85114637D01*
X51240000Y-85218044D01*
X51240001Y-90842668D01*
X51236324Y-90880000D01*
X51250998Y-91028985D01*
X51294454Y-91172246D01*
X51365026Y-91304276D01*
X51418142Y-91368997D01*
X51460000Y-91420001D01*
X51488998Y-91443799D01*
X51601312Y-91556113D01*
X51565000Y-91738665D01*
X51565000Y-92021335D01*
X51620147Y-92298574D01*
X51728320Y-92559727D01*
X51885363Y-92794759D01*
X52085241Y-92994637D01*
X52240001Y-93098044D01*
X52240001Y-93742368D01*
X52236324Y-93779700D01*
X52250998Y-93928685D01*
X52294454Y-94071946D01*
X52365026Y-94203976D01*
X52436201Y-94290702D01*
X52460000Y-94319701D01*
X52488998Y-94343499D01*
X55170800Y-97025302D01*
X55170801Y-105674397D01*
X53366408Y-107478791D01*
X53146260Y-107435000D01*
X52853740Y-107435000D01*
X52566842Y-107492068D01*
X52296589Y-107604010D01*
X52053368Y-107766525D01*
X51846525Y-107973368D01*
X51684010Y-108216589D01*
X51572068Y-108486842D01*
X51515000Y-108773740D01*
X51515000Y-109066260D01*
X51572068Y-109353158D01*
X51684010Y-109623411D01*
X51846525Y-109866632D01*
X52053368Y-110073475D01*
X52227760Y-110190000D01*
X52053368Y-110306525D01*
X51846525Y-110513368D01*
X51684010Y-110756589D01*
X51572068Y-111026842D01*
X51515000Y-111313740D01*
X51515000Y-111606260D01*
X51572068Y-111893158D01*
X51684010Y-112163411D01*
X51846525Y-112406632D01*
X51978380Y-112538487D01*
X51905820Y-112560498D01*
X51795506Y-112619463D01*
X51698815Y-112698815D01*
X51619463Y-112795506D01*
X51560498Y-112905820D01*
X51524188Y-113025518D01*
X51511928Y-113150000D01*
X51515000Y-113714250D01*
X51673750Y-113873000D01*
X52873000Y-113873000D01*
X52873000Y-113853000D01*
X53127000Y-113853000D01*
X53127000Y-113873000D01*
X54326250Y-113873000D01*
X54485000Y-113714250D01*
X54488072Y-113150000D01*
X54475812Y-113025518D01*
X54439502Y-112905820D01*
X54380537Y-112795506D01*
X54301185Y-112698815D01*
X54204494Y-112619463D01*
X54094180Y-112560498D01*
X54021620Y-112538487D01*
X54153475Y-112406632D01*
X54278178Y-112220000D01*
X54428178Y-112220000D01*
X54465500Y-112223676D01*
X54502822Y-112220000D01*
X54502833Y-112220000D01*
X54614486Y-112209003D01*
X54757747Y-112165546D01*
X54889776Y-112094974D01*
X55005501Y-112000001D01*
X55029304Y-111970997D01*
X57508603Y-109491699D01*
X57537601Y-109467901D01*
X57632574Y-109352176D01*
X57703146Y-109220147D01*
X57746603Y-109076886D01*
X57757600Y-108965233D01*
X57757600Y-108965224D01*
X57761276Y-108927901D01*
X57757600Y-108890578D01*
X57757600Y-102464000D01*
X58465000Y-101756600D01*
X58465000Y-102013983D01*
X58523989Y-102310542D01*
X58639701Y-102589894D01*
X58807688Y-102841304D01*
X59021495Y-103055111D01*
X59272905Y-103223098D01*
X59552257Y-103338810D01*
X59848816Y-103397799D01*
X60151184Y-103397799D01*
X60447743Y-103338810D01*
X60727095Y-103223098D01*
X60978505Y-103055111D01*
X61192312Y-102841304D01*
X61360299Y-102589894D01*
X61476011Y-102310542D01*
X61535000Y-102013983D01*
X61535000Y-101711615D01*
X61476011Y-101415056D01*
X61360299Y-101135704D01*
X61192312Y-100884294D01*
X60978505Y-100670487D01*
X60888032Y-100610035D01*
X61090061Y-100475043D01*
X61328244Y-100236860D01*
X61515382Y-99956788D01*
X61536088Y-99906799D01*
X65593935Y-99906799D01*
X65620147Y-100038574D01*
X65728320Y-100299727D01*
X65885363Y-100534759D01*
X66085241Y-100734637D01*
X66320273Y-100891680D01*
X66581426Y-100999853D01*
X66858665Y-101055000D01*
X67141335Y-101055000D01*
X67418574Y-100999853D01*
X67679727Y-100891680D01*
X67914759Y-100734637D01*
X68114637Y-100534759D01*
X68271680Y-100299727D01*
X68379853Y-100038574D01*
X68435000Y-99761335D01*
X68435000Y-99478665D01*
X68379853Y-99201426D01*
X68271680Y-98940273D01*
X68114637Y-98705241D01*
X67914759Y-98505363D01*
X67679727Y-98348320D01*
X67418574Y-98240147D01*
X67141335Y-98185000D01*
X66858665Y-98185000D01*
X66581426Y-98240147D01*
X66320273Y-98348320D01*
X66262685Y-98386799D01*
X61834801Y-98386799D01*
X64392003Y-95829598D01*
X64421001Y-95805800D01*
X64515974Y-95690075D01*
X64586546Y-95558046D01*
X64630003Y-95414785D01*
X64641000Y-95303132D01*
X64641000Y-95303122D01*
X64644676Y-95265799D01*
X64641000Y-95228476D01*
X64641000Y-92992702D01*
X66186903Y-92992702D01*
X66258486Y-93236671D01*
X66513996Y-93357571D01*
X66788184Y-93426300D01*
X67070512Y-93440217D01*
X67350130Y-93398787D01*
X67616292Y-93303603D01*
X67741514Y-93236671D01*
X67813097Y-92992702D01*
X67000000Y-92179605D01*
X66186903Y-92992702D01*
X64641000Y-92992702D01*
X64641000Y-92070512D01*
X65559783Y-92070512D01*
X65601213Y-92350130D01*
X65696397Y-92616292D01*
X65763329Y-92741514D01*
X66007298Y-92813097D01*
X66820395Y-92000000D01*
X67179605Y-92000000D01*
X67992702Y-92813097D01*
X68236671Y-92741514D01*
X68357571Y-92486004D01*
X68426300Y-92211816D01*
X68440217Y-91929488D01*
X68398787Y-91649870D01*
X68303603Y-91383708D01*
X68236671Y-91258486D01*
X67992702Y-91186903D01*
X67179605Y-92000000D01*
X66820395Y-92000000D01*
X66007298Y-91186903D01*
X65763329Y-91258486D01*
X65642429Y-91513996D01*
X65573700Y-91788184D01*
X65559783Y-92070512D01*
X64641000Y-92070512D01*
X64641000Y-91007298D01*
X66186903Y-91007298D01*
X67000000Y-91820395D01*
X67813097Y-91007298D01*
X67741514Y-90763329D01*
X67486004Y-90642429D01*
X67211816Y-90573700D01*
X66929488Y-90559783D01*
X66649870Y-90601213D01*
X66383708Y-90696397D01*
X66258486Y-90763329D01*
X66186903Y-91007298D01*
X64641000Y-91007298D01*
X64641000Y-88433801D01*
X67676114Y-85398688D01*
X67858665Y-85435000D01*
X68141335Y-85435000D01*
X68418574Y-85379853D01*
X68679727Y-85271680D01*
X68914759Y-85114637D01*
X69114637Y-84914759D01*
X69271680Y-84679727D01*
X69340000Y-84514788D01*
X69340001Y-125060605D01*
G36*
X61740001Y-79121604D02*
G01*
X61740001Y-79855586D01*
X61521495Y-80001587D01*
X61307688Y-80215394D01*
X61250000Y-80301730D01*
X61192312Y-80215394D01*
X60978505Y-80001587D01*
X60727095Y-79833600D01*
X60447743Y-79717888D01*
X60151184Y-79658899D01*
X59848816Y-79658899D01*
X59552257Y-79717888D01*
X59272905Y-79833600D01*
X59021495Y-80001587D01*
X58983880Y-80039202D01*
X58930537Y-79939405D01*
X58851185Y-79842714D01*
X58754494Y-79763362D01*
X58644180Y-79704397D01*
X58524482Y-79668087D01*
X58400000Y-79655827D01*
X57785750Y-79658899D01*
X57627000Y-79817649D01*
X57627000Y-81066899D01*
X57647000Y-81066899D01*
X57647000Y-81320899D01*
X57627000Y-81320899D01*
X57627000Y-81340899D01*
X57373000Y-81340899D01*
X57373000Y-81320899D01*
X56123750Y-81320899D01*
X55965000Y-81479649D01*
X55961928Y-82093899D01*
X55974188Y-82218381D01*
X56010498Y-82338079D01*
X56069463Y-82448393D01*
X56148815Y-82545084D01*
X56245506Y-82624436D01*
X56339024Y-82674423D01*
X56319970Y-82693477D01*
X56435918Y-82809425D01*
X56181739Y-82893107D01*
X56050842Y-83165674D01*
X55975635Y-83458541D01*
X55959009Y-83760452D01*
X56001603Y-84059806D01*
X56101778Y-84345098D01*
X56181739Y-84494691D01*
X56435920Y-84578374D01*
X57320395Y-83693899D01*
X57306253Y-83679757D01*
X57485858Y-83500152D01*
X57500000Y-83514294D01*
X57514143Y-83500152D01*
X57693748Y-83679757D01*
X57679605Y-83693899D01*
X58564080Y-84578374D01*
X58712262Y-84529589D01*
X58807688Y-84672404D01*
X59021495Y-84886211D01*
X59272905Y-85054198D01*
X59552257Y-85169910D01*
X59848816Y-85228899D01*
X60151184Y-85228899D01*
X60447743Y-85169910D01*
X60727095Y-85054198D01*
X60978505Y-84886211D01*
X61192312Y-84672404D01*
X61250000Y-84586068D01*
X61307688Y-84672404D01*
X61521495Y-84886211D01*
X61772905Y-85054198D01*
X62052257Y-85169910D01*
X62348816Y-85228899D01*
X62651184Y-85228899D01*
X62947743Y-85169910D01*
X63227095Y-85054198D01*
X63478505Y-84886211D01*
X63604716Y-84760000D01*
X66165198Y-84760000D01*
X63370003Y-87555196D01*
X63340999Y-87578999D01*
X63285871Y-87646174D01*
X63246026Y-87694724D01*
X63175455Y-87826753D01*
X63175454Y-87826754D01*
X63131997Y-87970015D01*
X63121000Y-88081668D01*
X63121000Y-88081678D01*
X63117324Y-88119000D01*
X63121000Y-88156323D01*
X63121001Y-94950996D01*
X62135000Y-95936997D01*
X62135000Y-95556520D01*
X62052953Y-95144043D01*
X61892012Y-94755497D01*
X61658363Y-94405816D01*
X61360983Y-94108436D01*
X61011302Y-93874787D01*
X60622756Y-93713846D01*
X60210279Y-93631799D01*
X59789721Y-93631799D01*
X59377244Y-93713846D01*
X58988698Y-93874787D01*
X58639017Y-94108436D01*
X58341637Y-94405816D01*
X58107988Y-94755497D01*
X57947047Y-95144043D01*
X57865000Y-95556520D01*
X57865000Y-95977078D01*
X57947047Y-96389555D01*
X58107988Y-96778101D01*
X58341637Y-97127782D01*
X58639017Y-97425162D01*
X58988698Y-97658811D01*
X59087663Y-97699804D01*
X58909939Y-97818555D01*
X58671756Y-98056738D01*
X58484618Y-98336810D01*
X58355714Y-98648010D01*
X58290000Y-98978379D01*
X58290000Y-99315219D01*
X58355714Y-99645588D01*
X58376420Y-99695577D01*
X56690800Y-101381198D01*
X56690800Y-96747822D01*
X56694476Y-96710499D01*
X56690800Y-96673176D01*
X56690800Y-96673167D01*
X56679803Y-96561514D01*
X56636346Y-96418253D01*
X56565775Y-96286225D01*
X56565774Y-96286223D01*
X56494599Y-96199497D01*
X56470801Y-96170499D01*
X56441804Y-96146702D01*
X53760000Y-93464899D01*
X53760000Y-93098043D01*
X53914759Y-92994637D01*
X54114637Y-92794759D01*
X54218043Y-92640000D01*
X58929477Y-92640000D01*
X58966799Y-92643676D01*
X59004121Y-92640000D01*
X59004132Y-92640000D01*
X59115785Y-92629003D01*
X59259046Y-92585546D01*
X59391075Y-92514974D01*
X59447362Y-92468780D01*
X59501211Y-92491085D01*
X59831580Y-92556799D01*
X60168420Y-92556799D01*
X60498789Y-92491085D01*
X60809989Y-92362181D01*
X61090061Y-92175043D01*
X61328244Y-91936860D01*
X61515382Y-91656788D01*
X61644286Y-91345588D01*
X61710000Y-91015219D01*
X61710000Y-90678379D01*
X61644286Y-90348010D01*
X61515382Y-90036810D01*
X61328244Y-89756738D01*
X61090061Y-89518555D01*
X60809989Y-89331417D01*
X60498789Y-89202513D01*
X60168420Y-89136799D01*
X59831580Y-89136799D01*
X59501211Y-89202513D01*
X59190011Y-89331417D01*
X58909939Y-89518555D01*
X58671756Y-89756738D01*
X58484618Y-90036810D01*
X58355714Y-90348010D01*
X58290000Y-90678379D01*
X58290000Y-91015219D01*
X58310842Y-91120000D01*
X54218043Y-91120000D01*
X54114637Y-90965241D01*
X53914759Y-90765363D01*
X53679727Y-90608320D01*
X53418574Y-90500147D01*
X53141335Y-90445000D01*
X52858665Y-90445000D01*
X52760000Y-90464626D01*
X52760000Y-85218043D01*
X52914759Y-85114637D01*
X53114637Y-84914759D01*
X53219393Y-84757979D01*
X56615525Y-84757979D01*
X56699208Y-85012160D01*
X56971775Y-85143057D01*
X57264642Y-85218264D01*
X57566553Y-85234890D01*
X57865907Y-85192296D01*
X58151199Y-85092121D01*
X58300792Y-85012160D01*
X58384475Y-84757979D01*
X57500000Y-83873504D01*
X56615525Y-84757979D01*
X53219393Y-84757979D01*
X53271680Y-84679727D01*
X53379853Y-84418574D01*
X53435000Y-84141335D01*
X53435000Y-83858665D01*
X53379853Y-83581426D01*
X53271680Y-83320273D01*
X53114637Y-83085241D01*
X52914759Y-82885363D01*
X52760000Y-82781957D01*
X52760000Y-81588601D01*
X54054702Y-80293899D01*
X55961928Y-80293899D01*
X55965000Y-80908149D01*
X56123750Y-81066899D01*
X57373000Y-81066899D01*
X57373000Y-79817649D01*
X57214250Y-79658899D01*
X56600000Y-79655827D01*
X56475518Y-79668087D01*
X56355820Y-79704397D01*
X56245506Y-79763362D01*
X56148815Y-79842714D01*
X56069463Y-79939405D01*
X56010498Y-80049719D01*
X55974188Y-80169417D01*
X55961928Y-80293899D01*
X54054702Y-80293899D01*
X56359902Y-77988700D01*
X60607099Y-77988700D01*
X61740001Y-79121604D01*
G37*
X61740001Y-79121604D02*
X61740001Y-79855586D01*
X61521495Y-80001587D01*
X61307688Y-80215394D01*
X61250000Y-80301730D01*
X61192312Y-80215394D01*
X60978505Y-80001587D01*
X60727095Y-79833600D01*
X60447743Y-79717888D01*
X60151184Y-79658899D01*
X59848816Y-79658899D01*
X59552257Y-79717888D01*
X59272905Y-79833600D01*
X59021495Y-80001587D01*
X58983880Y-80039202D01*
X58930537Y-79939405D01*
X58851185Y-79842714D01*
X58754494Y-79763362D01*
X58644180Y-79704397D01*
X58524482Y-79668087D01*
X58400000Y-79655827D01*
X57785750Y-79658899D01*
X57627000Y-79817649D01*
X57627000Y-81066899D01*
X57647000Y-81066899D01*
X57647000Y-81320899D01*
X57627000Y-81320899D01*
X57627000Y-81340899D01*
X57373000Y-81340899D01*
X57373000Y-81320899D01*
X56123750Y-81320899D01*
X55965000Y-81479649D01*
X55961928Y-82093899D01*
X55974188Y-82218381D01*
X56010498Y-82338079D01*
X56069463Y-82448393D01*
X56148815Y-82545084D01*
X56245506Y-82624436D01*
X56339024Y-82674423D01*
X56319970Y-82693477D01*
X56435918Y-82809425D01*
X56181739Y-82893107D01*
X56050842Y-83165674D01*
X55975635Y-83458541D01*
X55959009Y-83760452D01*
X56001603Y-84059806D01*
X56101778Y-84345098D01*
X56181739Y-84494691D01*
X56435920Y-84578374D01*
X57320395Y-83693899D01*
X57306253Y-83679757D01*
X57485858Y-83500152D01*
X57500000Y-83514294D01*
X57514143Y-83500152D01*
X57693748Y-83679757D01*
X57679605Y-83693899D01*
X58564080Y-84578374D01*
X58712262Y-84529589D01*
X58807688Y-84672404D01*
X59021495Y-84886211D01*
X59272905Y-85054198D01*
X59552257Y-85169910D01*
X59848816Y-85228899D01*
X60151184Y-85228899D01*
X60447743Y-85169910D01*
X60727095Y-85054198D01*
X60978505Y-84886211D01*
X61192312Y-84672404D01*
X61250000Y-84586068D01*
X61307688Y-84672404D01*
X61521495Y-84886211D01*
X61772905Y-85054198D01*
X62052257Y-85169910D01*
X62348816Y-85228899D01*
X62651184Y-85228899D01*
X62947743Y-85169910D01*
X63227095Y-85054198D01*
X63478505Y-84886211D01*
X63604716Y-84760000D01*
X66165198Y-84760000D01*
X63370003Y-87555196D01*
X63340999Y-87578999D01*
X63285871Y-87646174D01*
X63246026Y-87694724D01*
X63175455Y-87826753D01*
X63175454Y-87826754D01*
X63131997Y-87970015D01*
X63121000Y-88081668D01*
X63121000Y-88081678D01*
X63117324Y-88119000D01*
X63121000Y-88156323D01*
X63121001Y-94950996D01*
X62135000Y-95936997D01*
X62135000Y-95556520D01*
X62052953Y-95144043D01*
X61892012Y-94755497D01*
X61658363Y-94405816D01*
X61360983Y-94108436D01*
X61011302Y-93874787D01*
X60622756Y-93713846D01*
X60210279Y-93631799D01*
X59789721Y-93631799D01*
X59377244Y-93713846D01*
X58988698Y-93874787D01*
X58639017Y-94108436D01*
X58341637Y-94405816D01*
X58107988Y-94755497D01*
X57947047Y-95144043D01*
X57865000Y-95556520D01*
X57865000Y-95977078D01*
X57947047Y-96389555D01*
X58107988Y-96778101D01*
X58341637Y-97127782D01*
X58639017Y-97425162D01*
X58988698Y-97658811D01*
X59087663Y-97699804D01*
X58909939Y-97818555D01*
X58671756Y-98056738D01*
X58484618Y-98336810D01*
X58355714Y-98648010D01*
X58290000Y-98978379D01*
X58290000Y-99315219D01*
X58355714Y-99645588D01*
X58376420Y-99695577D01*
X56690800Y-101381198D01*
X56690800Y-96747822D01*
X56694476Y-96710499D01*
X56690800Y-96673176D01*
X56690800Y-96673167D01*
X56679803Y-96561514D01*
X56636346Y-96418253D01*
X56565775Y-96286225D01*
X56565774Y-96286223D01*
X56494599Y-96199497D01*
X56470801Y-96170499D01*
X56441804Y-96146702D01*
X53760000Y-93464899D01*
X53760000Y-93098043D01*
X53914759Y-92994637D01*
X54114637Y-92794759D01*
X54218043Y-92640000D01*
X58929477Y-92640000D01*
X58966799Y-92643676D01*
X59004121Y-92640000D01*
X59004132Y-92640000D01*
X59115785Y-92629003D01*
X59259046Y-92585546D01*
X59391075Y-92514974D01*
X59447362Y-92468780D01*
X59501211Y-92491085D01*
X59831580Y-92556799D01*
X60168420Y-92556799D01*
X60498789Y-92491085D01*
X60809989Y-92362181D01*
X61090061Y-92175043D01*
X61328244Y-91936860D01*
X61515382Y-91656788D01*
X61644286Y-91345588D01*
X61710000Y-91015219D01*
X61710000Y-90678379D01*
X61644286Y-90348010D01*
X61515382Y-90036810D01*
X61328244Y-89756738D01*
X61090061Y-89518555D01*
X60809989Y-89331417D01*
X60498789Y-89202513D01*
X60168420Y-89136799D01*
X59831580Y-89136799D01*
X59501211Y-89202513D01*
X59190011Y-89331417D01*
X58909939Y-89518555D01*
X58671756Y-89756738D01*
X58484618Y-90036810D01*
X58355714Y-90348010D01*
X58290000Y-90678379D01*
X58290000Y-91015219D01*
X58310842Y-91120000D01*
X54218043Y-91120000D01*
X54114637Y-90965241D01*
X53914759Y-90765363D01*
X53679727Y-90608320D01*
X53418574Y-90500147D01*
X53141335Y-90445000D01*
X52858665Y-90445000D01*
X52760000Y-90464626D01*
X52760000Y-85218043D01*
X52914759Y-85114637D01*
X53114637Y-84914759D01*
X53219393Y-84757979D01*
X56615525Y-84757979D01*
X56699208Y-85012160D01*
X56971775Y-85143057D01*
X57264642Y-85218264D01*
X57566553Y-85234890D01*
X57865907Y-85192296D01*
X58151199Y-85092121D01*
X58300792Y-85012160D01*
X58384475Y-84757979D01*
X57500000Y-83873504D01*
X56615525Y-84757979D01*
X53219393Y-84757979D01*
X53271680Y-84679727D01*
X53379853Y-84418574D01*
X53435000Y-84141335D01*
X53435000Y-83858665D01*
X53379853Y-83581426D01*
X53271680Y-83320273D01*
X53114637Y-83085241D01*
X52914759Y-82885363D01*
X52760000Y-82781957D01*
X52760000Y-81588601D01*
X54054702Y-80293899D01*
X55961928Y-80293899D01*
X55965000Y-80908149D01*
X56123750Y-81066899D01*
X57373000Y-81066899D01*
X57373000Y-79817649D01*
X57214250Y-79658899D01*
X56600000Y-79655827D01*
X56475518Y-79668087D01*
X56355820Y-79704397D01*
X56245506Y-79763362D01*
X56148815Y-79842714D01*
X56069463Y-79939405D01*
X56010498Y-80049719D01*
X55974188Y-80169417D01*
X55961928Y-80293899D01*
X54054702Y-80293899D01*
X56359902Y-77988700D01*
X60607099Y-77988700D01*
X61740001Y-79121604D01*
G36*
X69340000Y-75865212D02*
G01*
X69271680Y-75700273D01*
X69114637Y-75465241D01*
X68914759Y-75265363D01*
X68760000Y-75161957D01*
X68760000Y-72164823D01*
X68763676Y-72127500D01*
X68760000Y-72090177D01*
X68760000Y-72090167D01*
X68749003Y-71978514D01*
X68705546Y-71835253D01*
X68634974Y-71703224D01*
X68540001Y-71587499D01*
X68511004Y-71563702D01*
X66324404Y-69377103D01*
X66300601Y-69348099D01*
X66184876Y-69253126D01*
X66052847Y-69182554D01*
X65909586Y-69139097D01*
X65797933Y-69128100D01*
X65797922Y-69128100D01*
X65760600Y-69124424D01*
X65723278Y-69128100D01*
X63954502Y-69128100D01*
X62834002Y-68007600D01*
X62941202Y-68007600D01*
X62941202Y-67848852D01*
X63099950Y-68007600D01*
X63664200Y-68010672D01*
X63788682Y-67998412D01*
X63908380Y-67962102D01*
X64018694Y-67903137D01*
X64115385Y-67823785D01*
X64194737Y-67727094D01*
X64253702Y-67616780D01*
X64290012Y-67497082D01*
X64302272Y-67372600D01*
X64299200Y-66808350D01*
X64140450Y-66649600D01*
X62941200Y-66649600D01*
X62941200Y-66669600D01*
X62687200Y-66669600D01*
X62687200Y-66649600D01*
X62667200Y-66649600D01*
X62667200Y-66395600D01*
X62687200Y-66395600D01*
X62687200Y-65196350D01*
X62941200Y-65196350D01*
X62941200Y-66395600D01*
X64140450Y-66395600D01*
X64299200Y-66236850D01*
X64302272Y-65672600D01*
X64290012Y-65548118D01*
X64253702Y-65428420D01*
X64194737Y-65318106D01*
X64115385Y-65221415D01*
X64018694Y-65142063D01*
X63908380Y-65083098D01*
X63788682Y-65046788D01*
X63664200Y-65034528D01*
X63099950Y-65037600D01*
X62941200Y-65196350D01*
X62687200Y-65196350D01*
X62528450Y-65037600D01*
X61964200Y-65034528D01*
X61839718Y-65046788D01*
X61720020Y-65083098D01*
X61609706Y-65142063D01*
X61513015Y-65221415D01*
X61433663Y-65318106D01*
X61374698Y-65428420D01*
X61352687Y-65500980D01*
X61220832Y-65369125D01*
X61034200Y-65244422D01*
X61034200Y-64160080D01*
X64115525Y-64160080D01*
X64199208Y-64414261D01*
X64471775Y-64545158D01*
X64764642Y-64620365D01*
X65066553Y-64636991D01*
X65365907Y-64594397D01*
X65651199Y-64494222D01*
X65800792Y-64414261D01*
X65884475Y-64160080D01*
X65000000Y-63275605D01*
X64115525Y-64160080D01*
X61034200Y-64160080D01*
X61034200Y-63802101D01*
X61673748Y-63162553D01*
X63459009Y-63162553D01*
X63501603Y-63461907D01*
X63601778Y-63747199D01*
X63681739Y-63896792D01*
X63935920Y-63980475D01*
X64820395Y-63096000D01*
X65179605Y-63096000D01*
X66064080Y-63980475D01*
X66318261Y-63896792D01*
X66449158Y-63624225D01*
X66524365Y-63331358D01*
X66540991Y-63029447D01*
X66498397Y-62730093D01*
X66398222Y-62444801D01*
X66318261Y-62295208D01*
X66064080Y-62211525D01*
X65179605Y-63096000D01*
X64820395Y-63096000D01*
X63935920Y-62211525D01*
X63681739Y-62295208D01*
X63550842Y-62567775D01*
X63475635Y-62860642D01*
X63459009Y-63162553D01*
X61673748Y-63162553D01*
X62271103Y-62565199D01*
X62300101Y-62541401D01*
X62379379Y-62444801D01*
X62395074Y-62425677D01*
X62465646Y-62293647D01*
X62509103Y-62150386D01*
X62520100Y-62038733D01*
X62520100Y-62038723D01*
X62523776Y-62001400D01*
X62520100Y-61964077D01*
X62520100Y-61568890D01*
X63990715Y-61568890D01*
X64095531Y-61840959D01*
X64166870Y-61875964D01*
X64115525Y-62031920D01*
X65000000Y-62916395D01*
X65884475Y-62031920D01*
X65834006Y-61878623D01*
X65904469Y-61840959D01*
X66009285Y-61568890D01*
X65000000Y-60559605D01*
X63990715Y-61568890D01*
X62520100Y-61568890D01*
X62520100Y-60439627D01*
X63282761Y-60439627D01*
X63327390Y-60773498D01*
X63436296Y-61092247D01*
X63539041Y-61284469D01*
X63811110Y-61389285D01*
X64820395Y-60380000D01*
X65179605Y-60380000D01*
X66188890Y-61389285D01*
X66460959Y-61284469D01*
X66609340Y-60982071D01*
X66695875Y-60656535D01*
X66717239Y-60320373D01*
X66672610Y-59986502D01*
X66563704Y-59667753D01*
X66460959Y-59475531D01*
X66188890Y-59370715D01*
X65179605Y-60380000D01*
X64820395Y-60380000D01*
X63811110Y-59370715D01*
X63539041Y-59475531D01*
X63390660Y-59777929D01*
X63304125Y-60103465D01*
X63282761Y-60439627D01*
X62520100Y-60439627D01*
X62520100Y-56789721D01*
X62865000Y-56789721D01*
X62865000Y-57210279D01*
X62947047Y-57622756D01*
X63107988Y-58011302D01*
X63341637Y-58360983D01*
X63639017Y-58658363D01*
X63988698Y-58892012D01*
X64089809Y-58933894D01*
X63990715Y-59191110D01*
X65000000Y-60200395D01*
X66009285Y-59191110D01*
X65910191Y-58933894D01*
X66011302Y-58892012D01*
X66360983Y-58658363D01*
X66658363Y-58360983D01*
X66892012Y-58011302D01*
X67052953Y-57622756D01*
X67135000Y-57210279D01*
X67135000Y-56789721D01*
X67052953Y-56377244D01*
X66892012Y-55988698D01*
X66658363Y-55639017D01*
X66360983Y-55341637D01*
X66011302Y-55107988D01*
X65622756Y-54947047D01*
X65210279Y-54865000D01*
X64789721Y-54865000D01*
X64377244Y-54947047D01*
X63988698Y-55107988D01*
X63639017Y-55341637D01*
X63341637Y-55639017D01*
X63107988Y-55988698D01*
X62947047Y-56377244D01*
X62865000Y-56789721D01*
X62520100Y-56789721D01*
X62520100Y-55634701D01*
X64451222Y-53703580D01*
X64501211Y-53724286D01*
X64831580Y-53790000D01*
X65168420Y-53790000D01*
X65498789Y-53724286D01*
X65809989Y-53595382D01*
X66090061Y-53408244D01*
X66328244Y-53170061D01*
X66515382Y-52889989D01*
X66644286Y-52578789D01*
X66710000Y-52248420D01*
X66710000Y-51911580D01*
X66644286Y-51581211D01*
X66515382Y-51270011D01*
X66328244Y-50989939D01*
X66090061Y-50751756D01*
X65952738Y-50660000D01*
X69340000Y-50660000D01*
X69340000Y-75865212D01*
G37*
X69340000Y-75865212D02*
X69271680Y-75700273D01*
X69114637Y-75465241D01*
X68914759Y-75265363D01*
X68760000Y-75161957D01*
X68760000Y-72164823D01*
X68763676Y-72127500D01*
X68760000Y-72090177D01*
X68760000Y-72090167D01*
X68749003Y-71978514D01*
X68705546Y-71835253D01*
X68634974Y-71703224D01*
X68540001Y-71587499D01*
X68511004Y-71563702D01*
X66324404Y-69377103D01*
X66300601Y-69348099D01*
X66184876Y-69253126D01*
X66052847Y-69182554D01*
X65909586Y-69139097D01*
X65797933Y-69128100D01*
X65797922Y-69128100D01*
X65760600Y-69124424D01*
X65723278Y-69128100D01*
X63954502Y-69128100D01*
X62834002Y-68007600D01*
X62941202Y-68007600D01*
X62941202Y-67848852D01*
X63099950Y-68007600D01*
X63664200Y-68010672D01*
X63788682Y-67998412D01*
X63908380Y-67962102D01*
X64018694Y-67903137D01*
X64115385Y-67823785D01*
X64194737Y-67727094D01*
X64253702Y-67616780D01*
X64290012Y-67497082D01*
X64302272Y-67372600D01*
X64299200Y-66808350D01*
X64140450Y-66649600D01*
X62941200Y-66649600D01*
X62941200Y-66669600D01*
X62687200Y-66669600D01*
X62687200Y-66649600D01*
X62667200Y-66649600D01*
X62667200Y-66395600D01*
X62687200Y-66395600D01*
X62687200Y-65196350D01*
X62941200Y-65196350D01*
X62941200Y-66395600D01*
X64140450Y-66395600D01*
X64299200Y-66236850D01*
X64302272Y-65672600D01*
X64290012Y-65548118D01*
X64253702Y-65428420D01*
X64194737Y-65318106D01*
X64115385Y-65221415D01*
X64018694Y-65142063D01*
X63908380Y-65083098D01*
X63788682Y-65046788D01*
X63664200Y-65034528D01*
X63099950Y-65037600D01*
X62941200Y-65196350D01*
X62687200Y-65196350D01*
X62528450Y-65037600D01*
X61964200Y-65034528D01*
X61839718Y-65046788D01*
X61720020Y-65083098D01*
X61609706Y-65142063D01*
X61513015Y-65221415D01*
X61433663Y-65318106D01*
X61374698Y-65428420D01*
X61352687Y-65500980D01*
X61220832Y-65369125D01*
X61034200Y-65244422D01*
X61034200Y-64160080D01*
X64115525Y-64160080D01*
X64199208Y-64414261D01*
X64471775Y-64545158D01*
X64764642Y-64620365D01*
X65066553Y-64636991D01*
X65365907Y-64594397D01*
X65651199Y-64494222D01*
X65800792Y-64414261D01*
X65884475Y-64160080D01*
X65000000Y-63275605D01*
X64115525Y-64160080D01*
X61034200Y-64160080D01*
X61034200Y-63802101D01*
X61673748Y-63162553D01*
X63459009Y-63162553D01*
X63501603Y-63461907D01*
X63601778Y-63747199D01*
X63681739Y-63896792D01*
X63935920Y-63980475D01*
X64820395Y-63096000D01*
X65179605Y-63096000D01*
X66064080Y-63980475D01*
X66318261Y-63896792D01*
X66449158Y-63624225D01*
X66524365Y-63331358D01*
X66540991Y-63029447D01*
X66498397Y-62730093D01*
X66398222Y-62444801D01*
X66318261Y-62295208D01*
X66064080Y-62211525D01*
X65179605Y-63096000D01*
X64820395Y-63096000D01*
X63935920Y-62211525D01*
X63681739Y-62295208D01*
X63550842Y-62567775D01*
X63475635Y-62860642D01*
X63459009Y-63162553D01*
X61673748Y-63162553D01*
X62271103Y-62565199D01*
X62300101Y-62541401D01*
X62379379Y-62444801D01*
X62395074Y-62425677D01*
X62465646Y-62293647D01*
X62509103Y-62150386D01*
X62520100Y-62038733D01*
X62520100Y-62038723D01*
X62523776Y-62001400D01*
X62520100Y-61964077D01*
X62520100Y-61568890D01*
X63990715Y-61568890D01*
X64095531Y-61840959D01*
X64166870Y-61875964D01*
X64115525Y-62031920D01*
X65000000Y-62916395D01*
X65884475Y-62031920D01*
X65834006Y-61878623D01*
X65904469Y-61840959D01*
X66009285Y-61568890D01*
X65000000Y-60559605D01*
X63990715Y-61568890D01*
X62520100Y-61568890D01*
X62520100Y-60439627D01*
X63282761Y-60439627D01*
X63327390Y-60773498D01*
X63436296Y-61092247D01*
X63539041Y-61284469D01*
X63811110Y-61389285D01*
X64820395Y-60380000D01*
X65179605Y-60380000D01*
X66188890Y-61389285D01*
X66460959Y-61284469D01*
X66609340Y-60982071D01*
X66695875Y-60656535D01*
X66717239Y-60320373D01*
X66672610Y-59986502D01*
X66563704Y-59667753D01*
X66460959Y-59475531D01*
X66188890Y-59370715D01*
X65179605Y-60380000D01*
X64820395Y-60380000D01*
X63811110Y-59370715D01*
X63539041Y-59475531D01*
X63390660Y-59777929D01*
X63304125Y-60103465D01*
X63282761Y-60439627D01*
X62520100Y-60439627D01*
X62520100Y-56789721D01*
X62865000Y-56789721D01*
X62865000Y-57210279D01*
X62947047Y-57622756D01*
X63107988Y-58011302D01*
X63341637Y-58360983D01*
X63639017Y-58658363D01*
X63988698Y-58892012D01*
X64089809Y-58933894D01*
X63990715Y-59191110D01*
X65000000Y-60200395D01*
X66009285Y-59191110D01*
X65910191Y-58933894D01*
X66011302Y-58892012D01*
X66360983Y-58658363D01*
X66658363Y-58360983D01*
X66892012Y-58011302D01*
X67052953Y-57622756D01*
X67135000Y-57210279D01*
X67135000Y-56789721D01*
X67052953Y-56377244D01*
X66892012Y-55988698D01*
X66658363Y-55639017D01*
X66360983Y-55341637D01*
X66011302Y-55107988D01*
X65622756Y-54947047D01*
X65210279Y-54865000D01*
X64789721Y-54865000D01*
X64377244Y-54947047D01*
X63988698Y-55107988D01*
X63639017Y-55341637D01*
X63341637Y-55639017D01*
X63107988Y-55988698D01*
X62947047Y-56377244D01*
X62865000Y-56789721D01*
X62520100Y-56789721D01*
X62520100Y-55634701D01*
X64451222Y-53703580D01*
X64501211Y-53724286D01*
X64831580Y-53790000D01*
X65168420Y-53790000D01*
X65498789Y-53724286D01*
X65809989Y-53595382D01*
X66090061Y-53408244D01*
X66328244Y-53170061D01*
X66515382Y-52889989D01*
X66644286Y-52578789D01*
X66710000Y-52248420D01*
X66710000Y-51911580D01*
X66644286Y-51581211D01*
X66515382Y-51270011D01*
X66328244Y-50989939D01*
X66090061Y-50751756D01*
X65952738Y-50660000D01*
X69340000Y-50660000D01*
X69340000Y-75865212D01*
G36*
X53909939Y-50751756D02*
G01*
X53671756Y-50989939D01*
X53484618Y-51270011D01*
X53355714Y-51581211D01*
X53290000Y-51911580D01*
X53290000Y-52248420D01*
X53355714Y-52578789D01*
X53484618Y-52889989D01*
X53671756Y-53170061D01*
X53909939Y-53408244D01*
X54190011Y-53595382D01*
X54501211Y-53724286D01*
X54831580Y-53790000D01*
X55168420Y-53790000D01*
X55498789Y-53724286D01*
X55548778Y-53703580D01*
X56974200Y-55129002D01*
X56974200Y-56187118D01*
X56892012Y-55988698D01*
X56658363Y-55639017D01*
X56360983Y-55341637D01*
X56011302Y-55107988D01*
X55622756Y-54947047D01*
X55210279Y-54865000D01*
X54789721Y-54865000D01*
X54377244Y-54947047D01*
X53988698Y-55107988D01*
X53639017Y-55341637D01*
X53341637Y-55639017D01*
X53107988Y-55988698D01*
X52947047Y-56377244D01*
X52865000Y-56789721D01*
X52865000Y-57210279D01*
X52947047Y-57622756D01*
X53107988Y-58011302D01*
X53341637Y-58360983D01*
X53639017Y-58658363D01*
X53988698Y-58892012D01*
X54089809Y-58933894D01*
X53990715Y-59191110D01*
X55000000Y-60200395D01*
X56009285Y-59191110D01*
X55910191Y-58933894D01*
X56011302Y-58892012D01*
X56360983Y-58658363D01*
X56658363Y-58360983D01*
X56892012Y-58011302D01*
X56974200Y-57812882D01*
X56974201Y-65244421D01*
X56787568Y-65369125D01*
X56580725Y-65575968D01*
X56418210Y-65819189D01*
X56306268Y-66089442D01*
X56249200Y-66376340D01*
X56249200Y-66668860D01*
X56292990Y-66889007D01*
X51489003Y-71692996D01*
X51459999Y-71716799D01*
X51418725Y-71767092D01*
X51365026Y-71832524D01*
X51363567Y-71835254D01*
X51294454Y-71964554D01*
X51250997Y-72107815D01*
X51240000Y-72219468D01*
X51240000Y-72219478D01*
X51236324Y-72256800D01*
X51240000Y-72294123D01*
X51240001Y-75161956D01*
X51085241Y-75265363D01*
X50885363Y-75465241D01*
X50728320Y-75700273D01*
X50660000Y-75865212D01*
X50660000Y-64160080D01*
X54115525Y-64160080D01*
X54199208Y-64414261D01*
X54471775Y-64545158D01*
X54764642Y-64620365D01*
X55066553Y-64636991D01*
X55365907Y-64594397D01*
X55651199Y-64494222D01*
X55800792Y-64414261D01*
X55884475Y-64160080D01*
X55000000Y-63275605D01*
X54115525Y-64160080D01*
X50660000Y-64160080D01*
X50660000Y-63162553D01*
X53459009Y-63162553D01*
X53501603Y-63461907D01*
X53601778Y-63747199D01*
X53681739Y-63896792D01*
X53935920Y-63980475D01*
X54820395Y-63096000D01*
X55179605Y-63096000D01*
X56064080Y-63980475D01*
X56318261Y-63896792D01*
X56449158Y-63624225D01*
X56524365Y-63331358D01*
X56540991Y-63029447D01*
X56498397Y-62730093D01*
X56398222Y-62444801D01*
X56318261Y-62295208D01*
X56064080Y-62211525D01*
X55179605Y-63096000D01*
X54820395Y-63096000D01*
X53935920Y-62211525D01*
X53681739Y-62295208D01*
X53550842Y-62567775D01*
X53475635Y-62860642D01*
X53459009Y-63162553D01*
X50660000Y-63162553D01*
X50660000Y-61568890D01*
X53990715Y-61568890D01*
X54095531Y-61840959D01*
X54166870Y-61875964D01*
X54115525Y-62031920D01*
X55000000Y-62916395D01*
X55884475Y-62031920D01*
X55834006Y-61878623D01*
X55904469Y-61840959D01*
X56009285Y-61568890D01*
X55000000Y-60559605D01*
X53990715Y-61568890D01*
X50660000Y-61568890D01*
X50660000Y-60439627D01*
X53282761Y-60439627D01*
X53327390Y-60773498D01*
X53436296Y-61092247D01*
X53539041Y-61284469D01*
X53811110Y-61389285D01*
X54820395Y-60380000D01*
X55179605Y-60380000D01*
X56188890Y-61389285D01*
X56460959Y-61284469D01*
X56609340Y-60982071D01*
X56695875Y-60656535D01*
X56717239Y-60320373D01*
X56672610Y-59986502D01*
X56563704Y-59667753D01*
X56460959Y-59475531D01*
X56188890Y-59370715D01*
X55179605Y-60380000D01*
X54820395Y-60380000D01*
X53811110Y-59370715D01*
X53539041Y-59475531D01*
X53390660Y-59777929D01*
X53304125Y-60103465D01*
X53282761Y-60439627D01*
X50660000Y-60439627D01*
X50660000Y-50660000D01*
X54047262Y-50660000D01*
X53909939Y-50751756D01*
G37*
X53909939Y-50751756D02*
X53671756Y-50989939D01*
X53484618Y-51270011D01*
X53355714Y-51581211D01*
X53290000Y-51911580D01*
X53290000Y-52248420D01*
X53355714Y-52578789D01*
X53484618Y-52889989D01*
X53671756Y-53170061D01*
X53909939Y-53408244D01*
X54190011Y-53595382D01*
X54501211Y-53724286D01*
X54831580Y-53790000D01*
X55168420Y-53790000D01*
X55498789Y-53724286D01*
X55548778Y-53703580D01*
X56974200Y-55129002D01*
X56974200Y-56187118D01*
X56892012Y-55988698D01*
X56658363Y-55639017D01*
X56360983Y-55341637D01*
X56011302Y-55107988D01*
X55622756Y-54947047D01*
X55210279Y-54865000D01*
X54789721Y-54865000D01*
X54377244Y-54947047D01*
X53988698Y-55107988D01*
X53639017Y-55341637D01*
X53341637Y-55639017D01*
X53107988Y-55988698D01*
X52947047Y-56377244D01*
X52865000Y-56789721D01*
X52865000Y-57210279D01*
X52947047Y-57622756D01*
X53107988Y-58011302D01*
X53341637Y-58360983D01*
X53639017Y-58658363D01*
X53988698Y-58892012D01*
X54089809Y-58933894D01*
X53990715Y-59191110D01*
X55000000Y-60200395D01*
X56009285Y-59191110D01*
X55910191Y-58933894D01*
X56011302Y-58892012D01*
X56360983Y-58658363D01*
X56658363Y-58360983D01*
X56892012Y-58011302D01*
X56974200Y-57812882D01*
X56974201Y-65244421D01*
X56787568Y-65369125D01*
X56580725Y-65575968D01*
X56418210Y-65819189D01*
X56306268Y-66089442D01*
X56249200Y-66376340D01*
X56249200Y-66668860D01*
X56292990Y-66889007D01*
X51489003Y-71692996D01*
X51459999Y-71716799D01*
X51418725Y-71767092D01*
X51365026Y-71832524D01*
X51363567Y-71835254D01*
X51294454Y-71964554D01*
X51250997Y-72107815D01*
X51240000Y-72219468D01*
X51240000Y-72219478D01*
X51236324Y-72256800D01*
X51240000Y-72294123D01*
X51240001Y-75161956D01*
X51085241Y-75265363D01*
X50885363Y-75465241D01*
X50728320Y-75700273D01*
X50660000Y-75865212D01*
X50660000Y-64160080D01*
X54115525Y-64160080D01*
X54199208Y-64414261D01*
X54471775Y-64545158D01*
X54764642Y-64620365D01*
X55066553Y-64636991D01*
X55365907Y-64594397D01*
X55651199Y-64494222D01*
X55800792Y-64414261D01*
X55884475Y-64160080D01*
X55000000Y-63275605D01*
X54115525Y-64160080D01*
X50660000Y-64160080D01*
X50660000Y-63162553D01*
X53459009Y-63162553D01*
X53501603Y-63461907D01*
X53601778Y-63747199D01*
X53681739Y-63896792D01*
X53935920Y-63980475D01*
X54820395Y-63096000D01*
X55179605Y-63096000D01*
X56064080Y-63980475D01*
X56318261Y-63896792D01*
X56449158Y-63624225D01*
X56524365Y-63331358D01*
X56540991Y-63029447D01*
X56498397Y-62730093D01*
X56398222Y-62444801D01*
X56318261Y-62295208D01*
X56064080Y-62211525D01*
X55179605Y-63096000D01*
X54820395Y-63096000D01*
X53935920Y-62211525D01*
X53681739Y-62295208D01*
X53550842Y-62567775D01*
X53475635Y-62860642D01*
X53459009Y-63162553D01*
X50660000Y-63162553D01*
X50660000Y-61568890D01*
X53990715Y-61568890D01*
X54095531Y-61840959D01*
X54166870Y-61875964D01*
X54115525Y-62031920D01*
X55000000Y-62916395D01*
X55884475Y-62031920D01*
X55834006Y-61878623D01*
X55904469Y-61840959D01*
X56009285Y-61568890D01*
X55000000Y-60559605D01*
X53990715Y-61568890D01*
X50660000Y-61568890D01*
X50660000Y-60439627D01*
X53282761Y-60439627D01*
X53327390Y-60773498D01*
X53436296Y-61092247D01*
X53539041Y-61284469D01*
X53811110Y-61389285D01*
X54820395Y-60380000D01*
X55179605Y-60380000D01*
X56188890Y-61389285D01*
X56460959Y-61284469D01*
X56609340Y-60982071D01*
X56695875Y-60656535D01*
X56717239Y-60320373D01*
X56672610Y-59986502D01*
X56563704Y-59667753D01*
X56460959Y-59475531D01*
X56188890Y-59370715D01*
X55179605Y-60380000D01*
X54820395Y-60380000D01*
X53811110Y-59370715D01*
X53539041Y-59475531D01*
X53390660Y-59777929D01*
X53304125Y-60103465D01*
X53282761Y-60439627D01*
X50660000Y-60439627D01*
X50660000Y-50660000D01*
X54047262Y-50660000D01*
X53909939Y-50751756D01*
%TD*%
M02*
