M48
; DRILL file {KiCad (5.1.6-0-10_14)} date Sunday, December 13, 2020 at 12:36:36 PM
; FORMAT={-:-/ absolute / inch / decimal}
; #@! TF.CreationDate,2020-12-13T12:36:36-06:00
; #@! TF.GenerationSoftware,Kicad,Pcbnew,(5.1.6-0-10_14)
FMAT,2
INCH
T1C0.0315
T2C0.0394
T3C0.0433
T4C0.0453
T5C0.1181
%
G90
G05
T1
X2.0374Y-4.9606
X2.0374Y-5.2606
X2.0374Y-5.5118
X2.0374Y-5.8118
X2.3622Y-4.0103
X2.687Y-4.9606
X2.687Y-5.2606
X2.687Y-5.5118
X2.687Y-5.8118
X2.5591Y-2.4841
X2.1654Y-2.4841
X2.0866Y-3.6173
X2.0866Y-3.9173
X2.0472Y-3.0071
X2.0472Y-3.3071
X2.6378Y-3.622
X2.6772Y-3.0071
X2.6772Y-3.3071
X2.3622Y-4.7148
X2.3622Y-5.7875
X2.6378Y-3.922
T2
X2.2638Y-5.4273
X2.2638Y-5.5258
X2.3622Y-5.4273
X2.3622Y-5.5258
X2.4606Y-5.4273
X2.4606Y-5.5258
X2.662Y-5.9665
X2.662Y-6.0665
X2.662Y-6.1665
X2.273Y-2.619
X2.373Y-2.619
X2.473Y-2.619
X2.2638Y-3.1966
X2.2638Y-3.295
X2.3622Y-3.1966
X2.3622Y-3.295
X2.4606Y-3.1966
X2.4606Y-3.295
X2.0866Y-4.2882
X2.0866Y-4.3882
X2.0866Y-4.4882
X2.6378Y-4.2882
X2.6378Y-4.3882
X2.6378Y-4.4882
T4
X2.3622Y-4.2811
X2.3622Y-4.6079
X2.3622Y-3.5766
X2.3622Y-3.9034
X2.3622Y-5.8944
X2.3622Y-6.2212
X2.5591Y-2.0504
X2.5591Y-2.3772
X2.1654Y-2.0504
X2.1654Y-2.3772
T5
X2.3622Y-4.4748
X2.3622Y-3.7703
X2.3622Y-6.0275
X2.5591Y-2.2441
X2.1654Y-2.2441
T3
G00X2.1752Y-5.1459
M15
G01X2.1752Y-5.1183
M16
G05
G00X2.5492Y-5.1459
M15
G01X2.5492Y-5.1183
M16
G05
G00X2.1752Y-2.9151
M15
G01X2.1752Y-2.8876
M16
G05
G00X2.5492Y-2.9151
M15
G01X2.5492Y-2.8876
M16
G05
T0
M30
